<svg width="86" height="84" viewBox="0 0 86 84" fill="none" xmlns="http://www.w3.org/2000/svg">
<g clip-path="url(#clip0_119_1068)">
<path d="M15.2292 0H70.7708C79.1917 0 86 6.82051 86 15.2564V68.7436C86 77.1795 79.1917 84 70.7708 84H15.2292C6.80833 84 0 77.1795 0 68.7436V15.2564C0 6.82051 6.80833 0 15.2292 0Z" fill="#00005B"/>
<path d="M34.5434 50.2564H21.2134L18.4901 58.7282C18.4184 59.0513 18.1318 59.2667 17.8093 59.2308H11.0726C10.6784 59.2308 10.5709 59.0154 10.6784 58.5846L22.2167 25.4513C22.3242 25.0923 22.4317 24.7692 22.5751 24.3385C22.7184 23.5846 22.7901 22.7949 22.7901 22.0051C22.7542 21.8256 22.8976 21.6462 23.0767 21.6103H23.1842H32.3576C32.6084 21.6103 32.7876 21.718 32.8234 21.8974L45.9026 58.5128C46.0101 58.9077 45.9026 59.0872 45.5442 59.0872H38.0551C37.8042 59.1231 37.5534 58.9436 37.4817 58.6923L34.5434 50.0769V50.2564ZM23.2917 43.1128H32.3934C32.1784 42.359 31.8917 41.4615 31.5692 40.5282C31.2467 39.559 30.9242 38.518 30.6017 37.441C30.2434 36.3282 29.9209 35.2513 29.5626 34.1385C29.2042 33.0256 28.8818 31.9846 28.5951 30.9436C28.3084 29.9385 28.0576 29.0051 27.8067 28.1436H27.7351C27.4126 29.6872 27.0184 31.2308 26.5167 32.7744C25.9792 34.4974 25.4417 36.2923 24.8684 38.0872C24.4026 39.918 23.8292 41.6051 23.2917 43.1128Z" fill="#9999FF"/>
<path d="M67.0083 47.0256H55.6491C55.7925 48.1385 56.1508 49.2513 56.7599 50.2205C57.4049 51.1897 58.3008 51.9436 59.3758 52.3744C60.8091 52.9846 62.3858 53.3077 63.9625 53.2718C65.2166 53.2359 66.4708 53.1282 67.6891 52.8769C68.7999 52.7333 69.875 52.4462 70.8783 52.0513C71.0575 51.9077 71.165 51.9795 71.165 52.3385V57.8308C71.165 57.9744 71.1291 58.1179 71.0933 58.2615C71.0216 58.3692 70.95 58.441 70.8425 58.5128C69.6958 59.0154 68.5133 59.3744 67.2591 59.5897C65.575 59.9128 63.8908 60.0564 62.1708 60.0205C59.4475 60.0205 57.1541 59.5897 55.2908 58.7641C53.535 58.0103 51.9941 56.8256 50.7758 55.3538C49.6291 53.9538 48.805 52.3744 48.3033 50.6513C47.8016 48.9641 47.5508 47.2051 47.5508 45.4103C47.5508 43.4718 47.8374 41.5692 48.4466 39.7026C49.0199 37.9077 49.9158 36.2564 51.1341 34.7846C52.3166 33.3487 53.7858 32.2 55.47 31.3744C57.1541 30.5487 59.1608 30.2615 61.4541 30.2615C63.3533 30.2256 65.2525 30.5846 67.0083 31.3744C68.4775 32.0205 69.7675 32.9897 70.7708 34.2462C71.7025 35.4667 72.455 36.8308 72.9208 38.3385C73.3866 39.7744 73.6016 41.2462 73.6016 42.7179C73.6016 43.5795 73.5658 44.3333 73.53 45.0154C73.4583 45.6974 73.4225 46.2 73.3866 46.5231C73.3508 46.7744 73.1358 46.9897 72.885 46.9897C72.67 46.9897 72.2758 47.0256 71.7025 47.0615C71.1291 47.1333 70.4483 47.1692 69.6241 47.1692C68.8 47.1692 67.94 47.0256 67.0083 47.0256ZM55.6491 41.7846H63.2099C64.1416 41.7846 64.8225 41.7846 65.2525 41.7487C65.5391 41.7128 65.8258 41.641 66.0766 41.4615V41.1026C66.0766 40.6359 66.005 40.2051 65.8616 39.7744C65.2166 37.7641 63.3175 36.4 61.2033 36.4718C59.2325 36.3641 57.3691 37.4051 56.4375 39.2C56.0075 40.0256 55.7566 40.8872 55.6491 41.7846Z" fill="#9999FF"/>
</g>
<defs>
<clipPath id="clip0_119_1068">
<rect width="86" height="84" fill="white"/>
</clipPath>
</defs>
</svg>
