<svg width="235" height="176" fill="none" xmlns="http://www.w3.org/2000/svg"><g clip-path="url(#clip0_38_30)"><path d="M112.389 103.635c-1.205.894-2.659 2.332-3.187 4.385-.382 1.525-.015 2.42-.147 4.385-.088 1.364-.441 3.286-1.572 5.574a28.208 28.208 0 00-11.985.132 27.864 27.864 0 00-7.27 2.801c.279.176.66.381 1.145.513 2.747.748 5.64-1.554 5.729-1.393.088.147-3.232 1.701-3.055 3.051.117.909 1.747 1.393 3.436 1.906 1.425.426 2.776.836 4.583.631 2.482-.279 4.201-1.525 4.964-2.171.735.367 1.822.851 3.188 1.276 2.511.763 5.977 1.819 8.283.382 1.498-.939 1.954-3.139 2.806-7.51 1.028-5.324 1.512-7.993.132-10.178-1.807-2.919-5.523-3.594-7.05-3.784z" fill="#fff" stroke="#161616" stroke-width="3" stroke-miterlimit="10"/><path d="M107.013 118.14a8.525 8.525 0 014.259 3.461c.147.235.529.015.382-.22a9.045 9.045 0 00-4.523-3.666c-.279-.103-.382.322-.118.425zM97.554 121.029a4.903 4.903 0 00-3.789 3.11c-.103.264.323.381.426.117.573-1.496 1.895-2.537 3.48-2.801.28-.044.162-.47-.117-.426zM99.61 122.496c-.63.381-1.218.821-1.777 1.291-.367.322-.778.704-.69 1.232.22 1.393 1.895 1.085 2.805.733.265-.103.147-.528-.117-.425-.397.146-.837.337-1.263.322-.69-.029-1.307-.689-.72-1.29.558-.587 1.293-1.056 1.983-1.496.235-.147.015-.528-.22-.367z" fill="#161616"/><path d="M126.092 85.58c-.749.25-1.704.63-2.776 1.159-.308.146-1.087.542-1.924 1.085-1.292.821-2.232 1.687-3.305 2.772-1.365 1.393-2.746 2.787-4.391 5.016-1.381 1.877-3.525 4.825-5.067 9.152a28.888 28.888 0 00-1.175 4.253 7.541 7.541 0 012.115-.836c3.304-.748 6.477.924 9.488 2.494a31.895 31.895 0 012.644 1.554l.969-4.766c.279-1.335.543-2.684.822-4.019.426-.367.999-.909 1.631-1.613 1.189-1.35 3.554-4.034 3.877-7.759.397-4.297-2.159-7.583-2.908-8.492z" fill="#DF701F"/><path d="M125.226 85.757c-1.572.234-2.923 1.07-4.142 2.038a36.975 36.975 0 00-3.966 3.608 42.425 42.425 0 00-6.242 8.287c-.147.25.235.469.382.22a41.557 41.557 0 015.992-8.023 45.066 45.066 0 013.569-3.329c1.337-1.1 2.762-2.127 4.524-2.39.279-.03.162-.455-.117-.411zM124.609 101.772a97.856 97.856 0 01-3.334 3.212c-.206.191.103.499.308.308a97.856 97.856 0 003.334-3.212c.191-.205-.117-.513-.308-.308z" fill="#161616"/><path d="M123.081 103.781c-.514 2.816-1.013 5.647-1.527 8.463.103-.044.22-.088.323-.132a25.161 25.161 0 00-7.696-3.608c-2.159-.587-4.906-1.159-6.757.469-.205.191.103.499.309.308 1.88-1.672 4.92-.792 7.05-.146a24.795 24.795 0 016.859 3.344c.117.073.294 0 .323-.132.514-2.816 1.013-5.647 1.527-8.463.059-.264-.367-.381-.411-.103z" fill="#161616"/><path d="M110.979 99.484c-1.528 2.977-3.437 6.043-3.569 9.489-.015.279.426.279.44 0 .132-3.358 2.013-6.35 3.511-9.269.117-.25-.265-.47-.382-.22z" fill="#161616"/><path opacity=".4" d="M124.036 93.94c-2.629 5.221-4.054 9.621-4.891 12.701-1.219 4.518-1.645 8.082-4.803 11.044a12.799 12.799 0 01-4.406 2.743c-4.994 1.804-8.695-.631-11.838 1.951-.353.293-1.395 1.026-1.278 1.862.118.792 1.204 1.203 1.366 1.276 1.292.499 2.629-.014 4.303-.689 1.895-.763 1.689-1.027 2.541-1.173 1.792-.308 2.615.821 4.994 1.569 1.013.308 4.01 1.247 6.169 0 1.586-.924 2.071-2.655 2.835-5.573.528-1.98 1.072-4.87.984-8.507l1.762 1.364c.764-6.189 1.513-12.379 2.262-18.568z" fill="#3D3D3D"/><path opacity=".38" d="M123.155 100.291c-2.012 3.798-2.997 7.01-3.525 9.181-1.058 4.356-.72 6.409-2.159 9.475-1.543 3.329-4.039 5.441-5.773 6.644.97.22 3.305.63 4.994-.69 1.19-.924 1.498-2.244 1.954-4.4a248.596 248.596 0 001.762-8.99l1.366.88c.47-4.019.925-8.067 1.381-12.1z" fill="#3D3D3D"/><path d="M125.784 85.287c-.529 3.446-1.043 6.922-1.542 10.413a1152.745 1152.745 0 00-5.024 39.923c.03.44.147 1.144.588 1.848.441.718 1.028 1.085 1.307 1.276 2.673 1.906 4.01 2.874 5.361 3.52 6.477 3.124 13.645 2.757 13.645 2.757 1.513-.073 4.523-.264 7.755-1.555.176-.073 1.41-.645 3.877-1.804 2.233-1.041 2.629-1.246 3.173-1.745 1.292-1.188 1.792-2.655 2.129-3.696.72-2.215.647-4.092.617-4.547 0 0-.147-3.652-.249-24.977-.015-4.341.411-10.721 2.702-18.597-2.379-1.159-4.612-2.23-7.3-3.52-1.85-.895-3.569-1.716-6.036-2.01-.705-.088-1.337-.117-2.277-.102-3.818.029-6.962.616-8.313.85-2.629.426-6.183 1.071-10.413 1.966z" fill="#DF701F"/><path d="M125.666 85.8a162.323 162.323 0 0113.762-2.317c.206-.03.324-.294.118-.411-.059-.03-.118-.073-.191-.103-.25-.146-.47.235-.22.382.058.029.117.073.191.102.044-.132.073-.278.117-.41-4.656.572-9.297 1.349-13.88 2.332-.293.058-.176.484.103.425zM124.3 93.485a1365.389 1365.389 0 00-4.406 34.555c-.161 1.452-.323 2.889-.485 4.341-.132 1.262-.499 2.684-.337 3.946.146 1.114 1.028 1.818 1.836 2.493a29.415 29.415 0 002.775 2.053c3.981 2.567 8.637 4.107 13.366 4.386 5.625.322 11.28-1.115 16.083-4.048.235-.147.015-.528-.22-.382-8.402 5.119-19.094 5.324-27.657.47a27.964 27.964 0 01-2.849-1.848c-.926-.69-2.424-1.628-2.806-2.758-.176-.542-.088-1.144-.029-1.716.073-.718.162-1.452.235-2.17.147-1.35.294-2.699.455-4.048.632-5.5 1.278-10.986 1.983-16.471a1329.04 1329.04 0 012.497-18.685c.029-.279-.397-.396-.441-.118zM145.935 82.441c2.585.514 5.008 1.702 7.417 2.714 2.365.997 4.994 1.804 7.08 3.329.235.161.455-.22.22-.381-2.042-1.496-4.612-2.288-6.918-3.256-2.497-1.042-5.008-2.288-7.682-2.831-.279-.059-.396.367-.117.425z" fill="#161616"/><path d="M157.45 107.316c-.235 6.175-.47 12.349-.25 18.509.103 2.992.573 6.102.015 9.079-.47 2.449-1.851 4.899-4.303 5.808-.265.103-.147.528.117.425 3.907-1.452 4.92-5.896 4.862-9.621-.03-2.523-.25-5.045-.309-7.583-.059-2.581-.029-5.148.015-7.729.059-2.963.176-5.925.279-8.888.029-.293-.411-.293-.426 0z" fill="#161616"/><path opacity=".38" d="M155.335 103.84a32.185 32.185 0 01-3.878 8.492c-8.415 12.921-23.823 15.503-27.759 16.045a1340.642 1340.642 0 0133.693 4.019 201.348 201.348 0 01-.279-15.811c.162-7.978.735-14.432-.308-14.637-.25-.059-.691.22-1.469 1.892z" fill="#3D3D3D"/><path opacity=".42" d="M157.142 108.636a60.976 60.976 0 01-2.527 6.292c-1.674 3.593-3.275 7.055-5.346 9.181-5.787 5.94-17.096 3.374-17.126 3.784-.014.235 4.128.895 25.043 2.816 0-7.362-.015-14.71-.044-22.073z" fill="#3D3D3D"/><path d="M183.491 169.107a596228.457 596228.457 0 00-161.724-21.546c15.906-9.21 31.828-18.421 47.734-27.632 48.631 4.782 97.276 9.578 145.906 14.359-10.649 11.601-21.282 23.217-31.916 34.819z" fill="#fff" stroke="#161616" stroke-width="3" stroke-miterlimit="10"/><path d="M21.238 148.808c54.035 7.157 108.071 14.315 162.091 21.472M182.301 170.603c11.324-11.954 22.648-23.922 33.958-35.875" stroke="#161616" stroke-width="16" stroke-miterlimit="10"/><path d="M164.265 139.187a451.396 451.396 0 00-16.2 13.273c-.221.191.103.499.308.308a465.04 465.04 0 0116.2-13.273c.221-.162-.088-.484-.308-.308z" fill="#161616"/><path d="M148.27 152.695c1.733.366 3.496.366 5.273.381 1.998.029 3.878.235 5.787.792 3.584 1.041 7.094 1.731 10.839 1.643.279 0 .279-.44 0-.44a31.57 31.57 0 01-5.757-.382c-1.792-.293-3.496-.821-5.244-1.305-1.674-.469-3.348-.689-5.096-.719-1.909-.044-3.819.015-5.699-.381-.264-.073-.382.352-.103.411zM164.588 139.509a110.89 110.89 0 0117.258 2.772c.279.074.397-.352.117-.425a110.334 110.334 0 00-17.375-2.787c-.279-.029-.279.411 0 .44z" fill="#161616"/><path d="M170.507 155.247a196.111 196.111 0 0011.765-12.672c.176-.22-.132-.528-.309-.308a203.983 203.983 0 01-11.764 12.672c-.206.205.103.513.308.308zM153.396 150.949a30.764 30.764 0 0114.908 1.863c.264.103.382-.323.118-.425a31.247 31.247 0 00-15.026-1.878c-.279.03-.279.47 0 .44zM161.048 149.336c3.114.235 6.184.719 9.224 1.437.279.074.397-.352.118-.425a59.021 59.021 0 00-9.342-1.452c-.293-.015-.279.425 0 .44zM158.713 146.095c4.685.102 9.327.777 13.85 2.024.279.073.397-.352.118-.426a57.603 57.603 0 00-13.968-2.038c-.279 0-.279.44 0 .44zM164.529 144.745c2.527.352 5.024.792 7.52 1.32.279.059.397-.366.118-.425a108.974 108.974 0 00-7.52-1.32c-.279-.044-.397.381-.118.425zM161.313 154.587c-.896 1.378-1.792 2.757-2.703 4.121-.088.132.03.352.191.337a61.906 61.906 0 0121.664 1.379c.279.073.397-.352.118-.425a62.563 62.563 0 00-21.782-1.408c.059.117.132.22.191.337a389.819 389.819 0 012.703-4.121c.161-.235-.221-.455-.382-.22z" fill="#161616"/><path d="M179.07 146.256l8.489-.176a3.306 3.306 0 01-.205-.279c-1.954 4.65-3.922 9.284-5.875 13.934-.103.264.323.381.426.117 1.953-4.649 3.921-9.284 5.875-13.933.058-.132-.088-.279-.206-.279l-8.489.176c-.294.015-.294.455-.015.44zM168.333 157.183a8.365 8.365 0 012.262-.118c.279.015.279-.425 0-.44a9.294 9.294 0 00-2.379.132c-.279.044-.162.47.117.426zM172.505 157.227c2.306.088 4.612.308 6.903.66.279.044.396-.382.117-.426a59.346 59.346 0 00-7.02-.674c-.279-.015-.279.425 0 .44zM172.637 154.469h1.645c.279 0 .279-.44 0-.44h-1.645c-.279 0-.279.44 0 .44z" fill="#161616"/><path d="M176.059 154.425c1.807.044 3.599.22 5.39.514.279.044.397-.382.118-.426a43.326 43.326 0 00-5.508-.528c-.279 0-.279.44 0 .44zM175.78 151.917c2.056.03 4.098.147 6.139.382.279.029.279-.411 0-.44a57.233 57.233 0 00-6.139-.382c-.279-.014-.279.426 0 .44zM161.988 156.787c.985.029 1.954-.088 2.923-.323.279-.073.162-.499-.117-.425-.926.234-1.851.337-2.806.308-.279 0-.279.44 0 .44zM168.965 133.804c-.382.469-.822 1.423-.367 1.995.279.352.808.278 1.204.293.72.029 1.44.073 2.159.103 2.923.132 5.831.278 8.754.41.279.015.279-.425 0-.44l-6.462-.308c-1.058-.044-2.101-.102-3.158-.146-.514-.03-1.058 0-1.572-.074-.382-.058-.661-.073-.646-.542.015-.367.176-.704.396-.983.177-.22-.132-.543-.308-.308z" fill="#161616"/><path d="M169.362 134.361c2.467.088 4.935.162 7.402.25 1.204.044 2.423.073 3.628.117 1.087.044 2.232.117 3.011.953.191.206.499-.102.308-.308-.587-.645-1.38-.894-2.232-1.012-1.263-.161-2.571-.132-3.848-.176-2.762-.088-5.523-.19-8.269-.278-.28.014-.28.454 0 .454z" fill="#161616"/><path d="M180.568 136.62a5.07 5.07 0 003.114-1.012c.22-.161 0-.543-.22-.381-.852.63-1.822.968-2.894.953-.294 0-.294.44 0 .44z" fill="#161616"/><path d="M180.921 134.361a1.693 1.693 0 00-.691 1.878c.074.264.5.161.426-.118-.147-.513.03-1.085.485-1.393.235-.147.015-.528-.22-.367z" fill="#161616"/><path d="M73.746 81.635c-.367-.763-1.41-.822-1.968-.25-.602.616-.881 1.804-.823 2.64.133 1.687 1.778 2.479 2.218 3.99.206.689 1.263.909 1.616.205.587-1.159 1.41-2.156 2.144-3.212.646-.939 1.63-2.39 1.278-3.593-.147-.514-.602-.954-1.16-1.012-.676-.074-1.146.337-1.543.836a10.43 10.43 0 00-1.042 1.613c-.265.499-.47 1.085-.984 1.364.425.176.866.352 1.292.528-.19-.63-.382-1.261-.558-1.877-.485.278-.984.572-1.469.85a1.88 1.88 0 002.585.22c.367-.293.573-.689.823-1.07.117-.176.22-.338.396-.455a1.32 1.32 0 01.412-.19c.293-.015.279-.045-.03-.089-.147-.249-.294-.513-.44-.762v.102c.22-.278.425-.572.646-.85-.03.014-.059.014-.088.029-1.073.337-.617 2.039.47 1.701.029-.014.058-.014.088-.029.396-.117.617-.455.646-.85v-.103c.015-.308-.19-.602-.44-.763-.735-.47-1.822-.015-2.424.47-.338.278-.573.6-.808.967-.147.235-.308.734-.587.411-.588-.66-1.719.044-1.47.85.192.631.383 1.262.559 1.878a.89.89 0 001.293.528c.749-.396 1.16-1.085 1.527-1.819.22-.425.44-.836.72-1.217.044-.073.44-.484.426-.557-.382-.323-.573-.308-.603.044-.029.117-.073.22-.117.322-.734 1.775-2.203 3.124-3.07 4.826.544.073 1.073.146 1.616.205-.28-.953-.91-1.643-1.513-2.405-.25-.323-.529-.675-.617-1.071a1.603 1.603 0 01.044-.792c.044-.176.103-.337.177-.499.25-.352 0-.44-.735-.249.485 1.041 1.998.147 1.513-.865z" fill="#DF9F1F"/><path d="M74.7 86.445a29.12 29.12 0 003.364-4.986c.529-.998-.999-1.892-1.527-.895-.867 1.657-1.88 3.212-3.085 4.635-.72.865.514 2.112 1.249 1.246z" fill="#DF701F"/><path d="M78.182 61.556c-.235 1.54-.177 3.05.235 4.561.22.822 1.498.47 1.277-.352-.337-1.261-.44-2.566-.235-3.857.118-.836-1.16-1.188-1.277-.352z" fill="#486F9A"/><path d="M78.68 62.23c1.617.69 2.91-.66 2.968-2.243 0-.147-.088-.543-.03-.675h-.073a.453.453 0 01.294.25c.235.293.352.674.602.967.514.602 1.219.69 1.968.734.367.014.808-.03 1.028.322.22.338.103.91.074 1.291-.03.528-.074 1.07-.118 1.599-.014.132-.147.63.044.44-.117.132-.602.161-.763.205-.97.22-1.969.308-2.953.25-.514-.03-1.292.029-1.586-.426-.264-.425-.28-1.07-.206-1.555-.396.059-.807.103-1.204.162.353.777.69 1.554 1.043 2.346.235.514 1.087.367 1.204-.161.353-1.584-.132-3.241.367-4.796-.367.103-.734.19-1.101.293.426.514.323 1.614.426 2.244.117.734.323 1.408.66 2.054.31.557 1.279.322 1.234-.338-.117-1.76-.235-3.534-.337-5.294-.426.058-.867.117-1.293.176.617 1.657.705 3.388.22 5.089l.97-.396c-.823-.63-1.44-1.452-1.865-2.39-.28-.602-1.264-.294-1.234.337.03.586.044 1.173.073 1.76h1.322c-.03-.734 0-1.452.147-2.171.059-.25.117-.513.19-.763.045-.161.104-.337.162-.498.191-.235.162-.323-.088-.264.705.997.793 2.493.676 3.652.411-.118.822-.22 1.234-.338a6.703 6.703 0 01-.647-2.185 6.429 6.429 0 01-.029-1.188c0-.059.073-.47.044-.499-.103.015-.206.015-.308.03.058.117.117.22.176.337.676 1.379.881 2.933.72 4.459.41-.118.822-.22 1.233-.338a7.741 7.741 0 01-.587-1.789c-.044-.264-.074-.528-.044-.792a2.34 2.34 0 01.088-.44c.162-.176.176-.25.044-.205-.176-.03-.338-.044-.514-.074.235.118.382 1.276.426 1.54.088.631.073 1.291-.015 1.922H84.6a8.213 8.213 0 01-.352-1.438c-.074-.469-.03-.953-.177-1.408.323 1.012.265 2.083-.03 3.08.398-.058.809-.102 1.205-.161a4.923 4.923 0 01-.396-1.217c-.044-.206-.059-.411-.074-.616 0-.088-.014-.176 0-.264.044-.206-.058-.22-.293-.059l-.397-.308c.837 1.437-.837 3.036-2.262 2.83.162.206.323.426.485.631-.015-.264-.103-.645-.015-.894l-.308.396c-.25.161 1.087-.03.528-.088-.763-.074-.88 1.1-.176 1.29.705.191 1.351.572 2.1.484.647-.073 1.131-.454 1.396-1.026.279-.602.338-1.306.25-1.966a3.428 3.428 0 00-.28-1.026 5.965 5.965 0 00-.205-.44 2.549 2.549 0 00-.162-.264c-.058-.132-.088-.103-.058.088.41.117.822.22 1.233.337.015-.279.044-.543.059-.821-.426.058-.867.117-1.293.176.25.733.206 1.408-.088 2.126-.323.792.955 1.13 1.278.352a4.083 4.083 0 00.088-2.83c-.235-.719-1.248-.572-1.292.176-.015.278-.044.542-.059.821-.044.645.955.924 1.234.337.323-.704.235-1.613-.514-2.009-.647-.337-1.513-.044-1.822.616-.425.91.53 1.716.617 2.596.044.41.044 1.232-.41 1.437-.441.191-1.279-.322-1.69-.44-.059.426-.117.866-.176 1.291 1.336.117 1.366-1.643.44-2.215-.455-.278-1.072-.498-1.556-.205-.603.367-.426 1.1-.412 1.687.015.264.191.601.485.63 2.35.338 4.494-1.54 4.039-3.989-.088-.484-.279-1.027-.823-1.13-.455-.087-.91.177-1.101.587-.485 1.042.088 2.582.529 3.535.25.543 1.057.352 1.204-.161.294-.983.382-1.995.206-3.007-.133-.763-.368-1.76-1.322-1.79-2.13-.043-1.249 3.447-.881 4.547.19.558 1.16.69 1.277 0 .177-1.129.162-2.258-.132-3.373-.176-.66-.528-1.95-1.483-1.613-.764.278-.999 1.378-.999 2.097 0 1.056.382 2.097.823 3.021.308.66 1.175.25 1.233-.337a9.371 9.371 0 00-.323-3.667c-.25-.836-.705-2.522-1.821-2.478-1.087.029-1.146 1.422-1.146 2.214 0 1.276.323 2.508.881 3.667.309.645 1.175.25 1.234-.337a7.364 7.364 0 00-.308-3.095c-.235-.733-.617-1.79-1.498-1.892-.97-.103-1.308 1.012-1.528 1.73-.323 1.057-.426 2.171-.382 3.286.044.85 1.352.85 1.322 0-.03-.587-.044-1.173-.073-1.76-.412.117-.823.22-1.234.337.529 1.159 1.337 2.098 2.335 2.86.353.264.867-.029.97-.396a9.102 9.102 0 00-.22-5.793c-.25-.645-1.352-.616-1.293.176.117 1.76.235 3.535.338 5.295.41-.118.822-.22 1.233-.338-.763-1.422-.25-3.314-1.292-4.576-.338-.41-.97-.146-1.102.294-.514 1.569-.014 3.212-.367 4.796.397-.059.808-.103 1.205-.162-.353-.777-.69-1.554-1.043-2.346-.22-.499-1.117-.382-1.205.161-.161 1.027-.088 2.464.808 3.168.411.323.955.352 1.469.41.69.074 1.395.103 2.1.06a13.13 13.13 0 001.998-.294c.44-.103 1.028-.176 1.336-.528.397-.425.323-1.115.367-1.657.045-.646.118-1.276.133-1.922.014-1.056-.412-1.98-1.498-2.244-.441-.102-.896-.044-1.352-.117-.705-.103-.778-.704-1.16-1.203-.485-.645-1.528-1.056-2.188-.425-.426.41-.338.939-.324 1.467.015.469-.22 1.657-.969 1.334-.896-.205-1.572.939-.793 1.262zM39.759 69.535c1.028.938 1.998 1.95 2.835 3.065.558.733 1.13 2.2 2.13 2.405.587.118 1.057-.19 1.498-.542.602-.484 1.19-.983 1.791-1.482.603-.498 1.19-.982 1.792-1.481.426-.352.91-.675.94-1.276.03-.572-.337-.997-.675-1.423-.47-.601-.955-1.202-1.425-1.804-.47-.601-.955-1.202-1.425-1.804-.352-.44-.675-1.026-1.263-1.158-.529-.118-1.013.19-1.454.425-.587.308-1.16.66-1.704 1.027a19.42 19.42 0 00-2.981 2.508c-.28.293-.25.836.132 1.041.955.484 1.865 1.056 2.688 1.76.367.308.72.645 1.057.997.162.176.323.352.485.543.103.117.206.25.308.367.133.352.324.337.559-.074.058.396.102.807.161 1.203a18.692 18.692 0 004.127-3.388c.5-.557-.132-1.408-.807-1.041a18.447 18.447 0 01-3.188 1.364l.75.968a10.9 10.9 0 012.276-2.582c-.353-.264-.69-.528-1.043-.806a12.83 12.83 0 01-2.981 3.124l.969.748c.382-1.379 1.16-2.596 2.32-3.462l-.91-.909c-.661 1.305-1.586 2.42-2.776 3.27h.66c.045.045.074.103.118.147.03-.117.06-.234.089-.337a7.769 7.769 0 01.646-1.584c.367-.69.822-1.29 1.366-1.848-.353-.264-.69-.528-1.043-.807a13.03 13.03 0 01-3.202 4.166c.382.161.75.308 1.131.469a7.481 7.481 0 012.13-4.561c-.353-.264-.69-.528-1.043-.807a6.612 6.612 0 01-2.63 2.757c.339.191.662.382 1 .572-.015-.528.058-1.041.308-1.51.103-.206.235-.396.382-.558.235-.278.675-.352.264-.616-.19-.234-.294-.22-.308.074-.074.146-.132.293-.206.44-.117.22-.235.425-.352.63-.133.206-.265.411-.412.602-.117.146-.22.293-.352.44-.206.117-.22.205-.044.249l.308.396c-.147-.47.338-1.35.558-1.745.133-.22.896-1.482 1.234-1.408.162.029.382.85.44.997.118.323.221.66.294.997.074.338.162.69.162 1.027 0 .396 0 .41-.323.132-.925-.792-1.028-2.801.338-3.256.69-.235.896.645 1.057 1.144.235.719.456 1.452.69 2.185.368-.22.735-.425 1.102-.645a4.243 4.243 0 01-1.292-2.992c-.28.205-.559.425-.837.63 1.542.587 1.791 2.523 1.997 3.931.117.836 1.395.484 1.278-.352-.294-1.994-.837-4.077-2.923-4.854-.397-.147-.852.234-.837.63a5.616 5.616 0 001.674 3.916c.456.455 1.307 0 1.102-.645-.265-.836-.5-1.672-.793-2.493-.206-.587-.47-1.203-1.014-1.555-1.175-.777-2.556.103-3.158 1.173a3.366 3.366 0 00.426 3.858c.779.865 2.291 1.334 2.718-.118.381-1.29-.28-3.197-.926-4.312-.881-1.496-2.335-.366-3.084.602a6.22 6.22 0 00-.925 1.672c-.206.557-.544 1.466-.133 2.009.97 1.261 2.365-.88 2.79-1.584.368-.587.897-1.393.809-2.127-.088-.689-.735-1.012-1.352-.748-1.35.587-2.041 2.391-1.982 3.755a.671.671 0 00.998.572 7.997 7.997 0 003.1-3.227c.337-.645-.5-1.349-1.043-.806-1.47 1.496-2.321 3.402-2.512 5.485-.059.616.735.807 1.131.47a13.938 13.938 0 003.407-4.43c.309-.645-.484-1.364-1.042-.807a9.675 9.675 0 00-1.998 3.022c-.308.748-.955 2.17.044 2.684.206.102.47.132.661 0 1.38-.983 2.497-2.23 3.26-3.74.265-.528-.322-1.335-.91-.91-1.44 1.086-2.453 2.523-2.923 4.254-.147.513.485 1.1.97.748a14.406 14.406 0 003.466-3.594c.44-.66-.5-1.246-1.043-.806a11.516 11.516 0 00-2.482 2.845c-.308.484.206 1.144.75.968 1.218-.381 2.393-.88 3.51-1.496-.265-.352-.53-.69-.808-1.041a17.118 17.118 0 01-3.863 3.182c-.529.323-.353.998.161 1.203.617.25 1.278-.25 1.307-.88.045-.763-.748-1.481-1.218-1.98a14.468 14.468 0 00-4.172-3.124l.132 1.041a19.62 19.62 0 012.203-1.936c.706-.528 1.587-1.232 2.424-1.51.25-.088.235-.132.44.073.206.205.368.455.53.675.322.41.66.836.983 1.246.353.455.72.91 1.073 1.364.19.25.969.998.91 1.276-.058.323-.866.792-1.13 1.012l-1.235 1.012c-.41.338-.822.675-1.233 1.012-.176.147-.558.572-.867.411-.117-.059-.323-.499-.396-.601-1.072-1.614-2.35-3.066-3.775-4.371-.587-.513-1.528.41-.896.983z" fill="#486F9A"/><path d="M40.464 68.361c.529 1.027 3.848 6.747 5.258 4.796.5-.689-.646-1.349-1.145-.66-.03.03-.044.074-.074.103.191-.103.382-.22.573-.323-.25.03-.852-.806-1.014-.997-.323-.367-.646-.733-.94-1.13a18.325 18.325 0 01-1.512-2.449c-.382-.762-1.528-.088-1.146.66z" fill="#094067"/><path d="M66.74 50.248c-1.572-1.144-2.174-3.49-1.19-5.207.485-.85 1.366-1.54 2.394-1.422 1.058.117 1.572.88 1.645 1.877.044.557-.014 1.13-.029 1.687-.03.528.03 1.144-.118 1.657-.146.513-.675.792-.88 1.305-.177.44.014.822-.5.968-.147.044-.353.03-.485.074-.235-.03-.235.014 0 .117-.059-.19-.103-.367-.161-.557-.191-.646-.382-1.306-.573-1.951-.323-1.085-.999-2.684-.147-3.696-.353.044-.705.088-1.072.132.514.381.323 1.936.352 2.464l.132 3.3c.044 1.159 1.645 1.115 1.763 0 .117-1.159-.044-2.303-.088-3.476a7.422 7.422 0 01.044-1.51c.03-.25.088-.485.161-.72.044-.16.118-.322.191-.469.162-.249.162-.278.015-.088-.22.03-.455.059-.676.088-.044-.014.162.528.191.646.06.22.088.454.118.674.059.616.059 1.247.03 1.863a8.764 8.764 0 01-.089.85l-.088.529c-.147.352.103.44.75.22.058-.118-.104-.587-.118-.719a6.678 6.678 0 01-.03-.939 7.929 7.929 0 01.382-2.273c.22-.381-.015-.513-.705-.381-.059.102.176.66.206.762.132.616.161 1.247.102 1.878-.029.293-.058 1.246-.396 1.32-1.102.264-.632 1.965.47 1.701 1.16-.279 1.483-1.452 1.63-2.493.162-1.232.103-2.626-.367-3.784-.455-1.115-1.792-1.13-2.38-.103-.587 1.027-.719 2.479-.704 3.637.014.939.03 2.552 1.16 2.89 1.248.366 1.69-.983 1.821-1.922.176-1.232.22-2.493.015-3.725-.147-.91-.734-2.655-1.983-2.317-1.204.308-1.44 2.405-1.498 3.402-.073 1.496.25 2.978.103 4.474H67.9a448.938 448.938 0 00-.19-4.444c-.045-1.13-.22-2.127-1.176-2.831-.279-.22-.837-.132-1.072.132-.97 1.144-1.043 2.552-.705 3.96.176.763.426 1.525.646 2.273.206.704.324 1.555.705 2.171.603.997 2.277.763 3.144.25.455-.265.763-.705.88-1.218.074-.323.045-.455.25-.719.236-.293.47-.528.617-.88.25-.557.265-1.173.294-1.76.03-.733.103-1.481.088-2.229-.03-1.305-.455-2.537-1.586-3.285-2.174-1.438-4.906-.103-5.934 2.068-1.204 2.566-.235 5.602 2.012 7.245.896.69 1.778-.836.867-1.496z" fill="#DF701F"/><path d="M66.652 54.135c.294.469.822.645 1.351.484.235-.074.44-.206.617-.367.044-.044.103-.088.147-.147.044-.044.03-.044-.03.015.28-.147.06-.19-.646-.161.353.293.91.366 1.249 0 .308-.323.367-.924 0-1.247-.426-.367-.97-.425-1.47-.132-.16.088-.322.22-.44.367-.103.132.132-.088-.03.029.03-.015.06-.03.09-.03-.31.074-.09.177.66.309-.25-.396-.793-.587-1.204-.323-.368.25-.558.792-.294 1.203z" fill="#DF701F"/><path d="M67.063 55.293v.132c0 .22.103.47.264.616a.947.947 0 00.617.264c.235-.014.47-.088.617-.264.162-.176.265-.381.265-.616v-.132c0-.22-.103-.469-.265-.616a.948.948 0 00-.617-.264c-.235.015-.47.088-.617.264a.852.852 0 00-.264.616zM58.339 39.072a266.64 266.64 0 0011.118-14.168c-.338.132-.66.264-.998.41.337.103.587.28.837.529-.044-.352-.089-.704-.133-1.071-3.392 4.84-6.77 9.665-10.163 14.505.396-.102.807-.205 1.204-.322a28.528 28.528 0 01-.881-.543c.103.396.206.807.323 1.203a60.225 60.225 0 004.23-6.278c.573-.982-.955-1.862-1.527-.894a61.82 61.82 0 01-4.23 6.277c-.294.381-.045.983.323 1.203.293.176.587.352.88.542.427.264.94.074 1.205-.322 3.393-4.84 6.771-9.666 10.164-14.506.22-.322.117-.806-.132-1.07a3.761 3.761 0 00-1.616-.983c-.396-.132-.764.088-.999.41a251.634 251.634 0 01-10.839 13.802c-.734.895.514 2.156 1.234 1.276zM48.454 88.939v-.132c0-1.13-1.763-1.13-1.763 0v.132c0 1.144 1.763 1.144 1.763 0v-.132c0-1.13-1.763-1.13-1.763 0v.132c0 1.144 1.763 1.144 1.763 0zM34.383 76.663c1.131 0 1.131-1.76 0-1.76-1.13 0-1.13 1.76 0 1.76z" fill="#DF701F"/><path d="M38.364 77.44c.852 0 .852-1.32 0-1.32s-.852 1.32 0 1.32zM92.34 43.912c.852 0 .852-1.32 0-1.32s-.852 1.32 0 1.32zM100.624 63.859v.249c0 .176.073.352.191.47.117.117.308.205.47.19.176-.015.352-.059.47-.19a.703.703 0 00.191-.47v-.25a.676.676 0 00-.191-.469c-.118-.117-.308-.205-.47-.19-.176.014-.353.058-.47.19a.703.703 0 00-.191.47z" fill="#486F9A"/><path d="M95.293 53.387c2.496.396 5.992 1.554 5.067 4.81-.426 1.496-1.601 2.567-2.762 3.52-1.145.924-2.276 1.834-3.319 2.875a27.477 27.477 0 00-2.746 3.227c-.661.909-1.572 2.038-1.47 3.256.089 1.085 1.044 1.349 1.91 1.686 1.249.484 2.57 1.335 3.055 2.64.646 1.76-.705 3.315-1.983 4.356-1.145.939-2.394 1.746-3.172 3.036-.147.25.235.47.382.22 1.395-2.346 4.95-3.285 5.346-6.248.162-1.158-.367-2.244-1.204-3.021-.412-.396-.896-.719-1.396-.997-.602-.323-1.307-.455-1.894-.792-1.645-.954.41-3.388 1.116-4.312a26.02 26.02 0 013.393-3.682c1.997-1.818 5.126-3.432 5.346-6.468.22-3.08-3.085-4.121-5.523-4.502-.308-.074-.426.352-.146.396zM51.906 52.917a55.49 55.49 0 01-8.828 8.683c-3.201 2.508-6.682 4.503-10.222 6.483-3.26 1.833-6.55 3.71-9.341 6.248-1.249 1.129-2.63 2.449-3.334 4.018-.544 1.218-.588 2.802.807 3.432.764.338 1.66.22 2.453.088 1.293-.22 2.57-.498 3.848-.748 1.308-.249 2.615-.513 3.922-.762 1.248-.235 3.584-.455 3.642 1.408.015.278.456.278.441 0-.059-1.731-1.91-2.171-3.334-1.995-2.174.279-4.318.821-6.477 1.232-1.513.293-5.552 1.51-5.258-1.379.19-1.862 1.953-3.476 3.23-4.693 2.703-2.552 5.95-4.444 9.18-6.263 3.393-1.906 6.772-3.784 9.885-6.13a56.46 56.46 0 009.665-9.328c.205-.206-.103-.514-.28-.294zM28.538 83.043c-1.293 1.554-2.805 3.388-2.57 5.544.176 1.657 1.365 3.212 3.157 3.094 1.146-.073 2.16-.704 3.158-1.188 1.249-.601 2.526-1.144 3.848-1.54 1.307-.381 2.673-.63 4.04-.66 1.086-.014 2.32.059 3.23.734 1.381.997.53 2.493-.205 3.608a26.738 26.738 0 00-1.91 3.329c-.499 1.056-.94 2.156-1.292 3.27-.264.837-.573 1.819.074 2.553 1.38 1.598 3.48.234 4.64-.851 1.778-1.657 3.702-3.036 5.92-4.063a21.762 21.762 0 017.902-1.965c1.38-.073 2.776-.03 4.142.19 1.219.191 2.585.573 3.157 1.79.118.25.5.03.382-.22-.793-1.716-2.967-1.98-4.641-2.141-2.188-.206-4.42-.044-6.565.425a22.056 22.056 0 00-6.154 2.347c-.94.528-1.822 1.129-2.673 1.789-.955.748-1.763 1.672-2.732 2.361-.867.616-2.718 1.071-3.232-.278-.25-.66.074-1.423.28-2.068.22-.675.47-1.335.748-1.98a25.027 25.027 0 011.704-3.3c.573-.924 1.425-1.863 1.63-2.963.338-1.79-1.424-2.713-2.937-2.933-2.247-.308-4.627.205-6.742.968-1.292.469-2.511 1.07-3.745 1.672-1.278.63-2.864 1.114-3.95-.132-2.028-2.318.102-5.236 1.644-7.099.191-.205-.117-.513-.308-.293z" fill="#161616"/><path d="M36.983 90.464c1.38-.44 2.6.91 2.63 2.215.029 1.378-.882 2.566-1.793 3.505-.205.205.118.513.309.308 1.116-1.144 2.276-2.772 1.836-4.473-.353-1.335-1.704-2.42-3.1-1.98-.264.088-.161.513.118.425zM88.287 52.624c.675.557 1.468.675 2.305.85.911.191 1.704.543 2.336 1.247 1.19 1.335 1.557 3.344.675 4.928-.132.25.235.47.382.22.852-1.525.676-3.402-.264-4.84-.44-.674-1.058-1.261-1.807-1.613-1.057-.499-2.379-.337-3.319-1.1-.22-.176-.529.132-.308.308zM34.428 83.864c.837 2.244 3.495 1.672 5.125.792a12.955 12.955 0 002.864-2.097c.911-.895 1.645-1.951 2.541-2.86.985-.998 2.365-1.907 3.849-1.658 1.336.22 2.144 1.408 2.996 2.318 1.116 1.173 3.363 2.376 4.494.513.147-.25-.235-.47-.382-.22-.72 1.173-2.247.763-3.128.059-.793-.646-1.366-1.526-2.145-2.186-1.468-1.261-3.304-1.144-4.861-.088-1.718 1.159-2.761 3.08-4.333 4.415-.925.777-1.997 1.496-3.143 1.921-1.22.455-2.923.426-3.452-1.012-.102-.278-.528-.161-.425.103zM38.1 70.195a21.483 21.483 0 014.67 5.734c.132.25.514.03.382-.22a21.36 21.36 0 00-4.744-5.822c-.206-.191-.529.132-.309.308z" fill="#161616"/><path d="M38.481 69.725c1.587-2.097 3.834-4.238 6.33-5.192.397-.146.852-.278 1.278-.176.53.118.838.572 1.146.983.44.572.867 1.159 1.293 1.745a59.201 59.201 0 012.379 3.623c.147.235.529.015.382-.22a61.831 61.831 0 00-3.026-4.503c-.808-1.1-1.542-2.39-3.114-2.024-1.366.323-2.673 1.32-3.745 2.156a19.09 19.09 0 00-3.32 3.388c-.146.22.236.44.397.22z" fill="#161616"/><path d="M43.034 76.12a22.883 22.883 0 007.888-5.485c.19-.206-.118-.514-.309-.308a22.168 22.168 0 01-7.696 5.368c-.264.117-.147.542.117.425zM40.185 70.019a22.374 22.374 0 015.596-3.711c.25-.117.03-.499-.22-.381a22.727 22.727 0 00-5.684 3.784c-.22.176.102.498.308.308zM41.404 70.752c.91-.66 1.821-1.305 2.732-1.965.235-.162.015-.543-.22-.382-.911.66-1.822 1.306-2.732 1.966-.235.176-.015.557.22.381zM42.02 71.764c1.528-1.07 3.056-2.156 4.583-3.227.235-.161.015-.542-.22-.381-1.527 1.07-3.055 2.156-4.582 3.227-.235.161-.015.542.22.381zM43.313 72.967a27.34 27.34 0 012.953-2.068c.25-.147.014-.528-.22-.382a24.5 24.5 0 00-3.041 2.127c-.22.19.088.499.308.323zM43.99 74.17a22.683 22.683 0 014.479-2.846c.25-.117.03-.499-.22-.381a23.226 23.226 0 00-4.568 2.918c-.22.176.088.484.308.308zM74.187 83.38c.72-.91-.133-2.024-1.087-2.288-1.146-.323-2.453.22-3.026 1.247-.646 1.144-.382 2.64.455 3.608 1.073 1.261 3.863 2.024 3.364 4.106-.074.279.352.396.426.118.573-2.376-2.291-3.11-3.481-4.532-.837-1.012-.984-2.714.073-3.638.426-.366 1.028-.586 1.587-.557.66.03 2.085.748 1.395 1.643-.191.205.117.513.294.293z" fill="#161616"/><path d="M74.422 83.292a3.424 3.424 0 011.072-2.039c.279-.264.602-.469.954-.63.177-.074.368-.147.559-.191.41-.088.499-.088.837.205.338.308.352.396.338.822 0 .161-.03.322-.044.469a4.302 4.302 0 01-.236.85c-.22.602-.558 1.16-.91 1.687-1.263 1.878-3.07 3.594-3.173 5.984-.014.279.426.279.441 0 .132-3.212 3.466-5.06 4.23-8.052.147-.572.264-1.305.015-1.862-.309-.646-.984-.675-1.601-.528-1.498.352-2.644 1.657-2.879 3.168-.073.278.352.41.397.117zM76.918 61.145c-.264 1.423-.323 2.919 0 4.342.309 1.364 1.293 1.07 2.424 1.144 2.57.176 5.978 1.804 7.667-1.1.147-.25-.235-.47-.382-.22-1.44 2.478-4.465 1.261-6.668.953-.514-.073-.999-.073-1.513-.059-.793 0-1.028-.381-1.146-1.085-.22-1.276-.19-2.567.06-3.843.028-.293-.397-.41-.442-.132z" fill="#161616"/><path d="M76.977 61.85c.793-.485 1.484-.573 2.38-.72.381-.058.631-.205.69-.6.161-.998-.264-2.025.529-2.875.88-.954 2.07-.103 2.438.865.176.455.279.983.631 1.35.456.483 1.058.351 1.63.513 2.218.601 1.557 3.461 1.087 5.001-.088.264.338.381.426.117.5-1.598 1-3.593-.337-4.928-.22-.22-.47-.396-.75-.513-.425-.176-.895-.088-1.336-.25-.852-.307-.837-1.569-1.351-2.214-.926-1.144-2.512-.983-3.143.352-.177.367-.235.748-.265 1.144-.03.47.191 1.408-.308 1.599-.353.146-.896.088-1.278.205a5.462 5.462 0 00-1.263.572c-.235.161-.015.543.22.381z" fill="#161616"/><path d="M78.725 61.395a8.831 8.831 0 00.837 5.016c.118.249.5.029.382-.22a8.31 8.31 0 01-.778-4.796c.044-.279-.397-.279-.441 0zM64.596 51.641c-1.895-.88-3.026-2.918-2.923-5.001.117-2.127 1.557-4.063 3.393-5.075 1.145-.63 2.364-.821 3.525-.146 1.057.601 1.806 1.642 2.232 2.757.764 2.024.485 4.327-.72 6.13-.161.235.22.455.382.22 1.998-2.977 1.543-8.154-2.115-9.694-1.836-.777-3.79.264-5.111 1.555-1.292 1.261-2.13 3.065-2.027 4.884.118 2.009 1.293 3.901 3.129 4.766.264.103.484-.278.235-.396z" fill="#161616"/><path d="M64.39 52.17c-.382.41-.28 1.04.19 1.349.765.498 2.087.044 2.894-.147.867-.205 2.174-.396 2.762-1.159.352-.469.352-1.114-.103-1.51-.22-.176-.529.132-.309.308.676.572-.205 1.232-.734 1.437-.44.161-.896.293-1.351.41a19.84 19.84 0 01-1.278.28c-.264.043-.558.117-.823.131-.382.015-1.483-.19-.925-.777.191-.22-.117-.528-.323-.323z" fill="#161616"/><path d="M65.242 53.739c.059.865.793 1.422 1.645 1.481 1.175.073 2.056-.91 2.746-1.716.177-.22-.132-.528-.308-.308-.485.572-1.028 1.232-1.748 1.481-.734.264-1.821-.029-1.88-.938-.03-.279-.47-.279-.455 0z" fill="#161616"/><path d="M66.432 55.381c-.118.602.25 1.232.88 1.335.647.103 1.205-.47 1.22-1.085 0-.279-.44-.279-.44 0 0 .366-.353.733-.75.645-.338-.073-.558-.455-.484-.777.058-.279-.368-.396-.426-.118zM63.42 46.097a7.585 7.585 0 012.85 3.3c.118.264.5.03.382-.22a7.914 7.914 0 00-3.011-3.461c-.25-.147-.47.235-.22.381z" fill="#161616"/><path d="M65.683 45.027c.279 2.112.572 4.224.851 6.321.044.279.456.161.426-.117-.279-2.112-.572-4.224-.852-6.322-.044-.278-.455-.161-.425.118z" fill="#161616"/><path d="M66.446 48.62a5.223 5.223 0 012.512-3.197c.25-.132.03-.514-.22-.382a5.689 5.689 0 00-2.718 3.462c-.073.278.353.396.426.117zM50.437 86.328a45.199 45.199 0 001.924 3.755c.352.601.822 1.745 1.689 1.378.264-.117.03-.484-.22-.381-.558.235-1.557-2.039-1.748-2.405a41.534 41.534 0 01-1.263-2.567c-.118-.264-.5-.044-.382.22z" fill="#161616"/><path d="M50.833 86.592c1.249-.968 2.468-1.965 3.731-2.904 1.102-.836 2.291-1.643 3.643-2.024 1.454-.425 2.717-.088 3.686 1.085.823.998 1.322 2.23 1.88 3.374.118.249.5.029.382-.22-1.072-2.2-2.335-5.31-5.346-4.826-1.498.235-2.85 1.056-4.069 1.936-1.44 1.056-2.82 2.186-4.23 3.286-.205.161.103.469.323.293z" fill="#161616"/><path d="M53.448 91.505a23.732 23.732 0 0010.37-5.177c.22-.19-.104-.499-.31-.308a23.41 23.41 0 01-10.178 5.075c-.279.058-.161.484.118.41zM57.017 87.37c-.779-.191-1.425-.954-1.234-1.79.176-.807 1.16-1.393 1.939-1.012 1.571.792.5 3.05-1.116 2.479-.265-.088-.382.337-.118.425.91.323 2.012-.117 2.365-1.041.352-.91-.22-2.01-1.116-2.332-.97-.352-2.071.308-2.35 1.276-.324 1.085.47 2.156 1.512 2.42.28.073.397-.352.118-.426zM64.845 76.237c-.176-1.569-.19-3.358 1.675-3.784.94-.22 1.718-.498 2.261-1.364.559-.88.485-1.701.265-2.669-.162-.763-.147-1.423.47-1.995.5-.454 1.16-.63 1.806-.425.265.088.382-.337.118-.425-.94-.294-1.924.073-2.526.85-.926 1.218.161 2.45-.206 3.755a2.541 2.541 0 01-1.6 1.701c-.632.206-1.308.191-1.837.631-1.116.91-1.013 2.45-.866 3.725.03.279.47.279.44 0zM61.262 68.024c-.456-.367-.089-1.188.499-.88.235.117.382.396.25.645-.133.25-.47.382-.72.25s-.47.249-.22.381c.455.22 1.013.059 1.292-.352.294-.44.103-.997-.323-1.261-.426-.264-.999-.191-1.278.249-.25.41-.19.983.191 1.29.22.162.529-.146.309-.322zM81.354 45.29c-.264-.425-.426-.967-.264-1.451a.914.914 0 01.97-.616c.47.044.719.484.47.894-.221.382-.677.572-1.103.514-.279-.03-.279.41 0 .44.632.073 1.322-.308 1.557-.91a.984.984 0 00-.616-1.32c-.53-.176-1.175.03-1.499.484-.484.66-.293 1.555.103 2.215.147.205.529-.015.382-.25zM57.663 63.272a3.979 3.979 0 004.04 2.01c1.997-.294 3.069-1.82 3.862-3.52.925-1.966 2.203-3.58 4.245-4.445 1.85-.777 4.244-.381 5.772-1.833.587-.557.984-1.335.852-2.156-.103-.63-.485-1.159-.338-1.819a1.864 1.864 0 011.44-1.393c.278-.059.16-.484-.118-.425a2.298 2.298 0 00-1.748 1.701c-.118.47-.03.895.117 1.35.235.733.324 1.334-.161 2.009-.852 1.188-2.35 1.349-3.687 1.54-1.19.176-2.305.498-3.334 1.114a8.135 8.135 0 00-2.35 2.127c-.69.939-1.072 2.039-1.63 3.05-.705 1.247-1.865 2.2-3.349 2.289a3.536 3.536 0 01-3.275-1.834c-.088-.234-.47-.014-.338.235zM54.593 39.219c-.25 1.833-.499 3.666-.734 5.5-.044.278.382.396.426.117.25-1.833.5-3.667.734-5.5.044-.279-.381-.396-.426-.117z" fill="#161616"/><path d="M54.52 44.968l5.2-3.74c.234-.161.014-.543-.22-.381l-5.2 3.74c-.235.161-.015.542.22.381zM54.873 39.468a883.37 883.37 0 0012.822-17.615c.161-.234-.22-.454-.382-.22A842.313 842.313 0 0154.49 39.248c-.162.22.22.44.382.22zM60.263 40.568a448.185 448.185 0 0011.632-16.104c.162-.235-.22-.455-.382-.22a461.854 461.854 0 01-11.632 16.104c-.176.22.206.44.382.22z" fill="#161616"/><path d="M67.563 21.853c.69-1.29 1.498-2.86 3.025-3.285 1.513-.425 2.996.719 3.026 2.288 0 .279.44.279.44 0-.014-1.51-1.292-2.875-2.849-2.83-2.042.058-3.187 2.009-4.024 3.607-.133.25.25.47.382.22z" fill="#161616"/><path d="M71.984 24.42a31.352 31.352 0 002.026-3.461c.132-.25-.25-.47-.382-.22a31.369 31.369 0 01-2.026 3.461c-.147.22.235.455.382.22z" fill="#161616"/><path d="M67.24 22.572c1.688-1.144 3.877-.528 4.714 1.32.118.264.5.03.382-.22a3.577 3.577 0 00-5.317-1.481c-.235.161-.015.542.22.381z" fill="#161616"/><path d="M66.46 23.892c1.47-.939 3.629-.323 4.304 1.32.103.264.53.147.426-.117-.793-1.878-3.216-2.684-4.95-1.584-.234.161-.014.542.22.381zM54.608 39.673c.808.484 1.616-.572 2.453-.557a1.964 1.964 0 011.586.836c.265.381.397.748.823.968.25.132.47-.25.22-.381-.5-.264-.646-.91-1.072-1.276a2.43 2.43 0 00-1.028-.514 2.518 2.518 0 00-1.146 0c-.47.118-1.16.807-1.6.543-.25-.147-.47.235-.236.381z" fill="#161616"/><path d="M57.017 38.881l8.915-11.718c.176-.22-.206-.44-.382-.22L56.635 38.66c-.162.22.22.44.382.22zM61.673 35.948a171.217 171.217 0 018.783-11.763c.176-.22-.132-.528-.309-.308a173.864 173.864 0 00-8.856 11.851c-.147.235.235.455.382.22zM54.432 43.575c.279-.235.69 0 .617.366-.059.279.367.396.426.118.073-.352-.06-.719-.382-.91-.323-.19-.705-.117-.984.118-.206.176.103.484.323.308z" fill="#161616"/><path d="M54.564 43.516a2.2 2.2 0 01-.397.836c.118.073.25.147.368.22.088-.323.264-.601.514-.836l-.353-.044a.328.328 0 01-.132.425c.103.044.22.088.323.132a.589.589 0 01.118-.557c-.088.015-.177.03-.265.03.118.058.103.22-.014.278.088.015.176.03.264.03a.716.716 0 01-.206-.265c-.014-.044-.029-.088-.044-.146 0-.03-.03-.338-.073-.25-.132.25.25.47.382.22.205-.381-.323-.718-.617-.41-.309.337-.03.894.264 1.144a.202.202 0 00.265.029c.41-.205.41-.821.014-1.041-.073-.044-.205-.044-.264.029a1.09 1.09 0 00-.235.983c.03.132.206.205.323.132.367-.22.47-.66.294-1.027-.059-.132-.25-.132-.353-.044-.308.279-.514.63-.617 1.027-.058.19.22.396.368.22.235-.308.41-.646.514-1.027.058-.25-.367-.367-.44-.088zM53.742 45.819c-.294 1.584-.955 3.036-1.998 4.268-.176.22.132.528.309.308a9.646 9.646 0 002.114-4.474c.045-.264-.381-.381-.425-.102zM50.672 47.652a39.1 39.1 0 01-4.818 3.036c-.25.132-.029.513.22.381a39.077 39.077 0 004.818-3.036c.235-.176.015-.557-.22-.381zM86.524 81.18c-.397-.616-1.057-.293-1.41.176-.382.484-.69 1.056-1.013 1.584-.25.41-.544.865-.588 1.379-.088 1.026.69 1.144 1.469 1.393.925.308.866 1.393.279 1.995-.47.484-1.16.689-1.777.894-.265.088-.147.514.117.426 1.234-.396 3.07-1.291 2.438-2.934a1.282 1.282 0 00-.514-.63 2.165 2.165 0 00-.426-.176c-.426-.132-.543-.088-.88-.455-.28-.161-.368-.381-.236-.675.059-.205.132-.396.235-.572.118-.234.264-.454.411-.674.147-.22 1.175-2.068 1.513-1.526.147.25.529.03.382-.205zM61.306 98.443c1.204-.308 2.232.88 1.703 2.024-.117.249.265.484.382.22.69-1.482-.587-3.08-2.188-2.67-.294.074-.176.499.103.426zM83.807 74.287c-.558-.411-.558-1.482.294-1.511.308-.015.631.161.617.499 0 .278-.25.616-.559.572-.279-.044-.396.381-.117.425.543.088 1.013-.308 1.101-.836.103-.543-.293-1.012-.822-1.085a1.18 1.18 0 00-1.293.748c-.19.586.074 1.217.558 1.569.22.161.441-.22.22-.381zM22.413 72.468c.206-.821.91-1.29 1.572-1.745.69-.484 1.395-.983 2.1-1.467 1.395-.983 2.79-1.95 4.186-2.933.235-.162.015-.543-.22-.382-1.63 1.144-3.261 2.274-4.891 3.418-1.102.762-2.82 1.569-3.173 2.992-.073.278.353.396.426.117z" fill="#161616"/><path d="M120.952 149.571l-53.536-9.152c10.839-4.371 21.678-8.727 32.518-13.098 16.949 3.77 33.899 7.539 50.833 11.308-9.929 3.652-19.872 7.29-29.815 10.942z" fill="#fff" stroke="#161616" stroke-width="3" stroke-miterlimit="10"/><path d="M120.217 149.791c.059.176.103.366.162.542.073.235.426.191.426-.058v-.426c0-.278-.441-.278-.441 0 0 .176-.029.338-.103.499h.426a1.075 1.075 0 01-.029-.572c-.132.015-.265.029-.397.059.044.044.044.073.015.117.132.015.264.029.397.059a.312.312 0 01.044-.279c-.133-.044-.279-.073-.412-.117l-.088.689c-.014.117.118.22.221.22.132 0 .205-.103.22-.22.029-.235.059-.455.088-.689.029-.22-.308-.279-.411-.118a.788.788 0 00-.088.631c.044.191.308.205.396.059a.46.46 0 00-.015-.558c-.102-.132-.367-.146-.396.059-.059.264-.044.543.029.807.074.22.353.19.426 0 .074-.206.118-.411.118-.616h-.441v.425c.147-.015.294-.044.426-.059-.059-.176-.103-.366-.162-.542-.058-.308-.484-.191-.411.088z" fill="#161616"/><path d="M120.555 150.847c2.365-1.218 4.95-1.863 7.491-2.582 1.248-.352 2.482-.733 3.671-1.232 1.146-.469 2.248-1.056 3.379-1.584 2.511-1.173 5.228-1.936 7.857-2.801 2.732-.909 5.449-1.819 8.181-2.713.265-.088.147-.514-.117-.426-2.732.91-5.449 1.819-8.181 2.714-2.585.85-5.244 1.613-7.726 2.742-1.292.587-2.555 1.276-3.877 1.79-1.205.469-2.438.836-3.687 1.188-2.453.704-4.935 1.349-7.226 2.522-.235.132-.015.514.235.382z" fill="#161616"/><path d="M120.761 150.759a3266.099 3266.099 0 0030.388-10.663c.793-.279.455-1.555-.352-1.276a3119.905 3119.905 0 01-30.389 10.663c-.793.278-.455 1.554.353 1.276zM119.615 136.591c1.909.19 3.54 1.349 5.42 1.716.279.058.396-.367.117-.426-1.909-.381-3.569-1.54-5.537-1.73-.279-.015-.279.425 0 .44z" fill="#161616"/><path d="M125.167 138.101a16.998 16.998 0 003.231-2.258c.206-.191-.103-.499-.308-.308-.97.85-2.013 1.584-3.143 2.185-.25.147-.03.528.22.381zM120.07 135.755c.926-.66 1.88-1.291 2.864-1.878.25-.146.015-.528-.22-.381a37.206 37.206 0 00-2.864 1.877c-.235.176-.015.558.22.382z" fill="#161616"/><path d="M123.008 133.951c1.674.63 3.349 1.246 5.038 1.877.264.103.381-.323.117-.425-1.674-.631-3.349-1.247-5.038-1.878-.264-.088-.382.338-.117.426zM118.293 138.263a147.2 147.2 0 0113.057 4.708c.265.102.382-.323.118-.426a147.518 147.518 0 00-13.057-4.708c-.279-.088-.397.338-.118.426zM118.719 141.68a236.858 236.858 0 008.328 3.784c.264.117.485-.264.22-.381a213.73 213.73 0 01-8.328-3.784c-.249-.118-.47.264-.22.381zM119.116 145.449c1.498.763 2.996 1.54 4.494 2.303.25.132.47-.249.22-.381-1.498-.763-2.996-1.54-4.494-2.303-.25-.132-.47.249-.22.381z" fill="#161616"/><path d="M119.967 145.581a67.635 67.635 0 016.507-4.869c.235-.161.015-.543-.22-.381a69.42 69.42 0 00-6.595 4.942c-.22.191.088.499.308.308zM119.424 142.575c1.175-.822 2.35-1.643 3.525-2.479.235-.161.015-.543-.22-.381-1.175.821-2.35 1.642-3.525 2.478-.221.162 0 .543.22.382z" fill="#161616"/><path d="M120.158 150.583l-55.386-9.416c-1.733-13.098-3.481-26.18-5.214-39.278 19.872 2.67 39.73 5.339 59.602 8.023.337 13.552.675 27.104.998 40.671z" fill="#fff" stroke="#161616" stroke-width="3" stroke-miterlimit="10"/><path d="M87.258 127.923c-1.6-.499-2.467-1.848-2.6-3.476-.131-1.658.192-3.256 1.734-4.122 1.366-.762 2.996-.542 4.215.382 1.22.924 2.306 2.816 1.322 4.268-.162.234.22.454.382.22 1.057-1.555.059-3.608-1.234-4.679-1.336-1.1-3.143-1.437-4.715-.66-1.82.895-2.29 2.713-2.144 4.605.147 1.834 1.116 3.344 2.923 3.902.264.073.382-.352.117-.44z" fill="#161616"/><path d="M87.67 128.084c-.676-1.115-.456-2.669.631-3.447 1.087-.777 2.644-.454 3.466.543.177.22.485-.088.309-.308-.97-1.159-2.79-1.481-4.054-.587-1.263.91-1.527 2.728-.734 4.019.147.235.529.015.382-.22z" fill="#161616"/><path d="M89.183 128.7c-.69-.733-.588-2.097.337-2.625.91-.528 2.145.073 2.438 1.041.089.264.514.161.426-.117-.382-1.232-1.924-1.966-3.084-1.291-1.16.675-1.307 2.376-.426 3.315.191.19.5-.118.309-.323z" fill="#161616"/><path d="M90.313 129.727c.573.205 1.234-.132 1.454-.675.236-.543-.073-1.129-.587-1.364-.514-.235-1.13-.103-1.41.396-.264.484-.176 1.144.264 1.496.22.176.53-.132.309-.308-.588-.455-.176-1.525.602-1.203.338.132.573.484.411.851a.747.747 0 01-.925.396c-.264-.103-.382.323-.118.411z" fill="#161616"/><path d="M119.16 109.897l1.292 40.407M119.248 109.868l1.19 39.864" stroke="#161616" stroke-width="3" stroke-miterlimit="10"/><path opacity=".37" d="M93.824 107.169c.954.499 9.15 4.958 9.723 12.878.323 4.37-1.821 7.685-3.173 9.709-7.285 10.941-21.693 12.877-25.6 13.288 5.684 3.769 25.542 16.192 47.25 15.459 4.832-.162 12.323-.499 20.445-4.958 6.095-3.344 10.046-7.641 12.308-10.501-1.395-.865-2.776-1.716-4.171-2.581-10.252 3.505-20.519 7.01-30.771 10.501l-1.586-40.641a4452.808 4452.808 0 01-24.425-3.154z" fill="#3D3D3D"/><path opacity=".5" d="M82.147 143.997a62.601 62.601 0 008.68 4.796c4.76 2.171 18.845 8.595 34.105 5.031 11.089-2.596 19.666-9.709 19.108-10.883-.352-.733-4.656.03-23.823 7.642-.308-6.204-.617-12.423-.91-18.627-.529 5.221-1.073 10.443-1.601 15.649-11.853-1.188-23.706-2.405-35.559-3.608z" fill="#3D3D3D"/><path d="M86.098 127.277c-1.072-1.173-1.425-2.816-.896-4.253.544-1.452 1.983-2.699 3.701-2.64 1.513.059 2.732 1.115 3.173 2.112.323.763.25 1.467.25 1.467a2.46 2.46 0 01-.28.894c-.749-.865-1.894-1.261-2.966-1.012-1.322.308-1.895 1.438-1.954 1.54-.602 1.232-.073 2.376 0 2.508a27.64 27.64 0 00-1.028-.616z" fill="#486F9A"/><path d="M160.417 108.709a11.816 11.816 0 00-2.424 2.42c-2.893 3.887-2.496 8.448-2.291 9.93a28.209 28.209 0 00-11.985.132 27.867 27.867 0 00-7.27 2.801c.279.176.661.381 1.145.513 2.747.748 5.64-1.554 5.729-1.393.088.147-3.232 1.701-3.055 3.051.117.909 1.747 1.393 3.436 1.906 1.425.426 2.776.836 4.583.631 2.482-.279 4.201-1.525 4.964-2.171.735.367 1.822.851 3.188 1.276 2.511.763 5.977 1.819 8.283.382 1.498-.939 1.954-3.139 2.806-7.51 1.086-5.602 1.63-8.404.132-10.178-1.983-2.362-5.963-1.966-7.241-1.79z" fill="#fff" stroke="#161616" stroke-width="3" stroke-miterlimit="10"/><path d="M155.203 121.205a8.522 8.522 0 014.259 3.462c.147.234.529.014.382-.22a9.044 9.044 0 00-4.524-3.667c-.264-.088-.382.337-.117.425zM145.759 124.109a4.905 4.905 0 00-3.79 3.11c-.102.264.323.381.426.117.573-1.496 1.895-2.537 3.481-2.801.279-.044.162-.47-.117-.426z" fill="#161616"/><path d="M142.175 127.497a3.348 3.348 0 003.363.778c.265-.088.147-.514-.117-.426-1.043.338-2.144.103-2.938-.66-.205-.205-.514.103-.308.308z" fill="#161616"/><path d="M147.8 125.561c-.631.382-1.219.822-1.777 1.291-.367.323-.778.704-.69 1.232.22 1.393 1.895 1.085 2.805.733.265-.102.147-.528-.117-.425-.397.147-.838.337-1.263.323-.691-.03-1.308-.69-.72-1.291.558-.587 1.292-1.056 1.983-1.496.249-.132.029-.513-.221-.367z" fill="#161616"/><path d="M159.682 87.78c.603.47 1.381 1.115 2.204 1.95.235.235.837.851 1.439 1.614.94 1.173 1.542 2.288 2.203 3.652.852 1.745 1.704 3.49 2.556 6.101.719 2.2 1.821 5.662 1.953 10.267a31.184 31.184 0 01-.176 4.415 6.954 6.954 0 00-1.704-1.438c-2.805-1.716-6.213-1.1-9.429-.513a32.73 32.73 0 00-2.894.675c.177-1.614.338-3.227.514-4.84.147-1.35.28-2.714.426-4.078a16.336 16.336 0 01-1.013-2.038c-.69-1.658-2.071-4.914-1.278-8.566.94-4.194 4.245-6.57 5.199-7.201z" fill="#DF701F"/><path d="M160.197 88.587c1.468.762 2.452 2.082 3.304 3.446a41.803 41.803 0 012.38 4.356 43.224 43.224 0 013.187 9.578c.059.278.484.161.426-.118a42.56 42.56 0 00-3.349-9.929 41.11 41.11 0 00-2.512-4.517c-.837-1.291-1.821-2.494-3.201-3.212-.265-.118-.485.264-.235.396zM155.614 103.503a108.461 108.461 0 002.115 4.077c.132.249.514.029.382-.22a108.461 108.461 0 01-2.115-4.077c-.132-.264-.514-.044-.382.22z" fill="#161616"/><path d="M156.657 106.025c-.367 2.846-.734 5.691-1.087 8.536-.015.147.162.25.279.206a22.936 22.936 0 017.711-1.086c2.071.074 4.818.264 5.978 2.288.147.25.514.03.382-.22-1.102-1.936-3.511-2.332-5.537-2.464-2.923-.205-5.861.176-8.637 1.056.088.074.191.147.279.206.368-2.846.735-5.691 1.087-8.536.03-.264-.411-.264-.455.014z" fill="#161616"/><path d="M169.038 105.747c.515 3.226 1.352 6.644.485 9.885-.073.279.353.396.426.117.881-3.314.044-6.805-.485-10.12-.044-.278-.47-.161-.426.118z" fill="#161616"/><path opacity=".32" d="M158.566 87.237a56.249 56.249 0 013.804 8.888 57.274 57.274 0 012.85 17.336l-4.495.264c.485 3.476.984 6.967 1.469 10.443a14.978 14.978 0 00-4.23-1.643c-.602-.132-2.82-.572-5.185-.176-4.964.836-7.96 4.899-8.636 5.867a7.866 7.866 0 002.585.601c3.202.191 5.537-1.657 6.228-2.244 2.188 1.1 4.097 1.628 5.449 1.892 2.364.484 5.126 1.042 6.653-.425.118-.117.382-.396.955-1.819.896-2.258 1.366-4.37 1.983-8.198.132-.851.323-1.995.514-3.359l1.116 1.115c.176-.66.396-1.643.514-2.846.308-3.124-.294-5.588-.867-7.597-2.306-8.125-3.686-13.024-8.298-16.573a20.424 20.424 0 00-2.409-1.526z" fill="#3D3D3D"/><path opacity=".29" d="M166.336 97.284a51.747 51.747 0 011.043 11.777c-.074 2.728-.353 4.723-.647 6.732-.866 6.058-1.307 9.079-2.981 10.487-3.173 2.669-8.827.645-10.179.132 1.278.851 5.875 3.74 10.37 2.141.47-.176.984-.396 1.483-.718a15.388 15.388 0 001.689-4.078c.265-1.07.338-1.848.441-2.757.162-1.467.441-3.608.911-6.292.426.367.866.733 1.292 1.1.147-.748.338-1.892.382-3.3.132-3.403-.617-5.984-1.483-8.932a49.934 49.934 0 00-2.321-6.292z" fill="#3D3D3D"/><path d="M125.96 58.784c.147 1.57.411 3.77.999 6.365.382 1.687.617 2.758 1.116 4.092.749 2.01 2.174 5.852 5.89 8.36.896.616 2.379 1.438 4.465 1.922.337.029.675.073 1.013.102.118.616.265 1.526.411 2.626.353 2.83.177 3.696.911 4.458.896.924 2.321.836 2.629.807 2.453-.161 3.687-2.596 3.745-2.728a14.425 14.425 0 01-1.116-2.625 14.892 14.892 0 01-.602-5.676 17.045 17.045 0 013.642-3.843c.485-.367.896-.865 1.616-1.115 1.028-.352 1.557 0 2.321-.234 1.263-.396 1.806-2.024 2.041-2.699.896-2.67-.205-5.31-.91-6.879-.632-1.437-2.277-5.001-6.287-7.788-4.127-2.874-12.381-6.072-17.845-1.921-.94.719-3.084 2.64-4.039 6.776z" fill="#fff"/><path d="M126.577 64.827c-.94-.162-3.32-.719-4.862-2.758-2.35-3.094-1.087-7.421.221-9.709 2.056-3.593 5.801-4.84 10.501-6.41 2.791-.923 5.449-1.803 9.062-1.657 1.998.088 8.769.382 12.823 5.412 2.408 2.978 2.673 6.175 3.201 12.482.25 2.889.059 4.458-.44 5.954-.367 1.086-1.557 4.562-4.979 5.955-1.792.733-3.452.587-4.362.44.822-1.217 1.645-2.42 2.482-3.637.47.029 2.144.058 3.422-1.1 1.748-1.599 2.056-4.782.778-5.632-.94-.631-2.805-.015-4.421 1.437a14.821 14.821 0 00-.778-2.977c-1.851-4.972-5.875-7.7-7.843-8.83-.779.998-3.246 3.916-7.623 5.075-3.466.91-6.345.264-7.623-.117l.441 6.072z" fill="#486F9A"/><path d="M125.842 59.165c.603 4.532 1.234 9.24 3.452 13.318 1.821 3.344 4.759 6.204 8.534 7.157.279.073.396-.352.117-.425-3.731-.954-6.609-3.828-8.372-7.158-2.1-3.96-2.702-8.506-3.29-12.892-.044-.278-.485-.278-.441 0z" fill="#161616"/><path d="M137.828 79.699c2.658 0 5.449-1.423 7.534-2.948a17.467 17.467 0 005.053-5.808c.132-.25-.25-.47-.382-.22a16.631 16.631 0 01-4.891 5.646c-2.042 1.496-4.744 2.89-7.314 2.89-.294 0-.294.44 0 .44z" fill="#161616"/><path d="M145.348 76.399a15.505 15.505 0 001.63 8.58c.132.249.514.029.382-.22a15.124 15.124 0 01-1.572-8.36c.029-.279-.411-.279-.44 0z" fill="#161616"/><path d="M138.958 79.625a46.206 46.206 0 011.175 5.09c.191 1.144.265 2.434 1.543 2.86 1.909.645 4.729-.499 5.463-2.391.103-.264-.323-.381-.426-.117-.411 1.07-1.439 1.657-2.496 1.965-.882.25-2.218.513-2.967-.205-.441-.426-.5-1.1-.588-1.672-.103-.602-.205-1.203-.323-1.804a48.757 48.757 0 00-.94-3.843c-.088-.264-.514-.147-.441.117z" fill="#161616"/><path d="M139.59 81.444c2.614-.337 4.333-2.332 5.596-4.473.147-.25-.235-.47-.382-.22-1.16 1.994-2.776 3.945-5.214 4.253-.279.044-.279.484 0 .44z" fill="#161616"/><path d="M139.487 79.948a8.2 8.2 0 005.244-2.728c.191-.205-.118-.528-.309-.308a7.711 7.711 0 01-4.935 2.596c-.264.03-.279.47 0 .44z" fill="#161616"/><path d="M139.561 79.625a8.586 8.586 0 004.391-1.98c.221-.19-.103-.498-.308-.308a8.13 8.13 0 01-4.201 1.878c-.279.029-.161.454.118.41z" fill="#161616"/><path d="M139.473 79.992c.073.352.058 1.056.499 1.173.426.118 1.072-.381 1.41-.586a9.476 9.476 0 002.893-2.772c.162-.235-.22-.455-.382-.22a8.747 8.747 0 01-1.982 2.112 9.495 9.495 0 01-1.146.733c-.162.088-.529.337-.69.235-.103-.059-.147-.69-.162-.792-.073-.279-.499-.162-.44.117z" fill="#161616"/><path d="M139.678 80.403a18.244 18.244 0 003.569-1.936c.235-.162.015-.543-.22-.382a17.286 17.286 0 01-3.466 1.892c-.265.103-.147.528.117.426z" fill="#161616"/><path d="M139.898 80.843c1.41-.499 2.644-1.276 3.672-2.362.191-.205-.117-.513-.308-.308a8.96 8.96 0 01-3.481 2.244c-.264.103-.147.528.117.426z" fill="#161616"/><path d="M140.133 80.608a9.517 9.517 0 002.82-1.863c.206-.19-.102-.498-.308-.308a9.358 9.358 0 01-2.732 1.79c-.264.117-.044.498.22.381zM128.134 70.312c-2.394-.85-3.187-3.975-2.952-6.233.249-2.479 2.482-5.178 5.214-4.019 1.307.557 1.792 1.995 2.144 3.27.367 1.35.529 2.846.176 4.225-.308 1.217-1.057 2.376-2.232 2.904-1.175.528-2.571.234-3.364-.778-.176-.22-.484.088-.308.308 1.336 1.716 3.848 1.379 5.199-.132 1.719-1.921 1.542-4.84.808-7.142-.338-1.071-.778-2.186-1.762-2.802-.852-.542-1.939-.674-2.894-.425-2.232.601-3.393 2.963-3.437 5.119-.044 2.361.881 5.28 3.32 6.13.235.088.352-.337.088-.425z" fill="#161616"/><path d="M133.216 65.927c1.439-.866 3.187-.954 4.685-.206.25.132.47-.249.22-.381a5.3 5.3 0 00-5.14.205c-.221.147 0 .528.235.382z" fill="#161616"/><path d="M140.236 69.05c-1.659-1.598-2.35-4.077-1.704-6.306.676-2.317 2.997-4.312 5.494-3.49 2.761.909 2.908 4.854 2.188 7.171-.426 1.364-1.278 2.728-2.688 3.227-1.41.499-2.629-.25-3.76-1.041-.235-.162-.455.22-.22.381.925.66 1.924 1.32 3.099 1.276 1.116-.044 2.13-.66 2.82-1.496 1.557-1.877 1.865-4.737 1.219-7.025-.587-2.083-2.321-3.432-4.538-3.066-2.115.338-3.672 2.244-4.142 4.239a6.85 6.85 0 001.894 6.439c.235.205.544-.118.338-.308zM129.47 64.225c-.147.924.015 1.819.514 2.611a.218.218 0 00.397-.059c.352-1.012-.147-2.009-.646-2.874-.103-.191-.412-.103-.412.117.015.777.177 1.54.47 2.259.103.264.529.146.426-.118a5.957 5.957 0 01-.455-2.141c-.132.044-.279.073-.411.117.455.778.925 1.628.602 2.538.132-.015.264-.03.397-.059a3.176 3.176 0 01-.47-2.273c.058-.279-.368-.396-.412-.118z" fill="#161616"/><path d="M142.469 63.815a.62.62 0 00-.103-.396c-.103-.191-.411-.103-.411.117.014.91.088 1.892.793 2.537.147.132.352.03.382-.161.117-1.085-.206-2.097-.882-2.948-.146-.176-.411.015-.367.22.177.719.397 1.423.661 2.097.103.264.529.147.426-.117a13.41 13.41 0 01-.661-2.097c-.117.073-.249.146-.367.22.602.762.852 1.672.749 2.64.132-.059.25-.103.382-.162-.632-.572-.661-1.437-.676-2.229-.132.044-.279.073-.411.117l.044.176c0 .264.441.264.441-.014zM134.684 66.704c-.293.88-.543 1.775-.705 2.684-.088.484-.396 1.393-.176 1.877.441.983 2.394.382 3.07.059.25-.117.029-.499-.22-.381a3.387 3.387 0 01-1.734.352c-.352-.03-.631-.088-.705-.484-.044-.22.103-.792.147-1.042a20.38 20.38 0 01.764-2.962c.073-.25-.352-.367-.441-.103zM136.902 75.167a3.313 3.313 0 002.541-1.863c.118-.25-.264-.484-.382-.22a2.886 2.886 0 01-2.276 1.657c-.279.044-.147.47.117.426zM128.545 62.964a.814.814 0 011.146-.103c.22.191.528-.132.308-.308-.514-.44-1.307-.41-1.762.103-.191.205.117.513.308.308zM141.147 62.143a1.245 1.245 0 011.601-.015c.22.176.529-.132.308-.308a1.699 1.699 0 00-2.232.015c-.206.19.117.498.323.308zM146.934 64.167a17.45 17.45 0 014.905-.983c.279-.015.279-.455 0-.44a17.872 17.872 0 00-5.023.997c-.264.103-.161.528.118.426z" fill="#161616"/><path opacity=".4" d="M149.122 45.892c.881 1.13 4.274 5.764 3.643 12.13-.353 3.549-1.822 6.16-2.747 7.538.529-.41.984-.69 1.322-.88.896-.499 1.469-.807 2.203-.763.22.015.749.059 1.131.367 1.116.939.734 4.268-1.248 5.823-1.087.85-2.365.938-3.011.924-.838 1.188-1.689 2.376-2.527 3.578.559.088 1.41.162 2.394.015.426-.059 2.13-.367 3.746-1.657 1.586-1.276 2.232-2.831 2.658-3.887 1.175-2.933.94-5.515.529-10.164-.176-2.068-.279-3.124-.69-4.517-.441-1.511-1.131-3.74-3.099-5.735-1.41-1.467-2.997-2.288-4.304-2.772z" fill="#3D3D3D"/><path opacity=".48" d="M134.934 58.432a35.776 35.776 0 004.7-5.06 36.08 36.08 0 002.482-3.696c-.249 1.32-.499 2.64-.734 3.96a12.801 12.801 0 01-3.011 3.065 12.909 12.909 0 01-3.437 1.731z" fill="#3D3D3D"/><path opacity=".27" d="M145.377 56.76c1.116 3.71 1.204 6.82 1.101 8.873-.073 1.526-.484 9.519-4.7 12.276-.411.264-1.454.88-1.41.968.059.103 2.013-.762 3.085-1.349 1.689-.91 4.289-2.743 6.697-6.615.397.044 2.336.176 3.731-1.158 1.689-1.599 1.983-4.738.646-5.662-.954-.66-2.776-.102-4.377 1.218a17.972 17.972 0 00-.646-2.127c-1.101-2.904-2.761-5.016-4.127-6.424z" fill="#3D3D3D"/><path opacity=".36" d="M141.837 78.76a1015.1 1015.1 0 011.146 3.535c.529 1.613 1.043 3.241 1.557 4.854a3.262 3.262 0 001.645-.909c.631-.645.837-1.35.91-1.643a14.597 14.597 0 01-1.483-5.016 14.163 14.163 0 010-2.962 320.232 320.232 0 01-3.775 2.141z" fill="#3D3D3D"/><path opacity=".43" d="M134.508 67.217c-.734 1.57-1.469 3.124-2.203 4.694 1.204-.03 2.394-.044 3.598-.074-.705-.22-1.424-.44-2.129-.66.235-1.32.484-2.64.734-3.96z" fill="#3D3D3D"/></g><defs><clipPath id="clip0_38_30"><path fill="#fff" d="M0 0h235v176H0z"/></clipPath></defs></svg>