<svg width="588" height="441" viewBox="0 0 588 441" fill="none" xmlns="http://www.w3.org/2000/svg">
<path fill-rule="evenodd" clip-rule="evenodd" d="M389.063 284.854C388.14 298.39 369.772 305.427 358.631 308.316C360.864 295.036 363.748 281.27 361.954 267.804C361.364 263.368 360.588 258.955 359.756 254.559C359.448 252.934 359.131 251.31 358.801 249.688C358.722 249.294 358.076 247.568 358.281 247.175C358.65 246.471 361.765 246.582 362.56 246.612C364.606 246.691 366.614 247.208 368.486 248.026C372.421 249.744 375.736 252.702 378.467 255.966C384.908 263.665 389.759 274.647 389.063 284.854ZM367.798 192.84C357.135 199.154 344.291 202.543 332.129 204.194C313.602 206.71 294.684 203.814 276.571 199.8C272.124 198.814 267.686 197.752 263.304 196.506C263.106 209.342 266.718 221.549 273.771 232.255C279.602 241.106 287.212 248.503 293.864 256.701C300.056 264.334 305.05 272.943 305.298 283.016C305.402 287.22 305.056 291.067 301.536 293.791C297.999 296.529 293.222 297.544 288.894 298.168C278.055 299.729 266.704 298.886 255.934 297.166C253.843 296.832 251.756 296.452 249.692 295.977C247.349 295.437 246.528 294.801 244.57 296.56C240.347 300.356 238.41 306.049 237.453 311.495C235.66 321.694 236.268 333.592 238.853 343.655C241.342 353.349 253.092 358.721 261.797 361.063C288.052 368.13 317.02 358.371 337.166 341C337.605 340.621 338.041 340.237 338.466 339.842C339.897 342.822 341.46 345.749 343.168 348.579C344.356 350.548 345.606 352.527 347.104 354.279C347.645 354.912 348.28 355.766 349.02 356.181C350.396 356.952 351.797 356.385 353.355 356.115C364.854 354.118 376.326 351.492 387.26 347.357C403.881 341.07 418.789 330.714 426.667 314.354C430.647 306.091 432.722 297.037 433.726 287.957C434.879 277.531 435.128 266.874 432.194 256.712C426.818 238.09 413.101 222.994 398.081 211.35C388.786 204.145 378.568 197.634 367.798 192.84Z" fill="#486F9A"/>
<path fill-rule="evenodd" clip-rule="evenodd" d="M555.68 69.5277C553.25 70.4935 550.633 70.7621 548.048 70.9511C546.02 71.099 544.428 71.9122 542.517 71.958C537.196 72.085 531.853 72.324 526.558 73.119C521.24 73.9182 516.341 72.8748 512.142 76.8706C510.647 78.2924 508.774 79.9272 509.672 82.2221C510.084 83.2733 510.665 84.0271 511.007 85.1553C511.394 86.4309 511.875 87.6356 512.434 88.8497C513.508 91.179 518.884 99.8531 514.521 100.914C509.792 102.064 503.378 100.72 498.822 99.4043C496.164 98.6364 493.548 97.7367 490.928 96.8501C488.854 96.1483 486.129 95.7506 484.218 94.651C482.951 93.9216 482.688 92.6768 481.85 91.4939C480.326 89.3422 478.902 87.5096 476.933 85.7192C472.848 82.0061 467.74 79.4847 462.704 77.2684C462.379 77.1247 461.785 76.7894 461.434 76.7566C461.055 76.7212 460.637 77.1117 460.393 77.0643C459.721 76.9336 459.487 76.5114 458.752 76.0938C457.764 75.5331 453.738 73.6677 453.035 75.1343C453.693 73.2075 454.174 73.7635 455.957 74.0431C456.742 74.167 457.268 73.8073 457.974 73.8432C458.624 73.876 458.891 74.2461 459.434 74.3461C460.429 74.5288 461.356 74.3914 462.395 74.3836C462.674 73.7677 463.07 73.7724 463.583 74.3971C463.869 74.4898 464.156 74.5825 464.442 74.6757C465.477 74.9594 466.582 74.9053 467.641 74.9886C469.232 75.1145 473.378 77.0544 474.176 75.0911C475.027 72.9946 472.442 72.4719 472.011 71.0089C471.59 69.5735 473.56 68.7312 474.35 67.8643C475.251 66.8788 475.801 66.0135 476.857 65.1451C477.476 64.6354 478.287 64.1601 478.746 63.4812C479.168 62.8564 479.15 61.8464 479.698 61.3258C480.351 60.7052 480.451 61.1347 481.045 60.8349C482.209 60.246 481.695 60.2757 482.384 59.4708C482.972 58.7825 483.407 58.8034 484.177 58.276C485.305 57.5039 485.701 55.9951 486.797 55.1652C487.599 54.5577 488.876 54.5587 489.579 53.9277C489.994 53.556 489.866 52.9536 490.224 52.6027C490.912 51.9285 491.383 52.2024 492.241 51.9801C493.689 51.6052 494.158 50.805 495.223 49.8783C496.197 49.0323 496.815 49.0359 498.034 48.685C499.699 48.206 500.775 46.9513 502.277 46.2141C503.692 45.5207 505.153 45.0344 506.584 44.2956C507.617 43.762 508.613 43.4309 509.556 42.8863C509.875 42.7025 509.902 42.0294 510.314 41.9382C510.786 41.8331 511.163 42.6177 511.665 42.6588C512.718 42.7452 513.915 41.578 514.606 40.9022C514.907 40.6086 515.313 39.8146 515.7 39.6506C516.508 39.307 516.99 39.9875 517.711 39.7188C518.722 39.3419 518.32 38.2382 518.94 37.6296C519.481 37.0985 520.632 37.1344 521.594 37.3026C525.471 37.9784 519.438 40.7169 518.303 41.2708C516.395 42.2038 502.512 48.9906 505.76 52.3752C507.478 54.1656 511.674 52.8193 513.542 52.3476C516.817 51.5203 520.231 49.9278 523.59 49.5623C524.005 49.517 525.244 49.8143 525.582 49.6846C526.345 49.3926 526.155 48.8084 526.775 48.5012C527.709 48.04 529.617 48.0624 530.566 48.166C531.307 48.2472 532.118 48.6897 532.872 48.6298C533.703 48.5637 534.505 48.0806 535.329 47.9249C536.738 47.6594 538.197 47.7895 539.621 47.8307C541.668 47.8905 545.76 48.1998 542.786 50.9195C540.379 53.1207 536.215 54.0735 533.178 55.034C528.686 56.4538 524.273 57.7455 519.839 59.363C516.818 60.4647 510.372 62.3998 513.97 66.5294C514.325 66.1942 514.68 65.8594 515.034 65.5241C515.454 65.9484 515.887 66.7741 516.559 66.7981C517.118 66.8179 516.913 66.2171 517.441 66.0291C519.103 65.4398 521.38 65.4846 523.132 65.3737C527.521 65.0956 531.894 64.5141 536.289 64.334C540.427 64.1642 544.61 64.385 548.668 65.2529C549.712 65.4762 559.443 68.032 555.68 69.5277ZM519.79 111.991C520.011 113.835 519.193 115.326 518.966 117.107C518.691 119.259 518.892 121.155 518.282 123.296C517.096 127.456 516.252 131.712 514.979 135.848C512.731 143.151 509.102 149.6 505.37 156.226C503.466 159.605 500.598 162.394 497.978 165.22C495.293 168.116 493.148 170.966 489.938 173.344C483.524 178.096 476.602 182.323 469.008 184.89C461.06 187.578 452.701 188.393 444.352 188.051C440.647 187.899 436.719 188.274 433.073 187.675C429.195 187.037 424.994 186.254 421.183 185.313C414.188 183.586 407.449 180.655 400.617 178.036C392.988 175.112 386.12 171.379 379.163 167.162C377.322 166.046 375.377 165.525 373.651 164.175C372.195 163.037 370.764 161.949 369.234 160.91C367.477 159.718 365.796 158.414 364.001 157.281C362.929 156.604 361.421 155.941 360.858 154.715C360.084 153.029 361.017 150.911 361.499 149.275C362.128 147.146 362.796 145.043 363.551 142.956C364.83 139.422 368.084 133.97 366.294 130.234C362.521 132.572 360.857 137.167 359.244 141.074C357.317 145.74 355.972 150.396 355.682 155.458C355.098 165.64 356.802 176.357 360.496 185.851C361.045 187.261 362.009 188.79 361.301 190.299C360.557 191.881 358.539 193.218 356.988 193.902C352.081 196.067 347.155 196.698 342.031 197.895C340.635 198.22 339.108 199.199 337.799 199.323C336.915 199.406 336.185 199.116 335.172 199.123C334.156 199.13 333.361 199.699 332.451 199.76C331.657 199.814 330.952 199.349 330.195 199.393C328.501 199.491 328.189 202.395 327.349 199.839C327.197 199.944 326.356 200.898 326.25 200.898C326.01 200.899 325.588 200.187 325.359 200.061C324.914 199.814 324.327 199.8 323.829 199.736C322.731 199.593 321.546 199.578 320.464 199.83C318.458 200.298 316.44 200.101 314.725 200.067C314.335 200.059 314.058 200.374 313.572 200.355C313.351 200.346 313.033 199.955 312.799 199.895C311.442 199.545 310.035 199.806 308.653 199.73C305.408 199.551 302.273 199.464 299.104 198.747C292.608 197.276 285.986 196.981 279.465 195.637C276.142 194.951 272.897 194.577 269.625 193.674C268.476 193.357 267.297 193.207 266.279 192.774C265.306 192.36 265.689 191.808 264.179 192.916C263.501 191.253 263.421 191.423 261.783 190.873C261.15 190.66 259.695 190.132 259.223 189.713C259.177 189.671 258.169 187.141 258.082 186.83C257.662 185.318 258.012 183.59 258.187 182.069C258.582 178.64 259.155 175.237 259.189 171.781C259.203 170.256 259.478 170.212 259.953 169.063C260.099 168.707 260.53 168.735 260.566 168.193C260.615 167.47 259.875 166.967 259.955 166.123C260.061 164.987 261.202 163.837 261.602 162.778C262.083 161.504 262.077 160.157 262.364 158.837C262.748 157.083 263.49 155.436 263.864 153.674C264.182 152.181 264.212 150.994 265.007 149.714C265.802 148.436 265.568 147.392 266.201 146.119C266.783 144.952 267.518 144.533 267.915 143.123C268.879 139.713 270.343 136.336 272.417 133.445C274.242 140.695 276.182 148.184 281.262 153.915C283.354 156.274 286.056 158.655 289.21 159.374C292.777 160.186 295.63 158.082 297.953 155.59C303.487 149.651 305.779 143.022 306.114 134.969C306.197 132.967 306.185 130.963 306.158 128.96C306.145 128.068 305.688 125.781 306.299 125.032C306.969 124.21 308.879 124.723 309.874 124.181C311.097 123.514 312.441 121.73 311.895 120.259C315.154 121.735 318.27 123.677 321.895 124.089C323.33 124.252 324.858 124.004 326.141 123.935C326.103 123.937 327.135 124.148 327.197 124.162C327.451 123.868 327.727 123.797 328.023 123.948C328.286 123.975 328.478 124.117 328.599 124.372C333.765 124.888 338.967 122.336 343.389 119.632C345.973 118.052 348.81 115.712 349.535 112.637C349.794 111.539 349.57 110.505 350.705 109.945C351.627 109.489 353.407 110.146 354.379 110.218C357.801 110.469 361.173 110.144 364.514 111.164C366.553 111.786 370.111 116.147 371.533 113.079C372.15 113.658 371.815 114.689 372.472 115.252C373.044 115.743 374.968 116.089 375.759 116.509C376.985 117.159 377.704 118.024 378.777 118.806C380.096 119.766 381.476 119.84 382.752 120.968C387.173 124.871 392.352 127.699 397.288 130.936C403.144 134.777 408.327 139.303 414.611 142.436C421.038 145.639 427.257 148.315 434.28 149.981C437.466 150.737 440.733 151.368 444.004 151.602C445.547 151.711 447.018 151.656 448.506 152.119C449.41 152.4 449.702 152.54 450.59 152.566C451.107 152.581 451.856 152.283 452.493 152.294C453.802 152.318 454.47 152.264 455.652 152.697C456.988 153.186 458.099 153.481 459.621 153.523C461.371 153.572 462.401 152.9 463.992 152.486C465.273 152.151 466.427 152.311 467.574 151.617C472.672 148.533 476.768 143.824 479.441 138.478C482.511 132.342 484.875 124.863 485.356 117.987C485.632 114.051 484.764 110.213 483.261 106.6C482.836 105.58 480.291 101.239 481.075 100.45C481.965 99.5543 484.875 101.608 485.696 102.054C488.299 103.469 493 103.922 494.825 106.302C495.289 105.41 497.874 106.732 498.703 107.104C499.389 107.412 499.583 107.969 500.446 108.035C501.259 108.098 502.098 107.45 502.845 107.243C502.299 108.766 504.135 108.838 505.393 108.918C506.299 108.977 507.272 108.834 508.079 108.777C509.623 108.667 509.648 108.32 511.059 107.529C511.004 108.108 511.066 108.674 511.246 109.227C512.153 107.914 513.882 108.826 515.107 108.249C514.222 106.906 518.001 106.538 518.881 106.821C521.096 107.532 519.594 110.358 519.79 111.991ZM346.313 204.307C347.774 203.871 349.245 203.472 350.711 203.056C349.601 204.075 348.447 205.914 346.861 206.201C344.948 206.546 344.195 204.938 346.313 204.307ZM274.142 205.037C276.603 205.331 279.283 205.106 281.44 206.559C280.389 207.768 279.706 209.034 277.952 208.341C276.479 207.758 275.266 206.098 274.142 205.037ZM356.364 271.261C354.748 269.811 354.961 269.163 355.72 267.287C356.047 266.48 356.563 263.971 357.789 264.706C358.224 264.967 358.752 267.7 358.83 268.254C359.003 269.492 358.237 272.941 356.364 271.261ZM365.478 262.844C364.908 260.746 364.927 258.461 364.366 256.312C363.774 254.042 363.046 251.765 362.836 249.419C371.375 250.928 376.225 259.402 379.923 266.474C381.888 270.232 383.815 274.388 384.556 278.589C385.28 282.682 384.025 285.791 382.567 289.439C381.824 291.301 380.595 291.948 379.161 293.178C377.891 294.268 377.415 296.108 376.091 297.088C375.113 297.812 373.841 298.188 372.819 298.919C371.808 299.64 370.797 300.356 369.755 301.03C368.562 301.801 364.989 304.61 363.38 304.01C362.175 303.562 362.712 302.087 363.015 301.163C363.654 299.214 364.103 297.337 364.498 295.306C365.552 289.885 366.123 284.498 366.396 278.984C366.662 273.6 366.911 268.1 365.478 262.844ZM358.337 287.294C358.465 287.561 358.999 289.836 357.809 289.369C356.981 289.044 358.216 287.712 358.337 287.294ZM363.368 196.94C364.376 196.523 364.779 197.755 365.665 197.792C366.841 197.84 367.088 196.533 368.322 196.494C371.34 196.399 375.712 199.315 378.165 200.837C376.964 202.356 376.468 203.909 377.066 205.779C377.592 207.427 379.603 209.269 379.529 211.014C379.454 212.765 377.278 213.892 376.599 215.449C375.976 216.88 375.738 219.74 377.663 220.37C380.974 221.455 381.731 215.254 384.24 215.206C385.313 215.186 386.707 217.202 387.478 217.83C389.206 219.237 391.154 220.264 393.163 221.198C394.52 221.828 396.408 223.069 397.413 221.376C398.219 220.019 397.561 217.869 396.778 216.702C395.879 215.363 387.827 209.234 388.335 208.694C388.606 208.406 390.611 209.2 390.895 209.441C391.537 209.985 391.773 210.869 392.417 211.448C393.399 212.331 394.668 212.681 395.882 213.09C398.417 213.942 400.021 216.938 402.478 218.333C403.895 219.138 404.76 220.683 405.959 221.88C407.528 223.446 409.127 225.088 408.891 227.395C408.727 228.993 408.49 232.717 407.586 234.065C406.605 235.529 404.972 234.968 403.481 235.313C401.804 235.702 400.462 237.011 400.796 238.881C401.143 240.824 402.697 240.963 404.321 241.012C408.901 241.151 407.214 244.059 408.811 247.253C409.679 248.988 411.127 249.669 412.123 247.639C412.924 246.005 411.492 243.429 412.362 242.035C413.422 240.335 419.097 240.797 420.28 242.117C421.177 243.119 421.652 244.496 422.547 245.543C423.904 247.133 424.462 249.363 425.277 251.312C426.142 253.382 426.896 255.482 427.559 257.626C428.024 259.133 429.029 261.519 426.623 260.232C424.943 259.334 423.687 257.307 421.558 257.243C419.452 257.179 418.252 259.367 418.867 261.269C419.462 263.11 422.177 263.921 422.492 265.788C422.837 267.83 419.34 269.913 418.278 271.415C415.833 274.872 417.878 278.764 421.886 275.829C423.307 274.789 424.795 272.691 426.397 272.034C428.932 270.993 428.917 274.847 430.132 276.265C430.786 277.028 431.022 276.253 430.634 277.393C430.492 277.813 429.768 277.945 429.686 278.468C429.627 278.85 429.971 279.053 429.983 279.349C430.023 280.354 430.025 280.502 429.798 281.594C429.549 282.805 429.639 284.309 429.565 285.54C429.391 288.352 429.354 291.038 429.059 293.848C428.895 295.412 428.552 298.6 430.398 299.362C429.741 300.392 428.866 303.258 427.574 303.042C427.679 303.72 427.62 304.587 428.279 305.03C428.436 304.616 428.594 304.203 428.751 303.789C429.113 304.735 428.795 304.843 428.773 305.487C428.8 304.69 428.046 306.598 428.454 306.363C428.107 306.653 427.65 306.818 427.128 307.194C426.4 307.717 426.017 308.441 425.452 309.15C424.429 310.43 424.488 311.724 423.593 313.059C422.323 314.954 420.693 316.824 419.355 318.717C418.266 320.258 416.19 321.147 415.317 322.803C414.762 323.857 414.541 325.082 413.594 325.823C412.238 326.884 410.424 327.884 408.951 328.98C408.024 329.669 407.319 330.625 406.395 331.293C405.927 331.632 404.517 331.975 404.515 332.665C402.741 332.168 401.485 330.356 400.09 329.253C399.158 328.516 396.938 327.559 397.072 326.082C397.183 324.873 398.9 323.374 399.296 322.107C399.632 321.033 400.099 319.03 399.171 318.113C397.223 316.189 395.015 320.318 393.969 321.418C391.812 323.685 390.895 321.399 389.122 319.753C386.289 317.123 384.509 319.851 385.506 323.125C386.011 324.783 387.934 326.261 388.058 327.953C388.196 329.814 386.181 330.748 385.383 332.235C384.63 333.636 384.282 336.098 385.698 337.258C387.259 338.538 388.616 337.024 389.637 335.843C390.43 334.926 391.311 332.907 392.6 332.793C394.213 332.649 396.859 335.58 398.087 336.484C396.222 337.024 395.099 338.586 393.522 339.586C391.488 340.877 388.647 341.183 386.37 342.069C384.225 342.904 382.295 343.584 380.253 344.62C377.829 345.849 374.864 346.156 372.297 347.051C370.006 347.85 367.833 348.971 365.492 349.631C362.854 350.375 360.116 350.822 357.456 351.494C355.182 352.068 352.514 352.621 350.17 352.625C347.799 352.629 347.848 351.161 347.09 349.205C346.189 346.881 344.698 344.842 343.746 342.575C342.841 340.419 344.208 339.6 345.519 337.95C346.755 336.395 346.428 336.152 348.02 337.243C350.118 338.68 351.503 337.708 353.134 336.056C354.586 334.587 355.119 333.366 357.207 334.389C359.297 335.412 361.288 337.078 363.533 337.745C365.302 338.271 366.62 337.889 366.916 335.954C367.236 333.864 366.044 332.379 364.542 331.138C363.398 330.194 360.899 329.073 360.481 327.54C360.041 325.926 362.361 323.57 362.609 321.764C362.921 319.485 361.94 317.81 359.777 319.387C358.208 320.531 357.164 323.014 354.987 323.168C355.591 320.63 356.903 318.376 358.029 316.05C358.972 314.104 359.781 311.894 362.313 311.677C363.135 311.606 363.669 311.692 364.452 311.551C365.486 311.365 366.889 311.217 367.995 310.938C370.597 310.28 372.894 308.272 375.289 307.12C375.839 308.598 376.811 312.808 379.047 310.35C380.701 308.532 378.869 305.403 380.393 303.381C383.536 299.208 390.384 302.272 394.514 300.12C396.312 299.184 397.776 296.197 395.24 295.296C393.759 294.77 389.481 296.712 388.59 295.281C387.955 294.259 390.617 290.269 390.939 289.173C391.94 285.759 391.778 282.216 391.778 278.7C393.788 279.523 396.331 281.448 398.497 281.711C400.724 281.982 401.115 279.367 400.532 277.649C399.727 275.283 397.047 273.344 395.211 271.819C394.401 271.148 392.28 270.066 391.836 269.044C391.378 267.989 392.035 267.479 392.549 266.562C393.353 265.129 395.301 261.426 393.181 260.084C391.232 258.849 390.138 262.31 388.896 263.051C386.788 264.307 386.066 261.429 385.228 259.964C383.707 257.305 381.599 254.932 379.707 252.539C377.984 250.361 376.923 248.887 376.672 246.112C376.481 244.009 376.052 242.382 378.53 241.905C382.924 241.058 389.357 243.144 392.926 239.569C394.798 237.694 393.461 235.755 391.097 235.852C387.992 235.979 385.04 236.132 381.915 235.88C380.254 235.746 376.781 236.15 375.943 234.437C374.863 232.232 376.694 228.69 374.706 226.758C372.168 224.29 371.547 229.867 371.462 231.406C371.401 232.528 371.688 234.236 370.99 235.206C370.339 236.111 369.148 236.098 368.186 236.425C365.76 237.25 364.507 240.231 367.725 240.861C368.807 241.074 370.317 240.765 371.217 241.568C372.159 242.407 371.799 243.901 371.887 245.033C369.633 242.419 364.947 243.578 361.894 242.607C360.287 242.096 360.015 241.415 359.339 239.858C358.52 237.973 356.655 235.59 356.583 233.506C356.523 231.737 357.996 230.406 358.683 228.881C359.274 227.572 359.807 225.442 359.72 223.974C359.51 220.432 353.121 224.048 351.805 225.403C349.416 227.862 346.472 231.043 347.767 234.527C348.921 237.635 349.534 239.398 345.528 239.154C344.061 239.064 340.981 239.355 339.843 238.735C338.998 238.275 339.315 237.451 339.287 236.256C339.264 235.222 339.342 233.654 338.678 232.749C336.341 229.569 335.794 237.483 334.482 238.34C332.432 239.681 328.091 238.276 328.426 242.255C328.719 245.736 333.424 244.315 334.726 247.31C335.352 248.753 335.219 250.432 336.008 251.825C337.133 253.809 338.518 253.703 339.264 251.635C339.787 250.181 339.089 248.688 339.492 247.316C340.074 245.334 342.844 245.518 344.548 245.293C346.619 245.021 348.425 244.499 350.395 243.862C352.826 243.075 352.694 244.367 353.089 246.237C353.548 248.406 354.25 250.497 354.681 252.699C355.082 254.75 356.146 256.96 356.32 259.013C356.452 260.583 355.92 260.44 354.62 261.346C353.199 262.336 351.635 264.909 349.987 265.333C347.507 265.969 345.007 260.299 342.751 263.201C341.782 264.446 342.157 267.098 342.846 268.385C343.756 270.085 345.429 270.518 344.027 272.466C342.973 273.929 341.648 275.062 341.549 277.031C341.457 278.859 342.699 280.588 344.643 280.051C346.212 279.618 347.14 278.01 348.329 277.033C350.381 275.348 352.066 276.909 354.167 277.863C355.82 278.614 358.859 279.104 359.688 280.87C360.741 283.111 359.391 283.978 357.435 283.341C358.197 285.846 357.194 287.302 356.919 289.892C356.696 291.989 356.214 293.906 355.907 295.933C355.499 298.64 355.456 298.346 352.671 298.438C350.305 298.516 348.005 298.453 345.642 298.349C343.561 298.258 342.145 298.446 342.051 295.933C342.009 294.825 342.709 291.065 340.524 291.516C338.6 291.914 339.154 295.349 338.51 296.639C337.579 298.508 336.004 297.937 334.252 298.398C332.469 298.868 331.029 300.184 331.488 302.217C331.98 304.389 333.969 304.237 335.699 304.74C338.362 305.513 337.778 309.432 339.333 311.56C339.967 312.428 340.635 313.306 341.7 312.593C343.653 311.286 341.809 308.092 342.326 306.489C342.868 304.804 344.698 305.149 346.428 304.93C348.981 304.608 351.654 303.376 354.197 303.391C353.71 304.86 352.343 305.713 351.852 307.259C351.588 308.087 351.834 309.635 351.468 310.32C351.074 311.056 349.833 311.276 349.32 312.3C348.649 313.641 348.441 315.077 347.655 316.39C345.797 319.496 344.196 322.671 342.221 325.744C340.182 328.919 337.983 331.94 335.418 334.691C332.929 337.362 332.186 336.068 330.047 333.886C329.176 332.997 327.327 331.969 327.085 330.642C326.846 329.335 327.928 328.267 328.52 327.203C329.305 325.792 330.723 323.363 330.377 321.67C329.729 318.49 326.886 321.418 325.809 322.608C323.927 324.688 322.874 326.874 320.03 325.232C318.209 324.18 315.912 321.301 313.523 322.366C311.347 323.335 311.956 326.135 313.295 327.556C314.044 328.351 315.113 328.807 315.908 329.552C317.62 331.157 316.651 331.593 315.869 333.391C315.23 334.863 315.137 337.757 316.316 338.983C318.637 341.395 320.431 336.529 322.584 336.43C323.605 336.383 327.848 339.168 328.15 340.17C328.681 341.93 324.103 344.03 322.887 344.856C320.058 346.776 316.976 348.733 313.794 350.006C310.038 351.509 312.837 346.774 310.784 345.201C308.114 343.154 307.908 348.761 307.634 350.154C306.905 353.859 302.992 353.955 299.835 354.874C297.825 355.459 295.814 356.08 293.783 356.589C292.06 357.021 290.131 357.011 288.461 357.545C286.996 358.014 285.993 358.966 284.354 358.977C283.822 358.981 283.359 358.8 282.845 358.788C281.809 358.762 280.859 359.355 279.869 359.294C278.222 359.191 278.939 358.672 278.365 357.522C277.827 356.444 276.458 356.047 275.393 355.711C272.339 354.745 269.796 355.591 269.352 351.707C269.216 350.515 269.396 345.618 267.128 346.19C264.478 346.858 266.81 352.678 265.165 354.137C264.365 354.846 263.156 354.492 262.191 354.702C260.608 355.046 259.914 356.242 258.18 356.162C256.718 356.095 255.356 355.446 254.081 354.801C252.181 353.839 249.914 353.202 248.33 351.735C246.159 349.723 245.206 346.591 244.28 343.872C242.918 339.866 242.337 335.874 242.118 331.674C242.042 330.21 241.42 329.177 241.16 327.834C240.884 326.405 241.7 326.118 241.889 324.765C242.071 323.448 241.983 322.043 242.259 320.633C242.657 318.605 242.796 316.531 243.182 314.497C243.821 311.134 244.789 307.794 245.584 304.461C245.83 303.425 246.278 300.106 247.555 299.788C248.498 299.552 250.675 300.956 251.549 301.368C253.276 302.183 254.761 303.309 256.61 303.873C257.563 304.164 258.767 304.135 259.393 305.021C260.383 306.422 259.583 309.167 259.993 310.823C260.495 312.851 262.157 313.713 263.496 311.677C264.209 310.591 264.019 309.296 264.115 308.096C264.252 306.366 264.282 305.947 266.155 306.064C268.052 306.182 269.904 306.899 271.848 306.986C273.602 307.064 275.364 307.015 277.116 306.92C281.37 306.687 285.262 305.995 289.251 304.48C291.954 303.454 295.088 301.211 298.067 301.29C302.271 301.401 301.133 305.294 301.708 308.206C302.059 309.978 305.023 315.418 306.161 311.003C306.724 308.819 304.848 305.635 305.96 303.662C307.272 301.331 312.098 303.265 314.293 302.726C316.069 302.289 319.039 299.769 317.784 297.596C317.19 296.567 316.036 296.762 315.006 296.685C313.056 296.539 311.119 296.273 309.184 295.988C308.084 295.826 306.402 295.731 305.962 294.467C305.589 293.395 307.339 290.613 307.719 289.587C308.976 286.189 309.429 283.426 309.434 279.721C309.436 278.052 309.545 276.29 309.277 274.639C309.178 274.034 308.27 272.058 308.695 271.48C309.267 270.701 310.437 271.689 310.906 272.272C311.84 273.434 311.515 273.341 310.985 274.544C310.204 276.315 308.686 280.027 311.26 281.39C313.952 282.815 314.925 277.999 317.476 278.527C318.665 278.773 319.839 280.337 320.797 281.068C321.919 281.923 323.13 282.83 324.449 283.355C326.611 284.216 329.042 283.571 328.168 280.85C327.479 278.705 325.299 276.91 323.74 275.39C321.256 272.967 321.369 271.949 323.085 269.095C323.803 267.9 326.56 262.829 323.364 262.417C321.673 262.198 319.843 264.941 318.95 265.991C317.416 267.792 316.537 268.565 314.255 267.119C312.025 265.705 310.989 264.524 308.291 264.393C305.188 264.244 303.792 259.58 302.146 257.184C297.676 250.679 290.832 247.461 285.062 242.476C282.25 240.046 280.351 236.868 278.213 233.878C277.195 232.453 275.88 231.27 275.05 229.718C274.528 228.742 273.114 226.389 273.482 225.237C273.94 223.803 276.413 222.918 277.442 221.906C278.306 221.056 278.766 219.997 280.125 220.322C281.333 220.61 282.423 222.247 283.411 222.966C284.38 223.671 285.475 224.326 286.551 224.854C288.496 225.808 290.845 226.318 290.959 223.416C291.058 220.905 288.768 218.216 287.114 216.522C285.91 215.289 284.086 214.217 284.325 212.26C284.442 211.289 285.267 209.561 285.748 208.746C287.407 205.943 292.472 207.654 295.224 207.833C298.54 208.05 302.196 207.493 304.832 209.84C305.691 210.605 307.684 212.108 308.106 213.173C308.597 214.413 307.795 214.971 307.349 216.171C306.773 217.722 306.377 220.783 308.036 221.853C310.805 223.637 312.248 218.344 315.126 219.502C317.856 220.6 319.764 223.756 322.88 224.256C326.957 224.909 324.635 219.855 323.224 218.368C321.394 216.44 317.845 214.446 319.007 211.595C319.339 210.78 320.098 209.08 320.78 208.575C322.115 207.584 324.268 208.128 325.797 208.144C329.657 208.185 333.3 207.868 337.082 207.193C338.223 206.989 338.482 206.828 339.286 207.678C340.398 208.853 340.983 210.384 342.277 211.54C340.407 213.555 337.636 215.934 338.936 219.036C340.054 221.705 342.506 220.395 344.165 218.969C344.944 218.3 345.749 216.883 346.781 216.614C348.121 216.265 349.627 217.483 350.724 218.101C352.371 219.029 355.893 221.781 357.764 220.157C360.238 218.008 357.31 214.775 355.606 213.448C354.575 212.645 353.202 212.073 352.335 211.082C351.18 209.764 351.858 209.57 352.557 208.382C353.837 206.208 353.368 203.409 355.415 201.71C356.551 200.768 358.174 200.176 359.471 199.486C360.746 198.806 362.116 197.457 363.368 196.94ZM384.23 205.394C383.732 205.089 383.234 204.784 382.737 204.479C383.875 203.924 384.626 203.99 384.23 205.394ZM411.703 231.809C411.904 230.794 412.686 228.979 413.763 229.928C414.457 230.538 413.699 232.829 415.35 232.195C415.434 233.654 414.348 233.53 415.951 234.828C413.928 234.594 411.136 234.686 411.703 231.809ZM333.201 354.814C333.71 353.447 333.706 351.328 335.274 352.577C335.356 350.922 334.964 345.674 337.969 345.887C339.194 345.974 339.18 347.055 339.504 347.991C340.068 349.623 341.022 351.111 341.824 352.632C338.843 352.753 335.86 353.435 333.201 354.814ZM334.177 373.675C335.881 374.962 336.735 373.443 338.343 372.888C339.827 372.376 341.368 372.683 343.013 372.32C345.052 371.869 347.454 371.937 349.447 371.92C349.938 371.916 350.965 371.993 351.461 372.05C352.365 372.154 352.284 372.341 353.219 372.593C353.581 372.51 353.946 372.449 354.314 372.411C354.766 372.391 355.121 372.578 355.382 372.971C356.223 373.252 356.53 373.065 357.335 373.262C359.254 373.73 360.686 374.886 361.939 376.418C364.49 379.538 364.566 384.226 364.507 388.087C364.491 389.186 364.406 390.28 364.528 391.377C364.639 392.383 365.35 393.903 365.06 394.903C364.62 396.417 363.257 396.076 361.67 396.144C360.735 396.184 359.803 396.786 359.059 396.84C358.34 396.892 358.051 396.626 357.323 396.464C355.424 396.039 353.184 396.645 351.31 397.162C349.388 397.692 347.703 398.215 345.754 398.591C344.486 398.835 343.345 398.974 342.066 399.134C341.017 399.265 340.564 399.817 339.649 400.045C338.766 400.264 337.905 399.936 337.015 400.108C335.801 400.343 334.955 401.233 333.849 401.677C332.324 402.288 329.887 401.375 329.212 403.26C328.947 401.442 327.203 401.936 325.905 401.775C323.766 401.51 321.658 400.55 319.601 399.938C317.914 399.437 312.081 394.813 310.964 396.689C310.966 396.5 311.168 395.425 310.992 395.301C310.37 394.864 310.375 395.104 309.705 394.83C308.68 394.411 308.248 394.033 307.515 393.326C306.033 391.898 304.039 391.151 302.478 389.855C298.556 386.6 297.214 379.895 296.257 375.228C295.006 377.446 295.467 374.599 295.683 373.648C296.195 371.404 295.536 370.297 295.388 368.129C295.25 366.135 296.16 365.74 297.96 365.532C300.178 365.274 302.314 364.915 304.486 364.362C306.561 363.833 308.594 363.236 310.466 362.185C312.18 361.222 313.977 360.843 315.729 360.001C317.662 359.072 319.556 358.094 321.506 357.189C322.385 356.781 326.254 353.862 326.925 354.039C328.304 354.405 327.003 356.82 326.582 357.453C325.502 359.081 323.729 359.835 322.129 360.86C320.686 361.783 316.309 366.156 320.752 365.717C323.696 365.427 325.691 362.341 327.574 365.858C328.239 367.1 329.217 368.096 328.453 369.38C327.385 371.169 324.307 372.023 322.692 373.228C321.317 374.255 318.502 379.095 321.339 379.615C322.154 379.763 323.411 379.571 324.017 378.937C324.426 378.509 324.397 377.63 324.811 377.337C325.397 376.922 326.535 377.436 327.205 377.209C328.158 376.884 328.382 376.364 328.732 375.449C329.75 375.913 329.764 376.536 330.927 375.937C331.312 375.738 331.454 375.009 331.9 374.814C332.5 374.553 332.678 375.41 333.007 375.283C333.898 374.942 333.895 374.557 334.177 373.675ZM273.073 359.437C271.366 359.565 269.502 359.702 268.044 358.614C269.815 358.721 271.376 359.12 273.149 358.755C273.855 358.609 274.983 357.944 275.706 358.175C278.273 358.998 273.756 359.385 273.073 359.437ZM268.332 209.248C268.306 208.648 267.797 200.568 270.557 203.742C271.312 204.61 270.498 205.773 270.39 206.733C270.209 208.351 270.776 209.973 271.629 211.336C272.423 212.606 273.909 213.719 273.686 215.376C273.491 216.83 272.024 218.071 271.301 219.278C269.523 216.476 268.475 212.62 268.332 209.248ZM262.266 124.456C255.871 125.129 249.508 126.32 243.342 128.158C237.288 129.962 231.644 132.784 225.956 135.486C224.783 130.466 223.555 125.458 222.397 120.434C221.84 118.016 221.308 115.592 220.786 113.165C220.415 111.44 219.065 108.224 219.628 106.526C219.927 105.627 220.322 105.624 220.965 105.068C221.358 104.729 222.042 103.9 222.449 103.723C223.441 103.292 225.988 102.914 227.003 102.975C227.927 103.031 228.411 103.399 229.362 103.132C230.173 102.906 230.853 102.283 231.613 101.941C233.548 101.071 235.963 100.779 238.032 100.319C240.023 99.876 242.079 99.7776 244.075 99.3387C245.823 98.954 246.654 97.667 248.145 97.7133C252.025 97.8346 256.317 97.3801 260.167 96.4529C264.487 95.4127 269.186 95.6136 273.618 95.5022C275.384 95.458 276.625 95.0607 276.634 97.0266C276.644 99.4262 275.686 102.119 275.197 104.462C274.113 109.655 273.194 114.703 272.784 119.976C272.579 122.614 271.498 122.429 269.354 123.239C266.968 124.139 264.803 124.19 262.266 124.456ZM228.642 177.736C230.218 177.969 230.037 173.659 230.153 172.783C233.909 179.868 238.141 186.687 241.451 194.005C242.225 195.716 242.927 197.467 243.745 199.158C244.304 200.315 245.556 201.869 245.526 203.215C245.494 204.621 244.359 205.146 243.163 205.668C241.87 206.23 241.366 206.511 240.455 205.86C239.352 205.072 238.431 202.644 237.751 201.474C236.711 199.687 235.715 197.875 234.696 196.076C232.851 192.815 230.674 189.693 229.158 186.27C227.738 183.063 225.589 180.304 224.058 177.153C222.542 174.033 220.468 171.076 218.725 168.022C220.475 167.294 222.657 165.474 224.645 165.575C226.699 165.68 226.649 167.662 226.738 169.314C226.832 171.068 226.245 177.382 228.642 177.736ZM233.688 209.749C232.751 210.861 230.638 211.514 229.342 212.131C227.547 212.984 225.709 213.744 223.923 214.615C218.062 217.475 212.225 220.094 206.255 222.72C203.168 224.077 200.119 225.52 197.108 227.036C195.53 227.829 192.054 230.611 190.238 230.681C188.158 230.762 188.109 226.56 187.65 224.984C187.265 223.665 186.55 222.638 186.069 221.388C185.873 220.877 186.026 220.49 185.727 219.984C185.387 219.408 184.434 218.943 183.945 218.446C181.865 216.334 180.141 213.645 178.384 211.265C176.775 209.085 174.031 206.356 173.259 203.685C171.741 198.434 180.559 195.527 183.932 193.417C189.839 189.723 195.774 185.929 201.404 181.825C203.969 179.955 206.48 178.012 209.057 176.159C210.26 175.295 213.594 171.932 215.138 173.129C215.713 173.576 215.724 174.811 215.964 175.458C216.488 176.872 217.284 178.107 218.09 179.375C218.806 180.498 219.824 181.66 220.272 182.913C220.805 184.408 220.78 185.254 221.756 186.595C223.532 189.034 224.37 191.846 226.021 194.332C227.613 196.729 229.142 198.497 230.183 201.175C230.78 202.71 231.722 204.072 232.555 205.483C232.947 206.15 233.357 206.805 233.709 207.495C234.338 208.728 234.56 208.713 233.688 209.749ZM183.308 230.259C182.182 231.066 180.523 229.71 179.43 229.692C178.955 229.683 178.483 230.054 178.165 230.044C177.21 230.016 176.43 229.374 175.551 229.075C171.493 227.695 166.655 227.642 163.188 224.838C156.301 219.269 159.585 208.094 160.839 200.854C161.095 199.377 161.554 197.333 160.362 196.124C159.054 194.798 157.088 195.589 155.891 196.662C154.663 197.761 153.829 199.301 152.808 200.585C151.183 202.63 149.408 204.562 147.616 206.46C141.248 213.204 134.505 220.919 126.629 225.868C123.352 227.926 120.387 230.716 116.796 232.284C112.477 234.172 116.911 226.887 117.688 225.703C122.771 217.957 130.172 211.824 136.388 205.024C137.561 203.741 139.227 202.011 139.247 200.162C139.279 197.385 136.827 197.635 134.888 198.405C133.075 199.126 132.166 200.921 130.707 202.147C128.891 203.674 126.768 204.912 124.747 206.143C120.386 208.801 115.757 211.03 111.143 213.205C108.984 214.221 106.815 215.216 104.646 216.212C104.051 216.485 100.493 218.742 100.663 216.807C100.686 216.547 102.956 213.79 103.236 213.688C104.633 213.177 105.326 214.719 106.57 212.698C107.454 211.263 107.577 210.518 108.824 209.428C109.036 209.244 109.183 208.775 109.355 208.471C109.333 208.586 110.282 207.663 110.1 207.823C110.349 207.604 110.711 207.2 110.913 206.936C111.889 205.663 113.763 205.638 114.611 204.183C114.935 203.629 114.751 202.918 115.141 202.368C115.687 201.596 116.888 201.268 117.529 200.589C118.079 200.006 118.532 199.53 118.873 199.173C119.108 198.927 119.52 198.755 119.798 198.474C120.49 197.774 120.436 197.154 121.404 196.566C122.273 196.038 122.673 196.532 122.973 195.224C124.031 195.903 123.899 194.91 124.328 194.2C124.886 193.275 125.596 192.863 126.365 192.194C128.058 190.721 129.644 188.53 131.085 186.676C134.667 182.067 137.564 176.678 138.631 170.894C138.886 169.512 139.027 168.114 139.128 166.712C139.182 165.975 138.942 164.179 139.399 163.457C140.107 162.336 141.453 162.781 142.477 162.291C142.825 162.124 143.168 161.633 143.494 161.521C143.951 161.365 144.51 161.517 144.983 161.367C145.167 161.309 145.21 160.767 145.515 160.698C146.112 160.561 146.705 160.778 147.295 160.787C148.586 160.804 149.861 160.576 151.1 160.164C152.226 159.79 153.17 158.932 154.294 158.622C154.179 158.654 156.146 158.81 156.04 158.7C156.135 158.215 156.229 157.73 156.323 157.246C157.07 157.767 159.617 158.456 160.408 158.336C161.678 158.145 161.41 157 162.487 158.504C163.096 157.972 163.706 157.44 164.315 156.909C164.777 158.846 167.956 157.906 169.398 158.013C171.429 158.165 173.028 157.783 174.879 158.49C177.13 159.351 179.104 160.259 181.529 160.493C183.223 160.657 183.927 161.453 185.587 161.945C187.817 162.605 187.993 163.333 187.296 165.612C186.73 167.46 186.241 168.885 187.068 170.78C188.534 174.143 192.517 175.527 195.085 177.851C189.069 182.074 183.129 186.228 177.313 190.728C174.876 192.612 172.284 194.501 170.897 197.336C169.617 199.953 168.891 203.098 168.121 205.9C166.354 212.323 171.33 216.646 176.443 219.471C177.501 220.055 184.787 229.201 183.308 230.259ZM173.386 238.023C173.026 236.788 173.073 236.458 174.266 236.015C174.717 235.847 176.447 235.628 176.727 236.247C177.361 237.653 174.029 237.635 173.386 238.023ZM224.083 148.502C224.511 151.243 224.931 153.986 225.313 156.733C225.523 158.251 226 159.594 224.869 160.739C224.227 161.389 222.669 161.631 221.848 161.978C220.665 162.477 219.512 163.05 218.374 163.646C216.346 164.708 214.226 165.348 212.224 166.306C211.353 166.722 210.837 167.542 210.083 168.108C209.051 168.882 207.796 169.258 206.732 169.994C204.83 171.311 203.086 172.87 201.185 174.195C199.031 175.697 198.582 175.215 197.372 172.995C196.286 171.003 194.983 170.094 193.419 168.532C192.811 167.924 190.635 164.463 192.483 164.164C192.957 164.088 194.594 164.799 194.964 165.028C195.528 165.373 196.428 167.339 196.886 167.372C197.711 167.432 198.768 165.083 199.282 164.464C202.652 160.407 206.36 156.395 210.265 152.846C212.289 151.007 214.415 149.331 216.71 147.846C218.342 146.791 219.766 145.311 221.375 144.31C221.715 144.015 222.101 143.804 222.534 143.678C223.373 143.297 223.688 143.626 223.479 144.665C223.961 145.682 223.909 147.38 224.083 148.502ZM150.366 144.91C151.186 144.076 152.22 143.409 152.935 142.479C153.337 141.954 153.603 141.015 154.064 140.675C154.867 140.084 156.015 140.357 156.949 139.564C157.851 138.797 158.643 137.88 159.524 137.085C161.433 135.362 163.403 133.778 165.276 132.024C166.341 131.028 167.457 129.734 168.403 129.076C168.654 128.902 168.934 128.642 169.201 128.508C169.771 128.221 170.055 128.513 170.886 128.245C171.436 128.069 171.829 127.373 172.27 127.043C173.319 126.26 174.686 125.949 175.695 125.196C176.705 124.442 177.191 123.271 178.58 122.642C180.261 121.882 181.521 122.483 182.736 121.028C183.231 120.436 183.367 119.689 184.145 119.315C185.082 118.864 185.905 119.343 186.8 118.83C187.403 118.485 187.816 117.76 188.439 117.382C189.554 116.707 190.788 116.635 191.831 115.8C192.711 115.095 192.222 115.167 193.265 114.87C193.723 114.739 194.231 114.683 194.72 114.516C196.287 113.981 198.846 113.327 199.774 111.84C200.245 112.528 200.407 112.667 201.171 112.454C201.573 112.127 201.941 111.768 202.276 111.376C202.522 111.687 202.786 111.706 203.067 111.432C204.721 110.863 206.238 109.887 207.867 109.345C208.098 109.469 208.329 109.594 208.559 109.718C208.88 109.736 209.01 109.579 208.949 109.247C209.59 109.13 210.329 108.848 210.919 108.591C212.052 108.098 213.302 106.925 214.636 107.345C216.864 108.046 216.97 112.59 217.354 114.39C218.302 118.829 219.255 123.265 220.207 127.702C220.593 129.508 220.933 131.327 221.443 133.102C221.776 134.262 222.604 135.972 222.305 137.206C221.938 138.718 220.463 139.21 219.23 139.909C217.53 140.873 215.886 141.942 214.277 143.052C207.447 147.764 202.354 154.243 197.512 160.891C196.614 159.587 194.211 157.756 192.713 157.168C191.664 156.757 190.72 157.089 189.675 156.587C188.93 156.228 188.312 155.528 187.608 155.077C183.307 152.323 178.117 150.046 173.132 148.953C162.905 146.71 152.892 150.183 142.975 151.832C144.987 149.065 147.996 147.321 150.366 144.91ZM218.826 69.8333C220.576 64.1288 223.523 58.6061 227.718 54.3265C229.833 52.169 232.319 50.2833 235.105 49.0838C237.529 48.041 240.412 47.0409 240.374 50.3942C240.292 57.6741 238.611 64.8713 238.405 72.1626C238.205 79.3077 239.401 85.0429 243.725 90.8005C240.986 91.4367 238.247 92.0822 235.518 92.7591C233.445 93.2729 231.296 93.8498 229.335 94.2027C227.396 94.551 225.613 94.778 223.697 95.4335C222.405 95.875 220.38 97.225 218.982 96.9319C216.658 96.4451 217.208 88.1083 217.089 86.1049C216.753 80.4483 217.157 75.2775 218.826 69.8333ZM261.299 80.817C264.474 76.9633 267.773 72.4672 273.114 71.7513C278.279 71.0594 280.182 77.2538 279.854 81.4302C279.743 82.8437 279.533 86.5136 278.506 87.6585C277.37 88.9252 275.355 87.9703 273.911 87.7751C267.683 86.9317 261.296 88.3395 255.05 88.3395C257.133 85.8311 259.227 83.3326 261.299 80.817ZM286.858 96.1863C289.024 96.4966 290.754 96.8272 289.708 99.2934C287.614 104.233 286.005 108.948 287.84 114.333C289.242 118.445 293.68 123.437 298.115 124.262C299.669 124.55 302.007 124.034 302.962 125.612C303.812 127.018 302.891 131.235 302.791 132.796C302.422 138.613 300.933 144.384 297.168 148.954C293.819 153.021 289.731 156.203 284.859 152.365C280.753 149.13 278.328 143.342 277.113 138.396C276.464 135.755 276.385 133.121 276.261 130.423C276.152 128.036 275.697 126.523 278.395 126.028C279.119 125.896 280.925 125.937 280.928 124.833C280.932 123.349 278.973 123.905 278.223 123.83C275.333 123.542 276.687 120.18 276.956 118.006C277.415 114.305 278.158 110.644 278.84 106.979C279.421 103.858 279.451 99.7672 280.713 96.8486C281.449 95.1446 285.412 95.9791 286.858 96.1863ZM292.179 107.149C292.507 105.136 292.683 102.622 294.679 101.51C296.873 100.288 297.971 102.279 299.054 103.906C301.925 108.221 305.103 112.26 305.573 117.617C305.63 118.256 305.903 119.539 305.288 119.981C305.013 120.179 304.356 119.658 303.932 119.689C301.657 119.852 300.012 120.462 297.782 119.178C293.418 116.664 291.386 112.004 292.179 107.149ZM309.336 119.2C308.867 114.515 306.704 110.361 304.287 106.406C303.096 104.455 300.781 102.323 299.959 100.263C299.518 99.1596 300.298 97.793 301.9 98.2662C302.698 98.5021 304.235 100.618 304.769 101.351C306.139 103.233 307.274 105.332 308.358 107.388C309.517 109.584 312.81 117.644 309.336 119.2ZM294.971 72.5494C295.225 68.1418 295.25 63.0803 298.105 59.4224C300.317 56.586 304.368 55.3511 307.654 54.2547C312.081 52.7771 317.398 52.5491 322.028 53.0265C326.103 53.4472 329.179 56.2216 331.693 59.2725C334.25 62.3749 336.231 66.3696 337.99 69.9796C338.43 70.8829 342.163 76.678 339.638 76.5431C338.637 76.4895 337.766 74.5341 336.999 73.9567C336.398 73.5043 335.687 73.5605 335.148 73.1987C334.57 72.8108 334.695 72.4521 334.248 71.9731C331.163 68.6796 328.326 70.5763 325 72.311C324.845 71.162 325.117 69.0274 324.156 68.1876C322.899 67.0886 321.586 68.8296 320.684 69.6834C319.863 70.4612 318.851 71.8783 317.817 72.299C316.475 72.8451 316.931 72.2646 315.765 71.806C313.417 70.8824 311.612 73.6157 310.425 75.2051C309.982 75.7981 309.258 77.2949 308.465 77.4553C307.698 77.6099 307.598 77.0638 306.937 76.8618C305.068 76.2917 304.55 77.625 303.954 79.2806C303.284 81.1423 302.714 82.9359 301.722 84.6748C299.967 87.7517 299.213 88.7638 300.601 92.1614C298.574 92.4623 298.149 92.7039 297.143 90.9051C296.108 89.0512 295.839 87.5132 295.904 85.3823C296.041 80.9258 294.71 77.0763 294.971 72.5494ZM342.028 93.6363C344.15 97.4691 345.498 102.803 345.476 107.17C345.465 109.336 345.338 112.001 344.327 113.966C343.356 115.852 341.325 116.796 339.454 117.6C334.944 119.537 329.863 119.514 325.121 118.651C322.66 118.202 320.266 118.492 318.159 117.013C316.575 115.899 314.663 114.818 314.199 112.777C314.004 111.922 314.304 111.206 314.242 110.368C314.319 109.969 314.29 109.58 314.156 109.2C313.879 109.041 313.601 108.885 313.319 108.734C313.098 108.098 313.522 107.388 313.413 106.723C313.282 105.92 312.616 105.267 312.304 104.539C311.447 102.533 312.059 101.411 313.665 100.048C314.049 99.7458 314.436 99.4465 314.825 99.1497C315.174 98.5973 315.56 98.5953 315.982 99.1424C316.747 99.1528 316.725 99.3887 317.529 99.1544C319.291 98.6411 320.769 96.7663 322.495 96.1077C323.165 95.8516 324.166 96.0692 324.711 95.597C325.197 95.1748 324.884 94.2897 325.312 93.8753C326.677 92.5513 328.825 93.8065 330.088 91.8818C331.118 90.3116 330.9 88.0833 331.005 86.3002C334.17 86.9051 335.54 89.9373 338.139 91.4627C338.654 89.4697 338.728 89.5291 340.713 88.9819C339.814 90.6453 341.268 92.2645 342.028 93.6363ZM344.449 72.4781C345.032 73.2288 345.477 75.0932 344.449 75.2733V72.4781ZM347.15 79.2592C351.981 79.2691 355.069 85.3766 356.479 89.16C358.012 93.2745 359.628 98.7618 356.767 102.769C355.669 104.305 354.323 104.447 352.558 104.247C350.43 104.007 349.339 103.699 350.172 101.426C351.732 97.1656 350.559 91.7496 347.794 88.1833C351.596 87.4487 349.186 83.961 347.278 82.6558C345.049 81.1319 343.248 79.2509 347.15 79.2592ZM236.859 300.054C235.723 303.069 234.568 306.074 233.614 309.18C232.71 312.123 233.234 315.44 232.11 318.27C231.419 317.928 231.22 317.321 230.619 316.952C230.249 316.723 229.604 316.633 229.285 316.382C228.739 315.95 227.413 314.344 227.054 313.722C225.812 311.566 226.64 308.063 227.304 305.848C228.125 303.105 229.528 300.471 231.412 298.31C232.734 296.795 233.463 297.277 235.23 298.023C236.275 298.464 237.352 298.746 236.859 300.054ZM228.249 323.838C227.342 325.675 225.664 327.189 224.667 329.041C223.621 330.984 222.829 333.174 221.496 334.952C220.138 336.763 218.918 336.46 217.048 337.242C216.377 337.522 216.095 338.042 215.555 338.448C214.542 339.207 213.431 339.673 212.367 340.349C211.61 338.491 209.297 329.165 206.353 329.365C203.795 329.538 205.104 334.421 205.434 335.862C205.712 337.078 206.031 338.314 206.455 339.489C206.884 340.675 208.219 342.452 207.725 343.753C207.097 345.406 205.536 345.297 204.754 344.091C204.1 343.083 203.768 341.713 203.286 340.615C202.862 339.65 200.925 334.37 199.25 335.189C197.638 335.978 200.146 341.097 200.566 342.102C201.58 344.53 203.524 346.864 200.954 348.809C197.054 351.763 192.251 353.986 187.881 356.116C185.33 357.358 183.037 358.993 180.359 360.002C177.873 360.939 174.999 361.099 172.595 362.176C172.004 362.441 172.4 362.771 171.536 362.925C170.812 363.054 169.546 362.708 168.768 362.715C167.481 362.727 166.191 362.825 164.907 362.664C164.183 362.572 162.535 361.779 162.796 363.089C161.772 362.805 161.376 361.771 160.629 361.126C159.964 360.55 159.113 360.238 158.371 359.786C156.835 358.851 155.686 357.786 155.225 356.005C154.143 351.822 156.43 347.469 159.253 344.553C160.873 342.88 162.774 341.489 164.26 339.688C164.781 339.056 165.152 338.321 165.814 337.808C166.624 337.178 167.735 337.1 168.52 336.463C169.104 335.989 169.278 335.234 169.89 334.799C170.795 334.156 171.854 334.423 172.709 333.579C173.197 333.097 174.871 330.827 174.753 330.198C175.212 330.351 175.671 330.505 176.129 330.659C176.408 329.26 178.82 327.534 180.01 326.864C180.612 326.525 181.784 326.542 182.232 326.178C182.828 325.692 182.779 324.675 183.252 324.065C184.607 322.32 187.444 321.536 189.239 320.321C191.523 318.773 193.741 317.021 195.804 315.19C199.974 311.489 203.651 307.188 206.654 302.49C207.864 300.598 208.986 298.668 209.848 296.594C210.378 295.317 210.907 293.047 212.217 292.307C213.57 291.542 216.676 292.578 218.191 292.687C220.416 292.847 223.884 292.748 225.879 293.841C228.011 295.01 226.277 295.977 225.18 297.371C223.574 299.411 222.611 301.908 221.809 304.356C221.191 306.238 221.076 308.06 220.672 309.958C220.245 311.964 220.249 314.672 221.237 316.516C222.217 318.341 229.271 321.774 228.249 323.838ZM144.147 360.827C139.357 354.305 143.323 344.757 148.009 339.487C153.662 333.127 161.709 329.551 168.319 324.379C175.962 318.399 183.811 312.844 190.584 305.831C194.016 302.276 197.005 298.444 199.716 294.313C202.016 290.805 203.686 286.132 208.334 285.625C205.592 289.043 205.432 293.968 203.312 297.774C201.068 301.804 197.759 305.156 194.389 308.254C187.273 314.795 179.587 320.787 171.901 326.633C167.978 329.617 164.164 332.735 160.254 335.734C156.753 338.42 153.074 340.717 151.057 344.809C147.576 351.869 147.368 362.33 155.077 366.679C151.105 365.887 146.637 364.215 144.147 360.827ZM561.801 66.7049C560.384 63.869 557.728 62.859 555.061 61.7496C552.45 60.6641 550.065 59.3266 547.169 58.9793C545.882 58.8247 542.251 59.2084 542.082 57.3425C541.94 55.7879 545.734 54.2276 546.608 53.0432C547.904 51.2876 548.785 48.4372 548.282 46.2199C547.806 44.1171 545.761 43.4527 543.851 43.0716C537.913 41.8872 531.598 42.7582 525.643 43.245C526.372 42.2256 527.399 41.3895 527.984 40.1686L528.928 42.1314C529.465 41.0089 530.048 39.9073 530.717 38.8561C531.169 39.3643 531.622 39.8729 532.074 40.3811C531.322 37.742 533.851 37.7555 533.585 35.5309C533.481 34.6656 532.895 34.2866 532.752 33.5911C532.469 32.2083 533.536 31.3435 532.321 30.0612C530.969 28.6332 528.757 29.1996 527.183 29.3329C526.986 29.3501 526.699 29.741 526.444 29.7728C526.09 29.8176 525.886 29.3303 525.448 29.3563C524.275 29.4255 523.24 30.3372 522.074 30.6141C516.668 31.898 511.26 34.1877 506.071 36.3254C500.789 38.5016 495.603 41.0355 490.998 44.4508C486.068 48.1061 482.508 52.8052 478.572 57.4352C476.721 59.6109 474.807 61.7001 473.399 64.2069C472.671 65.5023 472.013 69.5709 470.703 70.1624C469.28 70.8048 465.702 68.9884 464.247 68.6531C460.822 67.8648 457.413 67.5358 453.901 67.6941C451.108 67.819 448.162 67.7446 445.392 68.0861C443.784 68.2845 439.777 70.0687 439.519 72.0637C439.406 72.9503 440.421 73.6875 440.649 74.5184C440.994 75.7752 440.425 77.1065 440.821 78.3659C441.63 80.9336 445.385 81.8785 447.598 82.687C453.776 84.9455 460.038 86.6964 466.28 88.718C468.992 89.5968 471.311 90.9957 473.767 92.4003C475.805 93.5645 477.664 94.7291 475.606 96.9152C473.656 98.9862 473.899 99.8218 474.48 102.675C475.093 105.686 475.305 108.73 476.103 111.711C476.898 114.68 478.382 117.517 478.093 120.658C477.804 123.789 476.508 127.006 475.297 129.875C474.073 132.774 472.722 135.639 471.392 138.491C470.162 141.13 468.83 143.805 465.985 144.931C460.551 147.081 453.609 146.74 447.946 145.959C441.519 145.073 434.879 143.57 428.801 141.277C422.956 139.072 416.528 135.69 411.694 131.694C409.112 129.56 406.315 127.978 403.575 126.068C400.798 124.132 398.689 121.522 396.256 119.204C391.488 114.662 385.618 111.532 379.575 109.034C372.783 106.227 365.77 106.519 358.572 106.215C359.705 103.989 361.163 101.861 361.698 99.383C362.256 96.8017 361.852 93.9971 361.499 91.4184C360.813 86.3991 359.515 81.9816 356.347 77.928C354.898 76.0741 353.206 74.6288 350.793 74.3596C349.331 74.1962 346.629 75.3192 345.573 74.0806C345.109 73.5345 345.217 72.386 344.925 71.7133C344.666 71.1161 344.145 70.5154 343.862 69.8666C342.654 67.0938 341.146 64.6432 339.641 62.0125C339.042 60.9666 338.579 59.4224 337.762 58.542C337.318 58.063 336.747 57.8454 336.498 57.495C336.033 56.8396 335.819 55.6411 335.431 54.9013C334.767 53.6351 333.923 52.4585 332.949 51.4136C331.391 49.7435 329.387 48.2696 327.251 47.4376C326.065 46.9753 325.196 46.866 323.957 46.9336C323.594 46.9534 323.191 47.1627 322.828 47.1351C321.959 47.069 322.096 46.7577 321.399 46.6129C316.742 45.643 310.496 47.0039 306.128 48.6746C301.525 50.4343 297.788 52.7547 294.991 56.9244C288.122 67.1651 289.723 80.388 292.637 91.6673C290.874 91.2045 289.119 90.6568 287.34 90.2647C286.25 90.0242 284.763 90.0695 283.79 89.4942C281.625 88.2145 283.385 84.9304 283.398 82.8083C283.432 77.4168 280.888 68.9852 275.339 66.708C269.557 64.335 262.524 70.9959 258.949 74.773C256.657 77.196 254.572 79.8075 252.377 82.3179C250.844 84.0724 248.82 86.8697 246.132 86.4111C240.27 85.4115 242.058 74.2581 242.318 70.4883C242.73 64.5287 243.607 58.4738 243.612 52.4991C243.615 48.8672 242.986 43.9676 238.526 43.5418C232.389 42.9561 226.574 48.5392 222.995 52.8349C213.556 64.1622 211.47 79.1343 213.995 93.3484C214.366 95.4325 215.547 98.0028 213.292 99.2965C210.33 100.996 206.543 102.026 203.359 103.274C196.241 106.063 189.648 109.785 182.946 113.422C176.31 117.023 169.781 120.597 163.794 125.237C157.826 129.862 151.919 134.764 146.482 140.007C143.773 142.621 141.158 145.348 138.691 148.194C136.37 150.871 134.489 153.911 131.966 156.413C130.249 158.117 127.09 160.401 126.712 163C126.407 165.098 129.945 166.552 131.542 167.521C132.636 168.186 133.394 168.166 133.473 169.351C133.571 170.829 132.014 173.198 131.459 174.606C130.046 178.201 128.199 181.179 125.771 184.17C120.392 190.797 113.893 196.415 107.725 202.301C101.993 207.771 96.3765 213.154 92.1753 219.94C91.1459 221.603 88.5839 225.019 91.0185 226.575C91.6486 226.978 93.5821 227.296 94.2237 226.864C95.0186 226.327 94.6157 225.52 95.5551 224.982C95.3196 226.789 103.525 223.258 104.163 222.931C105.888 222.047 107.448 221.011 109.211 220.219C110.245 219.755 110.37 219.107 111.171 218.589C111.598 218.311 111.604 218.684 112.177 218.511C112.692 218.355 113.903 218.296 114.287 217.799C114.298 217.785 114.718 216.582 114.361 216.831C115.759 215.858 116.585 217.331 115.746 218.713C113.265 222.799 110.128 225.805 109.155 230.715C108.802 232.499 108.2 235.81 109.289 237.436C109.328 237.494 109.695 237.322 109.739 237.386C109.781 237.445 110.18 238 110.344 238.158C111.306 239.079 111.244 239.489 112.85 239.45C113.562 239.433 114.982 239.342 115.634 239.02C116.124 238.778 116.364 238.182 116.741 237.97C117.122 237.754 117.077 237.642 117.435 237.517C117.509 237.491 117.649 238.117 117.789 238.091C118.554 237.947 118.883 237.49 119.533 237.122C121.406 236.062 123.241 234.896 125.025 233.829C126.819 232.755 128.16 231.256 129.948 230.008C131.847 228.683 133.401 227.666 134.862 225.826C135.873 224.552 137.079 224.088 137.758 223.461C138.564 222.716 139.953 219.842 141.252 219.5C141.843 219.344 142.316 219.868 142.64 219.653C143.005 219.412 142.607 218.95 142.79 218.678C143.131 218.171 143.174 218.086 143.755 217.622C144.499 217.026 145.413 216.867 146.037 216.091C146.731 215.229 146.826 214.261 147.681 213.453C149.735 211.509 151.564 209.461 153.74 207.577C152.9 212.265 152.067 216.921 152.718 221.689C153.349 226.31 155.31 228.38 159.16 230.725C160.007 231.242 160.896 231.993 161.806 232.359C162.359 232.582 163.192 232.449 163.604 232.612C165 233.166 164.526 234.299 164.717 235.575C165.014 237.554 166.832 239.077 168.006 240.619C168.993 241.915 170.773 244.865 172.425 245.313C173.916 245.717 175.323 243.973 176.565 243.23C178.437 242.11 180.477 241.307 182.452 240.392C186.309 238.605 190.036 236.472 193.85 234.582C195.592 233.719 197.352 233.367 199.195 232.81C201.41 232.14 203.3 230.859 205.424 229.985C209.243 228.414 212.903 226.538 216.698 224.888C224.555 221.473 233.125 219.126 240.116 214.002C243.279 211.684 247.352 211.437 250.469 209.184C253.718 206.836 251.726 203.245 250.335 200.363C246.534 192.489 244.266 184.313 239.033 177.141C236.315 173.414 233.803 169.563 231.433 165.602C229.335 162.095 229.378 158.125 228.852 154.164C228.499 151.517 228.169 148.86 227.739 146.224C227.466 144.549 226.584 142.439 227.65 140.921C228.796 139.29 231.517 138.595 233.237 137.735C235.374 136.665 237.444 135.515 239.661 134.609C244.729 132.541 250.067 131.109 255.382 129.846C256.968 129.469 263.753 126.774 265.044 128.353C263.458 129.413 262.995 131.339 262.283 132.989C261.223 135.449 260.13 137.792 259.357 140.37C257.759 145.699 256.4 151.113 255.098 156.521C253.805 161.89 252.263 167.301 251.867 172.832C251.665 175.656 251.804 178.481 251.799 181.307C251.794 184.323 251.168 187.282 251.28 190.306C251.354 192.317 251.523 194.732 252.701 196.448C253.792 198.037 255.648 198.214 257.265 199.064C259.399 200.186 260.234 200.664 260.254 203.104C260.277 205.949 260.093 208.742 260.359 211.584C261.286 221.482 264.611 233.227 271.247 240.869C271.688 241.377 284.565 257.62 285.99 255.242C286.972 256.404 288.439 256.83 289.648 257.843C291.546 259.437 293.409 260.71 294.98 262.683C297.837 266.274 300.267 270.482 300.982 275.073C301.596 279.024 301.227 283.748 298.998 287.173C296.763 290.608 291.984 292.862 288.377 294.554C283.635 296.777 278.823 297.027 273.675 296.47C271.135 296.195 268.614 295.765 266.092 295.36C265.043 295.191 263.819 295.19 262.826 294.795C261.761 294.372 261.4 293.903 260.337 293.85C259.543 293.811 259.109 293.987 258.269 293.812C257.23 293.595 256.101 293.2 255.065 292.934C253.913 292.637 252.968 292.215 251.905 291.67C250.922 291.166 249.815 291.069 248.869 290.591C247.238 289.768 246.735 288.392 244.529 289.154C242.2 289.96 242.687 291.975 241.2 293.356C239.879 294.584 238.242 293.449 236.927 292.719C234.992 291.644 232.982 290.75 230.922 289.936C228.696 289.058 226.423 288.293 224.107 287.688C221.573 287.027 218.79 286.895 216.35 285.932C214.205 285.086 213.283 283.449 211.729 281.92C210.095 280.312 207.877 279.699 205.612 279.842C201.487 280.103 198.669 284.564 196.49 287.661C190.402 296.315 183.672 303.687 175.533 310.485C171.645 313.732 167.262 316.494 163.501 319.864C161.915 321.286 160.764 322.619 158.885 323.677C156.418 325.068 154.179 326.812 151.82 328.38C142.594 334.512 135.826 343.445 138.378 355.109C139.527 360.359 141.82 364.044 146.106 367.203C148.052 368.638 149.833 369.83 152.312 369.748C154.652 369.669 156.717 369.588 155.339 366.802C157.085 367.343 158.547 368.678 160.454 369.362C162.651 370.149 165.51 370.639 167.842 370.687C171.577 370.764 175.971 368.794 179.242 367.959C180.156 367.727 181.918 367.344 182.96 366.485C183.789 365.801 183.609 364.992 184.863 364.668C186.506 364.243 187.132 364.74 188.706 363.744C190.989 362.298 193.465 361.44 195.834 360.107C199.025 358.312 202.092 356.288 205.253 354.44C205.675 355.602 208.151 362.505 209.681 359.177C211.012 356.28 206.69 353.799 209.317 350.866C211.824 348.069 212.348 351.01 214.779 352.308C218.154 354.111 217.648 350.744 216.667 348.749C216.274 347.952 215.449 346.749 215.692 345.819C216.161 344.022 217.614 345.076 218.757 345.26C220.556 345.548 222.011 345.053 223.362 343.846C224.488 342.839 226.352 341.97 227.033 340.643C227.373 339.978 227.433 339.066 227.716 338.36C228.09 337.43 228.356 337.656 228.493 336.503C228.362 335.906 228.311 335.302 228.337 334.691C228.632 334.631 228.927 334.571 229.222 334.511C229.231 334.469 229.252 333.305 229.133 333.479C229.408 333.078 230 332.909 230.341 332.353C230.654 331.842 230.363 330.862 230.488 330.259C230.743 329.037 231.438 328.052 232.006 326.963C233.207 332.047 232.86 337.348 234.008 342.435C234.951 346.611 237.098 350.354 239.603 353.778C240.764 355.365 242.3 356.491 243.516 357.999C244.544 359.275 245.058 360.399 246.577 361.154C247.586 361.655 248.722 361.913 249.763 362.345C250.428 362.622 251.943 363.897 252.567 363.874C252.023 363.894 253.589 363.943 253.226 363.881C253.253 363.885 253.041 363.199 253.23 363.21C255.5 365.36 257.871 365.365 260.498 366.701C261.702 367.313 262.152 367.275 263.435 367.502C265.097 367.795 266.496 368.743 268.088 368.844C270.538 369 273.297 369.329 275.852 369.238C276.547 369.214 277.853 368.766 278.399 369.374C278.758 369.775 278.076 372.677 278.033 373.341C277.583 380.309 278.515 387.623 281.454 393.999C283.891 399.285 286.49 405.539 290.801 409.576C295.579 414.05 302.273 417.204 308.664 418.41C315.74 419.746 322.754 418.746 329.852 418.331C337.054 417.91 343.717 416.888 350.663 414.8C357.122 412.859 363.239 410.328 369.419 407.659C373.623 405.844 378.952 403.232 376.749 397.722C376.216 396.39 374.15 392.686 372.322 394.513C370.704 396.13 373.408 399.191 374.632 400.218C365.408 406.651 354.216 408.778 343.423 411.057C337.496 412.309 331.656 412.256 325.628 412.273C320.519 412.288 315.411 412.435 310.335 411.721C305.743 411.075 300.397 409.864 296.98 406.507C293.405 402.994 290.022 398.8 287.582 394.418C284.906 389.608 284.256 384.408 284.039 378.985C283.926 376.129 283.798 373.238 284.096 370.39C284.313 368.322 285.369 368.076 285.892 366.443C287.102 368.138 287.899 367.512 289.384 366.521C290.344 369.202 289.917 371.988 289.751 374.753C289.591 377.447 289.95 380.177 290.28 382.852C290.839 387.399 293.017 392.142 295.781 395.803C297.031 397.458 298.903 398.157 300.597 399.299C302.757 400.757 304.996 402.114 307.251 403.422C311.496 405.885 316.129 407.99 320.914 408.361C322.59 408.492 323.809 409.365 325.807 409.243C326.992 409.17 328.187 408.764 329.37 408.797C330.556 408.829 331.574 409.208 332.792 409.12C337.854 408.753 343.072 407.095 348.084 406.184C353.51 405.198 358.97 404.136 364.15 402.189C366.395 401.345 368.248 400.257 369.501 398.137C370.396 396.623 370.161 393.907 371.829 393C370.737 391.592 371.143 391.343 372.086 390.083C372.527 389.495 373.949 387.94 372.224 387.969C372.748 385.699 371.872 383.504 371.498 381.283C371.337 380.324 371.38 378.872 370.787 378.046C370.441 377.565 369.865 377.555 369.555 377.201C369.236 377.194 368.986 377.06 368.806 376.802C368.785 376.423 368.962 376.191 369.338 376.109C369.251 375.358 369.807 375.628 369.251 374.454C368.494 372.852 367.057 371.457 365.696 370.368C364.536 369.44 363.682 367.792 362.344 367.297C360.602 366.653 358.776 365.952 356.945 365.354C352.796 363.997 348.684 363.479 344.33 364.231C342.337 364.575 340.372 364.998 338.447 365.614C337.32 365.975 335.597 366.949 334.599 365.899C334.256 365.539 333.54 362.478 333.585 362.148C333.764 360.82 336.474 360.284 337.463 359.821C338.974 359.113 341.772 358.356 342.732 356.951C343.135 356.362 342.68 353.86 342.746 353.815C343.38 353.388 346.041 359.463 346.765 359.878C347.814 360.477 350.758 359.685 351.841 359.566C355.073 359.21 358.359 359.009 361.525 358.238C367.595 356.759 373.556 354.472 379.463 352.451C390.702 348.606 401.552 343.539 411.655 337.245C416.373 334.305 421.061 330.548 424.652 326.279C426.271 324.354 427.415 322.07 429.068 320.183C430.976 318.005 430.375 316.04 431.23 313.312C432.961 307.791 435.063 302.775 436.005 296.989C436.976 291.031 437.376 284.948 437.107 278.917C436.575 266.996 435.997 255.694 430.759 244.74C425.959 234.703 419.738 224.895 412.343 216.584C410.624 214.653 408.807 212.813 406.696 211.311C404.422 209.692 401.92 208.424 399.862 206.512C398.173 204.944 396.76 203.097 394.994 201.608C392.825 199.782 390.246 198.975 387.706 197.808C385.272 196.69 383.051 195.237 380.562 194.219C379.047 193.6 377.512 193.029 375.932 192.597C374.765 192.278 373.214 192.258 372.147 191.652C370.458 190.692 368.73 187.9 367.627 186.323C366.018 184.022 365.146 181.345 364.38 178.67C363.448 175.415 362.582 172.14 361.671 168.88C361.36 167.765 360.196 163.888 362.517 164.829C363.196 165.104 363.832 166.328 364.355 166.85C365.346 167.843 366.57 168.729 367.8 169.404C369.783 170.492 371.848 171.802 373.75 172.552C375.427 173.213 377.15 174.509 378.713 175.441C378.95 175.582 379.02 176.069 379.325 176.205C380.045 176.525 380.525 175.643 381.205 175.859C382.134 176.154 382.287 177.03 382.803 177.727C383.55 178.737 383.938 178.817 385.079 179.336C386.35 179.915 387.282 181.058 388.521 181.624C390.025 182.311 393.336 181.778 393.562 184.149C395.9 182.622 398.833 185.588 400.293 187.126C401.761 184.871 404.363 187.512 406.586 186.763C405.356 188.473 405.579 188.303 407.52 188.514C409.158 188.694 410.139 189.782 411.758 190.414C412.88 190.851 414.119 191.588 415.285 191.896C416.387 192.187 417.221 191.534 418.181 191.697C418.843 191.81 419.472 192.382 420.101 192.538C420.899 192.737 422.036 192.978 422.938 193.192C424.035 193.453 425.127 193.214 426.222 193.421C427.499 193.663 428.601 194.424 429.898 194.67C431.344 194.946 432.847 194.762 434.284 195.112C435.594 195.432 436.391 195.8 437.748 195.813C439.772 195.832 442.031 196.101 444.029 195.872C445.093 195.75 445.683 195.21 446.887 195.738C447.691 196.09 448.172 197.177 449.267 196.679C448.111 196.216 449.125 194.412 450.4 195.793C450.701 195.019 450.896 194.586 451.734 194.331C451.692 195.09 451.568 195.852 452.535 196.01C452.609 195.483 452.684 194.955 452.758 194.427C454.86 196.028 455.358 196.593 457.342 194.64C457.289 195.279 457.02 196.003 457.669 196.456C458.085 195.764 458.502 195.072 458.918 194.381C459.621 196.612 462.976 195.842 464.602 195.447C465.233 195.294 466.975 195.051 467.387 194.534C467.672 194.175 467.637 193.895 467.743 193.675C467.836 193.48 466.767 193 467.677 192.719C468.363 192.507 468.896 194.01 469.701 193.95C470.419 193.897 470.709 192.682 471.225 192.436C471.274 192.412 471.625 192.926 471.868 192.813C472.245 192.639 472.46 192.179 472.876 192.016C473.779 191.663 474.945 191.751 475.956 191.332C477.237 190.801 478.529 190.548 479.837 190.111C481.495 189.556 482.247 188.467 483.593 187.576C483.909 187.367 484.237 187.489 484.547 187.341C484.965 187.142 485.403 186.675 485.9 186.455C487.458 185.763 488.79 185.293 490.268 184.34C491.587 183.489 493.327 182.86 494.501 181.84C495.478 180.99 496.005 179.749 496.987 178.884C498.398 177.643 502.044 176.086 501.453 173.661C503.812 174.021 504.39 172.493 505.256 170.808C506.08 169.205 507.769 168.724 508.873 167.263C509.35 166.631 510.119 165.754 510.382 165.033C510.539 164.604 510.146 164.157 510.252 163.863C510.742 162.517 512.63 161.928 513.505 160.714C514.617 159.168 514.974 157.213 515.902 155.625C516.085 155.313 516.534 155.127 516.708 154.794C516.82 154.58 516.587 154.05 516.723 153.839C517.047 153.341 517.555 153.168 517.88 152.706C518.667 151.587 518.81 149.996 519.517 148.727C519.691 148.414 520.298 147.541 520.374 147.355C520.63 146.731 520.552 146.32 520.684 145.625C520.723 145.416 521.127 144.206 521.21 144.033C521.47 143.493 521.721 143.413 522.117 142.821C523.11 141.338 523.726 139.008 523.808 137.207C523.843 136.444 523.589 135.654 523.865 134.925C524.104 134.296 524.839 133.907 525.116 133.247C525.843 131.517 525.724 129.071 525.924 127.22C526.142 125.202 526.787 123.214 526.965 121.212C527.052 120.242 526.597 119.384 526.63 118.471C526.668 117.425 527.211 117.23 527.42 116.36C527.659 115.367 527.309 114.222 527.523 113.157C527.721 112.166 528.01 111.249 528.092 110.233C528.306 107.585 528.004 104.816 527.889 102.168C527.844 101.14 527.707 100.068 527.979 99.0617C528.198 98.2522 529.091 97.3468 529.062 96.4685C528.971 93.755 526.801 96.1035 525.553 95.9172C524.103 95.7011 523.836 92.4462 523.453 91.2118C522.52 88.1958 521.585 85.1803 520.651 82.1649C525.104 81.0054 529.733 81.3397 534.278 81.0268C538.745 80.7196 543.105 79.7502 547.436 78.659C551.092 77.7375 555.093 77.2033 558.379 75.2359C561.138 73.5844 563.413 69.9296 561.801 66.7049Z" fill="black"/>
<path fill-rule="evenodd" clip-rule="evenodd" d="M129.459 125.084C131.241 124.158 130.791 122.879 132.099 121.69C139.419 115.038 148.008 109.23 156.617 104.434C165.687 99.3811 175.863 97.2413 185.134 92.7639C186.381 92.1616 188.001 91.2201 187.536 89.5422C186.992 87.5815 185.125 88.4838 183.794 88.9462C179.361 90.4885 174.641 91.0687 170.144 92.4235C160.545 95.3147 151.555 100.301 143.422 106.136C138.691 109.531 134.159 113.284 130.119 117.499C128.631 119.051 126.647 120.861 126.26 123.097C125.781 125.864 127.416 126.146 129.459 125.084Z" fill="black"/>
<path fill-rule="evenodd" clip-rule="evenodd" d="M157.184 299.005C157.14 296.56 154.478 297.45 153.108 297.778C147.54 299.115 142.562 300.138 137.634 303.234C128.488 308.978 121.558 317.705 117.074 327.363C116.477 328.648 114.074 332.721 116 333.933C117.27 334.733 118.041 332.404 118.515 331.54C120.93 327.14 124.163 323.245 127.414 319.422C134.633 310.934 143.309 305.546 153.691 301.613C154.964 301.13 157.215 300.783 157.184 299.005Z" fill="black"/>
<path fill-rule="evenodd" clip-rule="evenodd" d="M464.953 238.955C463.027 235.079 459.913 230.297 455.603 228.701C453.218 227.818 451.807 229.279 452.515 231.721C453.078 233.663 454.957 234.612 456.36 235.9C459.97 239.214 462.193 244.162 463.511 248.757C464.905 253.615 465.183 258.885 465.158 263.914C465.145 266.569 464.437 268.876 464.052 271.46C463.901 272.476 463.643 274.715 464.81 275.349C467.397 276.755 468.592 269.416 468.856 268.005C469.83 262.799 469.736 258.006 468.916 252.809C468.166 248.057 467.114 243.302 464.953 238.955Z" fill="black"/>
<path fill-rule="evenodd" clip-rule="evenodd" d="M457.554 52.7253C458.606 51.3062 457.838 49.3194 458.152 47.7014C458.48 46.0054 459.459 44.2897 460.286 42.8062C462.075 39.6033 464.07 36.458 466.196 33.4707C468.391 30.3856 471.069 27.7571 473.402 24.7931C474.191 23.7903 475.589 22.3571 475.248 21.1503C474.696 19.1963 473.494 20.1487 472.531 20.9676C467.265 25.4453 462.629 30.9662 458.883 36.7649C457.105 39.5171 455.426 42.531 454.838 45.7956C454.534 47.4817 454.531 49.241 455.032 50.8918C455.346 51.9293 456.289 54.4306 457.554 52.7253Z" fill="black"/>
<path fill-rule="evenodd" clip-rule="evenodd" d="M133.058 291.572C135.696 291.328 138.35 291.241 140.994 291.105C142.952 291.004 145.154 291.125 146.951 290.182C148.759 289.234 147.973 287.813 146.47 287.602C145.606 287.481 144.147 288.065 143.221 288.105C142.218 288.148 141.209 288.117 140.206 288.121C137.272 288.132 134.111 288.11 131.282 289.085C130.359 289.403 128.959 289.895 128.579 290.951C127.767 293.21 131.834 291.685 133.058 291.572Z" fill="black"/>
<path fill-rule="evenodd" clip-rule="evenodd" d="M156.161 84.8867C159.993 84.4273 163.697 83.279 167.472 82.547C171.061 81.8516 171.672 79.0215 167.423 79.1487C165.996 79.1912 152.24 81.8009 156.161 84.8867Z" fill="black"/>
<path fill-rule="evenodd" clip-rule="evenodd" d="M472.789 226.813C470.215 226.168 471.546 229.024 472.343 229.907C473.816 231.539 474.621 232.762 475.059 234.938C475.315 236.206 475.075 239.067 476.151 240.036C477.21 240.99 477.283 240.357 477.471 239.179C478.002 235.86 476.942 227.853 472.789 226.813Z" fill="black"/>
<path fill-rule="evenodd" clip-rule="evenodd" d="M444.528 46.1099C445.257 45.3369 444.475 41.9753 444.561 40.9901C444.666 39.7964 444.948 38.7862 445.304 37.6661C445.477 37.1229 446.347 35.2057 445.879 34.6104C445.23 33.7853 444.151 35.1796 443.809 35.7285C442.699 37.5149 442.44 40.4934 442.625 42.5049C442.691 43.2331 443.131 47.5887 444.528 46.1099Z" fill="black"/>
<path fill-rule="evenodd" clip-rule="evenodd" d="M292.953 329.581C293.074 327.677 294.907 326.357 294.912 324.332C294.919 322.057 293.388 321.072 291.482 322.551C290.332 323.443 289.437 325.614 287.882 325.899C284.764 326.471 283.54 320.869 280.468 321.517C277.809 322.078 279.207 326.646 280.009 328.188C280.859 329.821 282.404 330.968 281.901 332.977C281.304 335.364 279.256 336.739 280.053 339.463C281.533 344.525 284.746 339.793 286.679 338.202C288.056 337.068 288.888 337.27 290.225 338.381C292.057 339.904 293.457 340.938 295.679 341.964C297.638 342.869 299.528 343.501 299.589 340.465C299.637 338.077 297.834 335.701 296.251 334.08C294.938 332.736 292.818 331.701 292.953 329.581Z" fill="black"/>
<path fill-rule="evenodd" clip-rule="evenodd" d="M258.623 322.03C256.331 319.586 253.436 325.82 251.583 326.509C248.581 327.628 247.89 321.635 245.125 321.823C242.974 321.97 243.143 325.054 243.612 326.46C244.116 327.974 245.625 329.212 245.878 330.763C246.267 333.14 241.769 337.893 244.908 340.189C247.588 342.15 248.585 335.526 251.935 338.229C253.58 339.555 258.182 344.493 260.462 342.035C263.156 339.132 256.748 334.173 255.578 331.965C253.995 328.974 261.982 325.611 258.623 322.03Z" fill="black"/>
<path fill-rule="evenodd" clip-rule="evenodd" d="M314.156 237.116C313.499 236.826 312.436 237.306 311.725 237.275C310.961 237.243 310.166 236.896 309.412 236.767C307.776 236.488 304.897 236.892 303.735 235.433C302.55 233.945 303.451 230.956 302.945 229.146C302.669 228.161 302.35 226.946 301.024 227.385C299.486 227.894 299.523 230.721 299.339 231.96C299.068 233.788 298.85 235.183 297.012 235.834C295.651 236.315 294.219 236.073 293.119 237.191C292.313 238.01 291.769 239.505 292.4 240.576C293.348 242.184 295.4 241.351 296.824 241.859C298.995 242.635 298.479 246.181 298.924 248.218C299.208 249.526 299.835 253.191 301.714 253.132C304.276 253.052 303.282 247.904 303.139 246.401C302.996 244.877 302.653 243.583 304.354 243.109C305.791 242.71 307.799 243.452 309.283 243.443C311.158 243.431 313.367 242.961 314.498 241.28C315.144 240.32 315.554 237.733 314.156 237.116Z" fill="black"/>
<path fill-rule="evenodd" clip-rule="evenodd" d="M408.313 300.48C412.387 300.832 409.918 305.852 412.621 307.848C415.2 309.751 415.547 304.496 415.547 302.996C415.545 299.361 419.966 300.704 422.657 300.103C424.953 299.59 427.461 297.205 424.718 295.173C422.739 293.707 419.457 294.387 417.159 293.999C414.045 293.472 414.97 291.393 414.901 288.997C414.877 288.118 414.573 284.987 413.439 284.74C411.361 284.288 411.237 290.121 411.097 291.231C410.505 295.927 407.279 293.066 404.716 295.42C401.366 298.498 405.886 300.27 408.313 300.48Z" fill="black"/>
<path fill-rule="evenodd" clip-rule="evenodd" d="M214.557 212.917C208.192 218.134 200.964 217.386 195.139 211.771C192.676 209.396 191.188 207.003 191.408 203.527C191.606 200.4 192.524 196.945 195.028 194.833C197.136 193.052 201.114 192.414 203.784 192.165C207.526 191.817 210.874 193.854 213.463 196.4C215.717 198.617 218.352 201.442 218.7 204.733C219.066 208.196 217.092 210.838 214.557 212.917ZM215.525 192.158C209.815 186.66 199.691 187.212 193.797 192.225C187.181 197.853 186.05 208.426 192.408 214.592C199.109 221.09 207.953 220.389 215.047 214.998C218.851 212.108 220.916 208.398 221.446 203.638C221.946 199.14 218.647 195.164 215.525 192.158Z" fill="black"/>
<path fill-rule="evenodd" clip-rule="evenodd" d="M325.92 97.5195C325.28 99.6016 325.724 101.82 325.837 103.941C324.028 102.809 322.901 100.79 320.957 99.8516C320.025 102.426 324.669 109.79 327.592 107.376C330.266 105.168 328.293 99.0034 325.92 97.5195Z" fill="black"/>
<path fill-rule="evenodd" clip-rule="evenodd" d="M335.417 110.216C333.977 110.753 332.637 110.604 331.216 110.879C330.279 111.061 330.158 110.528 330.036 111.601C329.778 113.892 333.473 114.778 335.137 114.745C337.169 114.706 339.395 113.34 339.199 111.116C338.995 108.799 336.984 109.633 335.417 110.216Z" fill="black"/>
<path fill-rule="evenodd" clip-rule="evenodd" d="M336.598 100.589C335.944 99.9958 334.438 97.754 333.333 98.1376C332.485 98.4313 333.084 99.4435 333.333 99.9501C334.263 101.85 336.089 103.466 337.548 104.99C336.467 105.374 334.386 105.621 334.936 107.283C335.441 108.811 337.731 108.576 338.828 107.933C342.586 105.729 338.478 102.297 336.598 100.589Z" fill="black"/>
<path fill-rule="evenodd" clip-rule="evenodd" d="M340.392 96.9832C340.649 98.0321 340.787 99.0225 340.22 100.006L337.09 94.3919C334.572 95.4254 338.988 103.514 341.56 102.618C343.339 101.999 342.485 98.1978 342.204 97.0018C342.053 96.3614 341.696 94.3253 340.808 94.1186C339.062 93.7121 340.201 96.2096 340.392 96.9832Z" fill="black"/>
<path fill-rule="evenodd" clip-rule="evenodd" d="M211.257 210.22C209.805 209.149 207.4 211.656 205.864 211.665C202.762 211.682 204.452 208.043 202.51 206.863C201.498 206.248 197.259 206.868 197.928 204.322C198.331 202.79 199.906 203.895 200.769 202.959C201.852 201.786 200.308 200.85 199.348 200.368C199.769 199.806 202.198 199.559 202.809 199.948C203.862 200.621 203.801 202.637 204.767 203.676C206.021 202.074 205.341 200.063 206.677 198.626C207.195 198.067 208.712 197.647 208.122 196.651C207.78 196.072 206.282 196.263 205.77 195.804C205.322 195.402 205.344 194.108 204.622 194C203.442 193.825 203.471 195.628 203.116 196.149C202.05 197.713 197.365 197.174 199.307 200.348C198.013 199.702 194.485 199.192 195.169 201.446C195.344 202.022 196.011 202.375 196.177 203.032C196.321 203.601 196.005 204.412 195.975 204.984C195.919 206.067 195.832 207.334 196.634 208.205C197.735 209.403 199.208 208.532 200.39 209.053C202 209.762 201.42 211.238 202.269 212.528C203.381 214.215 205.091 213.697 206.666 213.186C208.543 212.577 208.84 212.522 210.214 214.086C210.842 213.274 212.563 211.182 211.257 210.22Z" fill="black"/>
<path fill-rule="evenodd" clip-rule="evenodd" d="M213.782 203.63C212.267 203.35 212.864 198.835 211.021 200.797C210.329 201.532 211.037 202.966 210.266 203.754C209.748 204.284 209.091 203.971 208.573 204.319C208.107 204.63 207.989 205.227 207.715 205.683C208.69 206.121 209.442 206.178 210.483 205.987C210.483 206.771 209.962 209.078 211.3 208.909C212.544 208.752 212.192 206.436 212.825 205.716C213.468 204.985 216.059 205.324 216.3 204.296C216.598 203.022 214.444 203.753 213.782 203.63Z" fill="black"/>
</svg>
