<svg width="86" height="84" viewBox="0 0 86 84" fill="none" xmlns="http://www.w3.org/2000/svg">
<g clip-path="url(#clip0_119_1078)">
<path d="M15.2292 0H70.7708C79.1917 0 86 6.82051 86 15.2564V68.7436C86 77.1795 79.1917 84 70.7708 84H15.2292C6.80833 84 0 77.1795 0 68.7436V15.2564C0 6.82051 6.80833 0 15.2292 0Z" fill="#001E36"/>
<path d="M19.3501 58.9077V21.9692C19.3501 21.718 19.4576 21.5744 19.7084 21.5744C20.3176 21.5744 20.8909 21.5744 21.7151 21.5385C22.5751 21.5026 23.4709 21.5026 24.4384 21.4667C25.4059 21.4308 26.4451 21.4308 27.5559 21.3949C28.6668 21.359 29.7418 21.359 30.8168 21.359C33.7551 21.359 36.1918 21.718 38.1984 22.4718C39.9901 23.0821 41.6384 24.0872 43.0001 25.4154C44.1468 26.5641 45.0426 27.9641 45.6159 29.5077C46.1534 31.0154 46.4401 32.559 46.4401 34.1744C46.4401 37.2615 45.7234 39.8103 44.2901 41.8205C42.8568 43.8308 40.8501 45.3385 38.5209 46.2C36.0843 47.0974 33.3968 47.4205 30.4584 47.4205C29.5984 47.4205 29.0251 47.4205 28.6668 47.3846C28.3084 47.3487 27.8068 47.3487 27.1259 47.3487V58.8718C27.1618 59.1231 26.9826 59.3385 26.7318 59.3744C26.6959 59.3744 26.6601 59.3744 26.5884 59.3744H19.7801C19.4934 59.3744 19.3501 59.2308 19.3501 58.9077ZM27.1618 28.5026V40.5641C27.6634 40.6 28.1293 40.6359 28.5593 40.6359H30.4584C31.8559 40.6359 33.2534 40.4205 34.5793 39.9897C35.7259 39.6667 36.7293 38.9846 37.5176 38.0872C38.2701 37.1897 38.6284 35.9692 38.6284 34.3897C38.6643 33.2769 38.3776 32.1641 37.8043 31.1949C37.1951 30.2615 36.3351 29.5436 35.2959 29.1487C33.9701 28.6103 32.5368 28.3949 31.0676 28.4308C30.1359 28.4308 29.3118 28.4308 28.6309 28.4667C27.9143 28.4308 27.4126 28.4667 27.1618 28.5026Z" fill="#31A8FF"/>
<path d="M68.8004 38.3744C67.7254 37.8 66.5787 37.4051 65.3604 37.1538C64.0346 36.8667 62.7087 36.6872 61.3471 36.6872C60.6304 36.6513 59.8779 36.759 59.1971 36.9385C58.7312 37.0462 58.3371 37.2974 58.0863 37.6564C57.9071 37.9436 57.7996 38.3026 57.7996 38.6256C57.7996 38.9487 57.9429 39.2718 58.1579 39.559C58.4804 39.9538 58.9104 40.2769 59.3762 40.5282C60.2004 40.959 61.0604 41.3538 61.9204 41.7128C63.8554 42.359 65.7187 43.2564 67.4387 44.3333C68.6212 45.0872 69.5887 46.0923 70.2696 47.3128C70.8429 48.4615 71.1296 49.718 71.0937 51.0103C71.1296 52.6974 70.6279 54.3846 69.6962 55.7846C68.6929 57.2205 67.2954 58.3333 65.6829 58.9795C63.9271 59.7333 61.7771 60.1282 59.1971 60.1282C57.5487 60.1282 55.9363 59.9846 54.3238 59.6615C53.0696 59.4462 51.8154 59.0513 50.6687 58.5128C50.4179 58.3692 50.2388 58.118 50.2746 57.8308V51.5846C50.2746 51.4769 50.3104 51.3333 50.4179 51.2615C50.5254 51.1897 50.6329 51.2256 50.7404 51.2974C52.1379 52.1231 53.6071 52.6974 55.1838 53.0564C56.5454 53.4154 57.9788 53.5949 59.4121 53.5949C60.7737 53.5949 61.7413 53.4154 62.3863 53.0923C62.9596 52.841 63.3537 52.2308 63.3537 51.5846C63.3537 51.0821 63.0671 50.6154 62.4937 50.1487C61.9204 49.6821 60.7379 49.1436 58.9821 48.4615C57.1546 47.8154 55.4704 46.9538 53.8937 45.8769C52.7829 45.0872 51.8513 44.0462 51.1704 42.8256C50.5971 41.6769 50.3104 40.4205 50.3463 39.1641C50.3463 37.6205 50.7762 36.1487 51.5646 34.8205C52.4604 33.3846 53.7862 32.2359 55.3271 31.518C57.0112 30.6564 59.1254 30.2615 61.6696 30.2615C63.1388 30.2615 64.6437 30.3692 66.1129 30.5846C67.1879 30.7282 68.2271 31.0154 69.1946 31.4103C69.3379 31.4462 69.4812 31.5897 69.5529 31.7333C69.5887 31.8769 69.6246 32.0205 69.6246 32.1641V38.0154C69.6246 38.159 69.5529 38.3026 69.4454 38.3744C69.1229 38.4462 68.9437 38.4462 68.8004 38.3744Z" fill="#31A8FF"/>
</g>
<defs>
<clipPath id="clip0_119_1078">
<rect width="86" height="84" fill="white"/>
</clipPath>
</defs>
</svg>
