<svg width="26" height="30" viewBox="0 0 26 30" fill="none" xmlns="http://www.w3.org/2000/svg">
<path d="M22.7622 6.41593C22.5597 6.31128 22.3626 6.19656 22.1716 6.0722C21.6162 5.705 21.107 5.27233 20.6549 4.78351C19.5238 3.4892 19.1013 2.17614 18.9457 1.25681H18.9519C18.822 0.493725 18.8757 0 18.8838 0H13.7318V19.9228C13.7318 20.1902 13.7318 20.4546 13.7206 20.7158C13.7206 20.7483 13.7175 20.7783 13.7156 20.8133C13.7156 20.8277 13.7156 20.8427 13.7125 20.8577C13.7125 20.8615 13.7125 20.8652 13.7125 20.869C13.6582 21.5838 13.429 22.2743 13.0452 22.8798C12.6614 23.4853 12.1347 23.9872 11.5114 24.3413C10.8618 24.7109 10.1271 24.9047 9.37977 24.9038C6.97938 24.9038 5.03395 22.9464 5.03395 20.529C5.03395 18.1116 6.97938 16.1542 9.37977 16.1542C9.83415 16.1538 10.2857 16.2253 10.7178 16.3661L10.724 11.1201C9.41249 10.9506 8.0801 11.0549 6.81088 11.4262C5.54166 11.7975 4.36316 12.4279 3.34974 13.2775C2.46174 14.049 1.7152 14.9697 1.14371 15.998C0.926228 16.3729 0.105684 17.8797 0.00631929 20.3252C-0.0561745 21.7133 0.360659 23.1513 0.55939 23.7457V23.7582C0.684377 24.1082 1.1687 25.3025 1.958 26.3093C2.59446 27.1169 3.34642 27.8264 4.18966 28.4148V28.4023L4.20215 28.4148C6.69628 30.1097 9.46164 29.9985 9.46164 29.9985C9.94034 29.9791 11.5439 29.9985 13.365 29.1354C15.3848 28.1786 16.5347 26.753 16.5347 26.753C17.2693 25.9013 17.8534 24.9305 18.262 23.8826C18.7282 22.657 18.8838 21.1871 18.8838 20.5996V10.0301C18.9463 10.0676 19.7787 10.6182 19.7787 10.6182C19.7787 10.6182 20.978 11.3869 22.8491 11.8875C24.1914 12.2438 26 12.3188 26 12.3188V7.20402C25.3663 7.27276 24.0796 7.07277 22.7622 6.41593Z" fill="white"/>
</svg>
