<svg width="48" height="34" viewBox="0 0 48 34" fill="none" xmlns="http://www.w3.org/2000/svg">
<path d="M46.8313 5.46266C46.2897 3.40433 44.6647 1.77933 42.6063 1.21058C38.8959 0.208496 24.0001 0.208496 24.0001 0.208496C24.0001 0.208496 9.10425 0.208496 5.36675 1.21058C3.30841 1.75225 1.7105 3.37725 1.14175 5.46266C0.166748 9.20016 0.166748 17.0002 0.166748 17.0002C0.166748 17.0002 0.166748 24.8002 1.16883 28.5377C1.7105 30.596 3.3355 32.221 5.39383 32.7897C9.10425 33.7918 24.0001 33.7918 24.0001 33.7918C24.0001 33.7918 38.8959 33.7918 42.6334 32.7897C44.6917 32.2481 46.2897 30.6231 46.8584 28.5377C47.8334 24.8002 47.8334 17.0002 47.8334 17.0002C47.8334 17.0002 47.8334 9.20016 46.8313 5.46266Z" fill="#F9F9F9"/>
<path d="M19.125 24.096V9.9043L31.5833 17.0001L19.125 24.096Z" fill="black"/>
</svg>
