<svg width="56" height="34" viewBox="0 0 56 34" fill="none" xmlns="http://www.w3.org/2000/svg">
<path d="M16.1984 0C17.8029 0 19.2853 0.118777 20.6453 0.475109C22.0054 0.712664 23.1209 1.20262 24.1142 1.79651C25.1075 2.39039 25.841 3.23668 26.3453 4.32052C26.8343 5.40437 27.0941 6.72577 27.0941 8.16594C27.0941 9.84367 26.7273 11.2838 25.8563 12.3677C25.1075 13.4515 23.885 14.4166 22.3874 15.1293C24.4962 15.7231 26.1008 16.807 27.0788 18.2472C28.0568 19.6873 28.6834 21.4838 28.6834 23.5328C28.6834 25.2105 28.3166 26.6507 27.6901 27.8533C27.0788 29.0559 26.0855 30.1397 24.97 30.8524C23.8544 31.5799 22.4944 32.1738 21.0121 32.5301C19.5298 32.8865 18.0475 33.124 16.5651 33.124L0 33.1537V0H16.1984ZM15.2051 13.4515C16.5651 13.4515 17.6807 13.0952 18.5365 12.4865C19.3922 11.8777 19.7743 10.8087 19.7743 9.48734C19.7743 8.75983 19.652 8.04716 19.4075 7.57205C19.163 7.09694 18.7962 6.72577 18.292 6.36943C17.8029 6.13188 17.2987 5.89432 16.6874 5.77555C16.0761 5.65677 15.4496 5.65677 14.7161 5.65677H7.54906V13.4664C7.54906 13.4515 15.2051 13.4515 15.2051 13.4515ZM15.5719 27.6306C16.3206 27.6306 17.0542 27.5118 17.6807 27.393C18.292 27.2742 18.9185 27.0367 19.4075 26.6655C19.8965 26.2943 20.2786 25.938 20.6453 25.3441C20.8898 24.7502 21.1343 24.0227 21.1343 23.1764C21.1343 21.4987 20.6453 20.2961 19.652 19.4498C18.6587 18.7223 17.2987 18.3659 15.6941 18.3659H7.54906V27.6157H15.5719V27.6306Z" fill="white"/>
<path d="M39.4415 27.5118C40.4348 28.4769 41.9171 28.952 43.8885 28.952C45.2485 28.952 46.4863 28.5957 47.4796 27.9869C48.4729 27.2594 49.0842 26.5468 49.3287 25.8192H55.3801C54.3868 28.6996 52.9045 30.7485 50.9332 32.0699C48.9619 33.2725 46.6086 33.9852 43.7662 33.9852C41.7949 33.9852 40.0528 33.6289 38.4482 33.0201C36.8437 32.4262 35.6059 31.5799 34.4903 30.3773C33.3748 29.2935 32.519 27.9721 32.0147 26.4131C31.4035 24.8542 31.1437 23.1765 31.1437 21.2463C31.1437 19.4498 31.3882 17.7572 32.0147 16.1983C32.6413 14.6393 33.497 13.3179 34.6126 12.1153C35.7281 11.0315 37.0882 10.0664 38.5705 9.47252C40.175 8.87864 41.7796 8.50746 43.7662 8.50746C45.875 8.50746 47.7241 8.86379 49.3287 9.71008C50.9332 10.5564 52.171 11.5066 53.1643 12.9468C54.1576 14.2682 54.8911 15.8271 55.3954 17.5048C55.6399 19.1826 55.7622 20.8751 55.6399 22.7904H37.7147C37.7147 24.7503 38.4482 26.5468 39.4415 27.5118ZM47.2351 14.8917C46.3641 14.0454 45.004 13.5703 43.3994 13.5703C42.2839 13.5703 41.4281 13.8079 40.6793 14.1642C39.9305 14.5206 39.4415 15.0105 38.9525 15.4856C38.4635 15.9607 38.2037 16.5695 38.0815 17.1634C37.9592 17.7572 37.837 18.2472 37.837 18.7223H48.9619C48.7174 16.9406 48.0909 15.738 47.2351 14.8917ZM36.3547 2.2865H50.1997V5.52318H36.3547V2.2865Z" fill="white"/>
</svg>
