<svg width="85" height="85" viewBox="0 0 85 85" fill="none" xmlns="http://www.w3.org/2000/svg">
<path fill-rule="evenodd" clip-rule="evenodd" d="M42.5 0C19.0187 0 0 19.0188 0 42.5C0 61.3063 12.1656 77.1906 29.0594 82.8219C31.1844 83.1938 31.9813 81.9188 31.9813 80.8031C31.9813 79.7938 31.9281 76.4469 31.9281 72.8875C21.25 74.8531 18.4875 70.2844 17.6375 67.8938C17.1594 66.6719 15.0875 62.9 13.2812 61.8906C11.7937 61.0938 9.66875 59.1281 13.2281 59.075C16.575 59.0219 18.9656 62.1563 19.7625 63.4313C23.5875 69.8594 29.6969 68.0531 32.1406 66.9375C32.5125 64.175 33.6281 62.3156 34.85 61.2531C25.3937 60.1906 15.5125 56.525 15.5125 40.2688C15.5125 35.6469 17.1594 31.8219 19.8687 28.8469C19.4438 27.7844 17.9562 23.4281 20.2937 17.5844C20.2937 17.5844 23.8531 16.4688 31.9813 21.9406C35.3812 20.9844 38.9938 20.5063 42.6063 20.5063C46.2188 20.5063 49.8313 20.9844 53.2313 21.9406C61.3594 16.4156 64.9188 17.5844 64.9188 17.5844C67.2562 23.4281 65.7688 27.7844 65.3438 28.8469C68.0531 31.8219 69.7 35.5938 69.7 40.2688C69.7 56.5781 59.7656 60.1906 50.3094 61.2531C51.85 62.5813 53.1781 65.1313 53.1781 69.1156C53.1781 74.8 53.125 79.3688 53.125 80.8031C53.125 81.9188 53.9219 83.2469 56.0469 82.8219C72.8344 77.1906 85 61.2531 85 42.5C85 19.0188 65.9812 0 42.5 0Z" fill="#1B1F23"/>
</svg>
