<svg width="239" height="180" fill="none" xmlns="http://www.w3.org/2000/svg"><path d="M54.925 45.84c1.056 0 1.912-.86 1.912-1.92S55.981 42 54.925 42s-1.912.86-1.912 1.92.856 1.92 1.912 1.92z" fill="#DF701F"/><path d="M85.711 120.45c.776 0 1.404-.631 1.404-1.41 0-.779-.628-1.41-1.404-1.41-.775 0-1.404.631-1.404 1.41 0 .779.629 1.41 1.404 1.41z" fill="#EC615B"/><path d="M181.7 37.44c1.105 0 2.001-.9 2.001-2.01 0-1.11-.896-2.01-2.001-2.01-1.106 0-2.002.9-2.002 2.01 0 1.11.896 2.01 2.002 2.01zM108.82 35.115a.838.838 0 00.836-.84.838.838 0 00-.836-.84.839.839 0 00-.837.84c0 .464.375.84.837.84z" fill="#DF701F"/><path d="M57.061 38.175c.751 0 1.36-.611 1.36-1.365s-.609-1.365-1.36-1.365c-.75 0-1.36.611-1.36 1.365s.61 1.365 1.36 1.365zM89.192 117.45a.749.749 0 00.747-.75.749.749 0 00-.747-.75.749.749 0 00-.747.75c0 .414.334.75.747.75zM109.253 30.825a.883.883 0 00.881-.885.883.883 0 00-.881-.885.883.883 0 00-.881.885c0 .489.394.885.881.885zM176.965 31.395c.28 0 .507-.228.507-.51a.508.508 0 10-1.015 0c0 .282.227.51.508.51z" fill="#486F9A"/><path d="M174.261 90.915c.388-.78 1.299.225 1.568.525.269.3.598.63 1.016.705.792.15 1.165-.57 1.793-.84.881-.405 1.09 1.08 1.732 1.395.299.15.538.075.837-.015.343-.09.597-.3.971-.195.448.12.762.495.821.96.03.285.478.285.448 0-.089-.915-.956-1.65-1.882-1.41-.388.105-.776.42-1.135.135-.209-.165-.329-.495-.478-.72-.209-.315-.448-.615-.836-.675-.449-.075-.792.18-1.136.435-.358.27-.582.51-1.045.435-.463-.09-.687-.435-1.001-.765-.493-.54-1.613-1.08-2.062-.195-.119.255.269.48.389.225zM177.711 94.095a2.413 2.413 0 011.927.54c.374.315.493.705.747 1.095.523.795 1.18.105 1.867.03 1.061-.12 1.614 1.125 2.629 1.29.598.09 1.136-.165 1.36-.735.104-.27-.329-.39-.433-.12-.508 1.275-2.122-.48-2.734-.765-.269-.12-.568-.21-.851-.18-.389.03-1.091.6-1.449.27-.21-.195-.299-.63-.508-.87a2.449 2.449 0 00-.702-.6c-.613-.375-1.285-.48-1.987-.375-.269.03-.149.465.134.42zM43.408 68.985c-.164-.915-.194-1.815.852-2.175.418-.15.866-.225 1.21-.525.627-.54.582-1.395.538-2.16-.03-.555-.165-1.41.672-1.185.269.075.552.18.821.045.21-.105.299-.285.359-.495.134-.45 0-.81.388-1.185.314-.315.702-.405 1.135-.345.284.045.284-.405 0-.45-.478-.06-.926.045-1.3.345-.477.375-.492.765-.642 1.305-.224.765-.776.135-1.329.24-.343.06-.493.3-.568.615-.134.6.06 1.245.045 1.845-.045 1.125-.791 1.23-1.643 1.575-1.165.465-1.15 1.575-.956 2.655.03.3.463.18.418-.105zM48.398 66.015c-.897-1.155.134-2.295 1.374-2.19.373.03.687 0 .881-.345.269-.45.18-1.065.388-1.545.344-.825 1.016-1.41 1.853-1.68.269-.09.15-.525-.12-.435-.747.24-1.389.69-1.837 1.35a3.137 3.137 0 00-.508 1.245c-.03.15-.03.435-.075.57-.12.39-.493.345-.836.36-1.584.09-2.465 1.665-1.434 3 .164.225.478-.09.313-.33z" fill="#DF701F"/><path d="M90.686 28.575c-.254-.84.567-1.71 1.404-1.26.91.48.597 1.815-.404 1.92-.283.03-.283.48 0 .45 1.345-.135 1.942-1.89.732-2.685-1.165-.765-2.569.42-2.166 1.71.09.255.523.135.434-.135zM140.203 113.76c-.612.735.224 1.365.867 1.62.493.195.821.45.896 1.005.03.255.03.51.09.75.059.195.134.375.268.51.21.225 1.016.435.897.855-.075.285.358.405.433.12.104-.375-.015-.645-.329-.9-.209-.165-.508-.21-.687-.405-.284-.3-.194-.78-.254-1.14-.06-.345-.164-.645-.433-.885-.284-.24-1.927-.63-1.434-1.23.194-.21-.119-.525-.314-.3zM142.175 112.26c-.134.33-.015.645.254.87.254.21.657.225.881.465.239.255.209.6.269.93.075.42.224.735.613.945.283.15.597.195.866.36.493.315.777.855.851 1.425.03.285.479.285.449 0-.12-1.065-.732-1.725-1.703-2.1-.762-.285-.538-.93-.792-1.53a.936.936 0 00-.344-.45c-.253-.18-1.105-.33-.911-.81.105-.255-.328-.375-.433-.105zM147.388 21.99c-.463-.615.463-1.05.926-1.11.344-.045.703-.015 1.046-.075.478-.09.911-.315 1.24-.69.299-.345.343-.69.478-1.11.075-.255.269-.675.553-.795.104-.045.358.03.493.03.253.015.478.015.731-.045.284-.06.165-.495-.119-.435-.598.12-1.419-.255-1.867.3-.165.21-.179.465-.209.72-.09.69-.419 1.29-1.121 1.5-.776.24-1.688-.075-2.33.57-.373.375-.508.9-.194 1.335.164.255.553.03.373-.195zM151.914 21.81a2.15 2.15 0 011.046-1.83c.493-.3 1.046-.27 1.613-.27.762.015 1.494 0 1.987-.66.164-.24-.224-.465-.388-.225-.658.885-2.316.225-3.257.675-.881.42-1.419 1.335-1.434 2.31-.015.285.433.285.433 0zM90.82 72.555c.134-.03.269-.075.418-.105.06.135.12.285.18.42.03.195-.045.42-.075.6-.03.225-.075.42-.06.645.03.33.164.69.463.855.448.24.956-.105 1.42.135.612.3.94 1.035 1.21 1.635.119.27.507.03.387-.225-.283-.645-.657-1.365-1.284-1.74-.314-.18-.553-.18-.896-.21-.359-.03-.478.39-.837-.345-.105-.24.03-.6.06-.84.075-.525.104-1.155-.478-1.38-.389-.15-.867-.015-.941.435-.045.285.388.405.433.12zM93.882 72c-.433.3-.254.78.045 1.14.329.39.702.705 1 1.14.344.51.583 1.065.763 1.635.09.27.523.165.433-.12-.194-.615-.448-1.215-.807-1.755-.164-.24-1.389-1.53-1.195-1.665.224-.15 0-.54-.239-.375z" fill="#486F9A"/><path d="M72.313 37.71c.462 5.565.896 11.22-.24 16.74-.06.285.374.405.434.12 1.15-5.565.717-11.25.254-16.86-.03-.285-.478-.285-.448 0z" fill="#E8E8E8"/><path d="M72.566 37.86c2.749.12 5.512.12 8.26-.015 2.376-.12 4.96-.12 7.17-1.08.27-.12.03-.51-.223-.39-2.3 1.005-5.064.945-7.529 1.05a87.376 87.376 0 01-7.678-.015c-.283-.015-.283.435 0 .45z" fill="#E8E8E8"/><path d="M87.623 36.705a42.982 42.982 0 01.986 16.845c-.044.285.389.405.433.12a43.912 43.912 0 00-.985-17.085c-.06-.285-.493-.165-.434.12z" fill="#E8E8E8"/><path d="M72.193 54.675c2.958.66 6.005.72 9.022.51 1.524-.105 3.062-.285 4.586-.465 1.09-.135 2.226-.195 3.122-.9.224-.18-.09-.495-.314-.315-1.015.795-2.599.75-3.809.885-1.374.165-2.763.3-4.152.39-2.794.165-5.587.09-8.32-.525-.3-.075-.419.36-.135.42zM73.388 53.355c.358.015.702-.105 1.06-.135.434-.03.837.015 1.255.12.284.075.404-.36.12-.435a4.021 4.021 0 00-1.195-.15c-.418.015-.822.165-1.24.15-.284-.015-.284.435 0 .45zM73.657 52.305c.732.015 1.479.015 2.21.03.284 0 .284-.45 0-.45-.731-.015-1.478-.015-2.21-.03-.284-.015-.284.435 0 .45zM73.806 51.18l1.957.09c.284.015.284-.435 0-.45l-1.957-.09c-.284-.015-.284.435 0 .45zM74.015 48.33c.732-.09 1.464-.135 2.211-.12.284 0 .284-.45 0-.45-.732-.015-1.479.03-2.21.12-.285.045-.285.495 0 .45zM74.165 47.145l2.106.045c.284 0 .284-.45 0-.45l-2.106-.045c-.284 0-.284.45 0 .45zM74.015 46.125c.643.045 1.27.03 1.897-.03.284-.03.284-.48 0-.45-.627.075-1.27.075-1.897.03-.284-.03-.284.42 0 .45zM74.12 43.245c.777-.15 1.553-.225 2.36-.21.284 0 .284-.45 0-.45-.837-.015-1.658.06-2.48.225-.269.06-.149.495.12.435zM74.075 42.15c.837.015 1.673.015 2.525-.03.283-.015.283-.465 0-.45-.837.045-1.673.06-2.525.03-.299-.015-.299.435 0 .45zM73.761 40.98c.927.03 1.853-.015 2.779-.105.284-.03.284-.48 0-.45-.926.09-1.853.135-2.779.105-.283 0-.283.45 0 .45zM78.75 40.56a43.514 43.514 0 016.976-.48c.284 0 .284-.45 0-.45-2.375-.03-4.75.135-7.095.495-.284.045-.164.48.12.435zM79.214 41.4c2.3-.195 4.615-.315 6.93-.39.284-.015.284-.465 0-.45-2.315.06-4.63.195-6.93.39-.3.03-.3.48 0 .45zM79.034 42.405c2.39-.12 4.795.165 7.185-.09.284-.03.284-.48 0-.45-2.39.27-4.795-.03-7.185.09-.284.015-.284.465 0 .45zM77.615 46.125c1.046 0 2.092-.015 3.137-.015.284 0 .284-.45 0-.45-1.045 0-2.091.015-3.137.015-.298 0-.298.45 0 .45zM77.72 47.265c1.12-.03 2.255-.06 3.376-.075.313 0 3.3-.165 3.3-.135.09.27.524.165.434-.12-.09-.315-.358-.27-.642-.27-.687 0-1.374.03-2.062.045-1.464.03-2.942.075-4.406.105-.299 0-.299.45 0 .45zM77.72 48.39c.896.045 1.777.045 2.674.03.283-.015.283-.465 0-.45-.897.03-1.778.015-2.674-.03-.299-.015-.299.435 0 .45zM77.197 50.97c2.987-.195 5.99-.27 8.992-.225.284 0 .284-.45 0-.45-3.002-.045-5.99.03-8.992.225-.284.015-.284.465 0 .45zM77.66 51.96l2.256-.045c.283 0 .283-.45 0-.45l-2.256.045c-.284 0-.284.45 0 .45zM81.723 51.945c1.21-.12 2.435-.225 3.645-.3.284-.015.284-.465 0-.45-1.225.075-2.435.18-3.645.3-.284.03-.299.48 0 .45zM77.451 53.4c2.45-.03 4.9-.105 7.35-.195.283-.015.283-.465 0-.45-2.45.105-4.9.165-7.35.195-.284 0-.284.45 0 .45zM89.446 44.595a61.585 61.585 0 0111.741-1.035c-.075-.06-.15-.105-.21-.165a72.309 72.309 0 013.272 22.8c0 .285.448.285.448 0a72.722 72.722 0 00-3.286-22.92c-.03-.09-.12-.165-.209-.165a61.735 61.735 0 00-11.86 1.05c-.3.045-.18.48.104.435z" fill="#E8E8E8"/><path d="M81.47 55.005a30.812 30.812 0 01-1.734 12.375c-.09.27.329.39.434.12a31.442 31.442 0 001.747-12.495c-.015-.285-.463-.3-.448 0z" fill="#E8E8E8"/><path d="M79.811 67.71c3.764 1.605 7.887 1.44 11.875 1.065 4.347-.42 8.619-1.125 12.802-2.37.269-.075.164-.51-.12-.435-4.063 1.2-8.2 1.92-12.428 2.325-3.973.39-8.14.63-11.905-.975-.254-.12-.478.27-.224.39z" fill="#E8E8E8"/><path d="M85.069 56.25c-.807.435-1.583.93-2.345 1.455-.15.105-.15.375.06.405.687.15 1.374.285 2.061.435.284.06.403-.375.12-.435-.688-.15-1.375-.285-2.062-.435.015.135.03.27.06.405a23.527 23.527 0 012.345-1.455c.239-.12.015-.51-.239-.375zM88.55 54.87c-.986 1.605-1.972 3.21-2.958 4.8-.15.24.239.48.388.225.986-1.605 1.972-3.21 2.958-4.8.15-.24-.24-.465-.389-.225zM89.237 58.275l2.659-.405c.283-.045.164-.48-.12-.435l-2.659.405c-.284.045-.164.48.12.435zM93.688 55.86h-.045c-.104-.015-.194.015-.254.105-.015.015-.015.03-.03.045a.205.205 0 000 .225c.344.51 1.15.63 1.703.75.105.03.21.045.314.075-.015.015-.045.03-.06.045 0 .105-.478.465-.567.54l-.986.945c-.21.195.104.525.313.315.404-.375.792-.765 1.195-1.14.21-.21.628-.48.538-.825-.075-.285-.388-.315-.642-.39-.404-.105-1.18-.165-1.434-.555v.225c.015-.015.015-.03.03-.045-.09.03-.165.075-.254.105h.044c.3.06.419-.375.135-.42z" fill="#5222D0"/><path d="M90.626 46.11c.777-.135 1.553-.18 2.345-.15.284.015.284-.435 0-.45-.837-.03-1.658.03-2.465.18-.284.045-.164.465.12.42zM90.506 47.25c1.06-.105 2.121-.195 3.182-.27.284-.015.284-.465 0-.45-1.06.075-2.121.165-3.182.27-.284.03-.284.48 0 .45zM90.984 48.945v.015c.075-.06.15-.105.21-.165h-.03c.06.03.134.075.194.105 0-.015-.015-.015-.015-.03-.015.09-.03.18-.03.27-.105.03-.09.045.06.03h.254c.149 0 .298-.015.448-.015.299-.03.597-.06.896-.12.284-.045.164-.48-.12-.435a7.674 7.674 0 01-1.165.12c-.239 0-.523-.075-.702.105a.23.23 0 00-.03.27c.06.09.135.135.24.135.089 0 .194-.075.209-.165v-.015c.074-.27-.359-.39-.419-.105zM90.67 51.135c1.255-.18 2.51-.42 3.78-.375.284.015.284-.435 0-.45-1.315-.045-2.614.21-3.899.39-.284.045-.164.48.12.435zM95.54 45.63c1.434-.195 2.868-.3 4.302-.345.284-.015.284-.465 0-.45-1.449.045-2.883.15-4.302.345-.284.03-.284.48 0 .45zM96.57 47.52c.897-.15 1.779-.285 2.675-.435.284-.045.164-.48-.12-.435-.896.15-1.777.285-2.674.435-.283.045-.164.48.12.435zM96.87 50.145a23.698 23.698 0 012.315-.105c.284 0 .284-.45 0-.45-.777 0-1.539.03-2.315.105-.284.03-.284.48 0 .45zM98.214 51a35.262 35.262 0 012.823-.285c.284-.015.284-.465 0-.45-.986.06-1.957.165-2.942.3-.284.045-.165.465.12.435zM83.411 62.445c.284 0 .284-.45 0-.45s-.284.45 0 .45z" fill="#E8E8E8"/><path d="M82.933 62.04c.373.12.732.075 1.12.06.508-.015 1.016.015 1.524.06.284.03.284-.42 0-.45a9.64 9.64 0 00-1.315-.06c-.388 0-.821.09-1.195-.045-.283-.09-.403.345-.134.435zM83.47 63.39a10.43 10.43 0 012.465.06c.284.03.284-.42 0-.45a12.314 12.314 0 00-2.464-.06c-.284.03-.284.48 0 .45zM82.171 65.295c.702.27 1.434.225 2.181.225h2.6c1.523 0 3.166.165 4.645-.285.269-.09.164-.525-.12-.435-1.434.45-3.047.27-4.526.27h-2.315c-.792 0-1.599.075-2.36-.21-.27-.105-.374.33-.105.435zM89.894 63.165c.478-.03.956-.045 1.434-.075s.97-.105 1.419.09c.269.105.388-.33.12-.435-.434-.18-.867-.135-1.33-.105l-1.658.09c-.284 0-.284.45.015.435zM88.042 67.26c2.405-.09 4.795-.225 7.2-.42.283-.03.283-.48 0-.45-2.39.195-4.795.33-7.2.42-.3.015-.3.465 0 .45zM114.795 24.405c.672 7.11.522 14.25.373 21.375 0 .285.448.285.448 0 .165-7.125.299-14.265-.373-21.375-.03-.285-.478-.285-.448 0z" fill="#E8E8E8"/><path d="M115.034 24.57c3.032.135 6.005-.72 9.007-1.05 3.047-.33 6.124-.33 9.172-.015.283.03.283-.42 0-.45a43.597 43.597 0 00-9.172.015c-3.002.33-5.975 1.185-9.007 1.05-.299 0-.299.45 0 .45z" fill="#E8E8E8"/><path d="M133.018 23.385c.404 1.575.464 3.195.493 4.8.045 1.725.105 3.465.165 5.19.119 3.405.269 6.825.448 10.23.015.285.463.285.448 0-.179-3.51-.344-7.02-.463-10.53-.06-1.725-.105-3.45-.149-5.16-.045-1.56-.12-3.135-.508-4.65-.075-.285-.508-.165-.434.12z" fill="#E8E8E8"/><path d="M115.377 46.11c3.212.93 6.662.585 9.934.255 3.151-.315 6.273-.915 9.156-2.31.254-.12.03-.51-.224-.39-2.883 1.395-6.034 1.965-9.186 2.28-3.152.3-6.468.63-9.545-.27-.299-.09-.419.345-.135.435zM133.795 27.42a26.181 26.181 0 015.527-.27c.956.06 1.912.165 2.868.33.403.075.852.105 1.24.24.553.195.523.6.612 1.125a89.855 89.855 0 011.36 11.13c.015.285.463.285.448 0a99.98 99.98 0 00-.598-6.33 65.478 65.478 0 00-.433-2.925l-.269-1.575c-.074-.45-.104-1.02-.284-1.425-.254-.585-1.284-.57-1.822-.66a25.712 25.712 0 00-2.838-.345 27.067 27.067 0 00-5.93.27c-.284.045-.165.48.119.435z" fill="#E8E8E8"/><path d="M128.179 45.93c.269.75.433 1.5.463 2.295.015.39-.045.855.239 1.17.284.315.776.315 1.165.375.627.09 1.27.165 1.897.195 2.913.165 5.826-.21 8.708-.6.284-.03.284-.495 0-.45-2.464.33-4.929.66-7.423.63-.568 0-1.136-.03-1.703-.075-.374-.03-.732-.075-1.106-.12-.254-.03-.791-.015-.986-.165-.507-.375-.343-1.23-.433-1.785a8.384 8.384 0 00-.403-1.605c-.09-.255-.523-.15-.418.135z" fill="#E8E8E8"/><path d="M139.935 40.215c.328 1.44.388 2.925.463 4.41.074 1.41.149 2.835.209 4.245.119 2.88.194 5.76.224 8.655 0 .285.448.285.448 0-.03-2.985-.12-5.955-.239-8.94-.12-2.79-.045-5.745-.672-8.475-.06-.3-.493-.18-.433.105z" fill="#E8E8E8"/><path d="M140.233 40.485a67.073 67.073 0 019.351.12c.284.03.284-.42 0-.45-3.107-.27-6.229-.3-9.351-.12-.284.03-.284.48 0 .45zM140.786 57.615c.373.645.986.885 1.703.975 1.075.135 2.166.18 3.241.255 2.301.15 4.601.27 6.901.285a84.44 84.44 0 003.376-.06l1.613-.09c.284-.015.777.03 1.031-.18.164-.135.179-.33.209-.54.06-.585.045-1.185.06-1.77.045-1.185.075-2.37.12-3.555.014-.285-.434-.285-.449 0l-.089 2.805-.045 1.335c-.015.24-.015.495-.03.735-.015.42-.06.57-.508.69-.388.105-.911.06-1.314.09-.493.03-.971.045-1.464.06-.926.03-1.852.03-2.793.03a94.109 94.109 0 01-5.438-.21c-.926-.06-1.852-.12-2.793-.195-.956-.075-2.39.06-2.943-.885-.149-.255-.537-.015-.388.225z" fill="#E8E8E8"/><path d="M148.568 33.84c.822 2.835 1.001 5.685 1.136 8.625.149 3 .283 5.985.433 8.985.015.285.463.285.448 0l-.448-9.285c-.135-2.88-.344-5.655-1.15-8.445-.075-.27-.493-.15-.419.12z" fill="#E8E8E8"/><path d="M150.241 51.81c1.748.615 3.6.72 5.423.885 1.897.18 3.704.375 5.601.06a92.26 92.26 0 005.662-1.125c1.717-.405 3.301-.99 4.675-2.115.224-.18-.09-.495-.314-.315-1.419 1.155-3.122 1.68-4.884 2.085a79.5 79.5 0 01-5.258 1.035c-1.853.3-3.63.09-5.482-.09-1.778-.18-3.6-.27-5.303-.87-.269-.09-.389.345-.12.45zM148.763 33.855c3.211-.915 6.572-.975 9.888-1.14 3.361-.18 6.677-.285 10.038-.03.284.015.284-.435 0-.45-3.45-.27-6.856-.135-10.307.045-3.271.165-6.572.255-9.739 1.155-.284.06-.164.495.12.42z" fill="#E8E8E8"/><path d="M168.465 32.445c.045 2.85.418 5.685.926 8.49.254 1.425.553 2.835.867 4.245.298 1.395.552 2.805 1.03 4.14.09.27.523.15.434-.12-.912-2.58-1.345-5.415-1.838-8.1-.538-2.865-.911-5.745-.971-8.655-.015-.285-.463-.285-.448 0z" fill="#E8E8E8"/><path d="M116.602 26.865c.075.81.135 1.62.209 2.43.03.285.478.285.448 0-.074-.81-.134-1.62-.209-2.43-.015-.285-.463-.285-.448 0z" fill="#5222D0"/><path d="M117.005 28.38c.449-.12.897-.21 1.345-.27.284-.03.284-.48 0-.45a9.71 9.71 0 00-1.464.285c-.269.075-.149.51.119.435z" fill="#5222D0"/><path d="M118.23 26.37c0 .51 0 1.02.015 1.53 0 .405-.045.825.075 1.215.09.27.523.165.433-.12-.119-.405-.06-.885-.06-1.29 0-.45 0-.885-.015-1.335 0-.3-.448-.3-.448 0zM119.619 26.565c.583.09 1.166-.285 1.718-.105.269.09.389-.345.12-.435-.598-.18-1.135.195-1.718.105-.269-.045-.403.39-.12.435z" fill="#5222D0"/><path d="M120.411 26.505c.15.78.224 1.575.224 2.37 0 .285.448.285.448 0 0-.84-.074-1.665-.239-2.49-.059-.285-.493-.165-.433.12zM122.532 25.995c-.045 1.05-.045 2.1-.03 3.15 0 .285.449.285.449 0-.015-1.05-.015-2.1.029-3.15 0-.285-.448-.285-.448 0z" fill="#5222D0"/><path d="M122.532 26.01c.344.765 1.061 1.23 1.315 2.04.06.165.328.24.403.06.359-.78.732-1.545 1.091-2.325a3.75 3.75 0 01-.404-.06c.224 1.185.448 2.385.658 3.57.059.285.478.165.433-.12a319.046 319.046 0 01-.658-3.57c-.029-.18-.328-.225-.403-.06-.358.78-.732 1.545-1.09 2.325.134.015.269.03.403.06-.269-.87-.986-1.35-1.359-2.16-.12-.255-.508-.03-.389.24zM126.999 25.335c.224 1.26.283 2.505.209 3.78 0 .12.104.225.224.225a6.61 6.61 0 002.285-.405c.269-.105.15-.54-.119-.435a6.284 6.284 0 01-2.166.39l.224.225c.075-1.32 0-2.61-.239-3.9-.045-.285-.478-.165-.418.12z" fill="#5222D0"/><path d="M116.811 32.25c2.838-.21 5.691-.3 8.545-.285.283 0 .283-.45 0-.45a108.14 108.14 0 00-8.545.285c-.284.015-.284.465 0 .45zM116.886 34.185c.642.015 1.299.045 1.942 0 .597-.03 1.18-.15 1.777-.075.284.03.284-.42 0-.45-.597-.075-1.18.045-1.777.075-.643.03-1.3.015-1.942 0-.299-.015-.299.435 0 .45zM116.871 35.46c1.075.06 2.136-.165 3.197 0 .283.045.403-.39.119-.435-1.105-.165-2.211.045-3.316-.015-.299-.015-.299.435 0 .45zM117.125 38.325h2.928c.283 0 .283-.45 0-.45h-2.928c-.284 0-.284.45 0 .45zM117.319 39.375h2.121c.284 0 .284-.45 0-.45h-2.121c-.299 0-.299.45 0 .45zM116.886 41.04h2.987c.284 0 .284-.45 0-.45h-2.987c-.299 0-.299.45 0 .45zM124.594 33.765h6.318c.284 0 .284-.45 0-.45h-6.318c-.284 0-.284.45 0 .45zM124.743 35.535h4.108c.284 0 .284-.45 0-.45h-4.108c-.284 0-.284.45 0 .45zM130.374 35.46h1.225c.284 0 .284-.45 0-.45h-1.225c-.298 0-.298.45 0 .45zM125.176 38.355h4.945c.283 0 .283-.45 0-.45h-4.945c-.284 0-.284.45 0 .45zM123.414 40.395h4.332c.283 0 .283-.45 0-.45h-4.332c-.299 0-.299.45 0 .45zM125.176 41.505h3.286c.284 0 .284-.45 0-.45h-3.286c-.284 0-.284.45 0 .45zM129.329 40.32h3.137c.284 0 .284-.45 0-.45h-3.137c-.299 0-.299.45 0 .45zM134.512 29.625h2.883c.284 0 .284-.45 0-.45h-2.883c-.284 0-.284.45 0 .45zM138.276 28.77c.747.315 1.584.3 2.301.675v-.39c-.523.375-1.046.75-1.554 1.125-.239.165-.015.555.224.39.523-.375 1.046-.75 1.554-1.125.119-.09.164-.3 0-.39-.762-.39-1.628-.39-2.405-.72-.269-.105-.388.33-.12.435zM134.96 31.62c.344.09.687.18 1.046.24.09.015.911.06.956.15-.045-.09-1.195.915-1.315 1.05-.194.21.12.525.314.315.359-.375.747-.69 1.195-.96.224-.135.478-.33.344-.63-.135-.27-.538-.225-.792-.27a12.344 12.344 0 01-1.613-.345c-.299-.06-.419.375-.135.45zM134.871 35.43h4.615c.284 0 .284-.45 0-.45h-4.615c-.284 0-.284.45 0 .45zM139.546 33.975c.314.165.642.27.986.36.358.105.971.195 1.195.54v-.225c-.149.255-.448.48-.657.69l-.643.645c-.179.18.045.48.269.36.03-.015.075-.045.105-.06.254-.15.03-.525-.224-.39-.03.015-.075.045-.105.06l.269.36c.254-.255.523-.51.777-.78.209-.21.463-.39.597-.645.045-.075.045-.165 0-.225-.463-.72-1.643-.705-2.345-1.065-.254-.15-.478.24-.224.375zM134.841 37.995h3.241c.284 0 .284-.45 0-.45h-3.241c-.284 0-.284.45 0 .45zM139.934 37.89h3.466c.284 0 .284-.45 0-.45h-3.466c-.298 0-.298.45 0 .45zM135.244 40.965h3.54c.284 0 .284-.45 0-.45h-3.54c-.299 0-.299.45 0 .45zM130.374 46.545h5.483c.283 0 .283-.45 0-.45h-5.483c-.298 0-.298.45 0 .45zM132.421 48.135h4.944c.284 0 .284-.45 0-.45h-4.944c-.284 0-.284.45 0 .45zM146.701 42.825c-.792-.855-1.807 1.11-1.912 1.695-.134.78.06 1.575.269 2.325.164.615.329 1.14.09 1.77-.209.525-.628 1.005-1.136 1.23-.194.09-.104.435.12.42 1.807-.18 1.299 3.285 1.763 4.395.448 1.05 1.478 1.545 2.569 1.365.284-.045.164-.48-.12-.435-2.33.375-2.21-2.22-2.42-3.75-.134-.945-.657-2.145-1.807-2.025.045.135.075.285.119.42.942-.42 1.644-1.59 1.464-2.625-.134-.825-.478-1.59-.508-2.43a2.73 2.73 0 01.15-1.035c.045-.105.732-1.32 1.031-.99.209.21.522-.12.328-.33zM153.826 52.305c-.373.405-.254.885-.044 1.365.179.405.612.885.597 1.335 0 .825-.956 1.2-1.583 1.44-.269.105-.15.54.119.435.747-.285 1.584-.645 1.838-1.485.104-.315.074-.63-.045-.93-.18-.465-1.046-1.35-.568-1.845.209-.21-.119-.525-.314-.315z" fill="#E8E8E8"/><path d="M156.306 39.795c-2.33-.96-4.541 1.005-4.197 3.435.343 2.4 3.151 2.91 4.496.99.164-.24-.224-.465-.389-.225-.552.78-1.478 1.215-2.42.885-.926-.33-1.299-1.26-1.299-2.205 0-1.965 1.882-3.165 3.675-2.445.283.105.403-.33.134-.435zM159.353 41.895c.807-.075 1.643-.21 2.465-.18.284.015.284-.435 0-.45-.822-.03-1.658.105-2.465.18-.284.015-.284.465 0 .45z" fill="#DF701F"/><path d="M160.339 40.095c.105 1.035.15 2.07.135 3.105 0 .285.448.285.448 0 .015-1.035-.03-2.07-.135-3.105-.03-.285-.478-.285-.448 0zM163.431 41.04c.747.105 1.509.075 2.256.045.284-.015.284-.465 0-.45-.717.03-1.434.075-2.136-.03-.284-.03-.419.405-.12.435z" fill="#DF701F"/><path d="M164.447 39.3c.045 1.17.075 2.34.119 3.525.015.285.464.285.449 0-.045-1.17-.075-2.34-.12-3.525-.015-.285-.463-.285-.448 0z" fill="#DF701F"/><path d="M182.387 56.67a52.08 52.08 0 001.479 19.275c.074.285.508.165.433-.12a51.461 51.461 0 01-1.464-19.155c.03-.285-.418-.285-.448 0z" fill="#E8E8E8"/><path d="M182.805 56.745c3.929.27 8.066.885 11.95-.12.284-.075.164-.51-.119-.435-3.824 1.005-7.932.375-11.831.105-.299-.015-.299.435 0 .45z" fill="#E8E8E8"/><path d="M194.456 56.445a26.37 26.37 0 004.004 16.35c.149.24.537.015.388-.225a26.079 26.079 0 01-3.943-16.125c.029-.285-.419-.285-.449 0z" fill="#E8E8E8"/><path d="M184.194 76.08c2.286.84 5.109.42 7.424-.105a21.5 21.5 0 006.976-2.985c.239-.15.015-.54-.224-.39a21.003 21.003 0 01-6.617 2.88c-2.301.555-5.154 1.005-7.439.165-.269-.105-.389.33-.12.435zM185.464 59.235c-.822.57-1.568 1.2-2.271 1.905-.134.135-.044.39.165.39 1.105-.03 2.226-.06 3.331-.075.284 0 .284-.45 0-.45-1.105.03-2.226.06-3.331.075.06.135.104.255.164.39a14.999 14.999 0 012.181-1.83c.224-.165 0-.57-.239-.405zM187.54 59.85a19.095 19.095 0 013.466.045c.284.03.284-.42 0-.45a19.113 19.113 0 00-3.466-.045c-.284.015-.284.465 0 .45z" fill="#E8E8E8"/><path d="M191.155 59.13a18.04 18.04 0 012.121.63c-.03-.12-.059-.255-.104-.375a20.7 20.7 0 00-1.389 1.185c-.21.195.104.51.313.315.448-.405.911-.81 1.389-1.185.15-.12.045-.33-.104-.375-.687-.27-1.389-.48-2.121-.63-.269-.06-.389.36-.105.435zM183.432 64.305c.658.045 1.3.075 1.957.12.284.015.284-.435 0-.45-.657-.045-1.299-.075-1.957-.12-.283-.015-.283.435 0 .45zM186.749 64.305c1.837-.285 3.674-.57 5.497-.855.283-.045.164-.48-.12-.435-1.837.285-3.675.57-5.497.855-.284.045-.164.48.12.435zM183.761 65.775h1.404c.284 0 .284-.45 0-.45h-1.404c-.284 0-.284.45 0 .45zM183.866 66.87c.537.045 1.06 0 1.568-.12.284-.06.164-.495-.119-.435a5.209 5.209 0 01-1.449.105c-.284-.03-.284.42 0 .45zM183.701 68.82c1.987-.21 4.168-.21 6.065-.87.269-.09.149-.525-.119-.435-1.868.645-4.004.645-5.946.855-.283.03-.283.48 0 .45zM187.331 66.315a47.114 47.114 0 006.124-1.08c.284-.075.165-.51-.119-.435-1.972.495-3.973.84-6.005 1.065-.284.03-.284.48 0 .45zM184.194 70.665c.463.045.911.015 1.36-.105.283-.075.164-.51-.12-.435a3.446 3.446 0 01-1.24.09c-.284-.03-.284.42 0 .45zM187.525 70.185c.673.075 1.315-.12 1.972-.27.807-.18 1.613-.36 2.405-.54.284-.06.164-.495-.119-.435-.703.165-1.42.315-2.122.48-.702.15-1.419.39-2.136.315-.283-.045-.283.405 0 .45zM186.614 70.995c-.373.105-.672.36-.762.75-.03.15-.015.33.03.48.045.12.672.915.344 1.005-.135.03-.224.21-.135.33.359.495.314 1.215.852 1.59.343.24.717.255 1.031-.03.209-.195-.105-.51-.314-.315-.538.51-.971-1.17-1.18-1.47-.045.105-.09.225-.135.33.269-.075.419-.225.448-.51.075-.465-1.015-1.47-.059-1.725.284-.075.164-.51-.12-.435zM187.764 72.945a59.171 59.171 0 004.004-.315c.283-.03.283-.48 0-.45-1.33.15-2.659.255-4.004.315-.283.015-.283.465 0 .45zM192.634 70.56c.119.015.314-.03.433 0 .642.18.374.33.418.66.03.255 0 .48.075.735.075.27.224.525.314.795.134.39.149.465-.135.81-.269.315-.269.315-.627.375-.284.045-.164.48.119.435.449-.075.897-.24 1.106-.675.239-.51-.015-1.005-.209-1.485-.15-.36-.209-.69-.194-1.08 0-.21.029-.435-.06-.63-.254-.525-.777-.33-1.24-.39-.284-.03-.284.42 0 .45zM35.85 128.85a386.614 386.614 0 012.047 17.595c.03.285.477.285.448 0a391.91 391.91 0 00-2.062-17.715c-.045-.285-.463-.165-.433.12z" fill="#E8E8E8"/><path d="M37.911 146.685c4.81 2.4 10.531 2.445 15.386.165.254-.12.03-.51-.224-.39-4.705 2.22-10.292 2.145-14.938-.165-.253-.135-.477.255-.224.39z" fill="#E8E8E8"/><path d="M53.626 129.18a454.131 454.131 0 01-.374 17.475c-.015.285.433.285.448 0 .24-5.82.359-11.655.374-17.475 0-.285-.448-.285-.448 0z" fill="#E8E8E8"/><path d="M35.97 128.925c5.825 1.77 11.965 1.14 17.91.465.283-.03.283-.48 0-.45-5.916.66-11.995 1.305-17.791-.45-.269-.09-.388.345-.12.435zM38.18 144.45c.508-1.02 1.658.42 2.062.78.373.33.806.525 1.314.495 1.255-.06 2.316-1.305 3.6-.99 1.255.315 1.912 1.605 3.346 1.47 1.613-.15 3.256-2.07 4.9-1.11.254.15.478-.24.224-.39-1.569-.915-3.018.405-4.482.9-1.12.375-1.852-.06-2.733-.69-.538-.375-1.09-.705-1.778-.66-1.568.09-2.883 1.845-4.317.435-.418-.42-.762-.87-1.389-.975-.478-.075-.911.075-1.135.51-.135.255.254.48.388.225zM37.762 141.855a27.687 27.687 0 0015.7-.3c.268-.09.164-.525-.12-.435a27.39 27.39 0 01-15.46.3c-.284-.075-.404.345-.12.435zM37.03 136.635a31.852 31.852 0 0016.655-.375c.27-.075.165-.51-.12-.435a31.27 31.27 0 01-16.415.375c-.284-.075-.404.36-.12.435zM36.776 132.735c.896-.675 1.778.315 2.465.81.538.39 1.12.585 1.777.51 1.36-.18 2.66-1.59 4.078-1.23.777.195 1.27.96 2.062 1.095.597.105 1.15-.18 1.628-.495.806-.51 1.464-.915 2.465-.84.91.06 1.762.285 2.688.135.284-.045.165-.48-.12-.435-1.03.15-2.03-.21-3.061-.165-.747.03-1.33.33-1.942.75-.344.225-.687.495-1.09.585-.613.15-1.076-.21-1.54-.54-.537-.375-1.075-.645-1.762-.57-1.389.135-2.659 1.56-4.093 1.26-1.24-.255-2.375-2.325-3.809-1.26-.194.18.03.57.254.39z" fill="#E8E8E8"/><path d="M39.988 129.24c-.687-.705-2.824-3.015-1.643-4.005a.207.207 0 00.03-.27c-.927-1.335-1.942-2.76-2.047-4.44-.045-.735.269-1.32.329-2.01.06-.66-.284-1.395-.448-2.025-.807-3.27-1.375-6.84-1.061-10.215.075-.825.224-1.68.553-2.445.627-1.5 1.897-.12 2.434.63.897 1.26 1.51 2.685 2.032 4.14 1.12 3.135 2.017 6.36 2.748 9.615a85.02 85.02 0 011.763 11.49c.03.285.478.285.448 0a87.797 87.797 0 00-1.718-11.325c-.806-3.705-1.807-7.455-3.211-10.965-.568-1.41-1.27-2.985-2.39-4.05-.837-.81-1.972-.96-2.48.24-.642 1.5-.702 3.21-.657 4.83.06 1.935.269 3.885.612 5.79.195 1.05.419 2.085.688 3.105.164.615.283 1.065.104 1.665a4.25 4.25 0 00-.194 1.305c0 1.86 1.09 3.465 2.106 4.92.015-.09.03-.18.03-.27-1.464 1.245.762 3.765 1.643 4.65.224.15.538-.165.329-.36z" fill="#E8E8E8"/><path d="M43.498 117.525c.135-1.32.269-2.655.747-3.9.284-.735.687-1.335 1.18-1.935.344-.42.583-.855.896-1.29.911-1.29 1.778.135 1.942 1.065a20 20 0 01.224 2.505c.06 1.62-.03 3.255-.269 4.86-.03.24.27.405.404.18.343-.555 1.404-1.725 1.926-.48.165.39.06.96.045 1.365a37.622 37.622 0 01-.328 3.435 36.58 36.58 0 01-1.45 6.165c-.089.27.344.39.434.12a37.908 37.908 0 001.748-9.015c.06-.855.388-2.46-.628-2.94-.926-.435-1.703.42-2.15 1.125l.403.18c.298-2.04.388-4.08.209-6.135-.105-1.125-.21-3.54-1.912-3.375-.628.06-.941.615-1.24 1.095-.463.78-1.135 1.38-1.554 2.19-.776 1.485-.94 3.18-1.105 4.815 0 .255.448.255.478-.03zM36.014 103.53c3.212 8.46 4.945 17.355 6.647 26.205.06.285.493.165.434-.12-1.703-8.85-3.436-17.76-6.648-26.205-.104-.27-.537-.15-.433.12z" fill="#E8E8E8"/><path d="M35.805 116.205a13.386 13.386 0 015.109 5.34c.134.255.523.03.388-.225a13.885 13.885 0 00-5.258-5.505c-.269-.15-.493.24-.239.39zM39.883 107.535c-.269 2.505-.508 5.025-.209 7.53.03.285.478.285.448 0-.299-2.52-.06-5.025.21-7.53.03-.285-.419-.285-.449 0zM47.038 109.95c-.343 6.3-.672 12.615-1.015 18.915-.016.285.433.285.448 0 .343-6.3.672-12.615 1.015-18.915.015-.3-.433-.3-.448 0z" fill="#E8E8E8"/><path d="M43.095 117.27a48.136 48.136 0 002.928 7.365c.134.255.522.03.388-.225a47.361 47.361 0 01-2.883-7.26c-.09-.27-.523-.165-.433.12zM46.515 126.84a10.937 10.937 0 004.048-4.005c.15-.255-.239-.48-.388-.225a10.392 10.392 0 01-3.884 3.84c-.254.15-.03.525.224.39zM36.134 129.015c.896-.06 2.3-.375 2.958.435l.268-.36a6.182 6.182 0 00-1.852-.645c-.045.15-.075.285-.12.435.718.12 1.42.285 2.122.495.284.09.388-.345.12-.435a17.389 17.389 0 00-2.122-.495c-.284-.045-.403.375-.12.435a6.52 6.52 0 011.748.6c.24.12.433-.165.27-.36-.763-.945-2.227-.63-3.272-.57-.284.03-.284.48 0 .465zM49.503 129.18c-.03-.15 1.807-.06 1.912-.045.627.03 1.27.06 1.897.075v-.45c-1.18.06-2.36.12-3.54.165-.284.015-.284.435 0 .45.657.03 1.314.045 1.971.03.284 0 .284-.45 0-.45-.657.015-1.314.015-1.971-.03v.45c1.18-.06 2.36-.12 3.54-.165.284-.015.284-.435 0-.45-1.15-.045-2.345-.195-3.495-.15-.434.015-.852.165-.732.69.044.285.478.165.418-.12zM67.547 167.25c2.241-2.82 4.467-5.625 6.707-8.445 2.047-2.565 4.093-5.145 6.483-7.395.21-.195-.104-.51-.313-.315-2.39 2.265-4.437 4.83-6.483 7.395-2.241 2.82-4.467 5.625-6.707 8.445-.18.225.134.54.313.315z" fill="#E8E8E8"/><path d="M80.424 151.32H153.468c.284 0 .284-.45 0-.45H80.424c-.3 0-.3.45 0 .45z" fill="#E8E8E8"/><path d="M153.393 151.365a199.385 199.385 0 0115.012 17.37c.18.225.568 0 .389-.225a199.55 199.55 0 00-15.087-17.46c-.194-.21-.523.105-.314.315zM43.05 153.03h20.823c.284 0 .284-.45 0-.45H43.05c-.284 0-.284.45 0 .45zM81.947 143.955h97.019c.284 0 .284-.45 0-.45H81.947c-.284 0-.284.45 0 .45zM188.795 144.15h31.623c.284 0 .284-.45 0-.45h-31.623c-.284 0-.284.45 0 .45zM162.087 150.66h17.283c.283 0 .283-.45 0-.45h-17.283c-.284 0-.284.45 0 .45zM187.809 152.43h13.16c.284 0 .284-.45 0-.45h-13.16c-.284 0-.284.45 0 .45z" fill="#E8E8E8"/><path d="M66.397 143.655h16.267c.284 0 .284-.45 0-.45H66.397c-.299 0-.299.45 0 .45zM81.693 145.605h40.675c.284 0 .284-.45 0-.45H81.693c-.284 0-.284.45 0 .45zM113.271 143.655h55.015c.284 0 .284-.45 0-.45h-55.015c-.284 0-.284.45 0 .45zM168.286 146.58h38.748c.284 0 .284-.45 0-.45h-38.748c-.284 0-.284.45 0 .45zM40.824 161.94h12.204c.284 0 .284-.45 0-.45H40.824c-.299 0-.299.45 0 .45zM144.655 159.225h17.626c.284 0 .284-.45 0-.45h-17.626c-.299 0-.299.45 0 .45zM191.14 159.795h15.879c.284 0 .284-.45 0-.45H191.14c-.284 0-.284.45 0 .45z" fill="#161616"/><path d="M57.704 105.225v57.135c1.314-.135 2.614-.27 3.928-.42v-57.135c-1.3.135-2.614.27-3.928.42zM171.303 105.84c-.03 18.705-.074 37.395-.104 56.1h3.824v-56.625c-1.225.18-2.465.36-3.72.525z" fill="#fff"/><path d="M77.063 143.34a847.198 847.198 0 01-.105-24.72c.06-5.415.164-10.74.314-16.005-1.584-.03-3.167-.075-4.765-.105-.03 13.545-.075 27.075-.105 40.62 1.553.075 3.107.15 4.66.21zM156.097 103.455c.03 13.23.075 26.46.104 39.69 1.419-.03 2.824-.075 4.243-.105l.313-40.305c-1.553.225-3.107.48-4.66.72z" fill="#000"/><path d="M51.295 104.07c-.03 1.11-.074 2.22-.104 3.33 42.826.075 85.666.135 128.492.21l-.313-3.525a1428.668 1428.668 0 00-42.528-1.245c-29.665-.45-58.211.03-85.547 1.23z" fill="#000"/><path d="M51.295 103.965c42.692.03 85.383.075 128.089.105-4.556-4.335-9.111-8.655-13.652-12.99-34.446.03-68.907.075-103.353.105-3.704 4.26-7.394 8.52-11.084 12.78z" fill="#fff"/><path d="M51.312 104.265c3.69-4.425 7.483-8.76 11.397-12.99.194-.21-.12-.525-.314-.315a324.442 324.442 0 00-11.397 12.99c-.18.21.134.54.314.315z" fill="#161616"/><path d="M50.907 104.265v2.805c0 .285.448.285.448 0v-2.805c0-.285-.448-.285-.448 0zM51.505 107.67h128.014c.284 0 .284-.45 0-.45H51.504c-.298 0-.298.45 0 .45z" fill="#161616"/><path d="M179.922 107.25v-3.36c0-.285-.448-.285-.448 0v3.36c0 .3.448.3.448 0zM51.131 107.67c.284 0 .284-.45 0-.45s-.299.45 0 .45z" fill="#161616"/><path d="M51.31 104.31H179.325c.283 0 .283-.45 0-.45H51.31c-.284 0-.284.45 0 .45zM62.827 91.44h102.919c.284 0 .284-.45 0-.45H62.827c-.284 0-.284.45 0 .45z" fill="#161616"/><path d="M165.522 91.455l13.594 12.66c.209.195.522-.12.313-.315l-13.593-12.66c-.209-.195-.523.12-.314.315zM57.599 107.445v54.675c0 .285.448.285.448 0v-42.57-12.105c0-.3-.448-.3-.448 0zM61.498 107.625v54.3c0 .285.448.285.448 0v-42.3-12c0-.285-.448-.285-.448 0z" fill="#161616"/><path d="M57.823 162.555c1.18-.075 2.345-.15 3.525-.21.284-.015.284-.465 0-.45-1.18.075-2.345.15-3.525.21-.284.03-.299.48 0 .45zM170.93 107.445v54.675c0 .285.448.285.448 0v-42.57-12.105c0-.3-.448-.3-.448 0zM174.828 107.625v54.3c0 .285.449.285.449 0v-42.3-12c0-.285-.449-.285-.449 0z" fill="#161616"/><path d="M171.333 162.255c1.18-.075 2.345-.15 3.525-.21.284-.015.284-.465 0-.45-1.18.075-2.345.15-3.525.21-.284.015-.284.465 0 .45zM72.327 107.655v35.325c0 .285.448.285.448 0v-35.325c0-.285-.448-.285-.448 0zM76.794 107.865v35.115c0 .285.448.285.448 0v-35.115c0-.285-.448-.285-.448 0z" fill="#161616"/><path d="M72.746 143.415h4.272c.284 0 .284-.45 0-.45h-4.272c-.284 0-.284.45 0 .45zM156.097 107.46v35.52c0 .285.448.285.448 0v-35.52c0-.285-.448-.3-.448 0zM160.354 107.865v35.115c0 .285.448.285.448 0v-35.115c0-.285-.448-.285-.448 0z" fill="#161616"/><path d="M156.515 143.415h4.063c.284 0 .284-.45 0-.45h-4.063c-.284 0-.284.45 0 .45z" fill="#161616"/><path d="M141.249 88.635c-.254.33-.314.675-.344.975-.328 2.4-.209 4.215-.209 4.215.06.9.12 2.235.165 3.945.642.675 1.254.945 1.643 1.08 1.12.375 2.181.12 4.242-.405.837-.21 1.494-.42 1.942-.57.329-.615.433-1.14.463-1.485.06-.735-.164-1.08.105-1.455.268-.375.657-.3.836-.705.105-.24.09-.6-.075-.735-.283-.195-.791.315-1.045.105-.075-.06-.075-.12-.105-.675-.045-.75-.06-.84.03-.915.075-.09.329-.09.807-.075.358 0 .522 0 .597.06.284.225.164.96-.104 1.485-.344.66-.867.87-.807 1.005.075.135.732 0 1.27-.33.313-.195.776-.465.881-.975.179-.75-.538-1.41-.642-1.515-.882-.825-2.166-.555-2.331-.51.015-.72.03-1.44.06-2.16-1.927-.855-3.54-1.05-4.541-1.08-2.106-.075-2.659.465-2.838.72z" fill="#fff"/><path d="M140.592 89.31a58.768 58.768 0 00-.09 8.265c.015.285.463.285.448 0-.164-2.76-.134-5.52.09-8.265.03-.285-.418-.285-.448 0z" fill="#161616"/><path d="M140.532 97.695c2.002 2.22 5.124 1.53 7.558.585.269-.105.15-.54-.119-.435-2.286.885-5.243 1.635-7.125-.465-.195-.21-.508.105-.314.315zM141.026 89.295c.582-1.065 2.554-1.17 3.63-1.14a7.987 7.987 0 013.644.99c.254.135.478-.255.225-.39a8.355 8.355 0 00-4.362-1.05c-1.15.045-2.898.24-3.526 1.365-.134.255.254.48.389.225z" fill="#161616"/><path d="M148.344 89.19v2.025c0 .15.15.24.284.21.747-.165 1.927 0 2.36.735.852 1.41-.806 1.71-1.658 2.28-.373.24-.433.495-.433.93 0 .975 0 2.1-1.001 2.595-.254.135-.03.51.224.39.882-.435 1.165-1.35 1.21-2.28.015-.42-.119-.9.209-1.245.165-.165.493-.24.702-.345.448-.21.867-.435 1.165-.84.568-.765.254-1.56-.418-2.115-.702-.57-1.613-.735-2.479-.555.089.075.194.15.283.21V89.16c-.015-.255-.463-.255-.448.03z" fill="#161616"/><path d="M148.688 92.025c-.06.555-.03 1.11.09 1.65.059.285.492.165.433-.12a4.777 4.777 0 01-.075-1.53c.03-.285-.418-.285-.448 0z" fill="#161616"/><path d="M149.031 92.475c.224-.195.553-.33.852-.24.284.09.508.42.373.72-.194.405-.851.405-1.24.405-.283 0-.283.45 0 .45.703.015 1.838-.195 1.718-1.155-.045-.39-.358-.735-.732-.855-.463-.135-.941.045-1.299.36-.209.18.104.495.328.315zM142.31 88.59c-.299.24-.792.12-.837.63-.045.405.299.69.642.765.777.165 1.733-.03 2.54-.015.956.015 1.927.09 2.883.195.119.015.224-.12.224-.225 0-.255 0-.27-.135-.495-.149-.24-.537-.015-.388.225.03.09.045.18.075.27l.224-.225a29.584 29.584 0 00-3.451-.195c-.284 0-.582 0-.866.015-.209 0-.643.12-.822.03-.089-.135-.194-.27-.284-.405.075-.015.165-.03.239-.06.075-.06.209-.12.284-.18.224-.195-.104-.51-.328-.33z" fill="#161616"/><path opacity=".09" d="M144.983 87.975c-.059-.21-1.329-.12-2.479.24-.658.195-1.18.465-1.539.645a109.96 109.96 0 00-.239 5.16c-.03 1.275-.03 2.52 0 3.735.418.315 1.434 1.005 2.898 1.125a5.462 5.462 0 002.241-.3l-.762-8.775c-1.195-.015-2.136-.12-2.181-.42-.09-.465 2.151-1.125 2.061-1.41z" fill="#4C4C4C"/><path opacity=".11" d="M141.025 89.805c.627 1.995 1.285 4.02 1.942 6.045.328 1.02.672 2.025 1.001 3.03a4.863 4.863 0 01-1.823-.42 4.961 4.961 0 01-1.359-.885 37.87 37.87 0 01-.06-4.38c.06-1.215.164-2.355.299-3.39z" fill="#4C4C4C"/><path d="M145.73 63.84c-.134.69-.299 1.71-.478 2.955-.552 4.095-.538 7.275-.523 9.75.015 1.815.09 4.17.314 6.945.717.255 1.882.645 3.361 1.005 2.554.63 4.048.69 8.29 1.26 2.614.36 2.002.33 4.302.63 3.391.45 5.527.735 8.231.795 1.24.03 2.972.015 5.094-.165a54.825 54.825 0 001.045-6.105c.075-.6.359-3.33.314-7.05a64.835 64.835 0 00-.732-8.85c-.568-.135-1.359-.33-2.3-.525-1.121-.24-5.034-1.035-10.382-1.365a77.57 77.57 0 00-11.427.105 61.786 61.786 0 00-5.109.615zM47.934 75.255c2.585 6.615 5.154 13.23 7.738 19.845 7.558-4.605 15.117-9.225 22.675-13.83C76.167 75.9 74 70.515 71.82 65.145a180.565 180.565 0 00-12.115 4.62 183.645 183.645 0 00-11.77 5.49zM55.538 95.37c2.808 1.71 5.93 3.435 9.395 5.07a106.565 106.565 0 006.26 2.745 1570.1 1570.1 0 0010.336-7.05c3.39-2.34 6.782-4.68 10.157-7.05-4.302-2.565-8.619-5.115-12.92-7.68-7.753 4.665-15.49 9.315-23.228 13.965z" fill="#fff"/><path d="M59.75 95.7c6.528-3.96 13.16-7.815 19.374-12.27.239-.165.015-.555-.224-.39-6.214 4.455-12.846 8.31-19.374 12.27-.24.15-.015.54.224.39zM62.23 97.245c6.527-3.96 13.16-7.815 19.373-12.27.24-.165.016-.555-.224-.39-6.214 4.455-12.846 8.31-19.373 12.27-.24.15-.015.54.224.39zM65.262 98.7c6.528-3.96 13.16-7.815 19.374-12.27.239-.165.015-.555-.224-.39-6.214 4.455-12.846 8.31-19.374 12.27-.254.15-.03.54.224.39zM67.742 100.245c6.527-3.96 13.16-7.815 19.373-12.27.24-.165.015-.555-.224-.39-6.214 4.455-12.846 8.31-19.374 12.27-.254.15-.03.54.225.39z" fill="#161616"/><path d="M61.782 94.29c1.643 1.05 3.3 2.085 4.944 3.135.239.15.463-.24.224-.39-1.643-1.05-3.301-2.085-4.944-3.135-.24-.15-.464.24-.224.39zM64.35 92.79c1.54 1.095 3.078 2.175 4.616 3.27.24.165.464-.225.225-.39-1.54-1.095-3.078-2.175-4.616-3.27-.224-.165-.448.225-.224.39zM66.816 91.275a93.816 93.816 0 014.361 3.36c.224.18.538-.135.314-.315a97.457 97.457 0 00-4.451-3.42c-.24-.195-.464.195-.225.375zM69.385 89.805a44.54 44.54 0 014.137 3.36c.21.195.523-.12.314-.315a46.5 46.5 0 00-4.227-3.435c-.24-.165-.463.225-.224.39zM71.745 88.515a38.747 38.747 0 013.779 3.57c.194.21.508-.105.314-.315a40.538 40.538 0 00-3.78-3.57c-.209-.18-.537.135-.313.315zM73.612 87.045a30.36 30.36 0 014.018 3.825c.194.225.508-.105.314-.315a30.36 30.36 0 00-4.018-3.825c-.21-.18-.538.135-.314.315zM75.942 85.44a68.676 68.676 0 014.168 3.615c.209.195.523-.12.314-.315a67.956 67.956 0 00-4.168-3.615c-.224-.18-.538.135-.314.315zM77.914 84.33c.792.45 1.42 1.17 2.076 1.8.643.615 1.27 1.23 1.912 1.845.21.195.523-.12.314-.315-.702-.675-1.404-1.365-2.106-2.04-.613-.6-1.21-1.245-1.957-1.68-.269-.135-.493.255-.239.39zM59.451 95.73a47.42 47.42 0 005.452 3.06c.254.12.493-.27.224-.39-1.882-.9-3.69-1.935-5.452-3.06-.239-.15-.463.24-.224.39zM79.094 83.55l.18.045c.119.03.253-.03.268-.15.03-.12-.03-.24-.15-.27l-.178-.045c-.12-.03-.254.03-.27.15-.044.105.03.24.15.27z" fill="#161616"/><path d="M79.05 83.52c1.881.84 3.51 2.13 5.332 3.075.254.135.478-.255.224-.39-1.822-.945-3.45-2.235-5.333-3.075-.254-.12-.493.27-.224.39zM64.71 98.775c.925.465 1.822.99 2.673 1.575.24.165.463-.225.224-.39a24.016 24.016 0 00-2.674-1.575c-.254-.135-.478.255-.224.39zM66.86 97.515c.687.51 1.345 1.065 1.972 1.665.21.195.523-.12.314-.315-.643-.63-1.33-1.2-2.062-1.74-.224-.18-.448.21-.224.39zM69.011 96.15c.747.555 1.434 1.17 2.062 1.845.194.21.508-.105.313-.315a15.398 15.398 0 00-2.15-1.92c-.225-.165-.449.225-.225.39zM71.267 94.71c.627.6 1.225 1.23 1.807 1.86.194.21.508-.105.314-.315a35.286 35.286 0 00-1.808-1.86c-.209-.21-.522.105-.313.315zM77.496 90.75c.597.705 1.195 1.425 1.807 2.13.18.225.508-.105.314-.315-.598-.705-1.195-1.425-1.808-2.13-.194-.225-.507.105-.313.315zM80.14 89.16c.597.63 1.165 1.29 1.732 1.95.195.225.508-.105.314-.315a53.661 53.661 0 00-1.733-1.95c-.194-.21-.508.105-.313.315zM81.887 87.99c.956.45 1.897.885 2.853 1.335.254.12.493-.27.225-.39-.957-.45-1.898-.885-2.854-1.335-.254-.12-.493.27-.224.39z" fill="#161616"/><path d="M84.337 86.475a36.24 36.24 0 002.554 1.47c.254.135.478-.255.224-.39a36.24 36.24 0 01-2.554-1.47c-.239-.165-.463.225-.224.39z" fill="#161616"/><path d="M97.736 55.935a90.231 90.231 0 00-.418 5.16 85.798 85.798 0 001.255 19.545 329.65 329.65 0 007.289-.105c10.964-.27 15.714-.915 25.483-.945 2.48 0 4.467.03 5.617.06.388-1.56.732-3.21 1.001-4.95 1.21-7.92.448-14.91-.732-20.325a64.558 64.558 0 00-8.709-1.05c-2.405-.12-3.077-.03-12.741.42-6.872.315-8.709.375-11.906.9-2.599.39-4.72.9-6.139 1.29z" fill="#fff"/><path d="M156.635 85.845c.089 2.04.059 4.08-.105 6.105-.015.285.433.285.448 0 .165-2.04.194-4.065.105-6.105-.015-.3-.463-.3-.448 0zM159.264 86.28v5.67c0 .285.448.285.448 0v-5.67c0-.3-.448-.3-.448 0z" fill="#161616"/><path d="M156.59 91.74c-.478-.03-2.316.3-1.942 1.155.164.39.821.42 1.15.48.762.12 1.539.15 2.3.15.732-.015 1.494-.015 2.226-.105.344-.045 1.046-.12 1.255-.465.463-.795-1.598-1.17-1.987-1.23-.284-.045-.403.39-.119.435.328.06.642.12.971.24.433.15.851.24.313.495-.597.27-1.568.165-2.21.18-.747.015-1.509.015-2.256-.075-.284-.03-1.419-.015-.866-.555.269-.27.836-.27 1.18-.255.284.015.284-.435-.015-.45zM145.103 83.82a57.564 57.564 0 0011.487 2.205c.284.03.284-.42 0-.45a56.38 56.38 0 01-11.368-2.175c-.269-.09-.388.345-.119.42zM159.308 86.325c4.99.885 10.068 1.215 15.102.705.284-.03.284-.48 0-.45-5.004.495-10.038.195-14.982-.69-.284-.045-.403.39-.12.435z" fill="#161616"/><path d="M145.252 83.46c-.358-6.51-.687-13.095.747-19.515.06-.285-.373-.405-.433-.12-1.434 6.45-1.105 13.08-.762 19.635.015.285.463.285.448 0z" fill="#161616"/><path d="M145.805 64.095c4.78-1.02 9.844-.885 14.713-.795 4.795.09 9.62.525 14.221 1.965.269.09.388-.345.119-.435-4.645-1.455-9.5-1.89-14.34-1.98-4.899-.09-10.008-.225-14.833.81-.283.075-.164.495.12.435z" fill="#161616"/><path d="M174.754 65.16a62.211 62.211 0 01-.553 21.555c-.06.285.374.405.433.12a62.872 62.872 0 00.553-21.795c-.045-.285-.478-.165-.433.12zM47.71 75.525c2.6 6.72 5.199 13.425 7.798 20.145.104.27.537.15.433-.12-2.6-6.72-5.198-13.425-7.797-20.145-.105-.27-.538-.15-.434.12z" fill="#161616"/><path d="M55.418 95.82a207.975 207.975 0 0015.565 7.665c.269.12.493-.27.224-.39a213.952 213.952 0 01-15.565-7.665c-.254-.135-.478.24-.224.39z" fill="#161616"/><path d="M71.282 103.515c6.811-4.71 13.638-9.435 20.45-14.145.238-.165.014-.555-.225-.39-6.811 4.71-13.638 9.435-20.45 14.145-.238.165-.014.555.225.39zM47.904 75.48A206.69 206.69 0 0171.88 65.325c.27-.09.15-.525-.12-.435a209.617 209.617 0 00-24.078 10.2c-.27.135-.045.51.224.39zM55.806 95.505c7.544-4.635 15.102-9.27 22.646-13.905.239-.15.015-.54-.224-.39-7.544 4.635-15.102 9.27-22.646 13.905-.239.15-.014.54.224.39z" fill="#161616"/><path d="M71.58 65.265c2.196 5.325 4.377 10.65 6.573 15.96.104.27.538.15.433-.12-2.196-5.325-4.376-10.65-6.572-15.96-.105-.27-.538-.15-.433.12z" fill="#161616"/><path d="M78.467 81.495c4.391 2.52 8.783 5.055 13.16 7.575.254.15.478-.24.224-.39-4.392-2.52-8.784-5.055-13.16-7.575-.254-.135-.478.255-.224.39zM97.318 56.04c-.613 8.175.164 16.365.956 24.495.03.285.478.285.448 0-.792-8.145-1.569-16.32-.956-24.495.03-.285-.418-.285-.448 0z" fill="#161616"/><path d="M97.676 56.235c4.75-1.74 9.874-1.86 14.863-2.16 5.183-.315 10.382-.72 15.565-.57 3.047.09 6.08.375 9.082.99.284.06.403-.375.12-.435-5.169-1.065-10.442-1.155-15.685-.945-5.288.21-10.62.465-15.878.975-2.779.27-5.542.735-8.186 1.695-.27.12-.15.555.12.45z" fill="#161616"/><path d="M137.186 54.3a65.086 65.086 0 01-.329 25.155c.075-.06.15-.105.209-.165-9.978.33-19.941.645-29.919.975l-8.485.27c-.284.015-.284.465 0 .45 9.978-.33 19.942-.645 29.92-.975l8.484-.27c.09 0 .195-.06.21-.165a66.04 66.04 0 00.328-25.395c-.045-.285-.478-.165-.418.12z" fill="#161616"/><path d="M156.889 85.785c0 .84-.015 1.695-.03 2.55-.03 1.2-.06 2.4-.105 3.57a2.015 2.015 0 00-1.075.135c-.045.015-.882.375-.852.69.075.54 2.749.615 4.212.555.837-.03 2.376-.09 2.42-.42.03-.255-.747-.585-1.852-.915l-.134-5.955c-.867-.075-1.733-.15-2.584-.21z" fill="#000"/><path d="M147.119 65.595a89.92 89.92 0 00-.522 14.865c.015.285.463.285.448 0a93.197 93.197 0 01.523-14.865c.029-.285-.419-.285-.449 0z" fill="#E8E8E8"/><path d="M147.478 65.775c2.061-.765 4.242-.96 6.423-.99 2.151-.015 4.302.06 6.438.195 4.452.285 8.873.9 13.235 1.8.284.06.403-.375.119-.435a95.253 95.253 0 00-13.354-1.815 83.443 83.443 0 00-6.707-.195c-2.121.03-4.257.255-6.259 1.005-.283.09-.164.525.105.435z" fill="#E8E8E8"/><path d="M173.544 66.6c.224 5.85-.314 11.7-.896 17.52-.03.285.418.285.448 0 .582-5.82 1.105-11.67.896-17.52-.015-.285-.463-.285-.448 0z" fill="#E8E8E8"/><path d="M146.671 80.79c1.763 1.05 4.004 1.38 5.975 1.815 2.286.51 4.601.93 6.931 1.26 2.196.315 4.407.54 6.633.69 2.18.15 4.496.39 6.647-.045.284-.06.164-.495-.12-.435-2.151.45-4.496.165-6.677.03a89.082 89.082 0 01-6.647-.705 91.176 91.176 0 01-6.363-1.155c-2.017-.45-4.347-.78-6.155-1.83-.254-.165-.478.225-.224.375zM147.209 67.8c8.858-.54 17.716.45 26.469 1.68.284.045.404-.39.12-.435C165 67.8 156.112 66.81 147.209 67.35c-.284.015-.284.465 0 .45zM150.241 66.315a.1.1 0 010-.195c.135-.06.239.09.224.21-.015.195-.239.06-.209-.045l.045-.045c-.015.015-.03-.015-.03-.015.015-.03.105-.105.105 0 0-.285-.448-.285-.448 0 0 .225.179.39.403.39.239 0 .418-.21.373-.45a.438.438 0 00-.493-.375.52.52 0 00-.418.54c.045.555.852.75 1.061.195.179-.45-.209-.975-.702-.87-.239.045-.448.255-.448.51a.58.58 0 00.403.57c.284.09.403-.345.134-.42zM152.631 66.03c-.074-.015 0-.075.045-.075.09.015.075.12 0 .12h-.015s-.015-.015-.015-.045v-.045s0 .015-.015.015c-.03 0 .03-.015.015 0 .105-.045-.015.03.015 0v-.03s.075.015 0 0c-.119-.045-.239.045-.269.15-.03.12.045.24.15.27.194.075.418-.045.508-.225a.404.404 0 00-.12-.525.466.466 0 00-.747.405c.045.435.553.6.852.285.298-.33.044-.84-.389-.855a.514.514 0 00-.508.405.474.474 0 00.344.555c.314.105.433-.33.149-.405zM157.098 71.94c-2.017.84-4.004 1.725-5.975 2.64-.194.09-.105.36.059.405 1.688.6 3.302 1.35 4.855 2.235.254.15.478-.24.224-.39a30.247 30.247 0 00-4.959-2.28c.015.135.03.27.06.405a170.1 170.1 0 015.87-2.595c.254-.105.135-.54-.134-.42zM162.729 71.265l-5.049 6.42c-.179.225.135.54.314.315l5.049-6.42c.179-.21-.135-.54-.314-.315zM164.985 73.755a35.4 35.4 0 004.376 2.385v-.39c-1.613.915-3.226 1.83-4.839 2.73-.254.135-.03.525.224.39 1.613-.915 3.226-1.83 4.839-2.73.135-.075.15-.315 0-.39a35.4 35.4 0 01-4.376-2.385c-.239-.165-.463.225-.224.39z" fill="#E8E8E8"/><path d="M165.268 83.355c1.853.045 3.69.09 5.542.12.284 0 .284-.45 0-.45-1.852-.045-3.689-.09-5.542-.12-.283 0-.283.45 0 .45zM49.174 75.93a369.85 369.85 0 016.483 16.68c.105.27.538.15.433-.12a369.85 369.85 0 00-6.483-16.68c-.12-.27-.552-.15-.433.12z" fill="#E8E8E8"/><path d="M49.443 75.81c7.11-2.925 14.22-5.865 21.286-8.895.269-.12.03-.495-.224-.39-7.036 3.015-14.101 5.94-21.181 8.85-.27.12-.15.555.12.435z" fill="#E8E8E8"/><path d="M70.684 66.795a242.29 242.29 0 015.84 13.62c.105.27.538.15.434-.12a241.763 241.763 0 00-5.885-13.74c-.12-.24-.508-.015-.389.24z" fill="#E8E8E8"/><path d="M56.195 92.925A374.216 374.216 0 0066.56 86.88a351.053 351.053 0 005.05-3.105c1.642-1.035 3.286-2.085 5.063-2.895.27-.12.03-.51-.224-.39-1.777.81-3.42 1.86-5.064 2.895a350.503 350.503 0 01-5.049 3.105c-3.42 2.07-6.886 4.08-10.366 6.045-.254.15-.03.54.224.39z" fill="#E8E8E8"/><path d="M57.928 79.29c-.986-.6-1.972.435-2.54 1.17-.687.885-.866 1.95-.448 3 .373.915 1.21 1.83 2.27 1.77 1.255-.075 2.002-1.185 2.57-2.175.15-.255-.24-.48-.389-.225-.403.705-.851 1.485-1.643 1.8-.94.39-1.777-.18-2.24-1.005-.359-.63-.478-1.41-.24-2.115.24-.675 1.524-2.37 2.42-1.83.255.15.493-.24.24-.39zM63.245 76.845c0-.69-.702-.495-1.075-.21-.598.45-1.315 1.47-1.42 2.22-.119.945.912.765 1.554.705.807-.075 1.942.225 1.315 1.305-.404.69-1.225 1.005-1.972 1.035-.284.015-.284.465 0 .45 1.135-.06 3.241-1.14 2.48-2.61-.329-.615-1.06-.705-1.688-.66-.165.015-.628.135-.792.075-.597-.225-.269-.705-.12-.99.105-.195.21-.405.344-.585.045-.06.911-.93.911-.75.015.315.463.315.463.015zM68.951 73.455c-.731-.285-1.389.345-1.822.87-.358.42-1 1.275-.777 1.89.24.66 1.255.36 1.733.3.254-.03.538-.075.792-.03.672.09.911.78.597 1.335-.373.66-1.105.87-1.792.96-.284.045-.165.48.12.435 1.105-.165 3.047-1.29 2.09-2.685-.462-.675-1.389-.51-2.06-.435-.15.015-.703.165-.792.06-.225-.225-.09-.75.044-.99.3-.51 1.031-1.575 1.763-1.29.254.12.373-.315.105-.42z" fill="#486F9A"/><path d="M69.31 83.46c1.12-.72 2.256-1.455 3.376-2.175.239-.15.015-.54-.224-.39-1.12.72-2.256 1.455-3.376 2.175-.24.165-.015.555.224.39zM73.642 80.79c.284-.135.568-.27.866-.405.254-.12.03-.51-.224-.39-.284.135-.568.27-.866.405-.27.12-.03.51.224.39zM66.756 69.54c.015-.03.015-.06.03-.105 0-.015.014-.015.014-.03.03-.015.06-.045.105-.06-.045.015.09.015.105.015.044.015.044.045.06.075.014.03 0-.03 0 0-.016.045 0-.03 0 0 0 .015 0 .015 0 0l-.016.015c-.014 0-.03.015-.03.015-.03.015-.014-.015 0 0h-.014c.015 0 .015 0 0 0 0-.015 0 .015 0 0 0 0-.015 0-.015-.015-.015-.015 0-.015 0 .015 0-.015 0-.015 0 0 0 0-.015-.045 0-.045 0 0-.015.03-.015.045.015-.045-.015.015 0-.015l.015-.015c-.015.015.03 0 .03 0 .014 0 .03 0 .03.015.014 0 .014.015 0 0 0 0 .014.045.014.015v.06c-.015.045-.06.06-.09.06h-.014c.03.015 0 0-.015 0 .03.015-.015-.015-.015-.015-.015-.03-.015-.045-.015-.075 0-.045 0-.06.045-.09l.015-.015c.015 0 .015-.015.03-.015h.015.014c-.03-.015.015.015.03.015.03.015.06.075.06.105a.23.23 0 00-.224-.225.23.23 0 00-.224.225c0 .42.672.42.687.015.015-.405-.627-.48-.717-.09-.045.195.09.405.284.465a.392.392 0 00.448-.21.434.434 0 00-.075-.51c-.134-.135-.358-.18-.522-.075a.407.407 0 00-.135.54c.06.09.164.165.269.165.134 0 .269-.12.269-.27-.015-.12-.09-.225-.224-.225-.09.015-.21.12-.21.24zM68.787 68.64c.12-.03.164.165.045.18-.015 0-.06-.015-.045-.015.015.015-.03-.03 0 0-.03-.03-.015-.015 0 .015 0-.015 0-.015-.015-.03 0 .015 0 .015 0 0s0-.015 0 0v-.015c0-.015.015-.045.03-.06s.045-.015.06-.03c-.06 0 .045 0 0 0 .015 0 .015 0 .03.015-.015-.015-.015-.015 0 0s.015.015 0 0l.015.015c-.015-.045.015.045 0 0 0 .015 0 .075.015.045l-.15.15a.276.276 0 01.105-.03c-.03 0 .03 0 0 0-.015 0-.015 0 0 0s.015 0 0 0c-.015-.015-.03-.015-.045-.045 0-.015-.015-.06-.015-.045 0 .03.015-.045 0-.015a.143.143 0 01.135-.105.23.23 0 00-.225.225c0 .12.105.225.224.225.344 0 .419-.48.135-.645-.135-.075-.299-.06-.448 0-.18.075-.21.285-.12.45.15.27.583.3.687-.03.09-.27-.164-.57-.448-.525-.194.03-.328.255-.284.435.045.195.254.315.434.255.12-.03.194-.165.15-.27a.226.226 0 00-.27-.15zM98.647 56.835c.12 7.515.508 15.015 1.195 22.5.03.285.478.285.448 0a306.055 306.055 0 01-1.195-22.5c0-.3-.448-.3-.448 0z" fill="#E8E8E8"/><path d="M99.17 57.075c3.062-.54 6.169-.645 9.261-.78 3.003-.12 6.02-.24 9.023-.345 6.064-.225 12.129-.405 18.193-.57.284 0 .284-.45 0-.45-6.169.165-12.323.345-18.492.57-3.062.105-6.11.225-9.172.36-2.987.12-5.975.255-8.932.78-.27.045-.15.48.12.435z" fill="#E8E8E8"/><path d="M135.573 55.275c.836 1.605.791 3.465.836 5.22a179.348 179.348 0 01-.373 16.455c-.015.285.433.285.448 0 .254-3.84.403-7.695.418-11.55.015-1.875-.015-3.75-.06-5.64-.044-1.62-.104-3.24-.881-4.71-.134-.255-.523-.03-.388.225z" fill="#E8E8E8"/><path d="M100.171 79.395c11.771-2.19 23.87-1.905 35.775-2.1.284 0 .284-.45 0-.45-11.965.195-24.094-.075-35.895 2.115-.284.06-.164.495.12.435zM103.143 58.11c-.597.405-1.165.855-1.702 1.35-.105.105-.075.285.044.36.538.33 1.33.255 1.748.75.179.225.493-.09.314-.315-.463-.57-1.255-.465-1.838-.825l.045.36a14.785 14.785 0 011.613-1.275c.239-.18.015-.57-.224-.405zM105.608 57.885c-.612.915-1.12 1.86-1.553 2.865-.12.27.268.495.388.225a17.107 17.107 0 011.553-2.865c.15-.24-.239-.465-.388-.225zM106.489 59.64a9.623 9.623 0 012.077-.045c.284.03.284-.42 0-.45a9.602 9.602 0 00-2.077.045c-.283.03-.298.48 0 .45zM109.074 58.02c.537.75 1.523.81 2.136 1.455l.044-.36a9.244 9.244 0 00-1.792 1.32c-.209.195.105.51.314.315.522-.48 1.09-.9 1.703-1.245a.227.227 0 00.044-.36c-.582-.6-1.583-.675-2.076-1.365-.164-.21-.553.015-.373.24zM100.066 63.54l1.838-.135c.283-.015.283-.465 0-.45l-1.838.135c-.284.03-.284.48 0 .45zM103.338 63.3c4.137-.24 8.275-.495 12.413-.735.283-.015.283-.465 0-.45-4.138.24-8.276.495-12.413.735-.284.015-.299.465 0 .45zM100.305 65.34h1.016c.284 0 .284-.45 0-.45h-1.016c-.298 0-.298.45 0 .45zM102.561 65.16c.403.03.806-.015 1.195-.12.284-.075.164-.51-.12-.435-.358.09-.702.12-1.075.09-.284 0-.284.45 0 .465zM106.235 64.845a86.472 86.472 0 0111.831-.315c.284.015.284-.435 0-.45a86.596 86.596 0 00-11.831.315c-.283.015-.283.465 0 .45zM100.858 67.59c-.254.315-.523.63-.822.915-.12.12-.06.33.105.375.463.135.941.195 1.419.21.284 0 .284-.45 0-.45-.448 0-.866-.06-1.3-.195.03.12.06.255.105.375.299-.285.568-.585.822-.915.164-.225-.165-.555-.329-.315zM102.382 68.475a30.34 30.34 0 016.169-.54c.284 0 .284-.45 0-.45a29.466 29.466 0 00-6.289.555c-.269.06-.149.48.12.435zM109.163 67.35c.732.375 1.613.12 2.316.525a3.53 3.53 0 01.059-.405c-.418.135-.791.33-1.15.585-.239.165-.015.555.224.39a4.317 4.317 0 011.046-.54c.179-.06.224-.315.06-.405-.717-.435-1.584-.15-2.316-.525-.269-.15-.493.24-.239.375zM128.94 56.82c-.358.06-.582.3-.657.66-.045.24.03.48.075.705.149.66.06.99-.538 1.35-.179.12-.119.42.12.42.627-.015.403 2.895 1.732 1.92.239-.165.015-.555-.224-.39-.612.435-.567-.99-.597-1.14a1.446 1.446 0 00-.15-.45c-.179-.285-.418-.405-.761-.39.044.135.074.285.119.42.344-.21.702-.45.837-.855.119-.36-.389-1.71.179-1.815.269-.045.149-.48-.135-.435zM131.853 57c.508-.075.702.225.613.93-.045.09-.09.165-.135.255-.03.15-.089.255-.089.42 0 .315.209.375.313.615.09.225-.015.195-.044.48-.09.6.731 1.095-.045 1.635-.239.165-.015.555.224.39.328-.225.567-.555.567-.975 0-.165-.074-.315-.119-.465-.09-.375-.03-.645.075-1.005a.251.251 0 00-.06-.225 2.008 2.008 0 01-.209-.165c-.359-.36-.12-.54.045-.945.089-.24.164-.435.089-.69-.134-.54-.702-.72-1.195-.705-.314 0-.314.45-.03.45zM115.512 59.4c2.36-.195 4.705-.375 7.065-.57.284-.03.284-.48 0-.45-2.36.195-4.705.375-7.065.57-.284.015-.284.465 0 .45zM125.669 58.68c.538.075 1.076.06 1.598-.03.284-.045.165-.48-.119-.435a5.427 5.427 0 01-1.479.015c-.284-.045-.284.405 0 .45zM101.724 71.595c3.959-.255 7.917-.525 11.876-.78.283-.015.283-.465 0-.45-3.959.255-7.917.525-11.876.78-.283.015-.283.465 0 .45zM116.169 70.5c1.509-.15 3.002-.285 4.511-.42.284-.03.284-.48 0-.45-1.509.12-3.017.27-4.511.42-.284.03-.284.48 0 .45zM124.071 69.915c2.943-.3 5.9-.525 8.843-.66.284-.015.284-.465 0-.45-2.958.15-5.9.36-8.843.66-.284.03-.284.48 0 .45zM103.487 73.08c-.553.39-1.12.795-1.673 1.185-.149.105-.149.36.06.405.582.15 1.165.27 1.762.36.284.045.404-.39.12-.435-.598-.09-1.18-.21-1.763-.36.015.135.03.27.06.405.553-.39 1.12-.795 1.673-1.185.224-.165 0-.555-.239-.375zM105.772 72.825c-.642.75-1.239 1.53-1.777 2.37-.164.24.224.465.388.225a19.278 19.278 0 011.703-2.28c.194-.21-.119-.54-.314-.315zM107.102 73.47c.194.15.403.225.612.3.135.045.269.075.404.12.074.03.164.075.224.12-.015-.105-.06-.135-.135-.09-.194-.015-.567.225-.747.315-.283.135-.537.315-.791.495-.224.165 0 .555.224.39a4.813 4.813 0 011.075-.63c.239-.105.747-.15.822-.465.06-.27-.239-.42-.433-.51-.344-.15-.732-.195-1.046-.42-.209-.18-.433.21-.209.375zM112.076 74.1c1.837-.15 3.675-.345 5.512-.24.284.015.284-.435 0-.45-1.852-.105-3.675.09-5.512.24-.299.015-.299.465 0 .45zM121.576 73.425a75.181 75.181 0 0110.397-.48c.284 0 .284-.45 0-.45a77.709 77.709 0 00-10.397.48c-.284.03-.284.48 0 .45z" fill="#E8E8E8"/><path opacity=".16" d="M147.209 65.415c-.075.75-.149 1.515-.209 2.265 4.317-.135 9.052-.09 14.131.24 4.496.3 8.693.78 12.532 1.38.09-.945.165-1.89.254-2.835a118.477 118.477 0 00-14.22-1.92c-3.63-.255-5.482-.375-7.947-.075-1.927.255-3.48.645-4.541.945z" fill="#5222D0"/><path opacity=".12" d="M56.718 71.115a25.3 25.3 0 00-1.375 5.73C55 79.83 54.12 87.45 58.092 89.775c2.719 1.59 7.05.33 10.71-2.67.627.51 1.27 1.005 1.897 1.515l-11.158 6.795c2.629 1.575 5.258 3.135 7.872 4.71 2.838-1.695 5.661-3.375 8.5-5.07 1.433.705 2.867 1.425 4.286 2.13-2.972 2.1-5.93 4.2-8.902 6.315-5.184-2.595-10.352-5.19-15.535-7.785-2.63-6.855-5.258-13.725-7.872-20.58 2.957-1.32 5.9-2.67 8.828-4.02z" fill="#4C4C4C"/><path opacity=".08" d="M165.209 63.39a16.97 16.97 0 011.06 3.615c.105.63.926 5.625-1.269 10.02-2.346 4.71-7.648 7.74-13.623 8.085 4.556.99 9.888 1.77 15.863 1.935 2.51.075 4.9.03 7.14-.105a51.78 51.78 0 001.375-9.165c.298-5.07-.18-9.45-.807-12.825-3.256-.495-6.498-1.035-9.739-1.56z" fill="#4C4C4C"/><path opacity=".09" d="M128.164 53.37c.523.975 1.18 2.445 1.449 4.32.672 4.53-1.345 8.145-2.734 10.575-4.182 7.275-11.158 10.77-14.265 12.105a380.53 380.53 0 0019.956-.645c1.524-.09 3.033-.18 4.541-.285a61.397 61.397 0 001.404-10.23 60.887 60.887 0 00-1.105-15.015c-3.077-.285-6.154-.555-9.246-.825z" fill="#4C4C4C"/><path d="M123.981 148.83c.15 1.02.284 2.085.404 3.195.134 1.275.209 2.505.268 3.675.12.225.329.525.673.765.537.375 1.12.375 1.747.36 1.823-.045 2.734-.06 3.137-.135 1.419-.285 2.764-.54 3.047-1.44.195-.6-.194-1.26-.224-1.305-.224-.375-.522-.54-1.03-.81a4.426 4.426 0 00-1.748-.585 4.426 4.426 0 00-1.658.135c-.194-1.59-.388-3.18-.583-4.755l-4.033.9z" fill="#000"/><path d="M121.279 119.145c-1.21 1.32-.837 2.73-1.33 11.235-.194 3.42-.269 3.255-.328 5.31-.165 4.695.089 7.935.239 9.51.104 1.185.239 2.175.328 2.865.882.45 2.39 1.05 4.243.855 1.09-.105 1.912-.465 2.524-.72 1.344-.57 2.33-1.32 2.958-1.86l-.762-28.395c-5.273-1.005-7.17.435-7.872 1.2z" fill="#fff"/><path d="M120.247 120.39a171.269 171.269 0 00-.314 27.405c.015.285.463.285.448 0-.627-9.12-.522-18.3.314-27.405.03-.285-.418-.285-.448 0z" fill="#161616"/><path d="M120.157 148.23c3.316 1.725 7.125.735 9.784-1.71.209-.195-.104-.51-.313-.315-2.51 2.31-6.11 3.27-9.247 1.65-.254-.15-.478.24-.224.375z" fill="#161616"/><path d="M128.806 118.335l.717 27.81c.015.285.463.285.448 0l-.717-27.81c0-.285-.448-.285-.448 0zM123.787 149.025a37.59 37.59 0 01.672 5.49c.015.285.463.285.448 0a36.98 36.98 0 00-.687-5.61c-.059-.285-.493-.165-.433.12zM127.79 147.9c.09 1.965.269 3.915.538 5.865.045.285.478.165.433-.12a57.051 57.051 0 01-.523-5.745c-.014-.285-.463-.285-.448 0z" fill="#161616"/><path d="M128.552 152.775a5.45 5.45 0 014.407 1.365c.209.195.537-.12.313-.315-1.299-1.17-2.987-1.725-4.72-1.5-.284.03-.284.48 0 .45z" fill="#161616"/><path d="M124.459 154.35c-.074.945-.03 2.085.971 2.52.389.165.882.18 1.3.21.717.06 1.434.09 2.151.06 1.718-.09 5.049-.78 4.556-3.195-.06-.285-.493-.165-.434.12.434 2.13-2.972 2.595-4.391 2.64-.762.03-1.524-.015-2.286-.105-1.344-.165-1.508-1.05-1.419-2.235.015-.3-.433-.3-.448-.015z" fill="#161616"/><path opacity=".11" d="M120.546 120.3c1.464-.525 2.927-1.05 4.391-1.56-.254 4.875-.313 10.2-.059 15.9.209 4.86.627 9.42 1.15 13.635a5.877 5.877 0 01-.986.345c-2.062.54-3.899-.15-4.795-.585a148.658 148.658 0 01-.463-16.485c.119-3.975.388-7.725.762-11.25z" fill="#4C4C4C"/><path opacity=".1" d="M120.426 120.6c.06 2.625.224 6.03.583 9.975.284 3.135.597 5.475.687 6.21.433 3.165 1.09 7.275 2.196 12.075-1.255-.285-2.51-.585-3.75-.87-.224-4.815-.328-9.915-.224-15.27.06-4.215.239-8.265.508-12.12z" fill="#4C4C4C"/><path d="M117.244 131.49c.09.465.21 1.14.359 1.98.881 5.34.866 9.18.956 12.42.075 2.76.254 6.705.762 11.61-.314.135-.792.36-1.36.66-1.404.735-3.286 1.725-5.048 3.555-.523.54-1.255 1.38-1.972 2.535 2.375.225 5.183.33 8.335.105a50.415 50.415 0 009.889-1.725 43.031 43.031 0 00-2.674-2.085 41.325 41.325 0 00-5.243-3.15c-.359-3.495-.643-7.17-.807-10.995a192.842 192.842 0 010-16.635c-1.075.585-2.136 1.155-3.197 1.725z" fill="#000"/><path d="M106.191 124.2c0-.69.791-1.275 2.375-2.43.747-.555 2.808-1.95 6.259-2.745 3.032-.69 5.362-.495 8.185-.255 4.018.345 5.871 1.155 6.364 1.365 1.464.66 2.569 1.44 3.286 2.025-.254.915-.762 2.205-1.822 3.39-.732.84-2.734 2.76-8.276 3.195-7.693.63-16.386-2.04-16.371-4.545z" fill="#fff"/><path d="M106.639 123.33c-.194.42-.374.885-.508 1.425-.508 1.935-.224 3.63.045 4.665.806.375 1.957.84 3.376 1.26 4.361 1.305 7.917 1.125 10.799.96 3.795-.21 6.244-.39 9.082-1.875a15.847 15.847 0 003.481-2.49c-.045-1.635-.105-3.285-.149-4.92a23.069 23.069 0 01-4.243 2.235c-9.261 3.72-18.433.27-21.883-1.26z" fill="#000"/><path d="M105.937 124.35a13.924 13.924 0 00.015 5.1c.059.285.478.165.433-.12a13.278 13.278 0 01-.015-4.86c.06-.285-.373-.405-.433-.12z" fill="#161616"/><path d="M106.086 129.45c2.017 1.305 4.451 1.635 6.782 1.98 2.509.36 5.034.57 7.573.36 4.347-.36 9.709-.78 12.682-4.425.179-.225-.134-.54-.314-.315-1.404 1.725-3.42 2.715-5.542 3.27-2.3.6-4.735.87-7.11 1.035-2.494.18-4.989-.045-7.454-.405-2.195-.33-4.496-.645-6.393-1.89-.239-.15-.463.24-.224.39z" fill="#161616"/><path d="M132.496 122.43c.283 1.56.373 3.12.254 4.695-.015.285.433.285.448 0 .119-1.62.015-3.225-.269-4.815-.045-.285-.478-.165-.433.12z" fill="#161616"/><path d="M106.355 124.395c2.375-4.11 7.693-5.31 12.084-5.565 2.6-.15 5.214.06 7.753.66 1.21.285 2.42.63 3.585 1.095 1.105.435 2.181 1.02 2.734 2.13.134.255.522.03.388-.225-1.061-2.1-3.973-2.775-6.05-3.3a27.775 27.775 0 00-8.395-.795c-4.541.27-9.993 1.53-12.457 5.79-.18.225.209.45.358.21zM117.2 131.655c.941 8.535 1.568 17.1 1.897 25.68.015.285.463.285.448 0a343.549 343.549 0 00-1.897-25.68c-.03-.285-.478-.285-.448 0zM120.038 131.655c.03 8.625.313 17.235.866 25.845.015.285.463.285.448 0-.552-8.61-.836-17.22-.866-25.845-.015-.285-.463-.285-.448 0z" fill="#161616"/><path d="M119.067 157.2c-3.346 1.545-6.214 3.93-8.395 6.915-.075.105 0 .315.134.33 3.092.51 6.214.255 9.306-.09 3.018-.33 6.065-.66 8.978-1.53.149-.045.239-.27.104-.375a37.967 37.967 0 00-7.902-5.13c-.253-.12-.492.27-.224.39a37.071 37.071 0 017.813 5.055c.03-.12.059-.255.104-.375-2.883.87-5.885 1.185-8.858 1.515-3.047.345-6.139.6-9.186.105.045.105.089.225.134.33a21.093 21.093 0 018.231-6.75c.239-.12.015-.51-.239-.39z" fill="#161616"/><path d="M103.756 117.465c.343 1.365.702 2.73 1.045 4.095-1.852-.6-3.45-.915-4.615-1.095-.837-.12-4.377-.66-4.616.09-.09.285.329.72.374.765.343.345.761.375 1.135.465.762.165 1.016.45 1.807.84 1.195.6 3.779 1.545 6.677 2.07.986.18 2.271.36 3.824.42-.612-2.685-1.24-5.37-1.852-8.055-1.255.12-2.524.255-3.779.405z" fill="#000"/><path d="M103.173 79.89c-.672.27-1.195.81-2.031 2.445-1.345 2.61-1.763 4.47-1.763 4.47-1.255 5.595-1.867 8.4-2.091 10.575-.687 6.9.448 7.2.403 14.445 0 .54-.015 1.71.672 2.85 1.09 1.785 3.197 2.295 3.78 2.445 1.717.42 3.346.12 4.735-.135.388-.075.717-.15.941-.21a19.85 19.85 0 002.763 1.83c1.36.735 2.54 1.38 4.183 1.56 1.016.12 2.001.03 2.435 0 .746-.06 1.359-.18 1.822-.27.702.24 1.778.51 3.107.54.836.015 3.585.03 6.005-1.77 2.166-1.605 2.913-3.765 3.45-5.355.508-1.53 2.45-7.335-.478-10.44-2.539-2.7-7.364-1.92-11.218-1.29-1.852.3-3.376.765-4.451 1.155a435.706 435.706 0 01-3.988-10.785c-.852-2.385-2.092-4.635-2.838-7.05-.673-2.16-1.031-3.885-2.57-4.755-.104-.06-1.508-.81-2.868-.255z" fill="#fff"/><path d="M118.723 120.255c3.959.915 8.5.315 11.218-3.015 1.36-1.665 1.793-3.735 2.166-5.805.374-2.145.583-4.335-.104-6.435-.09-.27-.523-.15-.434.12.673 2.025.478 4.14.105 6.195-.344 1.98-.747 4.005-2.046 5.61-2.6 3.21-6.976 3.765-10.785 2.895-.284-.075-.404.36-.12.435zM109.806 87.75c-.21-2.01-.732-4.08-1.733-5.85-.747-1.305-1.942-2.55-3.555-2.475-1.703.075-2.958 1.455-3.66 2.88-.956 1.89-1.553 4.035-2.106 6.06a55.071 55.071 0 00-1.912 12.765 58.361 58.361 0 00.18 6.855c.178 2.055.328 4.29.91 6.27.493 1.695 2.749 2.7 4.317 3.105a8.56 8.56 0 005.602-.465c.269-.12.03-.51-.224-.39-1.584.705-3.361.855-5.049.48-1.479-.33-3.734-1.245-4.212-2.835-.255-.855-.344-1.785-.479-2.67a56.985 56.985 0 01-.627-8.685 54.853 54.853 0 012.644-16.665c.568-1.74 1.105-3.795 2.405-5.145.732-.75 1.778-1.275 2.838-1.08 1.016.195 1.793.99 2.33 1.83 1.136 1.74 1.688 3.945 1.912 6 0 .3.448.315.419.015z" fill="#161616"/><path d="M102.008 92.22a42.415 42.415 0 001.673 16.305c.777 2.52 1.688 5.31 3.272 7.455 1.404 1.905 3.599 3.165 5.825 3.87 2.569.825 5.393.87 7.827-.375.254-.135.03-.525-.224-.39-2.225 1.14-4.78 1.14-7.125.45-2.405-.705-4.81-2.085-6.214-4.215-1.374-2.1-2.24-4.635-2.957-7.035a41.444 41.444 0 01-1.554-7.515 42.862 42.862 0 01-.075-8.535c.03-.3-.418-.3-.448-.015z" fill="#161616"/><path d="M101.037 90.63c.09 1.965.374 3.9.867 5.805.074.285.508.165.433-.12a26.164 26.164 0 01-.852-5.685c-.015-.285-.463-.285-.448 0zM109.492 87.78a229.353 229.353 0 017.484 20.7c.089.27.522.165.433-.12a222.077 222.077 0 00-7.484-20.7c-.119-.255-.553-.135-.433.12zM103.487 117.675c.388 1.35.777 2.7 1.165 4.065.075.285.508.165.433-.12-.388-1.35-.776-2.7-1.165-4.065-.089-.27-.523-.15-.433.12z" fill="#161616"/><path d="M104.831 121.47a18.764 18.764 0 00-9.395-1.17c-.12.015-.284.135-.21.285.389.96 1.48 1.245 2.346 1.62 1.24.54 2.479 1.065 3.749 1.515 2.539.915 5.183 1.545 7.887 1.47.284 0 .284-.45 0-.45-2.39.06-4.735-.42-6.991-1.185-1.09-.36-2.151-.78-3.211-1.23-.568-.24-1.15-.48-1.718-.735-.583-.255-1.374-.495-1.643-1.14-.075.09-.15.195-.21.285a18.485 18.485 0 019.277 1.155c.269.12.373-.315.119-.42z" fill="#161616"/><path d="M107.251 116.865c.314 2.775 1.628 5.325 1.823 8.115.015.285.463.285.448 0-.194-2.79-1.509-5.34-1.823-8.115-.03-.285-.478-.285-.448 0z" fill="#161616"/><path opacity=".1" d="M102.86 117a61.127 61.127 0 01-1.882-5.655c-.284-1.035-2.107-7.8-1.718-16.56.104-2.295.358-4.83 2.181-6.675.702-.705 1.493-1.5 2.18-1.335 2.868.675-2.285 15.975 4.93 24.24 3.704 4.245 9.052 4.785 9.918 4.86 7.678.69 12.861-4.845 13.519-5.565a9.62 9.62 0 01-.628 3.93c-1.105 2.88-3.256 4.365-4.063 4.86-3.719 2.28-7.618 1.215-8.275 1.02a13.533 13.533 0 01-4.138 0c-3.674-.57-6.154-2.52-7.259-3.525a5.873 5.873 0 01-2.495.705 5.618 5.618 0 01-2.27-.3z" fill="#4C4C4C"/><path opacity=".13" d="M101.605 90.48c.194-.015.269 1.755 1.255 7.53 1.15 6.825 1.732 10.23 2.584 12.165 1.075 2.46 3.854 6.87 12.189 10.125a14.069 14.069 0 01-9.993-3.615c-.941.21-1.882.42-2.809.63a68.015 68.015 0 01-1.882-6.825c-2.33-10.515-1.777-19.98-1.344-20.01z" fill="#4C4C4C"/><path d="M81.872 84.39c-.074.315.389.735.762.915.613.3 1.195.045 1.285 0 0 0 1.374-.15 2.644.6.388.225.747.705 1.434 1.665 1.27 1.74 1.434 2.325 2.27 2.88.583.39 1.15.54 1.509.6.359.405.911 1.035 1.583 1.815 2.405 2.82 2.57 3.33 3.705 4.32 1.225 1.08 2.704 2.4 4.451 2.205.926-.105 1.673-.615 2.868-1.815 2.48-2.505 4.198-5.265 5.736-8.415 1.658-3.39 2.032-5.04 2.196-5.835.09-.495.971-4.965-.299-5.535-.493-.225-1.135.21-2.106.99-3.51 2.82-5.587 5.775-5.736 5.985a48.698 48.698 0 00-3.854 6.675l-6.408-3.33a3.03 3.03 0 01-.299-1.29c0-.915.463-1.26.762-2.28.314-1.05.359-2.49-.15-2.73-.358-.165-1.045.24-1.359.765-.328.54-.134 1.02-.448 1.215-.403.255-1.135-.255-1.21-.3-.806-.57-.732-1.275-1.359-2.43-.672-1.245-1.568-1.935-2.106-2.355-.747-.57-1.584-1.215-2.42-.99-.134.03-.687.195-.881.69-.09.24-.06.465-.03.6-.06-.045-.598-.375-1.195-.15-.418.15-.762.54-.837.99-.03.195 0 .36.03.48-.075-.03-.717-.195-1.165.195-.075.06-.329.285-.329.6 0 .255.18.465.493.72.673.555 1.18.69 1.808 1.035.314.165.732.45 1.21.885-.822 0-2.435.075-2.555.63z" fill="#fff"/><path d="M100.5 91.515c2.614-5.115 5.497-10.59 10.859-13.275.254-.135.03-.51-.224-.39-5.422 2.7-8.365 8.25-11.009 13.425-.15.27.239.495.374.24z" fill="#161616"/><path d="M93.912 88.395c2.3 1.545 5.168 2.19 7.14 4.215.209.21.523-.105.314-.315-2.002-2.055-4.9-2.715-7.23-4.29-.239-.165-.463.225-.224.39z" fill="#161616"/><path d="M92.045 91.365a22.977 22.977 0 004.018 5.115c1.404 1.335 3.242 3.045 5.303 3.09 1.882.045 3.167-1.53 4.167-2.925a79.149 79.149 0 004.153-6.465c1.315-2.265 2.704-4.665 2.764-7.35 0-.285-.449-.285-.449 0-.059 2.88-1.702 5.46-3.136 7.86-1.375 2.325-2.794 4.8-4.571 6.825-.822.945-1.882 1.725-3.182 1.59-1.449-.15-2.734-1.2-3.81-2.115-1.956-1.65-3.584-3.645-4.884-5.85-.134-.255-.523-.03-.373.225z" fill="#161616"/><path d="M92.448 91.08c-.597-.285-1.284-.375-1.867-.705-.597-.345-1.016-.93-1.404-1.5-.687-1.02-1.315-2.085-2.286-2.865-.448-.36-.97-.66-1.538-.81-.627-.18-1.195-.075-1.837-.045-.404.015-1.24.03-1.27-.585-.045-.6.791-.51 1.135-.525.762-.045 1.494 0 2.196.3.269.105.388-.33.12-.435-.837-.345-1.689-.36-2.585-.3-.433.03-1 .03-1.24.465-.209.375-.044.855.24 1.155.477.51 1.194.405 1.822.345 2.24-.225 3.57 1.575 4.675 3.27.389.6.792 1.2 1.345 1.65.672.54 1.508.615 2.255.99.269.105.508-.285.24-.405zM94.24 88.185c-.806-.945-.06-2.415.225-3.435.209-.735.508-1.755.12-2.49-.225-.435-.718-.705-1.196-.525-.269.105-.478.315-.627.555-.21.345-.269 1.29-.687 1.395-.284.06-.165.495.12.435.507-.12.612-.63.761-1.065.075-.225.224-.81.508-.855l.807.45c.014.135.03.255.06.39.03.54-.135 1.095-.27 1.605-.358 1.215-1.06 2.745-.12 3.87.165.21.479-.12.3-.33zM82.112 82.05c-.225-.12-.464-.255-.643-.42-.254-.135-.299-.33-.134-.57-.015-.345.164-.465.523-.405.672-.045 1.254.285 1.837.555 1 .48 1.957.99 2.793 1.725.21.195.538-.12.314-.315-.732-.645-1.554-1.14-2.42-1.575-.822-.42-1.703-.945-2.659-.84-.493.06-1.075.24-1.06.825.014.675.702 1.095 1.21 1.395.253.15.477-.24.239-.375z" fill="#161616"/><path d="M82.694 80.235c-.792-.6.239-1.005.553-1.065.299-.045.597.03.881.12.478.165.911.45 1.33.735.806.555 1.538 1.2 2.225 1.905.21.21.523-.105.314-.315-1.12-1.14-2.734-2.76-4.422-2.91-1.06-.09-2.21 1.065-1.105 1.905.224.195.448-.195.224-.375z" fill="#161616"/><path d="M84.636 78.885c-.538-.675.672-.915 1.03-.855.15.03.284.075.434.12.478.165.91.435 1.3.75.701.555 1.284 1.26 1.822 1.98.179.225.567 0 .388-.225-.941-1.245-2.046-2.55-3.615-3-.523-.15-1.21-.195-1.628.24-.373.39-.373.915-.045 1.305.18.225.493-.09.314-.315z" fill="#161616"/><path d="M89.072 80.565c.553.945 1.046 1.95 1.673 2.85.389.555.956.96 1.643.675.27-.105.15-.54-.119-.435-.911.36-1.39-.9-1.748-1.515-.358-.6-.702-1.215-1.06-1.815-.135-.24-.523-.015-.389.24zM81.738 82.26c.837.555 1.688 1.095 2.524 1.65.24.165.463-.225.225-.39-.837-.555-1.688-1.095-2.525-1.65-.239-.15-.463.24-.224.39z" fill="#161616"/><path opacity=".12" d="M81.29 80.775c.597-.285 1.509.51 2.076.975 2.764 2.265 2.898 1.47 4.481 3.105 1.614 1.65 1.569 2.55 3.182 3.54a7.014 7.014 0 001.972.825c.284.405.702 1.005 1.255 1.695 1.986 2.505 3.017 3.81 4.63 4.41.135.045 2.719.975 4.87-.285 1.718-1.005 1.718-2.61 3.719-7.845 2.525-6.6 3.54-7.425 4.198-7.365.388.03.747.39.911.675.343.585.075 1.215-.284 2.67-.343 1.38-.269 1.44-.478 2.28-.582 2.22-1.628 3.45-4.586 8.475-.478.795-1.12 1.905-2.225 3.195-.941 1.11-1.539 1.77-2.465 2.085-1.554.525-3.077-.285-3.81-.675-.985-.525-1.687-1.17-2.792-2.475a42.522 42.522 0 01-3.72-5.085c-.314 0-.806-.06-1.344-.285-.463-.21-1.06-.585-2.51-2.67-1.03-1.485-1.016-1.695-1.538-2.04-.822-.54-1.838-.63-2.36-.675-1.21-.12-1.853.135-2.166-.285-.194-.27-.21-.72 0-.975.508-.63 2.24.15 2.315-.045.045-.135-.642-.495-1.837-1.215-1.42-.855-1.868-1.185-1.838-1.545.015-.225.18-.39.344-.465z" fill="#4C4C4C"/><path d="M130.33 75.06c-.807.165-1.121 1.68-1.434 3.105a18.154 18.154 0 00-.374 4.545c.105 3.225.792 6.3 1.658 8.115.463.975.747 1.095 1.285 2.355.179.42.314.78.672 1.065.687.525 1.584.33 1.658.3.926-.225 1.419-1.035 1.658-1.44.673-1.155.687-2.34.523-4.395-.239-3.105-.358-4.65-.836-6.285a17.455 17.455 0 00-2.42-5.16c-.777-1.17-1.614-2.355-2.39-2.205z" fill="#fff"/><path d="M130.345 75.465c.806-.09 1.389.9 1.807 1.485.374.525.717 1.08 1.046 1.635a18.959 18.959 0 011.553 3.63c.777 2.49 1.106 5.1 1.076 7.71-.015 1.35 0 3.12-1.136 4.08-.522.435-1.314.705-1.956.39-.673-.33-1.061-1.23-1.404-1.845a21.399 21.399 0 01-2.54-8.085c-.328-3.075-.104-6.45 1.584-9.105.149-.24-.239-.465-.389-.225-1.733 2.73-1.972 6.195-1.643 9.33.329 3.24 1.389 6.465 3.137 9.21.642 1.005 1.538 1.605 2.733 1.14 1.24-.48 1.793-1.725 1.957-2.97.419-2.94.015-6.195-.776-9.045a20.564 20.564 0 00-1.987-4.77c-.418-.72-.896-1.41-1.404-2.055-.433-.54-.911-1.05-1.643-.975-.299.045-.299.495-.015.465z" fill="#161616"/><path opacity=".11" d="M130.808 75.45a21.891 21.891 0 00-.344 6.54c.239 2.325.807 4.035 1.539 6.255a48.48 48.48 0 002.509 6.105c-.313.195-.806.42-1.344.345-1.091-.165-1.733-1.44-2.166-2.43-1.583-3.54-2.375-5.31-2.51-8.34-.194-4.155.912-8.76 1.883-8.775.179 0 .328.165.433.3z" fill="#4C4C4C"/><path d="M109.806 78.015c-.075.645-.15 1.56-.225 2.655-.059.825-.209 3.24-.149 5.535.135 4.53 1.12 8.13 1.733 10.305a50.645 50.645 0 001.583 4.695c.045.435.15 1.05.374 1.74 1.075 3.24 3.854 4.845 4.526 5.235 3.361 1.89 6.707 1.2 7.693.99.985-.225 4.167-.96 6.258-3.795.687-.915 1.3-2.115 1.882-5.31.269-1.485.897-5.385.449-12.045-.463-6.78-1.554-9.33-2.196-10.605a20.035 20.035 0 00-1.584-2.655c-3.48-1.44-6.378-1.47-8.006-1.365-2.734.18-4.825 1.005-6.871 1.815a33.55 33.55 0 00-5.467 2.805z" fill="#DF701F"/><path d="M109.492 78.42a42.362 42.362 0 003.376 23.31c.119.27.508.03.388-.225a41.698 41.698 0 01-3.331-22.965c.03-.285-.403-.405-.433-.12z" fill="#161616"/><path d="M112.255 100.62c.538 3.765 3.242 7.02 6.797 8.325 3.794 1.395 8.35.57 11.382-2.1 1.584-1.38 2.674-3.24 2.883-5.355.03-.285-.418-.285-.448 0-.493 5.055-6.065 7.92-10.665 7.635-4.75-.285-8.843-3.87-9.515-8.64-.045-.27-.478-.15-.434.135zM109.761 78.42c5.93-3.75 13.354-6.405 20.18-3.45.269.12.493-.27.224-.39-6.99-3.03-14.549-.405-20.643 3.45-.224.165 0 .555.239.39z" fill="#161616"/><path d="M129.941 74.925c1.614 1.485 2.241 3.975 2.704 6.06.508 2.28.807 4.62 1.001 6.96.388 4.635.254 9.315-.672 13.89-.06.285.373.405.433.12.986-4.8 1.105-9.705.642-14.58-.224-2.355-.523-4.74-1.09-7.05-.493-1.98-1.15-4.29-2.689-5.715-.224-.195-.538.12-.329.315zM114.899 103.14a12.107 12.107 0 006.722 3.12c.284.03.284-.42 0-.45a11.49 11.49 0 01-6.408-3c-.209-.18-.538.135-.314.33z" fill="#161616"/><path opacity=".15" d="M121.666 73.575c.553.87 1.12 1.755 1.673 2.625a57.241 57.241 0 013.45 12.03c.434 2.565.852 4.965.703 7.965-.135 2.7-.822 7.59-4.288 13.245a10.79 10.79 0 003.122-.51c.523-.165 4.377-1.47 6.244-5.145.777-1.53.911-2.895 1.031-4.545.627-8.85.045-14.565-.284-16.53-.269-1.62-.657-3.495-1.718-5.625a16.703 16.703 0 00-1.538-2.475 15.077 15.077 0 00-4.481-1.17 15.18 15.18 0 00-3.914.135z" fill="#4C4C4C"/><path opacity=".11" d="M131.883 78.315c-.538.03-.806 3.285-.986 5.475-.403 5.01-.104 8.625-.045 9.93.165 3.51-.657 8.58-5.078 15.255.702-.18 1.747-.525 2.898-1.17.985-.555 2.39-1.35 3.405-3a7.871 7.871 0 001.076-3.09c.478-2.76.956-6.72.792-11.475-.225-5.64-1.315-11.97-2.062-11.925z" fill="#4C4C4C"/><path d="M110.269 89.49c.836 12.225.134 24.48-.568 36.69-.03.585.866.57.896 0 .717-12.21 1.404-24.465.568-36.69-.045-.585-.941-.585-.896 0z" fill="#000"/><path d="M110.582 88.935c4.407.18 9.232.165 14.43-.165a134.15 134.15 0 0011.039-1.14c-.075 3.81-.165 7.605-.239 11.415a91.474 91.474 0 01-13.056 1.62c-4.331.225-8.29.105-11.77-.165l-.404-11.565z" fill="#000" stroke="#000" stroke-width="2" stroke-miterlimit="10"/><path d="M135.364 90.15c-1.106 11.52-2.196 23.04-3.302 34.56-.059.57.837.57.897 0 1.105-11.52 2.196-23.04 3.301-34.56.06-.57-.837-.57-.896 0z" fill="#000"/><path d="M108.416 64.92c-.104.3 0 .885.12 1.635.03.21.119.63.329 1.335.373 1.23.806 2.13.911 2.34 1.06 2.16 2.375 3.555 2.748 3.93.628.63 1.21 1.11 1.628 1.425 1.3-.525 2.6-1.065 3.914-1.59a5.249 5.249 0 001.658-2.01c.866-1.875.403-3.93-.284-5.13-2.405-4.215-10.501-3.405-11.024-1.935z" fill="#fff"/><path d="M108.177 66.135c.449 2.025 1.195 3.975 2.271 5.76.508.84 1.09 1.635 1.718 2.385.552.66 1.135 1.305 2.016 1.515.284.06.404-.375.12-.435-.926-.21-1.554-1.065-2.136-1.785a17.33 17.33 0 01-1.584-2.34 18.244 18.244 0 01-1.971-5.22c-.06-.27-.493-.15-.434.12z" fill="#161616"/><path d="M111.553 69.825c-.059-1.305 1.494-.9 2.002-.225.597.78.433 2.46-.881 2.235-.284-.045-.404.39-.12.435 1.688.285 2.256-1.785 1.359-2.955-.776-1.02-2.897-1.245-2.808.495.015.3.463.3.448.015z" fill="#161616"/><path d="M108.252 65.805c-.194-.69-.523-1.8.06-2.895.508-.93 1.389-1.32 1.748-1.44-.015-.21-.06-1.38.836-2.355a3.257 3.257 0 012.285-1.02 5.967 5.967 0 011.629-.9c.254-.09 1.434-.51 2.823-.3 1.912.285 2.24 1.44 4.376 2.355.717.3 1.853.675 3.421.72l-1.135 1.32c.284.315.672.81.956 1.5.149.345.418 1.14.358 2.655-.059 1.47-.418 2.655-.717 3.675-.537 1.77-.851 2.295-.537 3.015.343.81 1.165 1.035 1.06 1.38-.119.375-1.165.42-1.897.33-1.09-.135-1.777-.615-1.897-.45-.149.195.881.885.717 1.335-.194.585-2.151.495-3.555.165-.478-.105-1.315-.36-2.3-.915a9.16 9.16 0 01-2.585-2.175c.374-.84.329-1.77-.179-2.415-.045-.06-.791-.975-1.688-.72-.493.15-.762.585-.836.72-.643-.36-2.33-1.485-2.943-3.585z" fill="#486F9A"/><path opacity=".24" d="M110.089 61.575c.314.945 2.361.765 3.884 1.275 1.091.36 2.54 1.305 3.839 3.915-.358-1.17-2.016-6-5.96-7.08a5.93 5.93 0 00-1.24-.21c-.149.18-.448.6-.538 1.185 0 .075-.089.585.015.915z" fill="#4C4C4C"/><path opacity=".17" d="M113.271 58.005c.269-.21.657-.48 1.15-.69a5.522 5.522 0 011.031-.315 12.636 12.636 0 003.555 2.19 12.586 12.586 0 006.363.795 3.74 3.74 0 01-1.105 1.275c-2.076 1.485-5.183.21-6.662-.39a13.455 13.455 0 01-4.332-2.865z" fill="#4C4C4C"/><path opacity=".14" d="M120.62 68.325c-.239.075.075 1.77.18 2.28.239 1.17.612 2.115.926 2.745.478.15.956.315 1.419.465-1.763-4.605-2.331-5.55-2.525-5.49z" fill="#4C4C4C"/><path opacity=".12" d="M113.555 70.14c.045.375.075.72-.12 1.005-.239.345-.612.285-.941.78-.119.18-.119.27-.089.315.074.135.388.075.537.075.777.03 1.24.825 1.778 1.29.433.39 1.18.795 2.524.825a13.78 13.78 0 01-2.195-1.485c-.434-.36-.822-.735-1.151-1.08.15-.33.419-1.065.135-1.815-.209-.57-.687-.975-.747-.93-.075.045.194.39.269 1.02z" fill="#4C4C4C"/></svg>