<svg width="566" height="518" viewBox="0 0 566 518" fill="none" xmlns="http://www.w3.org/2000/svg">
<path fill-rule="evenodd" clip-rule="evenodd" d="M492.98 399.152C492.98 390.462 500.154 383.455 508.952 383.455C511.53 383.455 516.181 385.136 516.181 385.136L516.125 391.023L522.457 390.686C522.457 390.686 524.979 396.012 524.979 399.095C524.979 407.785 517.806 414.792 509.008 414.792C500.097 414.848 492.98 407.785 492.98 399.152Z" fill="#486F9A"/>
<path fill-rule="evenodd" clip-rule="evenodd" d="M454.929 424.435C463.504 423.818 470.957 430.545 471.573 439.403C471.741 442.038 470.396 446.803 470.396 446.803L464.568 447.139L465.353 453.474C465.353 453.474 460.253 456.389 457.171 456.558C448.597 457.174 441.144 450.447 440.527 441.589C439.855 432.732 446.355 425.051 454.929 424.435Z" fill="#486F9A"/>
<path d="M479.923 363.048L478.746 480.103" stroke="#1C2628" stroke-width="2.13" stroke-linecap="round" stroke-linejoin="round"/>
<path d="M468.435 376.447L479.083 392.705" stroke="#1C2628" stroke-width="2.13" stroke-linecap="round" stroke-linejoin="round"/>
<path d="M479.531 439.067L505.421 404.309" stroke="#1C2628" stroke-width="2.13" stroke-linecap="round" stroke-linejoin="round"/>
<path d="M456.162 437.609L478.69 469.339" stroke="#1C2628" stroke-width="2.13" stroke-linecap="round" stroke-linejoin="round"/>
<path fill-rule="evenodd" clip-rule="evenodd" d="M143.854 106.291H436.829V479.599H143.854V106.291Z" fill="#F3A140" stroke="#1C2628" stroke-width="2.13" stroke-linecap="round" stroke-linejoin="round"/>
<path d="M143.91 276.547L435.652 276.659" stroke="#1C2628" stroke-width="2.13" stroke-linecap="round" stroke-linejoin="round"/>
<path d="M143.91 376.167L435.652 376.279" stroke="#1C2628" stroke-width="2.13" stroke-linecap="round" stroke-linejoin="round"/>
<path fill-rule="evenodd" clip-rule="evenodd" d="M139.258 467.097H447.252V482.458H139.258V467.097Z" fill="#1C2628" stroke="#1C2628" stroke-width="2.13" stroke-linecap="round" stroke-linejoin="round"/>
<path d="M291.294 107.973L295.609 479.43" stroke="#1C2628" stroke-width="2.13" stroke-linecap="round" stroke-linejoin="round"/>
<path fill-rule="evenodd" clip-rule="evenodd" d="M251.674 362.208C243.212 376.279 215.808 432.059 215.808 432.059C215.808 432.059 199.949 441.702 180.223 449.718C167.614 454.82 148.393 457.735 146.88 462.22C142.789 474.441 187.677 464.518 204.152 463.229C220.908 461.883 248.143 481.168 263.61 470.909C273.697 464.238 263.218 448.092 264.115 439.011C265.011 429.929 270.615 368.15 276.331 360.638" fill="#F45B49"/>
<path d="M251.674 362.208C243.212 376.279 215.808 432.059 215.808 432.059C215.808 432.059 199.949 441.702 180.223 449.718C167.614 454.82 148.393 457.735 146.88 462.22C142.789 474.441 187.677 464.518 204.152 463.229C220.908 461.883 248.143 481.168 263.61 470.909C273.697 464.238 263.218 448.092 264.115 439.011C265.011 429.929 270.615 368.15 276.331 360.638" stroke="#1C2628" stroke-width="2.13" stroke-linecap="round" stroke-linejoin="round"/>
<path fill-rule="evenodd" clip-rule="evenodd" d="M338.367 385.361C338.367 385.361 265.796 259.897 220.964 297.57C196.531 318.088 175.124 431.499 175.124 431.499L219.115 441.141L248.48 393.265C248.48 393.265 261.537 452.465 285.746 463.789C299.364 470.18 354.45 473.768 381.125 467.602C401.86 462.836 401.468 442.711 401.468 442.711L338.367 385.361Z" fill="#1C2628" stroke="#1C2628" stroke-width="2.13" stroke-linecap="round" stroke-linejoin="round"/>
<path fill-rule="evenodd" clip-rule="evenodd" d="M229.37 366.861C220.908 380.932 193.505 436.712 193.505 436.712C193.505 436.712 177.645 446.355 157.92 454.371C145.311 459.473 126.089 462.388 124.576 466.873C120.429 479.094 156.855 473.88 173.33 472.591C190.086 471.245 219.675 478.814 229.202 471.301C238.729 463.789 231.948 453.811 238.28 441.085C246.35 424.883 260.192 404.814 265.908 397.302" fill="#F45B49"/>
<path d="M229.37 366.861C220.908 380.932 193.505 436.712 193.505 436.712C193.505 436.712 177.645 446.355 157.92 454.371C145.311 459.473 126.089 462.388 124.576 466.873C120.429 479.094 156.855 473.88 173.33 472.591C190.086 471.245 219.675 478.814 229.202 471.301C238.729 463.789 231.948 453.811 238.28 441.085C246.35 424.883 260.192 404.814 265.908 397.302" stroke="#1C2628" stroke-width="2.13" stroke-linecap="round" stroke-linejoin="round"/>
<path fill-rule="evenodd" clip-rule="evenodd" d="M295.217 258.271C273.025 236.071 276.163 203.556 279.918 200.417C319.538 167.453 342.122 206.303 352.545 205.686C378.099 208.826 396.648 220.15 398.778 238.033C400.627 253.73 398.778 292.805 368.348 288.656C349.575 282.209 297.29 294.206 281.207 281.032C272.521 273.912 278.068 222.224 272.184 212.75" fill="#1C2628"/>
<path d="M295.217 258.271C273.025 236.071 276.163 203.556 279.918 200.417C319.538 167.453 342.122 206.303 352.545 205.686C378.099 208.826 396.648 220.15 398.778 238.033C400.627 253.73 398.778 292.805 368.348 288.656C349.575 282.209 297.29 294.206 281.207 281.032C272.521 273.912 278.068 222.224 272.184 212.75" stroke="#1C2628" stroke-width="2.13" stroke-linecap="round" stroke-linejoin="round"/>
<path fill-rule="evenodd" clip-rule="evenodd" d="M436.941 440.524C436.941 440.524 436.492 440.805 435.596 441.253C429.992 443.944 407.632 452.297 383.759 428.808C380.789 425.892 377.819 422.473 374.849 418.548C344.195 377.624 323.685 370.729 323.685 370.729L283.504 296.729L281.655 293.365L255.428 262.7L287.987 240.892L366.219 256.982C366.219 256.982 384.32 241.397 404.214 266.512C408.753 272.286 413.404 280.135 417.999 290.842C427.526 313.211 428.367 363.273 429.207 399.712C429.824 423.202 436.941 440.524 436.941 440.524Z" fill="#FAF6EB" stroke="#1C2628" stroke-width="2.13" stroke-linecap="round" stroke-linejoin="round"/>
<path fill-rule="evenodd" clip-rule="evenodd" d="M334.725 235.511L345.764 256.533L364.762 266.288C364.762 266.288 357.365 283.723 341.954 289.329C326.543 294.935 318.921 290.282 312.701 288.095C306.425 285.909 300.316 276.155 300.316 276.155L307.321 264.83L300.484 255.861L334.725 235.511Z" fill="#F45B49" stroke="#1C2628" stroke-width="2.13" stroke-linecap="round" stroke-linejoin="round"/>
<path fill-rule="evenodd" clip-rule="evenodd" d="M330.578 220.15C328.504 213.927 332.091 212.021 327.551 208.097C319.482 201.033 308.442 198.286 298.187 201.818C286.643 205.742 273.866 208.77 272.745 220.991C272.296 225.7 278.125 238.314 279.75 243.191C285.578 260.57 303.286 270.268 319.314 264.83C329.569 261.355 336.125 255.805 338.367 245.265C339.544 239.435 332.651 226.429 330.578 220.15Z" fill="#F45B49" stroke="#1C2628" stroke-width="2.13" stroke-linecap="round" stroke-linejoin="round"/>
<path fill-rule="evenodd" clip-rule="evenodd" d="M292.639 240.108C293.816 246.218 291.854 252.833 295.385 253.506C300.036 254.347 303.23 244.424 303.006 243.135" fill="#F45B49"/>
<path d="M292.639 240.108C293.816 246.218 291.854 252.833 295.385 253.506C300.036 254.347 303.23 244.424 303.006 243.135" stroke="#1C2628" stroke-width="2.13" stroke-linecap="round" stroke-linejoin="round"/>
<path d="M316.007 240.78C316.848 246.106 313.934 249.245 309.283 250.367" stroke="#1C2628" stroke-width="2.13" stroke-linecap="round" stroke-linejoin="round"/>
<path fill-rule="evenodd" clip-rule="evenodd" d="M347.502 261.13L335.285 238.258C335.285 238.258 315.615 246.106 314.55 253.394C313.486 260.682 327.664 272.398 327.664 272.398L338.984 266.961" fill="#FB564C"/>
<path fill-rule="evenodd" clip-rule="evenodd" d="M327.215 212.358C307.826 229.792 283.056 217.908 283.056 217.908C283.056 217.908 286.475 237.248 278.181 245.489C269.887 253.674 259.968 241.341 263.722 222.168C267.533 203.052 292.135 187.242 305.976 188.644C317.576 189.877 342.57 198.511 327.215 212.358Z" fill="#1C2628" stroke="#1C2628" stroke-width="2.13" stroke-linecap="round" stroke-linejoin="round"/>
<path fill-rule="evenodd" clip-rule="evenodd" d="M322.508 216.45C321.555 212.862 326.599 210.676 329.289 211.573C334.949 213.367 340.216 222.392 330.522 226.373" fill="#F45B49"/>
<path d="M322.508 216.45C321.555 212.862 326.599 210.676 329.289 211.573C334.949 213.367 340.216 222.392 330.522 226.373" stroke="#1C2628" stroke-width="2.13" stroke-linecap="round" stroke-linejoin="round"/>
<path d="M372.383 237.08C382.75 244.312 386.113 243.92 396.144 247.844" stroke="#FAF6EB" stroke-width="2.13" stroke-linecap="round" stroke-linejoin="round"/>
<path fill-rule="evenodd" clip-rule="evenodd" d="M109.95 367.141C102.552 366.748 104.066 349.202 110.79 347.856C118.804 346.23 129.844 358.676 122.671 365.851C120.541 368.038 112.864 367.309 109.95 367.141Z" fill="#F3A13B"/>
<path fill-rule="evenodd" clip-rule="evenodd" d="M301.269 265.055L312.813 265.615L323.405 261.747C323.405 261.747 319.37 272.959 313.71 277.668C308.106 282.377 294.6 282.321 294.6 282.321L301.269 265.055Z" fill="#1C2628" stroke="#1C2628" stroke-width="2.13" stroke-linecap="round" stroke-linejoin="round"/>
<path d="M328.336 217.739C328.392 218.02 328.448 218.244 328.504 218.524" stroke="#1C2628" stroke-width="2.13" stroke-linecap="round" stroke-linejoin="round"/>
<path fill-rule="evenodd" clip-rule="evenodd" d="M404.718 470.629C378.043 476.795 321.555 477.076 307.938 470.741C283.728 459.417 266.188 400.889 266.188 400.889L242.651 444.168L191.88 427.967L190.815 427.63C190.815 427.63 221.3 310.071 244.613 288.264C290.173 256.982 361.96 388.444 361.96 388.444L398.834 421.968L425.06 445.794C425.06 445.794 425.453 465.864 404.718 470.629Z" fill="#1C2628" stroke="#1C2628" stroke-width="2.13" stroke-linecap="round" stroke-linejoin="round"/>
<path fill-rule="evenodd" clip-rule="evenodd" d="M361.904 388.444C361.904 388.444 290.117 257.038 244.557 288.264C221.244 310.015 192.104 422.529 192.104 422.529C192.664 422.529 193.785 422.248 195.186 421.8C209.7 416.923 220.292 403.132 219.507 387.771C217.882 357.555 247.415 275.706 281.431 315.509C292.639 328.627 310.235 329.861 315.951 339.783C320.434 347.744 315.391 357.947 319.314 366.468C323.236 376.111 335.117 376.111 343.579 380.652C357.084 387.491 362.744 427.967 398.834 421.968L361.904 388.444Z" fill="#FAF6EB"/>
<path d="M300.26 233.38C305.304 231.138 308.33 230.353 309.115 223.962" stroke="#1C2628" stroke-width="2.13" stroke-linecap="round" stroke-linejoin="round"/>
<path d="M281.431 247.115C284.177 245.882 286.026 245.097 287.147 242.182" stroke="#1C2628" stroke-width="2.13" stroke-linecap="round" stroke-linejoin="round"/>
<path d="M268.262 216.506C262.938 221.888 258.567 237.977 262.826 245.153C264.451 247.844 268.598 248.068 269.719 250.367C274.482 259.953 262.826 263.933 279.413 271.053" stroke="#1C2628" stroke-width="2.13" stroke-linecap="round" stroke-linejoin="round"/>
<path d="M317.913 192.064C324.581 191.671 332.875 191.503 339.376 193.97C346.885 196.773 353.162 201.874 360.615 204.453C376.754 210.003 396.088 206.639 396.088 235.567" stroke="#1C2628" stroke-width="2.13" stroke-linecap="round" stroke-linejoin="round"/>
<path fill-rule="evenodd" clip-rule="evenodd" d="M363.585 314.612C362.8 309.062 361.063 292.356 358.71 271.221C357.421 259.224 359.27 242.967 359.27 242.967C359.27 242.967 356.972 240.332 355.403 242.35C353.834 244.368 353.218 250.983 353.05 250.983C350.36 250.423 334.725 217.627 330.634 219.702C327.664 221.159 339.88 239.995 339.88 239.995C339.88 239.995 326.543 218.58 324.189 220.486C321.499 222.673 335.173 242.406 335.173 242.406C335.173 242.406 322.564 221.72 319.258 223.289C316.007 224.859 330.578 245.658 330.185 245.826C329.009 246.33 317.016 227.326 314.606 228.503C312.309 229.624 324.133 247.676 327.664 257.318C332.651 270.773 325.422 358.283 345.876 374.821C357.196 383.959 373.952 383.286 384.656 370.505C395.303 357.723 408.024 323.806 408.024 323.806L378.211 291.683C378.211 291.627 364.145 318.536 363.585 314.612Z" fill="#F45B49" stroke="#1C2628" stroke-width="2.13" stroke-linecap="round" stroke-linejoin="round"/>
<path fill-rule="evenodd" clip-rule="evenodd" d="M389.643 257.15C389.643 257.15 354.282 238.482 359.662 278.397C364.538 309.791 362.016 317.808 362.016 317.808C362.016 317.808 363.529 315.733 377.707 324.311C391.885 332.888 402.476 348.417 402.476 348.417C402.476 348.417 415.982 310.968 410.21 295.944" fill="#FAF6EB"/>
<path d="M389.643 257.15C389.643 257.15 354.282 238.482 359.662 278.397C364.538 309.791 362.016 317.808 362.016 317.808C362.016 317.808 363.529 315.733 377.707 324.311C391.885 332.888 402.476 348.417 402.476 348.417C402.476 348.417 415.982 310.968 410.21 295.944" stroke="#1C2628" stroke-width="2.13" stroke-linecap="round" stroke-linejoin="round"/>
<path fill-rule="evenodd" clip-rule="evenodd" d="M255.428 262.532C255.428 262.532 231.219 285.068 252.066 296.28C272.913 307.492 327.72 293.758 327.72 293.758L340.328 293.197C340.328 293.197 341.057 296.505 344.083 307.717C347.053 318.873 348.51 332.271 352.265 337.933C356.076 343.595 356.748 338.045 356.748 338.045L354.563 317.247C354.563 317.247 358.709 341.353 360.783 340.232C362.912 339.111 361.231 316.35 361.231 316.35C361.231 316.35 368.068 339.167 369.413 338.886C370.758 338.606 368.965 314.836 368.965 314.836C368.965 314.836 374.064 344.885 374.961 338.326C375.858 331.767 375.633 314.668 373.112 295.159C371.879 285.685 362.632 268.811 344.139 266.12C333.211 264.55 255.428 262.532 255.428 262.532Z" fill="#F45B49" stroke="#1C2628" stroke-width="2.13" stroke-linecap="round" stroke-linejoin="round"/>
<path fill-rule="evenodd" clip-rule="evenodd" d="M273.978 246.442C269.102 275.201 289.052 268.923 289.052 268.923L301.773 265.111C301.773 265.111 287.371 258.103 286.362 256.702C285.242 255.132 277.788 243.527 276.948 241.733" fill="#1C2628"/>
<path d="M273.978 246.442C269.102 275.202 289.052 268.923 289.052 268.923L301.773 265.111C301.773 265.111 287.371 258.103 286.362 256.702C285.242 255.132 277.788 243.527 276.948 241.733" stroke="#1C2628" stroke-width="2.13" stroke-linecap="round" stroke-linejoin="round"/>
<path d="M309.619 302.335C307.769 305.979 316.175 330.029 332.035 330.029L309.619 302.335Z" fill="#FAF6EB"/>
<path d="M309.619 302.335C307.769 305.979 316.175 330.029 332.035 330.029" stroke="#1C2628" stroke-width="2.13" stroke-linecap="round" stroke-linejoin="round"/>
<path d="M256.213 419.277C257.278 417.988 266.244 400.889 266.244 400.889C266.244 400.889 270.335 416.194 273.585 423.426C281.543 441.309 292.191 459.08 307.321 467.321" stroke="#FAF6EB" stroke-width="2.13" stroke-linecap="round" stroke-linejoin="round"/>
<path fill-rule="evenodd" clip-rule="evenodd" d="M411.275 315.509L406.175 360.694L385.945 369.776L399.618 343.988L402.645 348.473L411.275 315.509Z" fill="#1C2628" stroke="#1C2628" stroke-width="2.13" stroke-linecap="round" stroke-linejoin="round"/>
<path fill-rule="evenodd" clip-rule="evenodd" d="M359.046 380.595C361.96 388.444 371.711 396.685 374.905 403.188C389.755 433.236 389.587 458.968 429.824 442.879" fill="#FAF6EB"/>
<path d="M359.046 380.595C361.96 388.444 371.711 396.685 374.905 403.188C389.755 433.236 389.587 458.968 429.824 442.879" stroke="#1C2628" stroke-width="2.13" stroke-linecap="round" stroke-linejoin="round"/>
<path d="M378.099 394.779C381.798 401.955 385.216 409.411 388.411 416.867C393.118 427.967 398.89 446.298 415.59 440.412" stroke="#1C2628" stroke-width="2.13" stroke-linecap="round" stroke-linejoin="round"/>
<path fill-rule="evenodd" clip-rule="evenodd" d="M241.138 443.72C235.366 444.785 220.852 441.085 209.14 441.589C205.105 441.758 201.63 439.851 201.63 439.851C201.63 439.851 194.289 434.918 191.992 436.544C189.974 437.945 190.198 443.159 190.198 443.159C190.198 443.159 186.164 445.345 185.883 448.036C185.827 448.709 185.883 451.736 185.883 451.736C185.883 451.736 186.332 455.548 187.677 458.856C189.022 462.164 209.924 465.303 220.964 468.554C224.046 469.451 241.363 475.114 249.937 473.544" fill="#F45B49"/>
<path d="M241.138 443.72C235.366 444.785 220.852 441.085 209.14 441.589C205.105 441.758 201.63 439.851 201.63 439.851C201.63 439.851 194.289 434.918 191.992 436.544C189.974 437.945 190.198 443.159 190.198 443.159C190.198 443.159 186.164 445.345 185.883 448.036C185.827 448.709 185.883 451.736 185.883 451.736C185.883 451.736 186.332 455.548 187.677 458.856C189.022 462.164 209.924 465.303 220.964 468.554C224.046 469.451 241.363 475.114 249.937 473.544" stroke="#1C2628" stroke-width="2.13" stroke-linecap="round" stroke-linejoin="round"/>
<path d="M255.26 460.37C250.497 458.408 245.902 458.52 240.97 457.342C235.983 456.165 230.939 454.147 226.176 452.241" stroke="#1C2628" stroke-width="2.13" stroke-linecap="round" stroke-linejoin="round"/>
<path d="M191.768 449.606C190.367 452.577 189.526 454.539 188.573 457.679" stroke="#1C2628" stroke-width="2.13" stroke-linecap="round" stroke-linejoin="round"/>
<path d="M143.91 176.927L435.652 177.039" stroke="#1C2628" stroke-width="2.13" stroke-linecap="round" stroke-linejoin="round"/>
<path fill-rule="evenodd" clip-rule="evenodd" d="M317.632 213.142C317.632 207.424 322.396 202.771 328.28 202.771C334.164 202.771 338.927 207.424 338.927 213.142C338.927 218.861 334.164 223.514 328.28 223.514C322.396 223.458 317.632 218.861 317.632 213.142Z" fill="#FAF6EB" stroke="#1C2628" stroke-width="2.13" stroke-linecap="round" stroke-linejoin="round"/>
<path fill-rule="evenodd" clip-rule="evenodd" d="M262.658 225.364C262.658 225.364 256.213 204.061 278.349 191.839C304.463 177.376 327.383 207.648 327.383 207.648L323.461 213.871C323.461 213.871 294.264 191.503 270.279 208.265C258.847 216.226 262.658 225.364 262.658 225.364Z" fill="#FAF6EB" stroke="#1C2628" stroke-width="2.13" stroke-linecap="round" stroke-linejoin="round"/>
<path fill-rule="evenodd" clip-rule="evenodd" d="M322.564 212.414C322.564 209.162 325.142 206.471 328.28 206.471C331.418 206.471 333.996 209.106 333.996 212.414C333.996 215.665 331.418 218.356 328.28 218.356C325.142 218.356 322.564 215.721 322.564 212.414Z" fill="#FAF6EB" stroke="#1C2628" stroke-width="2.13" stroke-linecap="round" stroke-linejoin="round"/>
<path fill-rule="evenodd" clip-rule="evenodd" d="M149.85 225.308C140.155 213.479 126.818 206.92 117.123 194.25C94.3147 164.37 104.346 128.435 116.506 96.5924C139.202 140.208 149.85 183.823 149.85 225.308Z" fill="#49574E"/>
<path fill-rule="evenodd" clip-rule="evenodd" d="M150.41 223.57C137.129 165.042 159.937 137.012 179.271 86.3894C178.206 133.256 200.117 190.998 150.41 223.57Z" fill="#49574E"/>
<path fill-rule="evenodd" clip-rule="evenodd" d="M149.458 231.586C149.289 198.679 188.013 172.891 197.035 142.674C209.644 173.059 189.19 233.829 149.458 231.586Z" fill="#49574E"/>
<path fill-rule="evenodd" clip-rule="evenodd" d="M142.677 211.236H162.066C177.029 211.236 189.134 223.458 189.134 238.482C189.134 253.506 177.029 265.727 162.066 265.727H142.677C127.714 265.727 115.61 253.506 115.61 238.482C115.61 223.402 127.714 211.236 142.677 211.236Z" fill="#F45B49"/>
<path d="M107.876 255.692C144.75 183.599 137.409 352.509 120.317 267.633C113.872 235.679 169.632 214.376 190.479 219.982C208.972 224.915 179.775 250.423 165.989 268.306C164.196 270.605 160.441 269.315 160.497 266.064C155.958 235.791 198.829 227.55 220.516 232.035" stroke="#1C2628" stroke-width="2.13" stroke-linecap="round" stroke-linejoin="round"/>
<path d="M142.677 211.236H162.066C177.029 211.236 189.134 223.458 189.134 238.482C189.134 253.506 177.029 265.727 162.066 265.727H142.677C127.714 265.727 115.61 253.506 115.61 238.482C115.61 223.402 127.714 211.236 142.677 211.236Z" stroke="#1C2628" stroke-width="2.13" stroke-linecap="round" stroke-linejoin="round"/>
<path d="M468.771 211.741H515.62V233.324H468.771" stroke="#1C2628" stroke-width="2.13" stroke-linecap="round" stroke-linejoin="round"/>
<path d="M528.229 255.356H492.7V233.829H539.549V246.667" stroke="#1C2628" stroke-width="2.13" stroke-linecap="round" stroke-linejoin="round"/>
<path d="M92.7456 400.721H45.8965V422.248H92.7456V400.721Z" stroke="#1C2628" stroke-width="2.13" stroke-linecap="round" stroke-linejoin="round"/>
<path d="M41.2451 422.753H21.9675V444.336" stroke="#1C2628" stroke-width="2.13" stroke-linecap="round" stroke-linejoin="round"/>
<path d="M68.8167 444.336V433.573" stroke="#1C2628" stroke-width="2.13" stroke-linecap="round" stroke-linejoin="round"/>
<path d="M95.0992 252.497H48.2501V274.024H95.0992V252.497Z" stroke="#1C2628" stroke-width="2.13" stroke-linecap="round" stroke-linejoin="round"/>
<path d="M295.553 300.261C295.553 300.261 320.715 325.488 332.819 342.923L295.553 300.261Z" fill="#FAF6EB"/>
<path d="M295.553 300.261C295.553 300.261 320.715 325.488 332.819 342.923" stroke="#1C2628" stroke-width="2.13" stroke-linecap="round" stroke-linejoin="round"/>
<path fill-rule="evenodd" clip-rule="evenodd" d="M418.055 290.899C413.516 280.191 408.865 272.286 404.27 266.568C399.394 269.595 395.471 274.024 394.239 278.845C390.708 292.356 410.21 299.476 417.607 328.011C419.064 333.617 422.37 346.791 418.952 362.32C417.159 370.617 413.124 381.38 410.378 388.724C406.567 398.983 411.835 410.588 422.202 413.895C422.483 414.008 422.763 414.064 422.987 414.12C425.509 414.848 428.086 415.521 430.664 416.194C429.88 411.205 429.319 405.711 429.207 399.768C428.423 363.385 427.582 313.323 418.055 290.899Z" fill="#1C2628" stroke="#1C2628" stroke-width="2.13" stroke-linecap="round" stroke-linejoin="round"/>
<path d="M291.462 338.774C295.329 339.727 299.588 340.905 301.829 344.212C303.286 346.342 303.623 348.977 303.959 351.556C304.575 356.209 305.248 360.974 307.265 365.179" stroke="white" stroke-width="2.13" stroke-linecap="round" stroke-linejoin="round"/>
<path d="M295.721 350.267C298.075 352.901 298.971 356.545 299.364 360.021C299.756 363.497 299.812 367.141 300.821 370.505" stroke="white" stroke-width="2.13" stroke-linecap="round" stroke-linejoin="round"/>
<path d="M323.461 381.773C324.525 383.959 326.879 385.136 329.177 385.865C331.474 386.594 333.94 386.874 336.069 387.939C340.216 390.07 342.458 394.555 344.756 398.647C347.165 402.851 350.023 406.832 353.162 410.532" stroke="white" stroke-width="2.13" stroke-linecap="round" stroke-linejoin="round"/>
<path d="M341.786 404.926C345.148 411.597 350.248 417.371 356.356 421.632" stroke="white" stroke-width="2.13" stroke-linecap="round" stroke-linejoin="round"/>
<path d="M297.346 445.626C304.687 458.8 319.482 467.377 334.5 467.097" stroke="white" stroke-width="2.13" stroke-linecap="round" stroke-linejoin="round"/>
<path d="M321.275 456.501C327.159 459.865 334.108 461.267 340.777 460.426" stroke="white" stroke-width="2.13" stroke-linecap="round" stroke-linejoin="round"/>
<path d="M197.259 369.215C195.802 375.606 194.345 381.997 192.832 388.388" stroke="white" stroke-width="2.13" stroke-linecap="round" stroke-linejoin="round"/>
<path d="M205.946 361.983L201.967 376.055" stroke="white" stroke-width="2.13" stroke-linecap="round" stroke-linejoin="round"/>
<path d="M410.098 376.055C405.559 384.912 403.373 394.947 403.765 404.87C403.877 407.449 404.158 410.139 405.447 412.382C406.735 414.624 409.257 416.306 411.835 415.914C412.339 415.802 412.9 415.633 413.292 415.297C414.301 414.4 414.133 412.55 413.068 411.653C412.003 410.756 410.434 410.7 409.201 411.205C407.688 414.232 409.593 418.1 412.508 419.894C415.366 421.688 418.896 421.912 422.258 422.136" stroke="#1C2628" stroke-width="2.13" stroke-linecap="round" stroke-linejoin="round"/>
<path fill-rule="evenodd" clip-rule="evenodd" d="M235.759 260.906C233.965 259.673 232.732 257.655 232.452 255.468C232.004 251.824 235.142 247.732 238.785 248.405C242.315 249.077 243.884 253.282 244.108 256.87C244.221 258.215 244.108 259.729 243.212 260.738C241.531 262.532 238.561 261.242 236.151 261.747" fill="#1C2628"/>
<path d="M235.759 260.906C233.965 259.673 232.732 257.655 232.452 255.468C232.004 251.824 235.142 247.732 238.785 248.405C242.315 249.077 243.884 253.282 244.108 256.87C244.221 258.215 244.108 259.729 243.212 260.738C241.531 262.532 238.561 261.242 236.151 261.747" stroke="#1C2628" stroke-width="2.13" stroke-linecap="round" stroke-linejoin="round"/>
<path d="M213.903 388.948C214.464 395.62 211.101 402.515 205.553 406.159" stroke="#1C2628" stroke-width="2.13" stroke-linecap="round" stroke-linejoin="round"/>
<path d="M206.73 393.714C207.122 395.508 206.562 397.47 205.273 398.759" stroke="#1C2628" stroke-width="2.13" stroke-linecap="round" stroke-linejoin="round"/>
<path d="M146.824 184.439C146.263 194.53 147.104 204.229 148.561 211.965" stroke="white" stroke-width="2.13" stroke-linecap="round" stroke-linejoin="round"/>
<path d="M117.011 121.595C117.123 133.088 118.86 144.468 120.653 155.792C121.662 162.183 122.671 168.63 124.632 174.797C126.369 180.291 128.835 185.448 131.301 190.662C134.439 197.221 137.577 203.836 142.229 209.386" stroke="white" stroke-width="2.13" stroke-linecap="round" stroke-linejoin="round"/>
<path d="M175.572 114.532C173.891 147.047 167.895 179.338 157.751 210.227" stroke="white" stroke-width="2.13" stroke-linecap="round" stroke-linejoin="round"/>
<path d="M197.259 143.795C195.914 168.742 185.323 193.129 168.063 211.068" stroke="white" stroke-width="2.13" stroke-linecap="round" stroke-linejoin="round"/>
<path d="M108.044 134.321C109.894 134.938 111.407 136.395 112.191 138.245C112.864 139.815 113.032 141.777 114.377 142.842C115.218 143.459 116.394 143.571 117.403 143.852C118.412 144.132 119.533 144.917 119.533 145.982C122.503 144.02 125.809 141.553 126.089 137.965C126.201 136.9 126.033 135.667 126.706 134.826C127.322 134.097 128.331 133.929 129.227 133.705C130.124 133.48 131.133 132.92 131.245 131.967" stroke="white" stroke-width="2.13" stroke-linecap="round" stroke-linejoin="round"/>
<path d="M105.298 153.774C107.988 154.727 110.286 156.745 111.575 159.268C111.799 159.661 111.967 160.109 112.303 160.445C113.704 161.959 116.394 160.838 118.188 161.847C119.757 162.744 120.429 165.042 122.166 165.211C123.399 162.968 126.65 162.183 127.266 159.717C127.378 159.324 127.378 158.876 127.602 158.539C128.387 157.138 130.572 158.035 132.029 157.53C134.047 156.802 134.327 153.606 136.4 152.989" stroke="white" stroke-width="2.13" stroke-linecap="round" stroke-linejoin="round"/>
<path d="M139.931 167.677C137.689 169.415 136.232 172.05 135.952 174.909C135.896 175.47 135.896 176.086 135.56 176.535C135.111 177.208 134.215 177.376 133.43 177.656C130.852 178.441 128.443 180.571 127.714 183.15C127.546 182.421 126.762 181.973 126.033 181.861C125.304 181.748 124.576 181.917 123.791 181.917C122.446 181.973 121.102 181.58 119.925 180.795C118.972 180.179 118.019 179.282 116.955 179.618C116.562 179.73 116.226 180.011 115.89 180.235C114.769 180.908 113.368 180.964 112.079 180.571C110.846 180.179 109.782 179.338 108.829 178.441" stroke="white" stroke-width="2.13" stroke-linecap="round" stroke-linejoin="round"/>
<path d="M144.694 185.729C143.91 188.924 142.789 192.456 139.875 193.914C139.258 194.25 138.53 194.418 137.97 194.811C136.849 195.483 134.719 197.502 134.663 198.847C133.486 198.959 132.534 198.006 131.469 197.558C129.676 196.829 128.051 198.286 126.089 198.398C124.128 198.567 121.774 197.389 119.869 196.885" stroke="white" stroke-width="2.13" stroke-linecap="round" stroke-linejoin="round"/>
<path d="M132.366 206.191C133.767 206.92 135.392 207.48 136.961 207.256C137.633 207.144 138.25 206.92 138.922 206.976C140.043 207.088 140.94 207.985 141.668 208.882C141.78 207.648 141.892 206.247 142.901 205.518C143.405 205.126 144.134 204.958 144.638 204.565C145.199 204.173 145.535 203.332 145.031 202.827" stroke="white" stroke-width="2.13" stroke-linecap="round" stroke-linejoin="round"/>
<path d="M168.623 116.998C169.968 118.008 170.809 119.689 170.809 121.371C170.809 121.764 170.753 122.212 170.921 122.605C171.369 123.782 173.218 123.782 173.779 124.903C174.115 125.632 173.891 126.641 174.507 127.145C174.844 126.417 175.18 125.688 175.908 125.352C176.693 124.959 177.589 125.295 178.486 125.127C179.607 124.959 180.504 123.95 180.56 122.829" stroke="white" stroke-width="2.13" stroke-linecap="round" stroke-linejoin="round"/>
<path d="M160.385 138.021C160.834 139.591 162.291 140.824 163.916 140.936C164.812 140.992 165.765 140.712 166.606 141.048C167.558 141.441 168.119 142.45 168.399 143.515C168.679 144.58 168.791 145.589 169.24 146.542C169.688 147.495 171.257 149.402 172.322 149.177C173.106 149.009 173.106 147.159 173.891 146.935C175.012 146.599 176.357 147.439 177.365 146.823C177.982 146.43 178.206 145.645 178.71 145.253C179.719 144.468 181.68 144.805 182.017 143.571" stroke="white" stroke-width="2.13" stroke-linecap="round" stroke-linejoin="round"/>
<path d="M152.428 163.361C154.613 163.417 156.743 164.762 157.751 166.724C158.648 168.406 158.816 170.705 160.497 171.658C161.226 172.106 162.179 172.162 163.019 172.386C164.981 172.947 166.55 174.573 166.998 176.535C167.839 174.965 169.912 174.741 171.705 174.741C173.499 174.741 175.46 174.797 176.637 173.452C176.973 173.059 180.279 168.63 183.25 168.238" stroke="white" stroke-width="2.13" stroke-linecap="round" stroke-linejoin="round"/>
<path d="M148.393 184.608C149.289 184.664 149.906 185.505 150.242 186.345C150.578 187.186 150.859 188.083 151.643 188.588C152.708 189.261 154.109 188.812 155.342 189.036C158.424 189.653 158.928 194.194 161.618 195.876" stroke="white" stroke-width="2.13" stroke-linecap="round" stroke-linejoin="round"/>
<path d="M186.78 166.444C187.228 167.509 187.453 168.686 187.453 169.864C187.453 171.041 187.34 172.33 188.069 173.227C188.517 173.788 189.246 174.068 189.582 174.685C189.694 174.853 189.75 175.077 189.862 175.245C190.142 175.582 190.647 175.526 191.095 175.47C192.16 175.302 193.281 175.302 194.345 175.302C195.186 175.358 196.083 175.414 196.867 175.189C197.652 174.965 198.492 174.292 198.548 173.452" stroke="white" stroke-width="2.13" stroke-linecap="round" stroke-linejoin="round"/>
<path d="M176.469 181.748C178.094 182.029 179.551 183.15 180.223 184.664C180.672 185.673 180.84 186.906 181.568 187.747C182.745 189.036 184.763 188.812 186.5 189.148C188.069 189.429 189.526 190.27 191.151 190.382C192.944 190.494 194.794 189.653 195.858 188.195" stroke="white" stroke-width="2.13" stroke-linecap="round" stroke-linejoin="round"/>
<path d="M165.317 199.968C167.839 199.744 170.36 201.202 171.537 203.444C171.761 203.892 171.929 204.341 172.322 204.733C173.386 205.799 175.18 205.014 176.637 205.238C177.589 205.406 178.374 205.967 179.271 206.359C181.68 207.424 184.706 206.808 186.556 204.902" stroke="white" stroke-width="2.13" stroke-linecap="round" stroke-linejoin="round"/>
<path d="M183.25 168.182C172.434 179.114 161.618 195.876 157.303 211.741" stroke="white" stroke-width="2.13" stroke-linecap="round" stroke-linejoin="round"/>
<path d="M264.171 148.617L269.663 166.276" stroke="#1C2628" stroke-width="2.13" stroke-linecap="round" stroke-linejoin="round"/>
<path d="M313.261 138.526L308.778 168.294" stroke="#1C2628" stroke-width="2.13" stroke-linecap="round" stroke-linejoin="round"/>
<path d="M328.28 156.689L324.301 170.312" stroke="#1C2628" stroke-width="2.13" stroke-linecap="round" stroke-linejoin="round"/>
<path d="M371.879 127.426L349.855 171.321" stroke="#1C2628" stroke-width="2.13" stroke-linecap="round" stroke-linejoin="round"/>
<path d="M389.419 164.258L364.874 188.98" stroke="#1C2628" stroke-width="2.13" stroke-linecap="round" stroke-linejoin="round"/>
<path d="M384.936 197.053L403.429 187.971" stroke="#1C2628" stroke-width="2.13" stroke-linecap="round" stroke-linejoin="round"/>
<path d="M353.162 467.321L415.59 467.097" stroke="white" stroke-width="2.13" stroke-linecap="round" stroke-linejoin="round"/>
<path d="M203.928 96.5924H447.308V401.73" stroke="#1C2628" stroke-width="2.13" stroke-linecap="round" stroke-linejoin="round"/>
<path d="M135.224 288.992V445.626" stroke="#1C2628" stroke-width="2.13" stroke-linecap="round" stroke-linejoin="round"/>
<path d="M150.13 30.4409C152.823 30.4409 155.006 28.2322 155.006 25.5076C155.006 22.783 152.823 20.5742 150.13 20.5742C147.437 20.5742 145.255 22.783 145.255 25.5076C145.255 28.2322 147.437 30.4409 150.13 30.4409Z" fill="#1C2628" stroke="#1C2628" stroke-width="2.13" stroke-linecap="round" stroke-linejoin="round"/>
<path d="M174.451 329.804L181.456 298.523C182.185 300.036 183.53 301.774 185.883 304.241L186.668 305.026C189.918 308.221 195.354 313.659 191.824 319.041C191.543 319.433 191.655 319.994 192.048 320.218C192.216 320.33 192.384 320.386 192.496 320.386C192.776 320.386 193.056 320.274 193.225 319.994C197.54 313.435 191.207 307.156 187.845 303.792L187.06 303.008C182.745 298.579 182.297 296.729 182.185 294.879L184.034 286.694C184.763 288.208 186.108 289.945 188.517 292.412L189.358 293.253C192.608 296.448 198.044 301.886 194.513 307.268C194.233 307.661 194.345 308.221 194.738 308.445C194.906 308.558 195.074 308.614 195.186 308.614C195.466 308.614 195.746 308.501 195.914 308.221C200.23 301.662 193.897 295.383 190.535 292.076L189.75 291.291C185.379 286.806 184.987 285.012 184.875 283.106C184.875 282.658 184.538 282.321 183.978 282.265C183.53 282.265 183.137 282.658 183.137 283.162C183.081 283.218 183.081 283.274 183.025 283.386L173.274 327.394C171.313 325.095 167.614 323.974 163.692 324.759C158.48 325.824 154.837 329.861 155.622 333.785C156.407 337.765 161.282 340.12 166.494 339.054C171.705 338.045 175.348 333.953 174.563 330.029C174.507 329.973 174.507 329.917 174.451 329.804Z" fill="#1C2628" stroke="#1C2628" stroke-width="2.13" stroke-linecap="round" stroke-linejoin="round"/>
<path d="M123.679 218.524L149.906 25.2833L181.176 219.589" stroke="#1C2628" stroke-width="2.13" stroke-linecap="round" stroke-linejoin="round"/>
</svg>
