<svg width="352" height="407" viewBox="0 0 352 407" fill="none" xmlns="http://www.w3.org/2000/svg">
<path fill-rule="evenodd" clip-rule="evenodd" d="M92.8277 91.5377C92.411 98.3545 91.9938 105.171 91.5771 111.988C94.2586 111.215 111.317 106.193 110.263 111.285C109.507 114.937 104.711 118.887 102.268 121.43C100.019 123.771 97.7034 126.051 95.3288 128.264C99.6933 126.593 104.094 125.01 108.527 123.528C111.881 122.408 115.259 121.314 118.696 120.474C119.972 120.162 123.417 118.889 124.622 119.757C127.789 122.038 110.606 138.834 108.252 141.201C111.58 139.653 114.988 138.246 118.454 137.039C120.957 136.167 128.688 132.836 130.903 135.68C133.273 138.724 127.401 145.712 125.772 147.928C123.439 151.102 120.91 154.148 118.257 157.06C129.285 166.971 142.243 175.792 156.035 181.274C166.147 185.294 176.08 186.318 186.751 184.112C197.713 181.845 208.226 177.498 218.22 172.528C224.089 169.609 229.881 166.451 235.398 162.903C233.124 160.134 230.915 157.309 228.769 154.439C225.707 150.343 221.943 145.866 220.197 140.989C218.488 136.216 224.899 137.148 227.975 137.407C232.428 137.783 236.87 138.579 241.234 139.532C238.148 137.385 235.118 135.151 232.149 132.845C228.279 129.84 223.117 126.441 220.584 122.118C218.357 118.316 223.246 119.276 225.506 119.774C230.896 120.963 236.139 122.987 241.28 124.961C245.044 126.407 248.785 127.921 252.49 129.516C250.19 127.516 247.968 125.42 245.832 123.246C242.96 120.325 239.088 116.758 237.801 112.736C235.18 104.544 252.814 110.723 255.825 111.988C255.269 103.502 254.713 95.0158 254.157 86.5299C230.807 92.7466 207.456 98.9639 184.106 105.181C181.582 105.853 178.424 107.317 175.792 107.395C173.408 107.466 170.529 106.392 168.205 105.948L125.95 97.8698C114.909 95.7591 103.868 93.6484 92.8277 91.5377Z" fill="#094067"/>
<path fill-rule="evenodd" clip-rule="evenodd" d="M343.796 383.412C341.275 384.855 338.322 385.97 335.521 386.718C333.877 387.157 331.159 388.514 329.714 387.27C329.02 386.673 328.861 385.318 328.452 384.532C327.804 383.288 326.883 382.213 326.021 381.114C323.93 378.449 321.754 375.879 319.478 373.372C318.399 372.184 316.429 369.411 314.528 369.593C312.159 369.82 312.216 373.102 312.809 374.778C314.7 380.115 320.422 384.767 324.16 388.788C323.21 390.251 317.99 390.077 316.541 389.734C314.328 389.212 314.104 387.635 313.094 385.832C310.732 381.617 305.94 379.26 302.001 376.782C300.565 375.878 297.512 373.374 295.641 374.004C293.867 374.601 293.944 376.868 294.509 378.349C295.362 380.586 297.79 382.138 299.585 383.552C301.979 385.437 304.168 387.488 306.163 389.795C303.287 390.03 300.422 390.435 297.554 390.672C294.085 390.958 291.194 389.054 288.001 387.974C285.034 386.971 282.078 386.123 279.16 384.967C275.884 383.669 272.453 383.218 269.149 382.079C256.181 377.61 243.475 371.99 230.978 366.324C225.024 363.624 219.192 360.923 212.987 358.81C208.466 357.27 201.36 354.201 200.279 348.812C199.709 345.965 201.788 342.903 202.094 340.058C202.453 336.711 202.171 333.029 201.152 329.818C200.253 326.989 198.765 324.369 197.592 321.653C196.226 318.488 197.449 318.539 200.104 318.179C203.281 317.748 206.989 315.959 209.976 314.793C213.416 313.45 216.827 311.573 219.978 309.643C222.828 307.898 225.308 305.648 227.576 303.205C229.885 300.72 231.379 297.775 233.61 295.228C241.846 305.362 249.674 315.65 258.425 325.346C262.555 329.923 267.046 333.707 272.136 337.187C274.261 338.641 276.37 340.3 278.685 341.449C281.581 342.887 284.818 343.779 287.794 345.091C299.205 350.122 310.095 355.621 320.741 362.112C325.891 365.252 330.213 368.852 334.748 372.791C336.16 374.018 347.723 381.164 343.796 383.412ZM209.936 300.392C208.092 301.228 206.334 302.313 204.366 302.849C204.924 299.454 208.091 294.332 212.151 294.896C213.703 295.111 214.873 296.316 214.191 297.978C213.571 299.488 211.249 299.797 209.936 300.392ZM81.5784 208.295C79.4875 209.45 77.5397 210.123 76.3139 207.644C77.2219 207.462 81.3465 206.912 81.5784 208.295ZM78.0973 201.288C76.482 200.797 77.774 200.282 78.3299 199.69C78.763 199.23 80.1968 197.615 80.6986 197.348C82.9146 196.174 84.6275 200.544 85.687 201.963C83.1784 201.74 80.5397 202.028 78.0973 201.288ZM95.3712 216.42C92.3092 216.939 92.6491 213.105 92.7405 211.163C93.3865 211.952 97.7589 216.015 95.3712 216.42ZM105.519 209.798C101.786 210.429 99.3191 203.975 99.9884 201.152C100.577 198.666 103.471 197.277 105.774 196.91C108.006 196.555 111.114 197.04 111.778 199.616C112.363 201.893 108.008 209.378 105.519 209.798ZM193.89 307.221C191.207 308.046 188.578 308.15 185.882 308.96C182.823 309.879 179.991 309.797 176.926 310.422C175.678 310.676 172.314 312.494 171.097 312.088C169.892 311.686 168.148 307.944 167.456 306.971C172.88 304.715 177.507 301.803 181.081 297.05C183.924 293.27 186.973 287.607 185.185 282.728C183.167 277.228 176.215 276.034 171.579 278.332C169.386 279.418 167.212 280.769 165.404 282.424C163.336 284.317 162.524 286.384 161.184 288.718C159.83 291.08 158.879 289.766 157.526 287.761C156.369 286.047 156.52 284.316 155.075 282.625C154.338 281.763 153.196 280.93 152.811 279.816C152.567 279.109 153.081 277.857 152.619 277.3C151.968 276.519 151.176 277.437 150.631 276.739C150.235 276.232 150.365 275.077 149.955 274.443C149.601 274.082 149.206 273.775 148.77 273.519C148.241 273.257 148.144 272.93 148.48 272.537C148.059 271.757 148.464 271.494 147.563 270.546C146.158 269.068 144.877 267.651 143.877 265.906C143.42 265.108 143.466 263.923 142.898 263.232C142.118 262.283 140.82 262.425 140.15 261.251C139.553 260.204 139.953 258.373 138.969 257.423C138.45 257.275 137.931 257.129 137.411 256.986C137.02 256.606 136.793 256.145 136.728 255.603C136.181 254.76 136.072 253.771 135.382 252.882C134.061 251.181 132.285 249.609 131.118 247.815C129.891 245.93 130.542 245.612 132.672 244.937C134.594 244.328 136.348 243.763 138.129 242.726C146.364 237.931 154.171 225.213 141.101 221.327C136.25 219.885 132.266 216.007 126.888 217.532C124.556 218.193 122.345 219.599 120.605 221.269C119.403 222.423 118.29 225.509 116.815 226.101C114.162 227.164 115.284 224.508 114.531 223.288C114.171 222.705 112.724 222.035 112.188 221.504C111.558 220.883 110.95 220.099 110.513 219.33C109.702 217.904 109.206 217.109 108.036 215.947C107.595 215.509 105.393 213.243 107.379 213.539C106.574 211.087 107.748 210.718 109.37 208.926C111.275 206.822 113.242 203.898 113.253 200.95C113.275 195.29 106.571 192.754 102.361 196.114C101.505 196.797 96.4381 203.397 97.4749 199.188C98.0338 196.918 103.209 190.993 105.609 192.526C102.92 188.605 96.743 198.126 95.3012 200.074C94.0736 197.812 93.9865 196.043 91.9552 194.292C90.3018 196.946 91.1748 194.046 90.8104 193.456C90.0227 192.183 90.4552 193.639 90.0282 193.187C89.4963 192.624 88.6588 192.18 88.0932 191.434C87.1238 192.75 87.5109 191.334 87.214 190.842C86.5195 189.693 86.7882 189.027 85.5981 188.027C84.7318 187.301 83.0256 186.172 81.86 186.069C80.5158 185.95 80.1434 186.465 78.774 186.084C77.0317 185.599 74.839 184.854 75.6826 187.77C76.2949 189.889 78.7845 191.093 79.3299 193.258C79.879 195.437 77.7256 197.633 76.6808 199.419C75.339 201.711 74.2421 201.524 71.8114 202.041C70.258 202.371 68.1849 203.078 69.5169 204.963C70.4684 206.31 72.6979 206.026 73.9537 206.824C75.7145 207.943 75.6899 210.701 77.9378 211.181C80.4133 211.71 81.8317 208.952 83.9189 208.286C85.403 207.812 90.0006 207.865 91.1687 208.98C92.7607 210.499 91.3852 213.402 91.7859 215.289C92.3816 218.088 94.2742 218.259 96.6675 218.349C99.6142 218.459 100.65 221.289 102.234 223.535C105.946 228.794 109.172 234.4 112.974 239.59C114.657 241.887 117.119 243.931 118.497 246.425C120.198 249.504 117.836 251.28 115.797 253.491C113.133 256.379 111.144 259.666 108.834 262.823C106.781 265.629 104.229 264.93 100.948 264.93C101.679 263.422 102.559 262.481 104.358 262.664C102.477 260.366 100.972 262.995 99.7522 264.451C97.9872 266.557 95.6859 267.065 93.4184 268.45C92.6159 268.939 88.2465 272.115 89.5742 273.199C89.7251 273.322 96.9577 268.561 97.7816 268.125C97.7816 269.882 97.3976 271.708 97.6436 273.456C97.824 274.737 98.7246 276.074 98.5326 277.406C98.1688 279.922 94.9203 281.903 93.5258 283.862C92.4761 285.337 92.7294 286.501 92.1951 288.084C91.7079 289.528 91.9638 289.092 90.7496 289.538C88.2772 290.446 84.1164 289.956 81.8778 288.664C80.4882 287.862 79.4225 286.595 78.2937 285.478C77.4433 284.636 75.3047 283.198 75.0685 282.019C74.6629 279.991 78.6881 276.221 79.4851 274.129C81.7348 268.223 77.8765 263.633 71.8727 263.298C73.7231 261.869 76.0169 262.946 77.9673 263.491C74.6329 258.868 68.9383 262.672 66.1101 265.813C64.1775 260.926 63.2456 255.77 62.0652 250.672C61.2609 247.202 58.2002 241.007 59.5652 237.433C60.2253 235.706 62.0886 234.743 63.3775 233.545C64.842 232.183 66.096 230.556 67.1665 228.871C69.6893 224.902 71.1457 219.891 67.6727 215.98C68.7279 215.806 69.7837 215.633 70.839 215.459C69.1224 213.845 66.4144 214.631 64.1867 214.153C62.7732 213.849 58.7063 214.046 57.7627 213.245C56.6278 212.283 57.3554 207.855 57.3959 206.545C57.4891 203.483 57.7449 200.538 58.083 197.494C58.4032 194.618 58.3388 191.512 58.9327 188.686C59.4149 186.394 60.9554 185.695 62.7333 184.344C66.9825 181.114 70.4451 177.184 68.9942 171.617C69.5083 171.536 70.0224 171.454 70.5365 171.372C68.8739 170.169 66.7224 170.607 64.8733 169.971C66.5714 165.188 70.3273 156.781 76.4255 156.329C76.6354 158.466 76.4918 161.009 77.9335 162.779C79.5747 164.793 82.4557 164.997 84.679 163.931C86.6962 162.963 88.5901 160.911 89.5202 158.885C90.149 157.513 90.0355 155.193 91.1398 154.106C92.6208 152.647 102.831 153.527 102.518 155.989C102.334 157.436 99.6037 159.869 98.8405 161.152C97.4442 163.499 96.3264 166.038 95.8135 168.734C95.035 172.828 95.4859 178.233 99.6412 180.386C104.367 182.834 110.127 179.721 114.002 177.031C116.13 175.555 118.192 173.925 120.136 172.213C121.171 171.303 122.212 170.364 123.125 169.328C123.799 168.564 124.337 167.331 125.167 166.758C127.126 165.405 129.047 167.7 130.705 168.86C133.407 170.748 136.094 172.541 138.994 174.113C144.877 177.302 150.257 181.526 155.459 185.72C160.692 189.939 166.087 194.279 170.325 199.535C167.758 201.116 168.216 201.526 167.074 204.344C166.263 206.345 165.147 208.047 165.018 210.27C164.795 214.105 167.256 217.374 170.991 218.223C173.08 218.698 175.07 218.317 177.005 217.463C178.509 216.799 180.008 215.164 181.58 214.758C184.501 214.004 186.838 219.525 188.475 221.47C195.747 230.107 203.434 238.403 210.281 247.393C211.039 248.389 213.292 250.334 213.475 251.653C213.738 253.546 210.762 255.35 209.527 256.435C208.879 257.005 202.004 263.475 204.312 264.504C204.97 264.797 206.896 260.827 207.378 260.487C209.181 259.216 207.817 261.708 207.71 262.967C207.441 266.098 209.59 267.804 212.611 267.407C215.835 266.984 218.705 264.437 220.7 262.032C223.2 264.929 227.108 269.309 227.831 273.179C228.293 275.652 226.155 281.703 230.146 282.207C230.756 282.284 232.961 280.648 233.372 281.577C233.715 282.352 231.331 283.678 230.987 283.935C229.518 285.032 228.631 286.207 227.445 287.536C226.053 289.096 224.151 290.41 222.584 291.905C220.934 293.479 217.67 297.755 215.493 295.689C214.398 294.651 214.686 293.294 212.933 292.684C211.337 292.129 209.315 292.833 207.831 293.448C206.162 294.141 200.661 296.669 200.051 298.75C199.209 301.62 203.755 298.17 204.563 297.665C203.642 300.006 203.132 303.396 200.785 304.761C198.834 305.896 196.029 306.563 193.89 307.221ZM162.713 289.514C164.274 284.495 173.479 275.544 179.297 278.344C172.516 279.765 167.136 284.409 162.713 289.514ZM166.156 303.889C163.887 302.624 164.009 298.949 163.217 296.8C162.762 295.566 161.853 294.665 162.12 293.296C162.433 291.691 164.479 289.907 165.568 288.75C168.995 285.107 175.026 280.129 180.542 280.964C187.563 282.027 182.803 291.459 180.412 294.706C178.375 297.475 170.523 306.325 166.156 303.889ZM149.777 297.75C142.184 297.242 134.617 296.564 127.128 295.169C124.473 294.675 122.248 294.748 123.767 291.693C124.269 290.685 127.294 284.367 127.976 284.548C128.381 284.656 128.289 288.998 128.408 289.496C128.944 291.731 130.45 293.815 132.988 293.673C137.14 293.441 139.817 288.069 142.004 285.185C143.755 287.542 145.023 290.159 146.784 292.477C147.626 293.584 150.556 296.161 149.777 297.75ZM105.263 267.929C103.989 270.854 101.427 273.636 99.6455 276.285C98.6381 274.152 97.9295 269.254 100.319 267.676C101.223 267.08 106.068 266.08 105.263 267.929ZM131.596 276.639C131.946 275.512 132.335 274.396 132.768 273.299C133.511 275.638 133.891 275.708 131.596 276.639ZM138.096 279.034C139.017 280.597 140.553 282.134 140.312 284.097C140.129 285.584 138.786 287.109 137.826 288.145C136.239 289.859 132.721 293.15 130.42 290.874C128.498 288.972 129.167 283.743 130.061 281.603C131.338 278.545 135.899 275.311 138.096 279.034ZM133.586 275.831C134.115 275.621 133.005 272.21 134.035 271.87C134.933 273.92 135.78 274.474 133.586 275.831ZM119.078 229.921C118.736 228.663 117.951 228.715 118.234 227.159C118.419 226.139 119.229 225.05 119.843 224.241C121.066 222.63 122.68 221.302 124.426 220.296C128.11 218.174 133.17 217.293 136.469 220.615C133.385 221.102 123.93 224.148 123.87 228.369C127.3 227.708 129.997 224.261 133.437 223.175C136.26 222.283 139.322 222.345 142.131 223.287C149.819 225.864 146.622 232.513 142.283 236.831C139.707 239.396 136.618 241.31 133.241 242.631C131.678 243.242 130.719 243.309 129.183 243.002C128.896 242.944 128.559 242.411 128.215 242.296C127.357 242.012 127.606 242.975 126.9 242.542C126.284 242.166 124.97 239.733 124.551 239.036C123.884 237.928 123.573 236.85 122.754 235.838C121.935 234.826 121.536 233.469 120.778 232.553C120.414 232.111 119.416 232.129 119.148 231.699C118.746 231.053 119.258 230.582 119.078 229.921ZM107.271 279.507C109.018 276.47 112.008 273.891 114.32 271.236C114.463 275.6 111.335 278.588 107.271 279.507ZM109.632 280.911C113.241 279.64 115.229 276.6 115.597 272.915C116.064 268.247 118.994 265.797 120.757 261.603C121.433 259.996 122.222 254.707 124.843 256.221C125.743 256.74 126.276 258.693 126.745 259.575C127.878 261.709 129.167 263.778 130.37 265.874C131.349 267.58 132.816 269.296 132.385 271.35C132.008 273.141 130.796 275.049 130.086 276.737C128.41 280.726 126.208 284.4 124.368 288.301C123.626 289.875 122.747 293.601 120.481 293.582C118.687 293.566 118.887 291.604 117.706 290.932C116.216 290.083 114.52 291.698 113.296 292.368C114.706 289.985 117.171 288.636 119.943 289.085C116.624 285.779 114.382 290.24 111.535 291.233C108.836 292.175 104.049 287.735 101.777 286.476C102.647 285.004 103.432 283.203 104.927 282.234C106.344 281.314 108.084 281.456 109.632 280.911ZM80.2931 311.126C80.6882 309.222 81.8047 308.096 82.5127 306.368C83.3336 308.464 81.4115 309.7 80.2931 311.126ZM137.628 322.808C137.434 329.219 136.91 335.613 136.721 342.026C136.634 344.983 136.111 347.804 135.764 350.727C135.47 353.199 135.62 355.627 134.064 357.739C131.612 361.069 126.845 362.026 123.144 363.259C120.426 364.165 117.677 364.987 114.993 365.993C112.578 366.899 110.631 368.27 108.335 369.347C106.281 370.31 104.063 370.881 102.018 371.907C99.9037 372.968 98.2319 374.261 96.0595 375.206C93.4589 376.337 91.3159 378.35 89.003 379.947C86.9668 381.353 84.8128 382.439 83.0612 384.207C81.4189 385.867 79.3397 386.594 77.4783 388.068C75.5102 389.626 73.45 390.639 71.2758 391.861C66.8217 394.366 60.8125 398.643 55.4523 396.21C56.9854 394.251 60.1229 392.368 60.3615 389.669C60.672 386.152 57.613 387.447 55.8419 388.57C53.159 390.27 51.6749 392.323 49.6326 394.59C47.2448 397.24 44.2288 395.457 41.3073 394.712C43.3049 392.912 45.2865 391.096 47.2804 389.294C48.9638 387.773 51.5393 386.128 52.5645 384.024C53.297 382.52 53.2614 380.458 51.4933 379.677C49.5154 378.804 47.2786 380.646 45.8135 381.742C41.9245 384.653 39.3631 388.345 36.8097 392.397C35.4514 394.551 34.8256 394.386 32.3268 393.956C29.6789 393.499 27.0304 393.013 24.3605 392.693C27.8973 389.058 31.8501 385.121 34.6434 380.868C35.5483 379.491 36.7287 375.859 33.9716 375.525C32.8354 375.387 30.5734 377.712 29.6967 378.339C25.8666 381.078 22.1844 384.533 19.6457 388.532C18.8076 389.852 18.5445 391.321 16.9217 391.43C14.8002 391.574 10.8579 389.548 8.8112 388.922C12.7229 383.988 16.607 379.019 21.177 374.668C25.3758 370.67 29.5642 367.766 34.4747 364.699C39.738 361.412 44.6405 357.628 49.4724 353.745C54.0977 350.028 58.9296 346.522 63.1873 342.372C71.6917 334.081 79.2667 324.547 85.5398 314.465C87.0073 312.106 88.3889 309.686 89.5834 307.176C90.7049 304.818 91.222 301.999 92.7362 299.855C93.2595 299.114 93.9963 298.564 94.4626 297.791C94.9025 297.063 94.7534 296.183 95.4239 295.539C96.9749 294.049 99.7988 294.947 101.249 295.992C103.58 297.671 105.466 299.709 108.028 301.115C110.605 302.528 113.393 303.556 116.246 304.251C122.916 305.873 129.527 307.204 136.322 308.19C135.623 310.785 137.34 311.193 137.909 313.528C138.599 316.36 137.714 319.923 137.628 322.808ZM73.4089 279.546C71.8967 277.298 70.5476 274.948 69.061 272.685C68.1561 271.307 67.034 269.827 67.8076 268.142C69.1107 265.301 73.7077 264.796 76.2022 266.034C81.8735 268.85 76.6053 276.901 73.4089 279.546ZM58.3977 228.135C57.8756 223.742 59.5548 220.625 63.5272 218.321C66.3585 216.679 68.6383 218.923 68.2518 221.916C67.6635 226.476 62.7935 231.548 59.0769 233.927C58.8339 231.999 58.6278 230.066 58.3977 228.135ZM57.7922 215.565C58.964 214.634 62.102 215.821 63.4597 215.902C61.5928 217.535 59.7253 219.167 57.8578 220.799C57.7357 219.679 56.7112 216.423 57.7922 215.565ZM64.0929 173.133C73.5415 171.904 62.6646 182.05 59.9266 183.64C60.372 181.481 61.4665 173.476 64.0929 173.133ZM89.2466 155.371C87.9778 160.571 78.1145 166.244 78.0115 157.726C77.9734 154.553 79.755 154.809 82.3557 154.505C83.8391 154.331 89.9717 152.399 89.2466 155.371ZM55.178 163.424C54.0707 166.332 53.1829 169.315 52.0976 172.226C51.6166 173.515 51.051 174.401 50.1553 175.422C49.4056 176.276 48.5135 176.492 48.543 177.842C49.4823 177.66 50.2172 177.1 50.9761 176.56C50.7921 179.236 49.8467 182.116 49.389 184.784C48.8405 187.982 48.3841 191.182 48.2148 194.426C47.8473 201.479 47.8442 208.507 47.9988 215.565C48.0779 219.161 48.1135 222.759 48.3074 226.351C48.4043 228.138 48.5135 229.932 48.7344 231.708C48.824 232.425 49.3442 233.952 49.0227 234.624C47.7608 237.262 42.1705 230.016 39.7429 231.079C40.092 229.072 39.2864 229.511 37.941 228.524C37.2895 228.045 36.8655 227.231 36.1858 226.805C35.9803 226.583 35.7539 226.386 35.5072 226.213C35.2263 225.829 34.9299 225.87 34.6183 226.335C31.8833 224.699 31.1765 221.213 29.7084 218.867C28.9532 217.661 28.2237 217.473 28.0949 215.806C27.9832 214.353 28.2016 212.873 28.1427 211.413C28.0759 209.768 27.9795 207.953 27.5182 206.359C26.9826 204.509 26.2458 204.66 24.8108 203.674C25.2531 203.481 25.5445 203.156 25.6856 202.699C25.2274 202.781 23.8347 203.349 23.4887 202.941C22.8083 202.138 24.4139 202.031 24.8359 201.711C23.0353 200.912 23.423 200.254 24.0727 198.788C24.2568 198.374 24.4323 197.754 24.5887 197.404C24.9304 196.64 25.1267 197.124 25.2396 196.175C25.347 195.27 24.5451 193.49 24.3089 192.527C23.9126 190.909 23.6936 189.511 24.0494 187.826C24.3378 186.462 25.1132 185.227 25.1672 183.823C25.1826 183.43 24.5826 183.299 24.5746 182.919C24.5629 182.363 25.0813 182.118 25.2163 181.604C25.5605 180.29 25.4053 178.9 25.9942 177.652C26.5243 176.531 27.5949 175.082 28.3526 174.104C28.8777 173.426 30.1661 172.662 30.3072 171.768C30.4004 171.175 29.4783 171.243 29.5194 170.797C29.5753 170.192 30.082 169.996 30.2213 169.547C30.6047 168.314 30.701 167.129 31.6919 166.184C32.9397 164.995 33.4821 165.493 33.5336 163.532C33.5588 162.574 32.7937 162.427 33.2035 161.324C33.4262 160.725 34.0833 160.371 34.5035 159.946C35.7514 158.687 36.5925 157.568 37.4809 156.012C38.2668 154.637 39.5202 153.837 40.3251 152.65C41.3736 151.102 39.8061 150.335 41.9337 149.898C41.6312 148.938 41.3098 148.161 42.1055 147.348C42.6073 146.835 43.881 147.149 44.3251 146.555C44.8344 145.874 44.0816 144.259 44.8491 143.817C45.473 143.458 46.4074 144.565 47.3878 144.017C48.135 143.6 49.2632 141.293 49.0227 140.445C50.9547 141.532 50.4731 140.784 51.3976 139.388C51.605 139.076 52.2332 139.006 52.4117 138.691C52.7688 138.06 52.6872 137.416 53.2013 136.904C54.0584 136.05 55.4603 136.269 56.4032 135.659C57.1824 135.155 57.1413 134.612 57.7627 134.137C58.294 133.73 59.1664 133.652 59.683 133.232C60.6947 132.407 60.7045 131.537 61.9701 130.827C63.4689 129.986 64.7966 129.271 66.1598 128.157C67.0487 127.431 67.8923 126.143 68.9322 125.664C70.3703 125.001 71.4905 124.954 72.8973 124.009C73.9139 123.325 74.8752 122.197 75.8734 121.621C76.6262 121.187 77.1544 121.281 78.1035 121.011C79.8115 120.527 80.2274 118.917 81.6207 118.261C82.5771 117.811 83.9698 118.223 85.0201 117.987C88.2889 117.252 91.5178 115.669 94.7976 114.791C98.8013 113.721 102.833 112.784 106.868 111.838C103.16 116.865 98.4381 121.402 93.6491 125.395C92.0773 126.706 83.4631 132.681 88.106 135.233C89.9699 136.257 94.019 132.949 95.5239 132.141C98.554 130.512 101.693 129.208 104.866 127.891C109.998 125.761 116.682 121.973 122.385 122.278C118.913 126.54 114.579 129.961 110.609 133.726C106.96 137.185 101.461 140.43 103.182 146.093C98.0565 144.788 93.4528 143.246 88.1238 143.588C85.7367 143.741 83.3483 143.453 80.9722 143.788C78.3881 144.154 75.955 145.019 73.4721 145.778C71.5077 146.378 69.3371 146.426 67.5297 147.424C66.6561 147.907 65.5763 148.596 64.7917 149.195C63.7456 149.994 63.5076 150.523 62.6861 151.575C59.7554 155.33 56.9198 158.85 55.178 163.424ZM39.1472 234.491C38.987 233.841 38.8416 233.248 38.6582 232.506C40.2895 233.511 40.2895 233.511 39.1472 234.491ZM26.8188 213.793C26.6176 214.071 25.7728 214.16 25.5274 213.92C25.2218 213.621 26.0249 212.459 26.1537 212.212C26.4722 212.457 27.2047 213.257 26.8188 213.793ZM23.3261 206.26C23.5421 205.466 23.7586 204.673 23.9746 203.879C24.2396 204.615 25.4353 205.428 25.4617 206.129C25.4783 206.593 23.5623 206.362 23.3261 206.26ZM24.0194 207.348C25.8912 208.581 26.0869 210.036 26.1427 212.164C23.9028 211.422 24.2243 209.252 24.0194 207.348ZM56.5707 123.37C56.3817 123.882 55.5799 125.476 54.9921 124.361C54.8044 124.004 56.1799 123.517 56.5707 123.37ZM56.0333 121.633C56.4958 121.215 57.4284 121.735 57.9517 121.397C58.3186 121.161 58.1971 120.921 58.3695 120.781C58.4038 120.753 58.9026 119.743 59.1069 119.514C59.4677 119.111 60.2548 118.859 60.6934 118.496C61.9192 117.479 62.6113 116.142 63.3824 114.783C64.3027 113.159 64.5959 112.971 66.08 112.228C67.1033 111.715 67.8966 111.088 68.7291 110.217C69.6886 109.214 69.6181 108.496 70.4058 107.399C70.7948 106.858 71.3549 106.791 71.8083 106.355C72.3519 105.833 72.628 105.102 73.1304 104.575C73.3476 104.347 74.0445 104.348 74.1758 104.152C74.3433 103.905 74.474 102.918 74.631 102.736C74.931 103.141 75.2317 103.547 75.5311 103.952C76.7139 101.871 77.5771 100.151 79.555 98.766C81.6324 97.3113 83.4256 95.1833 85.5729 93.8809C86.0551 93.5885 87.0386 93.465 87.4073 93.0337C88.0306 92.3039 87.4907 91.6546 87.9453 91.0347C88.4613 90.3319 89.4607 90.9008 90.1165 90.5979C90.9466 90.2146 91.184 89.0947 92.2527 89.2181C88.7386 93.3777 88.7828 99.8497 88.5962 105.045C88.5153 107.284 89.9245 108.412 87.8441 110.055C86.0747 111.453 83.5796 111.038 81.4876 111.957C78.8605 113.112 76.0507 113.727 73.3703 114.734C70.5979 115.774 68.3684 117.597 65.7003 118.803C63.3475 119.866 61.7407 121.377 59.5885 122.689C58.7885 123.177 57.5492 123.885 56.5952 123.302C55.9977 122.937 55.2535 122.337 56.0333 121.633ZM95.7215 86.7553C95.8743 86.1643 98.8737 84.6113 99.6117 84.1045C100.719 83.3427 102.358 81.4825 103.595 82.2215C104.023 80.5051 105.694 78.5952 107.171 78.2315C108.809 77.8273 111.619 76.4217 113.231 75.1949C113.701 74.8367 113.857 74.3127 114.411 73.9767C115.375 73.3912 116.332 73.7107 117.261 72.9126C117.403 72.791 118.689 70.6673 118.74 70.6875C118.805 70.9155 118.865 71.1458 118.917 71.3774C119.893 70.8362 120.762 70.4056 121.37 69.7151C121.508 69.5584 120.614 69.1511 120.896 68.8409C121.241 68.4612 122.013 68.8857 122.362 68.5251C121.276 73.9189 122.084 80.8614 127.553 83.5958C121.049 84.2992 114.697 82.3426 108.113 83.5442C104.961 84.1198 101.758 85.064 98.8908 86.5145C97.1344 87.4034 94.8884 90.5869 93.1399 89.0412C93.8337 88.1154 94.892 87.5404 95.7215 86.7553ZM127.279 71.238C129.711 68.2616 133.4 67.0839 137.115 68.1498C141.465 69.3981 139.631 72.439 138.974 75.8153C137.718 73.9742 134.999 72.1478 132.684 72.0925C129.402 72.0145 130.642 74.7507 132.613 75.7312C134.405 76.622 137.478 76.8701 138.761 78.4901C140.01 80.0665 139.531 82.6442 139.732 84.5032C138.762 84.3588 137.791 84.2144 136.82 84.0701C137.635 79.7317 134.05 79.5216 130.707 78.2985C127.328 77.063 124.511 74.6254 127.279 71.238ZM138.173 60.5548V64.5811C136.821 63.8095 135.468 63.0385 134.115 62.2669C135.468 61.6962 136.821 61.1255 138.173 60.5548ZM149.044 92.7266C153.56 93.9509 158.045 95.2465 162.386 96.9359C163.963 97.5497 165.69 97.7665 167.235 98.4595C168.706 99.1186 168.927 99.0498 168.403 100.34C166.938 103.954 163.465 103.33 160.423 102.777C155.661 101.911 150.998 100.712 146.295 99.5825C141.699 98.4797 137.005 97.7567 132.478 96.3744C127.833 94.9566 123.306 93.6136 118.527 92.6774C117.133 92.404 106.101 91.3916 106.185 90.2379C113.133 89.3349 120.286 90.2244 127.264 90.3184C134.517 90.4161 142.01 90.8185 149.044 92.7266ZM142.914 78.7463C143.001 76.2613 143.035 73.7684 143.344 71.2982C145.41 73.8507 147.276 74.6149 149.882 72.2221C152.376 69.9319 152.933 68.7377 156.095 70.8909C158.837 72.7584 161.431 72.6724 164.343 71.0377C166.119 70.0407 168.973 65.9664 170.84 66.805C171.729 67.2049 172.381 68.8163 173.28 69.4091C174.407 70.1518 176.14 70.6673 177.453 70.9554C180.556 71.6355 182.404 69.6389 184.351 67.5035C187.175 64.4067 187.093 66.2054 189.711 68.3525C192.631 70.7477 195.073 69.5775 197.717 67.5336C199.328 72.2559 199.931 77.4132 200.386 82.3641C200.539 84.0357 201.113 86.4094 199.612 87.5914C198.555 88.425 196.31 88.4576 195.036 88.9183C190.483 90.5654 186.109 92.9016 182.302 95.8928C180.818 97.0582 179.525 98.4853 177.498 98.2199C175.566 97.9668 173.689 96.3486 172.135 95.2803C170.449 94.1217 168.743 92.8058 166.772 92.1601C165.618 91.7817 163.77 91.9187 162.76 91.2252C160.882 89.9357 163.092 86.5532 162.624 84.2826C162.27 82.5588 161.279 78.9644 158.906 79.975C155.374 81.4782 157.43 87.3469 159.371 89.1788C155.399 88.473 151.001 87.4421 147.169 86.1324C144.21 85.1206 142.808 81.7774 142.914 78.7463ZM209.539 90.8498C217.694 88.559 225.324 87.0139 233.811 86.5968C237.567 86.4119 241.204 86.5286 244.919 86.5624C247.058 86.5821 248.687 84.8564 246.979 82.8715C244.614 80.123 237.402 81.1692 234.206 81.0457C225.64 80.7146 217.786 81.6889 209.674 84.5142C210.532 82.9329 212.592 82.7278 214.005 81.9101C215.738 80.9063 216.916 79.2531 217.656 77.4181C219.582 72.646 217.643 68.1491 215.629 63.7899C219.586 64.8551 223.68 67.1877 227.659 67.7799C228.493 67.904 229.028 67.8242 229.766 68.1283C230.219 68.3144 230.362 68.9588 230.923 69.0995C231.194 69.1677 231.846 68.5546 232.153 68.6412C233.364 68.984 232.406 69.0749 233.172 69.5713C233.78 69.9651 233.731 70.4719 234.847 70.2858C235.341 70.2041 235.877 69.4386 236.138 69.4177C236.47 69.3907 236.393 68.9865 236.901 69.1044C237.825 69.3194 237.743 70.5106 238.051 71.0967C238.38 71.7208 237.913 72.5508 238.91 72.8924C239.656 73.1479 239.843 72.3604 240.477 72.4169C240.861 72.4513 241.66 73.006 242 73.3439C243.095 74.4325 244.594 75.6347 246.067 76.343C245.922 76.1975 246.761 75.8467 246.56 75.7644C246.425 75.7097 247.306 75.9222 247.293 75.9192C248.143 76.1127 248.592 77.4187 249.022 77.8948C249.812 78.7678 251.039 79.6893 252.147 80.0745C254.061 80.741 254.003 79.9442 254.702 82.2209C256.063 80.0794 256.585 83.6658 258.274 84.0609C259.148 84.2654 259.046 83.8907 259.841 84.3484C260.386 84.6623 260.75 85.6237 261.161 86.0875C261.338 85.4185 261.514 84.7489 261.69 84.0805C262.906 86.3855 265.53 90.0407 268.409 89.3797C268.409 90.0088 268.15 90.7607 268.637 91.2976C268.976 91.673 269.527 91.2466 269.793 91.4647C270.025 91.6552 270.58 92.4133 270.758 92.538C271.108 92.7837 271.745 92.9631 272.049 93.2082C272.317 93.4238 272.449 94.454 272.747 94.8263C273.306 95.5261 274.272 95.6649 274.729 96.5041C274.834 95.6766 274.938 94.8484 275.042 94.021C275.948 94.7219 276.026 95.2662 276.249 96.2915C276.566 97.7518 276.145 97.4096 277.152 98.0257C278.141 98.6321 278.657 98.5639 279.564 99.6156C280.453 100.646 280.461 101.282 281.743 100.208C281.982 101.002 282.059 102.03 282.696 102.639C283.177 103.099 285.169 103.119 285.359 104.205C281.616 101.046 284.079 105.844 285.361 104.213C285.631 105.959 286.909 106.523 288.367 107.767C289.727 108.925 289.95 108.841 290.414 110.788C290.404 110.745 291.098 111.175 291.148 111.261C289.823 111.451 291.877 112.932 292.225 113.203C292.478 113.401 292.808 112.929 293.229 113.249C293.71 113.615 294.102 114.447 294.495 114.949C295.556 116.31 296.342 117.479 297.46 118.585C298.666 119.78 299.253 121.289 300.411 122.685C301.696 124.235 302.391 126.017 303.465 127.7C304.487 129.3 305.843 130.585 307.026 132.05C308.911 134.382 309.552 139.517 313.067 139.653C312.861 139.866 313.147 141.458 313.181 141.751C313.348 143.197 313.237 144.588 314.092 145.897C314.287 144.403 315.068 144.979 315.747 145.763C316.875 147.069 315.884 146.74 315.944 148.063C316.016 149.666 316.198 148.426 316.809 149.826C317.287 150.922 317.549 151.634 317.805 152.851C315.82 153.008 314.911 151.385 314.177 149.812C313.87 149.154 313.764 148.073 313.221 147.559C312.643 147.012 311.849 146.969 311.255 146.358C310.116 145.185 309.622 143.355 308.278 142.213C306.76 140.923 306.424 140.314 305.169 138.771C303.782 137.065 301.865 135.867 300.409 134.217C298.951 132.564 299.069 133.466 297.237 132.868C295.29 132.231 292.14 126.103 289.686 128.463C289.783 126.919 287.472 125.467 286.304 124.908C285.799 124.666 285.211 124.885 284.705 124.522C284.158 124.129 284.118 123.371 283.566 122.899C283.566 122.9 282.718 123.105 282.547 123.018C282.196 122.841 282.194 122.213 281.885 122.007C281.029 121.435 280.01 120.835 279.102 120.348C276.896 119.164 274.946 117.706 272.818 116.281C270.994 115.06 268.787 112.854 266.679 112.211C264.838 111.648 263.68 111.935 262.173 110.809C261.351 110.196 261.593 109.99 260.273 109.608C259.017 109.245 258.311 109.432 257.646 108.099C256.481 105.766 257.216 101.214 256.991 98.5977C256.752 95.8215 256.468 92.9766 255.744 90.2772C254.889 87.087 253.758 85.4191 250.338 86.1705C243.561 87.6608 236.867 89.0787 230.059 90.3872C216.494 92.9944 203.162 97.2492 189.895 101.027C188.885 101.315 183.247 102.606 184.399 99.6894C184.929 98.344 188.497 97.8427 189.692 97.42C196.249 95.0979 202.836 92.7321 209.539 90.8498ZM207.26 84.9129C206.269 85.2907 205.279 85.6685 204.288 86.047V83.2905C205.279 83.8311 206.269 84.3717 207.26 84.9129ZM203.142 70.338C204.003 71.042 205.754 69.3477 206.485 69.0043C207.736 68.4182 209.328 67.9151 210.725 68.0355C213.301 68.2585 215.185 70.7963 214.713 73.3691C213.914 77.7222 207.716 79.7808 204.298 81.4825C204.188 79.9399 203.689 78.0853 204.77 76.751C205.709 75.5923 207.529 75.6765 208.395 74.4442C210.575 71.3467 204.668 71.066 203.347 73.5288C202.826 71.9549 202.306 70.381 201.785 68.8071C203.042 68.5988 202.49 69.8048 203.142 70.338ZM209.239 61.8173C208.009 62.6128 206.779 63.4084 205.55 64.2039C204.94 61.4499 207.018 61.0874 209.239 61.8173ZM321.311 157.672C319.7 158.441 319.298 156.604 318.14 156.525C319.508 155.684 319.508 155.684 321.311 157.672ZM327.862 197.778C328.062 200.418 327.905 203.088 328.257 205.717C328.524 207.718 329.334 209.579 329.421 211.602C329.61 216.033 328.115 220.544 325.095 223.792C322.238 226.864 318.151 229.509 314.295 230.8C312.558 231.382 310.744 232.671 309.057 233.148C307.19 233.676 305.416 232.527 303.876 234.587C302.849 225.754 303.6 216.524 303.519 207.635C303.438 198.728 303.533 189.817 302.027 181.005C300.686 173.157 298.042 164.33 293.168 157.909C291.188 155.302 288.751 153.167 286.18 151.168C284.847 150.131 283.512 149.022 282.027 148.203C279.74 146.942 277.793 147.117 275.307 146.757C271.748 146.243 268.44 145.809 264.868 146.811C261.543 147.745 257.881 148.809 254.902 150.43C251.935 152.047 248.49 152.713 245.41 154.16C243.315 155.145 238.963 158.434 236.638 157.842C234.388 157.268 231.057 153.447 229.62 151.736C227.784 149.548 226.265 147.013 224.636 144.659C224.064 143.833 222.898 142.556 222.749 141.495C222.491 139.653 223.229 140.255 224.987 140.461C229.508 140.992 233.761 141.831 238.094 143.255C240.25 143.963 244.467 146.83 246.623 145.112C249.916 142.49 244.913 137.982 243.08 136.468C239.958 133.888 236.328 131.972 233 129.679C229.464 127.243 224.789 124.649 222.513 120.897C229.158 122.86 235.796 125.108 242.247 127.638C245.199 128.796 248.116 130.019 250.888 131.558C252.445 132.423 255.591 134.761 257.466 133.641C261.542 131.206 252.18 124.136 250.83 122.691C248.731 120.446 246.674 118.222 244.368 116.185C242.811 114.81 240.366 113.844 239.643 111.817C242.226 112.752 244.314 114.585 246.733 115.83C247.999 116.483 249.155 116.858 250.553 117.058C252.044 117.271 252.222 117.509 253.397 118.102C254.312 118.565 255.252 119.183 256.279 119.497C257.011 119.721 258.289 119.76 258.929 120.175C259.256 120.642 259.593 121.101 259.943 121.552C260.333 121.667 260.717 121.799 261.095 121.95C261.663 122.456 261.999 123.154 262.551 123.676C266.557 127.466 271.916 130.179 276.407 133.355C280.656 136.359 285.166 139.076 289.247 142.355C293.943 146.129 298.817 150.185 302.812 154.71C305.07 157.267 306.925 160.167 308.822 162.995C310.195 165.042 312.192 166.741 313.378 168.852C315.966 173.455 318.114 178.431 320.899 182.96C323.738 187.575 327.435 192.16 327.862 197.778ZM289.686 224.486C290.46 221.292 294.826 217.562 297.616 216.153C296.21 219.634 292.463 222.008 289.686 224.486ZM296.885 235.63C294.506 240.571 284.041 241.136 285.461 233.825C286.156 230.243 289.109 228.045 291.644 225.7C292.815 224.617 295.685 220.742 297.499 221.366C297.414 224.152 297.25 226.95 297.256 229.737C297.26 231.597 297.728 233.882 296.885 235.63ZM293.861 178.688C294.826 180.858 295.788 182.665 293.997 184.606C293.189 185.482 290.555 187.399 289.363 186.973C285.538 185.608 292.831 179.664 293.861 178.688ZM270.725 159.382C271.646 159.332 272.541 159.469 273.451 159.413C274.358 159.357 274.454 159.196 275.294 159.311C275.383 159.439 275.472 159.569 275.561 159.698C275.675 160.563 276.13 160.657 276.923 159.98C278.027 160.226 278.745 160.39 279.8 160.986C276.952 163.041 273.485 165.43 269.993 166.12C264.474 167.21 265.998 159.643 270.725 159.382ZM186.113 205.593C185.541 206.745 183.895 203.867 183.488 203.331C184.247 203.328 186.692 204.431 186.113 205.593ZM230.46 175.271C234.748 172.767 239.841 170.569 244.447 168.705C245.256 172.609 241.307 177.649 238.874 180.32C236.907 182.48 234.535 184.721 231.869 185.964C228.985 187.309 225.834 186.718 225.973 182.946C226.025 181.568 226.338 179.35 226.899 178.09C227.623 176.466 228.989 176.128 230.46 175.271ZM172.494 104.257C173.132 104.219 180.065 103.322 180.029 104.186C179.919 106.78 173.19 104.743 172.494 104.257ZM123.467 154.349C127.129 149.828 133.04 144.949 133.127 138.63C133.254 129.333 122.942 133.972 117.757 134.358C120.499 131.663 134.275 120.357 126.127 116.341C123.784 115.186 120.456 116.314 118.105 116.919C113.935 117.992 110.058 119.85 105.961 121.144C108.889 118.026 113.946 114.482 113.781 109.761C113.578 104.013 108.863 105.403 104.785 106.246C103.219 106.57 96.219 109.356 94.9043 107.465C94.4227 106.772 95.2018 105.892 95.3669 105.275C95.6583 104.183 95.5681 103.802 95.5779 102.687C95.5982 100.438 97.0921 97.549 95.8736 95.4566C95.5951 95.9321 95.3565 96.4267 95.1583 96.9408C94.7564 95.7233 95.0264 94.4319 94.6245 93.2143C104.804 95.8191 115.159 97.2449 125.402 99.4682C130.588 100.594 135.468 102.532 140.725 103.404C146.026 104.283 151.235 105.629 156.546 106.468C161.392 107.233 166.035 108.506 170.833 109.483C175.511 110.435 180.309 108.348 184.875 107.292C195.101 104.925 205.324 102.501 215.564 100.205C227.381 97.5539 239.673 95.2877 250.984 90.867C251.203 96.759 251.674 102.64 252.393 108.491C247.398 106.129 239.985 103.048 234.936 107.276C232.915 108.967 232.292 111.887 233.091 114.371C233.96 117.075 236.623 118.331 238.38 120.366C233.032 118.994 219.237 109.323 216.781 119.098C215.046 126.003 223.507 130.463 227.643 134.349C223.535 133.544 218.034 130.258 215.622 135.54C213.537 140.105 216.048 145.073 218.62 148.839C220.014 150.879 221.581 152.8 223.063 154.777C223.846 155.822 224.611 156.883 225.435 157.898C226.261 158.915 227.818 159.981 228.397 161.077C229.562 163.286 227.211 163.421 225.383 164.219C223.1 165.215 221.14 166.889 219.052 168.223C214.271 171.276 210.093 174.113 204.444 175.089C198.628 176.093 193.028 177.143 187.289 178.544C181.567 179.941 176.897 181.283 171.048 179.478C168.382 178.654 166.21 177.923 163.382 178.078C160.411 178.24 158.674 178.086 156.232 176.245C145.722 168.325 134.314 161.826 123.467 154.349ZM104.519 146.398C108.581 144.359 112.67 142.31 116.866 140.558C120.339 139.106 125.613 137.416 129.415 138.052C128.343 140.807 126.387 143.067 124.289 145.096C122.434 146.889 120.116 149.597 117.871 150.849C115.833 151.985 113.461 150.185 111.451 149.431C109.241 148.603 106.201 148.216 104.519 146.398ZM105.54 156.685C107.564 155.844 111.914 158.668 113.755 159.402C117.373 160.846 121.011 162.353 124.2 164.631C120.306 169.132 115.897 173.248 110.658 176.14C107.211 178.043 101.401 180.225 98.1491 176.77C94.0638 172.429 98.9749 163.584 101.867 159.865C101.963 160.501 102.059 161.137 102.155 161.773C103.078 160.295 103.782 157.417 105.54 156.685ZM179.851 195.216C177.326 195.748 176.467 195.268 174.8 193.33C173.673 192.02 172.566 190.66 171.295 189.483C169.998 188.281 166.796 185.383 170.876 187.052C174.595 188.572 177.781 189.333 181.873 188.737C186.552 188.056 190.914 186.077 195.527 185.075C192.998 187.289 190.488 189.525 187.954 191.733C185.277 194.066 183.252 194.499 179.851 195.216ZM180.428 213.023C174.894 217.19 163.753 216.739 167.503 207.571C168.073 206.178 168.87 204.868 169.792 203.682C170.099 203.285 170.646 202.465 171.084 202.199C172.308 201.456 171.969 201.366 173.146 202.605C174.161 203.673 182.096 212.402 180.428 213.023ZM178.788 197.092C179.294 196.928 181.431 195.689 181.917 196.374C182.41 197.068 178.222 199.47 178.788 197.092ZM219.075 260.643C217.831 263.622 207.873 267.934 209.728 261.929C210.549 259.269 211.324 257.255 214.424 257.053C216.213 256.937 220.171 258.02 219.075 260.643ZM236.939 220.273C238.578 217.885 243.991 214.655 246.303 218.217C247.417 219.933 244.714 220.812 243.08 220.371C242.202 220.133 241.485 219.609 240.531 219.569C239.304 219.519 238.105 220.482 236.939 220.273ZM241.285 222.644C240.17 223.773 233.447 229.434 232.358 228.561C234.553 225.42 237.074 221.913 241.285 222.644ZM230.304 279.925C227.97 280.057 229.135 276.537 229.361 275.129C229.926 276.11 232.898 279.778 230.304 279.925ZM236.236 273.615C235.481 272.271 233.446 270.269 233.906 268.539C234.258 267.217 237.434 265.438 238.764 266.197C240.531 267.206 237.97 273.838 236.236 273.615ZM291.633 259.515C290.634 262.958 289.599 262.07 286.467 262.737C283.326 263.406 281.154 266.075 278.388 267.507C279.349 265.474 279.945 262.998 281.553 261.349C281.925 260.968 284.205 260.216 282.906 259.334C281.77 258.563 280.138 261.065 279.651 261.747C277.255 265.103 275.58 269.202 274.196 273.063C273.516 274.96 272.971 276.892 272.649 278.883C272.362 280.658 272.672 282.515 272.379 284.244C271.908 287.028 268.129 287.042 265.855 287.76C263.798 288.41 261.749 289.114 259.614 289.464C257.762 289.768 255.841 289.215 254.046 289.58C252.103 289.975 251.23 291.129 249.022 290.868C247.221 290.656 245.536 289.827 243.711 289.744C242.003 289.667 240.299 290.258 238.602 289.777C236.888 289.291 236.971 289.103 237.361 287.419C237.604 287.873 237.848 288.328 238.093 288.782C238.775 288.246 239.248 286.613 239.666 285.845C240.315 284.657 240.844 284.246 240.604 282.766C240.249 280.581 238.28 279.026 237.833 276.947C237.367 274.778 238.97 273.004 239.917 271.193C241.212 268.714 241.195 266.876 240.11 264.313C240.928 264.529 241.747 264.745 242.566 264.962C241.444 262.525 237.639 263.513 235.731 264.235C234.772 264.597 233.252 266.023 232.22 265.987C230.802 265.937 230.063 264.072 229.454 263.045C227.691 260.073 225.678 257.139 223.592 254.38C223.018 253.621 222.267 253.133 222.465 252.268C222.633 251.535 224.278 250.494 224.811 250.042C226.812 248.349 229.358 247.411 231.237 245.63C234.077 242.938 237.352 241.009 240.255 238.37C243.28 235.62 246.397 233.096 249.549 230.498C252.742 227.866 255.508 224.766 258.677 222.108C259.498 223.597 261.089 228.929 262.909 229.341C265.03 229.822 264.967 227.31 264.862 225.799C264.711 223.645 263.516 221.553 263.383 219.497C263.24 217.299 265.354 216.316 266.95 215.044C269.414 213.08 274.869 208.605 271.937 204.922C269.411 201.75 261.198 207.832 258.934 209.661C257.01 211.215 255.523 212.621 253.357 213.847C251.834 214.708 249.279 218.022 247.473 217.716C245.325 217.352 244.486 215.005 241.859 215.083C239.291 215.158 237.11 217.008 235.518 218.866C231.919 223.065 230.682 228.683 227.402 233.061C225.785 235.219 223.688 237 221.933 239.042C220.007 241.283 219.598 243.865 217.698 246.059C212.263 238.813 206.341 231.953 200.609 224.945C197.746 221.446 194.943 217.905 192.142 214.357C191.092 213.027 189.908 211.779 188.947 210.382C187.63 208.469 187.867 206.933 187.35 204.799C187.121 203.854 186.048 202.721 186.335 201.817C186.721 200.603 189.435 199.649 190.413 199.153C194.409 197.123 198.034 194.586 201.76 192.107C208.66 187.516 215.64 183.211 222.978 179.29C222.851 180.979 221.753 182.73 222.491 184.425C222.834 183.45 223.378 179.106 224.68 178.919C224.43 178.955 224.635 184.49 224.837 185.28C225.437 187.638 227.18 189.251 229.673 189.235C234.421 189.204 238.677 184.037 241.312 180.613C243.096 178.295 244.81 175.599 245.439 172.699C246.004 170.094 245.382 168.282 248.088 166.96C253.641 164.246 259.238 162.035 265.177 160.596C264.911 163.157 264.169 166.309 266.495 168.151C269.062 170.183 272.422 168.372 274.839 167.027C277.234 165.695 280.926 162.036 283.738 163.099C286.504 164.145 288.429 167.616 289.978 169.921C291.342 171.952 292.828 173.417 291.247 175.682C289.476 178.22 288.323 180.696 286.904 183.453C286.359 184.513 285.839 185.204 286.224 186.289C286.349 186.642 287.771 188.74 288.157 189.04C290.621 190.959 293.948 187.31 295.707 185.924C296.327 191.89 296.466 197.828 296.716 203.812C296.899 208.194 298.595 212.509 295.001 215.713C291.407 218.915 288.408 222.203 286.218 226.539C285.048 228.856 283.999 231.234 282.733 233.502C281.888 235.018 280.104 237.24 281.196 239.024C282.347 237.931 282.69 236.269 283.65 235.036C284.224 237.594 284.803 240.433 287.508 241.517C290.62 242.765 293.714 240.606 296.47 239.405C295.482 246.245 293.554 252.892 291.633 259.515ZM288.451 267.378C286.315 271.946 284.386 277.453 280.442 280.817C279.575 281.555 275.896 284.438 274.495 283.955C273.307 283.545 273.961 281.142 274.168 280.112C275.219 274.885 277.037 271.596 281.273 268.261C283.026 266.881 285.277 265.116 287.538 264.776C289.972 264.409 289.271 265.623 288.451 267.378ZM348.699 375.798C343.161 368.263 335.334 362.407 327.937 356.747C324.587 354.183 320.895 352.26 317.51 349.695C313.682 346.795 309.795 343.998 305.509 341.813C297.381 337.67 288.515 334.781 280.845 329.881C277.104 327.491 273.012 325.182 269.495 322.499C267.951 321.32 266.586 319.814 265.19 318.464C263.894 317.209 261.109 315.389 260.593 313.553C262.751 313.2 263.979 311.104 265.905 310.89C266.54 310.82 270.516 311.872 269.972 309.943C271.414 309.906 271.583 309.885 272.791 309.569C273.292 309.438 273.885 309.643 274.391 309.463C275.165 309.19 275.692 308.4 276.475 308.097C277.03 307.882 279.095 308.122 279.408 307.854C280.262 307.124 279.354 307.188 278.845 306.276C280.505 306.234 281.646 307.074 283.311 306.181C283.818 305.909 284.247 305.282 284.738 304.958C285.609 304.382 285.924 305.275 286.521 304.079C287.079 305.729 287.064 305.272 288.41 304.787C289.75 304.304 290.718 303.955 292.245 303.834C295.893 303.545 299.553 303.988 303.184 303.729C304.512 303.633 305.647 303.332 306.967 303.506C308.129 303.659 307.779 304.467 308.745 303.378C308.97 303.125 308.244 302.432 308.592 302.068C308.745 301.907 309.245 302.02 309.435 301.938C311.132 301.196 311.139 302.232 311.441 303.582C312.436 303.348 313.452 303.137 314.317 302.553C313.88 302.163 313.149 301.732 313.571 301.019C315.006 301.564 315.945 301.312 315.227 302.889C316.672 303.367 316.942 302.744 318.24 302.608C319.007 302.528 320.078 303.004 320.718 302.391C321.416 301.722 320.314 300.994 321.597 300.419C321.86 300.552 322.054 300.755 322.182 301.024C322.875 301.234 322.75 301.507 321.808 301.843C324.33 303.15 323.738 301.688 324.797 300.142C325.042 299.785 326.137 298.678 326.636 299.213C327.393 300.024 325.848 300.282 326.179 301.088C326.753 302.486 328.757 300.694 329.372 299.986C329.837 299.451 330.027 298.425 330.529 298.025C331.225 297.47 332.228 298.328 333.1 298.174C337.085 297.475 340.848 292.115 337.846 288.526C337.039 287.562 336.356 287.754 335.395 287.145C334.445 286.543 333.912 285.503 333.149 284.643C331.408 282.682 329.276 281.212 326.842 280.273C321.195 278.093 315.111 276.503 309.181 275.334C306.435 274.792 303.512 273.963 300.7 273.969C299.044 273.972 296.549 275.261 295.001 274.644C291.99 273.443 296.41 267.299 297.139 265.314C299.282 259.483 300.898 253.266 301.958 247.145C302.166 245.947 302.086 244.396 302.517 243.254C303.012 241.942 303.119 242.127 304.178 242.021C306.092 241.827 308.185 242.831 310.179 242.484C312.388 242.1 314.776 242.279 317.006 241.595C318.031 241.281 318.981 240.939 319.656 240.074C319.869 239.802 319.632 239.566 319.767 239.376C319.808 239.316 320.571 238.493 320.595 238.446C320.588 238.02 320.625 237.597 320.706 237.179C321.479 237.821 321.099 239.168 322.401 239.199C322.634 237.763 322.636 237.474 323.578 236.666C323.506 236.728 324.287 236.064 324.187 236.135C324.234 235.879 324.328 235.64 324.468 235.419C324.908 235.206 325.373 235.093 325.863 235.08C326.881 234.033 326.458 233.475 326.458 232.065C327.28 232.492 328.101 232.919 328.923 233.346C329.121 229.169 331.663 226.882 333.352 223.497C334.072 222.054 334.805 220.927 334.977 219.187C335.076 218.183 334.817 217.298 335.232 216.352C335.609 215.494 336.452 215.031 336.804 214.096C337.497 212.256 336.98 209.908 337.018 207.997C337.071 205.348 337.336 202.707 337.422 200.058C337.592 194.859 337.069 189.516 336.292 184.378C335.92 181.92 335.298 179.535 334.81 177.103C334.408 175.104 333.447 173.229 333.103 171.369C332.96 170.596 333.181 169.903 332.948 169.048C332.641 167.925 332.128 166.82 331.746 165.717C330.856 163.14 329.975 160.566 328.973 158.029C327.031 153.112 324.758 148.342 322.599 143.52C320.521 138.882 318.801 134.101 316.11 129.771C313.46 125.505 310.606 121.312 307.685 117.229C304.643 112.977 300.796 109.324 297.846 105.033C292.306 96.9759 284.579 90.3368 276.495 84.8546C259.813 73.5411 241.786 62.2455 221.783 58.3666C218.768 57.7824 215.714 57.3769 212.642 57.3013C210.736 57.254 207.577 58.1761 205.772 57.5305C203.75 56.8074 203.935 54.5356 203.43 52.7535C202.779 50.4626 201.311 48.9618 199.644 47.3425C197.889 45.6377 196.296 43.6467 194.108 42.4874C191.89 41.3135 189.274 40.8742 186.817 40.5191C184.623 40.2015 181.345 40.4982 179.341 39.5417C177.516 38.67 178.417 37.7626 180.126 38.509C180.251 37.7546 180.353 37.2675 180.836 36.6845C181.078 36.3915 182.224 35.9805 182.252 35.7071C182.285 35.387 181.323 34.4754 181.186 34.0625C180.89 33.1736 181.058 31.9425 181.409 31.1082C183.132 32.641 183.632 33.3198 185.556 31.8546C186.369 31.236 186.618 30.9633 187.559 30.6512C187.814 30.5664 188.386 30.8281 188.609 30.6813C189.459 30.121 188.677 30.2531 189.082 29.5908C188.98 29.7579 189.694 27.9979 189.66 28.3659C189.747 27.4284 190.024 27.7165 189.458 26.5647C188.35 24.3113 185.529 24.2192 186.967 21.6476C187.532 20.6358 188.031 20.7365 188.19 19.2695C188.275 18.4807 188.169 17.5764 188.166 16.7741C188.159 15.1332 188.467 13.9845 186.931 13.149C185.454 12.3454 184.091 13.227 183.492 11.2341C182.864 9.14294 183.496 6.46201 181.232 5.03001C179.578 3.98381 177.189 4.87827 175.361 4.36654C173.529 3.85419 171.844 1.97864 169.984 3.41863C168.664 4.4421 167.962 6.95839 165.473 5.59765C164.35 4.98394 163.732 2.92348 163.023 1.76793C161.894 -0.0738266 160.989 -0.739144 159.252 1.05469C158.182 2.1611 155.924 4.85431 155.786 6.38583C155.634 8.07646 157.109 8.78294 155.258 9.78307C153.417 10.7783 152.384 10.0485 150.889 12.0684C149.407 14.0723 150.554 15.1793 148.837 17.0966C146.69 19.4931 145.548 20.5277 145.578 23.7566C145.599 25.9712 143.643 27.8842 144.784 29.9852C146.063 32.34 149.794 33.3192 152.057 34.2776C151.301 35.6739 150.265 36.569 151.147 38.0065C151.945 39.3083 154.203 39.5786 155.603 39.3421C156.544 39.1836 156.577 39.3261 157.319 38.6639C157.804 38.2301 157.138 37.6889 158.138 37.4487C159.201 37.1919 160.9 39.2782 161.591 39.7997C160.047 41.8043 155.808 42.179 153.565 43.1951C152.198 43.815 150.941 44.7316 149.549 45.2857C148.287 45.7882 146.75 45.6715 145.605 46.4492C143.628 47.7922 142.805 51.1194 141.593 53.0754C140.221 55.2894 138.891 56.3178 136.259 56.7773C132.976 57.3505 130.332 57.5809 127.27 59.0116C123.53 60.7588 119.844 62.6036 116.172 64.4871C110.248 67.525 104.746 70.6433 99.2448 74.3176C93.4902 78.1621 87.8926 82.1749 82.3403 86.192C76.8483 90.1648 72.2371 95.0524 67.4665 99.8571C63.61 103.741 60.226 107.933 56.3842 111.816C51.8492 116.4 48.5135 122.187 44.3086 127.05C42.0079 129.711 39.8067 132.327 38.3631 135.462C37.1931 138.003 35.1588 140.495 33.8005 143.161C32.0649 146.569 30.4225 149.923 28.474 153.218C27.6746 154.57 26.7243 155.731 25.8807 157.022C24.7997 158.675 24.8636 160.271 24.5727 162.177C24.2691 161.712 23.966 161.247 23.6623 160.782C23.112 161.985 22.4463 163.168 21.9697 164.4C21.6654 165.186 21.7132 166.302 21.4077 166.989C21.0242 167.852 20.5574 167.737 20.0794 168.456C19.5684 169.225 19.404 170.257 18.8653 171.082C16.5371 174.645 15.6413 179.166 14.445 183.232C12.8401 188.686 13.0935 194.956 13.1806 200.58C13.2732 206.52 13.5978 212.461 14.4904 218.339C15.299 223.662 17.0279 228.768 19.7347 233.435C22.093 237.502 25.3451 239.872 29.5108 241.955C31.4238 242.912 33.1992 242.616 35.2072 242.769C37.4067 242.937 38.9067 243.534 41.2337 243.008C42.3503 242.756 42.8785 241.943 43.7656 241.672C44.3147 241.504 44.6104 241.778 45.1374 241.714C45.8914 241.622 47.4595 241.253 48.2773 241.342C50.8215 241.619 50.3945 245.468 50.6449 247.433C51.0301 250.46 51.3123 253.52 51.832 256.527C52.9246 262.854 55.2836 268.763 56.6774 274.98C50.216 275.769 44.6736 276.976 38.6177 279.423C32.5422 281.877 26.3998 282.71 20.0058 283.93C14.0242 285.071 8.27071 287.204 3.48292 291.069C1.23872 292.879 -1.0926 294.998 0.555272 297.979C1.60927 299.886 3.50868 300.371 5.14858 301.479C5.47987 301.059 4.52158 300.17 4.34612 299.924C5.72466 300.207 5.68233 300.851 6.68909 301.411C7.56886 301.901 8.28911 301.884 9.25231 302.23C11.6039 303.075 12.7591 305.184 15.0837 305.776C15.815 305.962 16.7714 306.408 17.5193 306.534C18.4175 306.686 19.0899 306.293 20.0003 306.459C20.4917 306.783 21.023 307.015 21.5942 307.153C21.9684 306.98 22.3384 306.796 22.7028 306.602C24.0108 306.738 24.8188 307.561 25.8814 308.238C25.9525 307.386 25.8501 306.5 26.6562 305.944C26.9709 306.773 26.4623 307.298 27.3213 307.868C28.4096 308.591 29.8391 307.689 30.8133 307.231C31.0888 309.986 37.4619 309.823 39.4821 309.784C42.2797 309.73 45.0742 308.619 47.8964 309.239C49.3362 309.555 50.8731 309.885 52.3062 310.295C54.032 310.788 56.1185 311.23 57.8173 311.852C58.4928 312.099 59.3204 312.893 60.0394 312.839C60.6118 312.796 60.7652 311.951 61.4315 311.975C62.1855 312.003 62.4389 312.843 63.0916 313.096C64.0683 313.474 64.9665 312.756 65.8947 313.119C66.2285 313.249 66.6806 313.808 67.1076 313.991C67.7561 314.267 69.0389 314.271 69.7604 314.404C70.7831 314.594 71.6991 314.466 72.5752 314.529C73.2819 314.58 73.2666 315.056 73.6046 315.086C73.9924 315.121 74.6679 313.787 75.1887 313.592C75.9476 313.307 77.3249 313.985 78.0986 314.105C72.4924 321.708 65.7328 328.428 58.4057 334.312C50.5019 340.66 42.4086 346.999 33.933 352.567C26.2378 357.622 18.7886 361.995 12.8223 369.131C7.79156 375.148 -0.216517 381.586 1.01785 390.308C2.25161 399.022 11.7088 402.568 19.2868 404.232C28.8176 406.324 38.6287 405.482 48.1853 406.659C52.2608 407.16 56.7891 406.893 60.8916 406.465C65.7371 405.96 69.8899 402.796 74.0556 400.509C81.5483 396.393 87.9545 390.887 95.335 386.643C104.576 381.329 113.719 375.699 123.85 372.14C128.563 370.485 133.415 368.595 137.217 365.19C137.783 364.683 138.204 363.918 138.844 363.5C139.93 362.791 140.221 363.51 140.852 363.295C141.337 363.13 141.807 362.605 142.227 362.448C143.29 362.049 143.764 362.214 144.955 362.214C143.933 361.625 142.998 360.105 144.058 358.868C145.874 356.747 146.187 360.136 146.869 360.921C147.447 360.177 147.225 359.516 147.077 358.671C147.566 358.994 148.055 359.316 148.544 359.639C148.207 358.004 148.527 356.499 149.393 355.074C150.191 353.761 150.388 353.946 150.608 352.127C153.087 354.391 153.572 348.895 153.795 346.891C154.011 344.948 153.798 343.552 155.075 341.853C156.446 340.029 158.531 338.875 160.272 337.458C163.022 335.218 166.047 332.39 169.849 334.538C172.851 336.234 174.484 340.391 177.301 342.527C179.009 343.823 180.812 343.954 181.901 345.964C182.781 347.588 183.067 349.532 183.899 351.2C185.912 355.243 188.811 359.87 192.118 362.971C195.196 365.857 199.147 365.843 202.749 367.633C206.315 369.406 210.02 371.326 213.795 372.611C217.917 374.014 222.362 374.61 226.376 376.31C228.44 377.185 230.286 378.501 232.369 379.339C234.615 380.241 236.982 380.878 239.258 381.705C248.276 384.982 257.101 389.001 266.575 390.818C270.776 391.623 274.667 393.812 278.899 394.273C280.715 394.47 282.196 394.72 283.972 395.175C286.759 395.888 286.169 396.267 287.196 398.592C288.885 402.42 293.01 400.153 296.19 400.249C301.28 400.402 306.292 399.579 311.374 399.54C320.261 399.472 328.818 398.47 337.415 395.55C346.046 392.619 355.873 385.556 348.699 375.798Z" fill="black"/>
<path fill-rule="evenodd" clip-rule="evenodd" d="M245.971 76.7157C246.092 76.8375 246.378 76.9114 245.971 76.7157V76.7157Z" fill="black"/>
<path fill-rule="evenodd" clip-rule="evenodd" d="M89.4282 239.752C91.3586 237.795 99.5711 238.191 100.192 241.692C100.884 245.6 93.5456 251.502 90.8601 253.157C87.404 255.286 83.1855 255.686 83.7984 250.338C84.2618 246.3 86.6798 242.539 89.4282 239.752ZM96.2105 235.724C96.4609 236.806 94.6152 236.438 94.107 236.181C93.8674 235.689 95.96 234.637 96.2105 235.724ZM82.0482 242.89C83.6864 243.037 85.563 240.408 86.799 239.512C87.3453 240.357 83.7433 245 83.3471 246.06C82.3573 248.707 81.8068 252.052 83.1559 254.692C87.0991 262.408 97.1905 251.389 99.7144 247.54C101.48 244.849 102.703 241.511 100.209 238.873C99.3206 237.933 97.8536 237.672 97.0284 236.779C95.9425 235.605 96.7973 234.089 94.614 234.345C93.1076 234.522 91.2987 235.882 89.8341 236.374C88.0688 236.967 86.482 237.581 84.9411 238.68C84.5939 238.927 80.0246 242.708 82.0482 242.89Z" fill="black"/>
<path fill-rule="evenodd" clip-rule="evenodd" d="M197.818 245.48C196.789 250.781 191.538 256.219 186.014 256.431C180.512 256.641 178.731 250.873 179.702 246.277C180.531 242.356 183.917 235.545 188.749 236.295C192.547 236.885 198.701 240.935 197.818 245.48ZM194.315 236.619C190.827 233.919 186.007 232.669 181.964 234.812C180.639 235.514 175.347 238.613 176.957 240.711C179.128 239.027 181.003 236.691 183.824 236.131C183.349 238.319 180.64 240.288 179.685 242.419C178.569 244.908 177.958 247.758 178.141 250.493C178.467 255.363 181.726 259.146 186.772 258.476C191.392 257.864 195.431 254.321 197.636 250.338C200.578 245.019 198.92 240.184 194.315 236.619Z" fill="black"/>
<path fill-rule="evenodd" clip-rule="evenodd" d="M161.921 257.531C159.437 261.21 155.65 264.671 151.272 265.808C145.603 267.278 147.196 262.591 148.89 259.228C150.388 256.254 152.957 251.138 156.87 251.166C158.198 251.174 160.671 251.817 161.835 252.527C164.129 253.928 163.229 255.594 161.921 257.531ZM156.631 249.444C157.522 248.451 161.469 244.192 161.998 247.512C163.131 246.197 162.237 245.106 160.786 244.967C159.036 244.8 157.122 246.75 155.859 247.719C153.259 249.712 151.258 251.753 149.535 254.548C147.636 257.629 142.793 264.593 147.031 267.65C151.613 270.955 158.281 264.852 161.15 261.704C162.984 259.691 165.414 256.735 164.716 253.782C163.86 250.156 159.644 249.775 156.631 249.444Z" fill="black"/>
<path fill-rule="evenodd" clip-rule="evenodd" d="M137.083 190.145C134.519 193.072 129.312 197.336 125.021 196.834C121.107 196.376 122.635 191.98 124.02 189.853C126.1 186.657 128.888 183.655 132.916 183.48C134.654 183.405 136.908 183.44 138.254 184.758C140.093 186.557 138.437 188.6 137.083 190.145ZM136.81 182.014C133.807 180.976 132.628 180.58 129.709 182.231C127.365 183.556 125.286 185.43 123.678 187.557C121.271 190.741 118.843 197.902 125.024 198.798C131.804 199.781 147.93 185.861 136.81 182.014Z" fill="black"/>
<path fill-rule="evenodd" clip-rule="evenodd" d="M146.051 200.287C144.1 202.28 141.666 203.906 138.887 204.461C140.062 201.837 142.688 196.102 145.8 195.303C147.234 194.935 148.869 195.418 148.751 197.052C148.665 198.234 146.82 199.5 146.051 200.287ZM148.561 193.349C146.946 192.539 147.456 191.986 145.577 192.621C144.096 193.121 142.229 193.989 140.996 194.99C140.323 195.536 138.229 197.471 138.485 198.456C138.95 200.246 140.512 197.503 140.922 196.976C141.626 197.55 138.028 202.702 137.814 203.55C137.016 206.708 139.492 207.042 141.921 206.008C145.194 204.616 154.889 196.521 148.561 193.349Z" fill="black"/>
<path fill-rule="evenodd" clip-rule="evenodd" d="M196.562 278.314C196.803 276.221 197.147 274.008 199.067 272.833C200.797 271.773 202.589 271.926 202.845 274.099C203.083 276.117 201.107 279.702 199.508 280.803C197.282 282.336 196.854 280.424 196.562 278.314ZM199.421 283.077C203.991 280.402 206.872 268.132 198.448 271.571C193.661 273.525 195.421 285.419 199.421 283.077Z" fill="black"/>
<path fill-rule="evenodd" clip-rule="evenodd" d="M160.392 232.195C161.113 230.717 161.937 230.227 163.398 229.58C162.424 230.5 161.428 231.35 160.392 232.195ZM161.446 228.553C160.411 229.592 158.039 231.176 158.371 232.961C158.675 234.59 159.918 234.497 161.046 233.989C163.412 232.925 164.728 228.267 167.202 227.831C164.458 226.091 163.817 226.171 161.446 228.553Z" fill="black"/>
<path fill-rule="evenodd" clip-rule="evenodd" d="M161.81 136.05C161.941 141.01 162.057 145.97 162.167 150.93C162.205 152.673 161.789 155.158 162.312 156.828C162.543 157.564 164.631 160.752 165.372 160.959C167.964 161.681 167.038 155.179 167.056 153.578C167.119 148.177 167.039 142.769 167.018 137.368C167.006 134.584 167.791 111.244 164.182 111.358C163.56 111.378 162.028 114.047 161.797 114.581C161.072 116.262 161.339 118.752 161.356 120.543C161.405 125.71 161.673 130.884 161.81 136.05Z" fill="black"/>
<path fill-rule="evenodd" clip-rule="evenodd" d="M183.666 150.509C183.869 151.88 183.762 154.167 185.305 154.878C186.648 155.497 187.162 154.761 187.665 153.612C188.819 150.968 188.402 146.927 188.381 144.193C188.339 138.776 187.729 133.382 187.308 127.985C187.122 125.617 187.507 123.239 187.211 120.761C187.081 119.674 186.952 115.299 184.937 115.503C183.116 115.687 183.28 120.272 183.181 121.453C182.355 131.285 182.212 140.694 183.666 150.509Z" fill="black"/>
<path fill-rule="evenodd" clip-rule="evenodd" d="M269.642 263.424C268.87 267.373 256.274 281.125 253.103 273.433C251.221 268.87 255.3 263.903 258.48 261.261C260.449 259.626 262.908 258.022 265.591 258.517C267.869 258.938 270.132 260.916 269.642 263.424ZM263.138 256.34C262.248 256.551 254.812 261.775 254.744 261.707C254.098 261.058 258.788 254.063 259.271 253.451C263.247 248.41 265.886 252.227 268.373 256.189C267.844 253.823 266.386 250.387 263.952 249.386C260.878 248.123 258.48 251.242 257.002 253.484C254.911 256.653 253.759 260.094 252.597 263.67C252.044 265.376 251.412 266.922 250.475 268.46C249.549 269.977 247.929 271.65 248.168 273.57C249.484 272.838 250.184 271.405 251.013 270.224C251.937 270.599 251.62 273.55 251.807 274.302C252.28 276.189 253.569 277.666 255.562 277.991C259.278 278.596 263.289 275.156 265.773 272.82C268.391 270.359 271.209 266.984 271.187 263.196C271.162 259.237 267.272 255.361 263.138 256.34Z" fill="black"/>
<path fill-rule="evenodd" clip-rule="evenodd" d="M273.211 192.885C271.103 196.113 267.404 199.983 263.49 200.733C260.617 201.283 258.722 199.153 259.876 196.277C260.85 193.846 264.172 192.311 266.349 191.242C268.076 190.393 276.129 188.417 273.211 192.885ZM271.66 187.604C267.342 187.441 263.859 190.565 260.639 193.058C261.366 190.195 263.011 187.079 265.327 185.214C268.48 182.678 271.468 184.253 274.786 185.522C273.968 182.936 270.293 182.007 267.951 182.372C264.991 182.834 262.863 185.362 261.366 187.808C259.581 190.726 258.969 194.165 256.868 196.902C255.906 198.155 249.947 202.843 251.297 204.759C253.522 202.395 255.748 200.032 257.973 197.668C258.55 200.462 259.187 203.643 262.752 203.371C265.599 203.154 268.846 200.732 270.928 198.882C273.616 196.491 278.908 187.879 271.66 187.604Z" fill="black"/>
<path fill-rule="evenodd" clip-rule="evenodd" d="M211.167 215.17C209.338 216.011 205.311 217.155 204.288 214.626C202.867 211.115 207.439 204.954 209.616 202.615C210.954 201.175 211.862 200.43 213.729 201.362C215.218 202.106 217.408 204.22 217.979 205.846C219.207 209.335 214.029 213.853 211.167 215.17ZM215.365 198.303C216.854 198.639 217.037 200.532 215.174 199.805C213.778 199.26 213.454 197.872 215.365 198.303ZM217.235 200.969C216.678 199.271 217.81 196.608 215.071 196.485C213.518 196.416 210.674 197.995 209.319 198.637C207.441 199.526 205.673 200.884 204.692 202.797C203.783 204.568 204.432 205.035 205.817 203.565C205.986 203.68 202.684 212.201 202.656 213.055C202.527 216.956 205.287 219.526 209.164 218.834C212.727 218.198 215.938 215.283 217.899 212.341C218.891 210.851 219.706 209.146 219.78 207.322C219.895 204.524 218.03 203.399 217.235 200.969Z" fill="black"/>
<path fill-rule="evenodd" clip-rule="evenodd" d="M234.326 199.537C232.822 196.641 236.306 191.766 239.425 193.192C245.919 196.161 236.298 203.336 234.326 199.537ZM240.159 195.756C239.463 195.784 235.057 197.487 235.705 198.641C236.595 200.225 239.811 196.393 240.159 195.756Z" fill="black"/>
<path fill-rule="evenodd" clip-rule="evenodd" d="M27.1457 190.402C26.9716 189.168 24.2075 190.959 24.2237 191.754C24.6807 190.839 27.5084 192.973 27.1457 190.402Z" fill="black"/>
<path fill-rule="evenodd" clip-rule="evenodd" d="M178.313 97.1678C181.832 96.9089 177.348 79.1459 174.784 80.7168C172.004 82.4193 175.084 97.4049 178.313 97.1678Z" fill="black"/>
<path fill-rule="evenodd" clip-rule="evenodd" d="M184.885 88.8733C188.182 89.3458 187.658 81.7713 185.884 80.4157C182.611 77.9133 180.882 88.2996 184.885 88.8733Z" fill="black"/>
</svg>
