<svg width="701" height="525" viewBox="0 0 701 525" fill="none" xmlns="http://www.w3.org/2000/svg">
<path fill-rule="evenodd" clip-rule="evenodd" d="M341.383 64.7763C343.502 70.3756 345.619 75.9756 347.738 81.5749C349.096 85.1631 350.453 88.7506 351.81 92.3388C352.292 93.6109 352.56 94.9159 353.491 95.7991C355.686 97.8786 359.625 99.2021 362.262 100.665C364.029 101.645 365.797 102.625 367.564 103.606C368.475 104.112 370.495 104.747 371.134 105.586C371.836 106.511 371.504 108.21 371.504 109.489V120.532V141.339C362.377 140.199 353.248 139.06 344.121 137.921C356.282 151.932 368.442 165.943 380.603 179.955C383.6 183.408 387.238 186.731 389.471 190.749C394.223 199.301 398.869 207.914 403.566 216.496C407.939 224.484 412.313 232.472 416.686 240.46L377.344 238.788C367.158 238.355 356.695 239.006 346.881 236.123C338.79 233.747 330.701 231.371 322.611 228.995C321.534 228.679 318.183 228.321 317.42 227.457C316.706 226.646 316.721 223.586 316.519 222.55C312.701 202.951 307.84 181.354 296.695 164.483C288.704 152.39 277.922 141.802 268.048 131.256C264.194 127.14 260.273 123.073 256.556 118.832C255.603 117.746 254.228 116.513 253.598 115.194C253.192 114.342 252.623 112.717 252.876 111.961C252.986 111.633 255.526 110.455 255.89 110.222C258.465 108.569 261.017 106.882 263.574 105.203C270.761 100.485 277.941 95.7554 285.169 91.1001C290.803 87.4702 296.422 83.6216 302.366 80.5023C308.526 77.2689 315.311 74.9933 321.77 72.4387C328.297 69.8567 334.836 67.3042 341.383 64.7763Z" fill="#486F9A"/>
<path fill-rule="evenodd" clip-rule="evenodd" d="M119.861 363.906C122.995 366.855 128.702 370.813 133.214 369.013C135.48 368.109 137.415 366.125 139.479 364.845C141.904 363.341 144.183 361.837 146.239 359.832C150.34 355.832 153.446 349.988 158.29 346.856C159.917 345.804 163.095 345.578 164.225 343.897C164.731 343.143 164.778 341.999 164.685 341.128C164.482 339.251 163.467 339.362 165.163 337.983H162.528C162.478 336.967 163.494 336.883 164.251 337.014C163.899 335.403 163.54 329.098 166.481 331.955C169.03 334.432 167.755 338.541 169.56 341.224C170.942 343.278 174.61 341.615 175.105 339.355C175.328 338.34 174.208 336.754 174.074 335.759C173.781 333.552 174.769 331.643 176.202 329.972C179.347 332.064 177.564 336.395 179.357 339.144C180.978 341.632 184.59 340.471 187.059 340.033C190.019 339.508 193.366 340.04 196.198 339.342C200.475 338.288 198.878 333.274 199.301 330.038C199.755 326.571 203.263 321.76 202.209 318.263C201.077 314.508 194.457 313.697 191.293 312.785C184.062 310.703 173.748 310.302 168.372 304.471C164.096 309.233 160.657 314.685 156.172 319.269C151.328 324.221 146.154 328.792 141.504 333.943C136.664 339.303 131.668 344.561 127.004 350.077C124.969 352.483 123.182 355.076 121.077 357.425C119.205 359.512 117.232 361.433 119.861 363.906ZM334.791 271.297C332.569 270.118 332.286 270.857 332.287 273.287C332.926 272.12 333.561 271.808 334.791 271.297ZM353.63 318.538V314.254C351.488 314.198 352.805 317.862 353.63 318.538ZM354.154 324.917C354.154 323.02 354.205 321.214 353.658 319.369C353.37 321.38 352.821 323.12 354.154 324.917ZM344.944 455.225C342.976 455.409 339.944 454.056 338.29 455.597C336.59 457.181 336.726 461.791 336.324 463.931C335.658 467.467 335.069 471.015 334.508 474.568C334.141 476.898 333.686 479.264 336.324 480.155C340.222 481.472 345.791 479.593 349.854 479.422C357.88 479.085 365.903 478.616 373.935 478.453C381.721 478.296 389.524 478.42 397.274 479.229C400.775 479.594 404.199 480.239 407.664 480.823C409.491 481.131 414.385 482.42 416.034 480.883C419.138 477.988 413.978 471.231 411.759 469.322C407.64 465.781 401.782 463.227 396.617 461.689C393.856 460.866 389.255 458.558 387.081 461.14C385.412 463.12 385.479 465.763 383.088 467.264C377.549 470.741 380.79 460.768 384.251 459.54C381.927 454.108 377.497 461.777 375.66 463.62C375.006 464.275 372.88 466.437 371.956 465.35C371.265 464.536 372.646 461.622 372.902 460.829C373.291 459.624 374.274 457.792 373.992 456.486C373.479 454.122 370.159 453.478 368.171 453.281C365.087 452.976 362.062 453.952 359.012 454.278C354.337 454.779 349.625 454.786 344.944 455.225ZM375.908 232.571C381.996 233.055 388.122 232.125 394.196 232.886C399.942 233.607 405.357 235.714 410.774 237.649C402.721 218.788 392.302 201.618 379.602 185.534C373.278 177.523 366.476 169.567 359.643 161.985C356.463 158.458 353.174 155.048 349.891 151.619C346.963 148.561 344.864 143.367 341.35 141.083C338.35 139.133 333.108 140.524 329.783 140.645C326.026 140.782 321.453 141.123 317.788 139.874C315.133 138.969 314.402 136.554 317.727 136.474C321.647 136.379 325.503 136.787 329.475 136.42C339.766 135.47 349.687 133.909 360.061 134.795C362.438 134.997 365.567 136.008 367.899 135.705C369.576 135.485 368.473 136.327 369.639 134.983C370.085 134.469 370.623 133.261 370.756 132.578C371.498 128.742 369.389 123.261 368.885 119.399C368.418 115.826 368.831 111.898 367.958 108.418C367.162 105.25 364.738 104.828 361.751 104.49C353.582 103.563 345.246 103.07 337.04 102.373C318.313 100.78 298.991 98.3769 280.391 102.313C273.675 103.734 265.485 105.932 259.486 109.451C257.609 110.551 255.716 111.846 256.399 114.126C257.107 116.491 260.577 118.991 262.296 120.549C275.001 132.066 287.272 143.814 296.197 158.592C307.579 177.437 314.11 197.789 317.942 219.383C318.767 224.029 319.532 226.461 324.318 227.798C329.457 229.234 334.417 230.167 339.745 230.604C351.789 231.592 363.87 231.612 375.908 232.571ZM371.829 107.774C372.752 114.634 374.001 121.479 374.124 128.393C374.171 131.004 374.419 132.313 377.199 132.895C380.478 133.581 383.811 134.093 387.104 134.805C403 138.245 418.594 142.469 434.145 147.225C449.258 151.847 464.123 157.047 479.576 160.471C486.223 161.944 494.001 162.937 500.055 166.198C506.568 169.708 505.711 175.462 506.296 181.782C507.077 190.225 509.584 198.401 510.466 206.841C510.888 210.875 511.272 214.932 511.208 218.99C511.154 222.45 510.658 226.275 512.987 229.187C517.659 222.95 519.873 215.105 520.794 207.46C521.242 203.744 521.065 199.998 521.193 196.265C521.296 193.259 521.229 188.478 523.19 185.968C527.452 180.513 532.995 202.374 533.522 204.709C534.408 208.638 535.139 212.6 536.022 216.53C536.414 218.272 536.917 224.604 539.254 225.235C544.097 226.543 543.034 212.953 543.111 210.883C543.264 206.707 543.368 202.525 543.27 198.345C543.199 195.328 542.614 192.053 542.961 189.034C543.814 181.622 547.987 189.432 549.161 192.191C552.126 199.156 553.467 206.611 556.126 213.688C556.568 214.865 557.607 218.828 559.253 218.901C561.085 218.983 561.071 214.89 561.176 213.694C561.784 206.763 563.837 199.881 563.217 192.878C562.591 185.807 560.109 178.538 556.597 172.388C549.17 159.384 535.76 151.918 522.914 145.117C508.214 137.335 492.694 131.187 476.843 126.178C457.779 120.154 438.204 115.28 418.512 111.812C408.493 110.047 398.32 108.785 388.198 107.774C384.641 107.418 381.083 107.21 377.572 106.534C376.247 106.279 371.465 105.064 371.829 107.774ZM361.588 85.5746C366.611 85.6142 371.742 83.1827 376.635 82.1778C382.461 80.9802 388.151 79.2473 393.966 77.997C405.354 75.549 416.748 73.1619 428.125 70.66C433.064 69.5737 438.028 68.6283 442.948 67.4614C448.211 66.2132 453.898 64.8214 459.286 66.166C467.452 68.2045 470.901 77.1261 473.9 84.0885C476.018 89.0062 477.677 94.488 480.98 98.7673C482.156 100.293 483.828 102.113 485.961 101.619C489.922 100.701 489.293 95.4662 488.789 92.5725C488.057 88.3732 487.022 84.2231 486.193 80.043C485.859 78.3558 483.27 67.3138 487.892 69.0234C491.321 70.2915 493.135 78.6436 494.433 81.6268C495.397 83.8437 496.419 86.0463 497.502 88.2085C498.946 91.0926 503.067 100.729 507.63 99.4864C514.159 97.7077 507.896 80.5666 506.784 76.9538C506.173 74.9707 499.536 59.9309 505.138 61.16C507.524 61.6844 509.848 66.1093 511.064 67.9433C513.222 71.1966 515.372 74.473 517.402 77.8062C519.491 81.2345 520.557 85.1364 522.629 88.5147C523.719 90.2928 525.943 92.6621 528.114 91.016C531.5 88.4518 529.493 79.5323 528.9 76.1595C527.797 69.8889 525.058 63.4603 521.299 58.3341C515.65 50.6313 504.992 48.1424 496.03 46.646C484.461 44.7141 472.732 45.2426 461.115 46.3855C448.05 47.6714 435.184 49.0481 422.306 51.6772C409.327 54.3268 396.341 56.9553 383.562 60.4594C377.542 62.1102 371.436 63.5738 365.501 65.5118C359.192 67.5715 353.035 70.1349 346.551 71.619C348.832 77.3031 351.113 82.9872 353.394 88.672C355.577 86.5152 358.557 85.55 361.588 85.5746ZM249.782 101.238C247.782 100.145 245.572 99.63 244.843 97.2155C244.197 95.082 245.3 92.6648 245.827 90.6168C247.302 84.8828 247.69 78.9431 246.385 73.1414C245.138 75.0425 240.469 82.3549 237.629 77.9279C235.916 75.2578 240.506 71.4167 241.845 69.5395C238.906 67.728 234.707 62.8663 231.32 65.7982C229.131 67.6938 228.204 69.519 225.254 70.4405C221.673 71.5596 218.302 71.3032 214.645 70.9942C212.084 70.7782 211.468 70.4371 210.468 72.4058C209.682 73.9535 209.276 75.8689 208.818 77.5308C207.914 80.8072 205.821 87.2631 208.299 90.3324C210.47 93.021 218.895 90.7159 220.065 94.1865C220.703 96.0794 217.658 96.1471 216.494 97.0836C215.053 98.243 213.861 100.088 213.078 101.736C212.498 102.955 211.616 104.969 212.603 106.215C213.967 107.939 216.494 106.631 217.594 105.378C219.053 103.714 219.527 101.438 220.745 99.6252C222.98 96.2988 223.114 98.945 223.722 101.333C224.354 103.815 225.849 103.644 228.139 103.963C232.157 104.522 236.217 105.312 240.128 106.387C242.132 106.938 244.075 107.64 245.984 108.461C247.215 108.988 249.347 110.587 250.682 110.602C253.155 110.63 254.87 106.499 256.147 104.776C254.027 103.594 251.913 102.401 249.782 101.238ZM116.956 354.183C123.133 346.779 128.483 338.734 134.578 331.264C140.589 323.897 147.544 317.456 154.29 310.783C157.474 307.634 160.525 304.179 164.039 301.389C166.661 299.306 168.679 299.274 171.832 300.196C180.793 302.817 189.918 305.972 198.399 309.883C206.295 313.525 213.488 318.202 222.052 320.233C230.793 322.306 239.882 322.972 248.841 322.458C258.031 321.931 266.698 320.021 275.437 317.215C283.714 314.557 292.344 312.237 299.422 306.969C306.843 301.447 312.576 293.504 317.888 286.034C320.578 282.252 323.248 278.28 325.06 273.994C326.632 270.275 327.66 265.885 330.482 262.853C331.174 263.833 332.035 264.673 332.387 265.823C332.547 266.346 331.604 266.33 331.7 266.745C331.883 267.528 332.926 268.327 333.533 268.752C335.712 270.284 335.725 269.065 335.153 271.928C334.82 273.598 335.45 277.364 338.176 276.133C337.173 277.333 338.767 278.847 339.288 279.836C339.646 279.425 340.092 279.282 340.624 279.406C339.627 281.388 340.216 281.441 341.182 283.015C341.359 283.303 341.984 284.809 341.894 284.682C342.881 286.086 344.022 286.439 344.597 288.188C345.07 289.624 344.949 291.203 345.476 292.637C346.114 291.757 346.751 290.878 347.388 289.999C347.258 290.69 346.998 291.714 346.696 292.342C346.505 292.734 345.689 293.65 345.7 293.864C345.745 294.664 346.744 294.472 347.029 295.162C347.564 296.456 346.791 296.646 347.082 297.909C347.417 299.358 348.313 298.779 348.74 300.014C348.821 300.248 348.191 301.171 348.291 301.677C348.431 302.392 349.08 302.792 349.309 303.428C349.893 305.045 349.68 306.229 350.49 307.78C350.804 308.382 351.26 308.782 351.481 309.466C351.675 310.067 351.258 311.348 351.632 311.887C353.438 314.483 353.184 310.01 353.047 308.901C351.898 299.585 348.21 289.971 344.835 281.264C343.158 276.938 341.525 272.477 339.423 268.334C338.577 266.665 337.6 264.943 336.201 263.667C334.432 262.053 331.923 261.407 330.321 259.603C330.573 259.888 328.584 258.008 328.902 258.626C328.618 258.073 329.115 257.325 328.938 256.791C328.718 256.127 328.303 255.988 327.84 255.407C327.008 254.363 326.02 253.844 327.326 252.515C325.388 252.087 324.461 251.459 324.073 249.386C323.791 247.869 324.362 247.968 323.365 246.957C322.365 245.941 321.858 246.734 321.228 244.975C320.474 242.87 319.973 240.008 319.522 237.805C319.127 235.883 320.084 233.054 318.461 231.697C316.405 229.978 314.566 230.706 314.934 227.248C315.294 223.877 314.245 221.835 313.191 218.646C311.087 212.278 310.274 205.555 308.43 199.111C304.493 185.36 297.538 172.962 290.06 160.857C283.15 149.672 273.489 140.143 264.16 130.966C261.606 128.452 259.08 125.903 256.787 123.147C254.811 120.774 253.909 117.544 252.01 115.291C250.856 113.923 248.709 113.338 247.098 112.613C244.412 111.403 241.211 109.824 238.179 110.069C239.384 114.125 239.777 118.864 236.221 121.906C231.908 125.595 227.998 121.762 224.044 119.659C216.837 115.824 206.529 119.344 200.245 113.597C198.748 112.229 198.33 110.042 196.775 108.763C195.633 107.826 194.008 107.588 192.723 106.89C188.817 104.767 186.922 100.882 188.442 96.5893C189.832 92.6655 191.992 91.3045 187.185 89.3159C183.283 87.7026 181.799 85.2718 183.565 80.9439C185.249 76.8178 188.334 76.3427 191.253 73.6425C194.08 71.027 190.833 67.983 188.715 66.0197C185.983 63.487 185.461 61.2045 188.628 58.5706C191.944 55.813 196.678 55.9094 200.543 57.2731C204.915 58.8146 207.795 61.3774 209.645 65.5303C211.529 69.7583 216.198 68.5784 219.98 67.3999C223.596 66.2733 224.538 63.8425 226.912 61.225C229.553 58.3136 234.936 60.8032 238.051 62.1335C245.724 65.4079 253.348 70.5759 253.653 79.7299C253.834 85.1884 251.523 89.8279 250.32 94.9515C249.221 99.6368 256.759 99.2677 258.064 103.8C271.989 96.439 287.497 94.1865 303.062 93.6854C319.607 93.1522 336.389 92.725 352.792 95.3308C348.984 88.7068 346.974 81.443 343.661 74.6378C342.707 72.6786 342.297 72.8461 340.192 73.4381C336.15 74.5749 332.138 75.8471 328.103 77.0181C313.366 81.296 298.918 86.4503 284.668 92.0954C283.283 92.6443 280.191 94.1681 278.977 92.511C277.577 90.6004 280.817 88.2447 282.128 87.2836C287.866 83.0802 294.977 80.529 301.403 77.58C315.453 71.1344 331.01 68.0746 345.669 63.2874C377.316 52.9508 410.057 45.1004 442.945 39.9153C450.971 38.65 459.082 38.4647 467.143 37.5255C474.283 36.6935 481.436 36.7127 488.576 37.572C501.762 39.1599 517.049 42.5861 524.496 54.6392C531.22 65.5221 535.708 77.7577 533.992 90.6667C533.477 94.544 531.832 99.1357 527.041 98.1363C523.717 97.4431 521.953 94.6233 520.409 91.8712C518.078 87.7136 515.775 83.5559 513.248 79.5098C512.311 85.5766 515.717 91.5424 515.181 97.7227C514.817 101.917 512.497 108.543 507.044 107.355C499.57 105.728 496.495 94.0696 492.901 88.4765C492.719 92.7845 494.232 97.0303 493.769 101.348C493.312 105.613 489.975 109.639 485.288 109.055C480.867 108.504 477.994 103.774 476.116 100.213C473.503 95.2577 471.626 89.9448 469.074 84.9566C466.682 80.2808 463.848 74.7143 458.138 73.8359C453.041 73.0512 447.2 74.8675 442.166 75.6167C428.201 77.6948 414.518 81.2331 400.706 84.0919C385.897 87.1564 370.738 89.0179 356.385 93.963C361.432 100.822 374.638 99.3401 382.156 100.076C393.518 101.189 405.024 102.027 416.321 103.669C427.478 105.29 438.402 108.169 449.472 110.258C460.484 112.337 471.477 114.42 482.132 117.965C501.916 124.547 522.029 132.877 539.46 144.362C547.57 149.707 554.774 155.815 559.784 164.25C564.826 172.738 567.248 182.337 568.173 192.1C568.748 198.18 567.771 203.442 566.591 209.359C565.737 213.643 565.46 220.816 562.02 223.953C555.455 229.941 550.003 205.654 548.791 202.721C547.918 207.528 549.346 234.609 538.811 232.406C534.109 231.424 533.043 224.98 532.263 221.098C530.84 214.023 529.566 206.804 527.133 199.99C525.572 209.172 524.921 218.738 521.557 227.508C519.322 233.332 512.947 243.667 508.502 233.696C505.168 226.218 506.312 217.635 505.912 209.696C505.469 200.898 502.94 192.412 502.045 183.7C501.697 180.325 502.012 176.522 498.616 174.68C495.7 173.1 491.436 172.585 488.253 171.703C478.825 169.089 469.334 166.686 459.95 163.912C450.562 161.137 441.304 157.895 432.041 154.73C423.182 151.704 414.137 149.983 405.17 147.392C400.072 145.918 395.036 144.377 389.867 143.146C387.461 142.574 385.026 142.128 382.626 141.536C380.847 141.097 378.503 139.44 376.674 139.47C374.791 139.501 374.083 141.092 371.925 141.217C369.601 141.351 367.238 140.839 364.926 140.662C359.296 140.231 353.311 139.533 347.693 140.313C351.069 144.312 355.629 147.076 359.626 150.389C364.235 154.209 368.696 158.335 372.633 162.847C380.554 171.925 388.042 181.52 394.998 191.355C401.859 201.058 407.384 211.674 412.186 222.522C414.58 227.927 416.903 233.45 418.556 239.132C419.235 241.465 419.79 243.808 421.016 245.931C422.141 247.878 423.726 249.556 422.396 251.907C421.481 251.334 420.659 250.624 419.831 249.937C420.787 256.664 422.851 263.172 423.912 269.878C424.958 276.486 424.916 283.282 424.848 289.955C424.706 303.93 423.665 317.589 420.826 331.297C417.955 345.158 414.267 358.914 409.616 372.286C405.139 385.161 400.646 398.663 394.397 410.797C387.722 423.758 379.782 437.385 370.12 448.356C376.431 450.937 384.463 450.454 391.145 451.494C398.131 452.581 404.174 454.632 410.127 458.492C416.149 462.398 419.419 467.427 420.251 474.548C420.843 479.617 422.6 486.635 415.941 487.967C411.151 488.924 405.796 487.351 400.996 486.962C392.601 486.283 384.193 485.858 375.779 485.492C367.387 485.126 358.993 484.804 350.598 484.545C346.649 484.422 342.698 484.361 338.751 484.219C336.982 484.156 335.91 484.129 334.323 484.64C333.069 485.044 333.161 485.882 331.764 484.845C329.512 483.173 329.976 477.899 330.039 475.58C330.135 472.001 330.474 468.382 331.173 464.871C331.588 462.784 336.624 449.336 332.708 448.77C337.257 443.778 339.074 436.651 341.117 430.394C343.677 422.556 345.925 414.74 347.689 406.678C351.458 389.458 353.123 372.05 353.123 354.43C335.654 365.182 317.171 371.006 296.596 371.656C276.14 372.302 253.666 370.624 234.241 363.829C225.246 360.681 217.189 356.548 209.476 350.981C206.712 348.985 203.75 344.465 200.122 344.542C195.792 344.635 190.944 346.272 186.644 346.972C178.421 348.31 167.688 349.066 160.726 354.145C156.944 356.904 154.234 360.766 150.859 363.944C148.292 366.363 144.897 367.676 142.349 370.095C139.6 372.704 140.692 376.113 136.133 376.324C132.237 376.504 127.964 374.938 124.604 373.101C117.899 369.435 110.759 361.61 116.956 354.183Z" fill="black"/>
<path fill-rule="evenodd" clip-rule="evenodd" d="M181.399 179.807C171.587 186.766 160.333 191.521 150.079 197.789C147.513 199.357 139.517 202.615 139.595 205.525C139.64 207.226 142.043 209.36 143.095 210.539C144.897 212.559 146.593 214.6 148.256 216.737C155.87 226.523 163.04 236.401 171.292 245.695C172.535 247.093 176.277 253.768 177.486 250.453C178.033 248.949 177.582 247.26 179.009 245.859C179.744 245.137 182.583 244.739 181.756 243.191C181.205 243.438 180.653 243.686 180.101 243.933C180.53 242.696 180.498 241.34 181.14 240.171C181.54 239.444 182.319 239.1 182.59 238.282C182.963 237.151 182.33 235.837 182.436 234.672C182.54 233.51 183.143 232.411 183.504 231.315C185.639 224.815 186.405 218.263 187.498 211.557C188.58 204.921 190.264 198.493 190.926 191.784C191.625 184.697 192.481 177.625 193.624 170.595C191.584 170.88 190.017 173.093 188.574 174.344C186.307 176.31 183.845 178.072 181.399 179.807ZM189.091 248.417C189.559 248.05 189.926 247.599 190.19 247.064C185.381 244.685 188.283 248.744 189.091 248.417ZM192.016 243.343C194.112 243.92 195.618 244.037 197.234 243.176C197.387 243.094 197.211 242.465 197.487 242.336C197.729 242.224 198.098 242.362 198.305 242.257C199.008 241.899 200.241 242.683 200.36 241.314C197.685 240.497 195.054 238.988 192.23 238.734C188.304 238.381 188.486 242.371 192.016 243.343ZM201.2 235.455C204.06 236.122 206.416 237.682 209.455 237.275C212.308 236.894 214.786 235.416 217.037 233.714C211.407 232.123 205.504 231.836 199.88 230.296C198.049 229.795 195.642 228.474 193.669 229.006C191.476 229.598 191.338 231.649 190.681 233.515C194.19 234.146 197.726 234.644 201.2 235.455ZM219.088 227.536C221.836 228.191 224.645 229.625 226.942 227.151C227.313 226.752 227.638 227.15 227.594 225.921C227.548 224.624 226.369 223.788 225.355 223.332C222.972 222.258 219.63 222.952 217.099 222.794C213.061 222.544 208.95 221.705 204.956 221.06C202.19 220.614 199.334 219.623 196.507 219.818C194.325 219.969 191.692 221.826 194.872 223.181C197.769 224.416 202.112 224.227 205.25 224.761C209.888 225.551 214.511 226.443 219.088 227.536ZM221.772 214.627C221.594 214.808 221.416 214.989 221.238 215.17C221.268 215.163 220.185 214.288 219.898 214.262C218.505 214.141 217.104 214.237 215.709 214.159C212.494 213.977 209.254 213.418 206.096 212.802C203.525 212.301 200.905 211.436 198.257 211.653C195.965 211.84 195.725 212.309 195.575 214.517C201.425 214.517 207.451 214.394 213.201 215.631C216.944 216.436 221.069 218.832 222.944 214.512C222.554 214.55 222.163 214.589 221.772 214.627ZM218.115 205.276C216.664 206.379 212.709 204.545 210.971 204.361C209.083 204.162 207.306 203.955 205.476 203.485C203.854 203.068 198.486 200.986 197.242 202.977C195.334 206.028 203.059 206.588 204.284 206.739C209.42 207.373 214.749 207.934 219.747 209.28C219.203 207.945 218.659 206.611 218.115 205.276ZM211.069 194.913C210.694 196.324 199.078 191.127 198.867 194.904C198.704 197.802 210.359 199.245 212.455 198.991C211.964 197.657 210.658 196.462 211.069 194.913ZM207.169 186.049C206.922 183.205 206.54 183.221 204.256 182.953C202.513 182.749 200.119 181.729 200.572 184.83C200.96 187.485 207.418 188.92 207.169 186.049ZM203.017 176.262C202.468 174.735 201.231 176.791 201.205 177.567C201.135 179.634 202.704 179.187 204.215 179.187C203.794 178.221 203.394 177.245 203.017 176.262ZM183.899 164.799C184.207 164.429 185.937 164.287 186.429 164.107C187.639 163.664 187.467 162.72 189.016 163.651C189.093 163.573 188.946 162.873 189.03 162.841C189.073 162.825 190.158 162.416 190.51 162.19C191.361 161.646 192.128 161.114 192.91 160.431C193.741 159.706 194.573 158.653 195.523 158.075C195.923 157.832 196.25 157.487 196.733 157.412C197.985 157.219 197.626 158.09 198.721 158.263C199.395 158.37 199.886 157.584 200.768 157.923C201.53 158.215 201.972 159.282 202.311 159.917C203.546 162.229 204.498 164.716 205.706 167.052C211.885 178.997 218.908 190.488 224.893 202.544C227.776 208.351 230.784 214.2 232.813 220.372C234.276 224.823 237.58 231.326 234.738 235.775C232.671 239.009 228.533 240.405 225.231 241.968C220.263 244.319 215.683 247.393 210.66 249.673C204.671 252.391 198.855 255.235 193.017 258.271C190.527 259.566 188.281 261.43 185.799 262.657C184.281 263.407 181.937 262.127 181.443 263.846C179.541 261.545 176.461 263.079 174.261 261.459C172.966 260.506 172.02 258.629 170.94 257.455C169.321 255.696 167.563 254.063 165.91 252.335C159.351 245.468 153.295 238.316 147.327 230.941C141.628 223.898 134.969 217.244 130.154 209.534C128.242 206.474 127.896 203.264 129.158 199.883C130.079 197.417 132.298 193.692 135.469 195.326C134.267 193.332 138.904 191.204 140.311 190.814C140.332 190.808 140.609 192.34 141.001 192.301C140.862 192.315 142.18 188.909 142.759 188.472C144.479 187.172 146.571 185.656 148.447 184.586C150.168 183.605 151.985 183.119 153.652 182.021C155.672 180.691 157.528 179.113 159.556 177.792C161.514 176.517 163.698 175.008 165.862 174.131C167.739 173.371 169.425 173.222 171.114 171.975C173.203 170.432 175.025 169.385 177.435 168.322C179.519 167.403 182.408 166.6 183.899 164.799Z" fill="black"/>
<path fill-rule="evenodd" clip-rule="evenodd" d="M468.446 349.535C468.062 348.636 467.68 347.737 467.297 346.839C466.823 348.406 466.69 349.185 468.446 349.535ZM467.936 353.687C468.766 353.836 468.439 351.235 468.439 350.781C467.005 351.592 468.192 352.564 467.936 353.687ZM469.23 346.183C468.522 345.766 467.814 345.349 467.107 344.931C468.092 346.755 467.706 345.615 467.299 346.834C468.042 347.047 468.765 346.798 469.23 346.183ZM473.425 360.438C476.079 370.051 484.506 377.633 493.408 381.56C498.523 383.816 503.552 384.381 509.076 384.129C511.206 384.032 513.713 383.341 515.763 383.469C517.342 383.569 517.271 383.637 518.578 384.971C519.157 383.908 518.738 383.161 519.898 382.542C521.346 381.769 521.947 382.669 522.665 383.739C523.605 382.766 523.99 382.258 525.207 381.68C525.169 381.699 526.373 381.653 526.324 381.668C526.542 381.601 527.851 380.76 528.261 380.607C529.944 379.977 531.89 379.718 533.442 378.813C534.8 378.024 535.919 375.807 537.473 377.511C537.474 374.664 541.314 373.483 543.114 371.993C545.926 369.663 548.162 366.213 549.564 362.877C551.059 359.319 551.558 355.908 552.258 352.241C552.746 349.679 555.947 345.975 554.025 343.39C553.567 344.474 553.782 345.584 553.022 346.567C552.337 345.25 551.96 343.776 551.651 342.334C551.499 341.628 550.619 339.555 550.719 338.94C550.922 337.681 552.483 337.613 551.617 336.069C549.823 338.019 548.374 334.595 549.73 333.229C550.4 333.983 550.645 334.84 550.954 335.774C552.719 332.216 547.835 333.362 548.903 330.15C547.121 329.808 546.096 329.36 545.418 327.601C544.664 325.644 545.219 325.217 543.507 323.924C542.919 323.479 541.254 322.84 540.949 322.109C540.36 320.696 541.86 320.277 540.546 318.953C540.102 319.73 538.373 321.269 537.426 319.804C537.237 319.512 538.033 319.305 537.454 318.633C536.596 317.637 535.636 316.661 534.186 316.87C535.334 314.003 527.994 313.776 526.114 313.099C524.231 312.421 522.632 311.976 520.635 311.819C518.639 311.662 518.54 311.078 516.85 309.878C516.707 311.595 516.294 311.218 515.072 311.52C514.778 311.017 514.477 310.961 514.169 311.351C513.862 311.642 513.487 311.779 513.045 311.762C512.374 311.797 511.613 311.71 510.91 311.724C509.259 311.756 507.556 311.619 505.937 311.654C505.52 311.584 505.13 311.439 504.764 311.218C504.611 311.505 504.458 311.793 504.306 312.081C503.448 312.188 503.382 313.262 502.327 312.088C502.015 313.58 501.118 312.804 500.171 313.208C499.307 313.578 499.169 314.169 498.372 314.581C497.847 315.005 497.285 315.061 496.684 314.75C496.113 315.174 495.532 315.584 494.943 315.983C493.858 316.595 492.579 316.969 491.436 317.453C490.676 317.766 489.92 318.092 489.17 318.43C489.148 319.333 488.742 319.653 487.953 319.387C487.24 319.982 487.04 319.959 486.348 320.973C484.782 323.27 483.393 325.055 481.414 327.108C472.815 336.036 470.173 348.658 473.425 360.438ZM470.786 322.475C474.668 317.284 480.163 311.339 485.101 308.061C487.604 306.398 491.117 303.414 494.178 302.535C494.904 302.327 495.655 302.313 496.368 302.094C496.919 301.926 497.219 301.361 497.847 301.259C498.287 301.188 498.335 302.17 498.802 302.08C499.778 301.89 500.397 300.923 501.087 300.318C502.567 302.865 503.371 298.581 505.545 301.461C508.133 297.41 514.212 298.296 518.344 298.5C519.569 298.56 520.145 298.996 521.231 299.318C522.243 299.618 522.343 299.541 523.447 299.533C526.197 299.512 528.638 299.857 531.18 301.063C535.45 303.088 539.37 306.245 543.426 308.686C547.959 311.414 552.045 314.887 555.513 318.877C568.051 333.305 571.403 354.364 561.406 371.09C545.528 397.655 504.569 400.494 481.36 382.469C463.429 368.542 456.605 341.434 470.786 322.475Z" fill="black"/>
<path fill-rule="evenodd" clip-rule="evenodd" d="M274.253 247.719C274.699 248.781 278.861 248.423 278.952 247.172C279.087 245.301 273.479 245.874 274.253 247.719ZM269.833 247.025C267.475 247.216 263.6 248.816 261.327 247.849C257.859 246.374 261.501 244.11 263.362 243.433C265.255 242.745 268.076 243.11 269.049 241.133C269.782 239.647 267.972 235.496 270.217 236.163C272.573 236.863 271.888 242.809 275.586 240.805C277.349 239.848 276.63 234.023 279.583 236.999C280.392 237.813 280.462 239.308 281.533 239.915C282.626 240.535 283.996 239.889 285.15 239.943C288.204 240.086 289.176 242.939 286.082 244.07C284.937 244.489 280.62 245.001 283.235 246.87C284.883 248.047 288.543 245.576 289.958 247.626C291.903 250.441 286.693 250.504 285.294 251.346C282.923 252.772 284.881 256.103 284.692 258.476C284.403 262.1 282.294 261.343 281.528 258.275C280.879 255.673 281.684 251.927 277.755 252.961C271.357 254.645 281.313 262.756 276.626 264.832C273.638 266.155 273.215 259.001 272.983 257.769C272.124 253.223 269.566 254.284 265.692 254.423C261.165 254.586 260.073 251.242 264.866 250.285C266.395 249.979 268.499 250.365 269.827 249.393C270.613 248.818 271.693 246.874 269.833 247.025Z" fill="black"/>
<path fill-rule="evenodd" clip-rule="evenodd" d="M436.954 395.566C440.617 394.256 446.745 394.539 447.651 399.263C448.031 401.241 447.292 403.333 445.924 404.769C444.338 406.435 441.812 406.59 441.947 403.689C442.041 401.681 443.954 399.937 440.59 399.532C438.497 399.281 435.4 400.844 435.296 403.153C435.061 408.358 444.083 408.766 447.408 407.866C454.008 406.081 452.215 399.178 447.683 396.028C446.512 395.214 443.153 393.96 443 392.27C442.796 390.028 445.572 390.486 446.933 390.781C456.937 392.956 459.117 409.69 448.664 412.845C443.918 414.277 437.233 412.798 434.372 408.505C431.69 404.48 431.654 397.46 436.954 395.566Z" fill="black"/>
<path fill-rule="evenodd" clip-rule="evenodd" d="M569.592 277.102C572.719 278.605 575.846 280.108 578.973 281.611C580.006 279.403 581.753 273.368 584.374 272.598C588.619 271.351 585.916 277.928 585.184 279.432C584.582 280.667 583.186 282.581 583.525 284.054C583.979 286.038 586.782 286.74 588.249 287.764C591.879 290.297 591.851 295.617 586.593 293.363C583.618 292.087 579.934 288.548 577.654 292.566C576.601 294.42 574.107 304.778 571.501 298.004C569.889 293.81 577.649 289.453 573.823 285.905C572.592 284.763 571.15 284.667 569.92 284.011C566.949 282.425 568.624 279.496 569.592 277.102Z" fill="black"/>
<path fill-rule="evenodd" clip-rule="evenodd" d="M111.144 127.026C113.008 126.345 115.315 125.015 117.387 125.468C119.589 125.95 120.476 128.152 122.077 129.476C126.43 133.077 128.966 127.711 131.358 124.77C133.617 121.993 136.373 121.319 139.56 123.025C140.83 123.705 146.18 126.822 145.247 128.819C144.576 130.256 141.933 128.966 141.031 128.652C139.074 127.972 137.257 127.376 135.255 128.368C131.5 130.228 130.526 135.327 125.983 136.122C121.285 136.944 121.131 132.48 117.779 130.8C115.532 129.674 113.966 131.667 111.798 131.27C109.732 130.892 108.776 127.89 111.144 127.026Z" fill="black"/>
<path fill-rule="evenodd" clip-rule="evenodd" d="M149.069 145.016C147.408 145.376 146.323 142.158 145.283 141.342C143.558 139.989 140.567 139.717 138.811 141.078C135.38 143.736 136.563 149.474 131.678 150.97C127.313 152.307 125.256 146.566 121.582 145.136C119.445 144.305 117.1 143.761 117.933 140.778C118.509 138.716 120.206 138.186 122.05 138.978C125.219 140.339 126.295 145.881 130.053 145.98C133.941 146.082 134.362 140.486 136.031 138.048C138.576 134.333 143.807 133.435 146.779 136.988C147.677 138.06 152.233 144.332 149.069 145.016Z" fill="black"/>
<path fill-rule="evenodd" clip-rule="evenodd" d="M225.917 81.5711C223.606 83.1502 219 83.0955 216.871 81.137C214.704 79.1443 217.597 78.8381 219.361 78.8989C220.719 78.9461 223.26 79.6181 222.486 77.2768C221.8 75.1993 218.026 76.2568 217.711 73.9764C220.551 73.4678 223.68 73.651 225.781 75.8802C227.3 77.4914 228.08 80.0925 225.917 81.5711Z" fill="black"/>
</svg>
