<svg width="556" height="450" viewBox="0 0 556 450" fill="none" xmlns="http://www.w3.org/2000/svg">
<path d="M365.206 50.8383C355.615 56.5175 352.874 66.3092 351.739 70.3433C351.465 71.3225 348.255 83.3467 353.814 95.88C355.458 99.6008 357.22 103.439 361.213 105.28C363.522 106.377 365.597 106.298 373.74 105.593C377.537 105.28 381.648 104.888 386.032 104.418C389.125 100.463 394.449 92.5508 396.015 81.4275C396.289 79.3517 399.499 54.5983 386.032 48.0183C377.224 43.6708 366.615 49.9767 365.206 50.8383Z" fill="#DF701F"/>
<path d="M188.103 109.236C192.989 109.236 196.95 104.852 196.95 99.4442C196.95 94.0364 192.989 89.6525 188.103 89.6525C183.217 89.6525 179.256 94.0364 179.256 99.4442C179.256 104.852 183.217 109.236 188.103 109.236Z" fill="#DF701F" fill-opacity="0.82"/>
<path d="M388.733 266.137C392.366 266.137 395.31 263.297 395.31 259.792C395.31 256.288 392.366 253.447 388.733 253.447C385.101 253.447 382.157 256.288 382.157 259.792C382.157 263.297 385.101 266.137 388.733 266.137Z" fill="#DF701F" fill-opacity="0.82"/>
<path d="M188.181 227.833C190.884 227.833 193.075 225.641 193.075 222.937C193.075 220.233 190.884 218.041 188.181 218.041C185.479 218.041 183.288 220.233 183.288 222.937C183.288 225.641 185.479 227.833 188.181 227.833Z" fill="#DF701F" fill-opacity="0.82"/>
<path d="M179.06 105.985C183.363 105.985 186.85 102.32 186.85 97.7992C186.85 93.2782 183.363 89.6133 179.06 89.6133C174.758 89.6133 171.27 93.2782 171.27 97.7992C171.27 102.32 174.758 105.985 179.06 105.985Z" fill="#486F9A"/>
<path d="M386.933 256.111C389.592 256.111 391.748 253.866 391.748 251.097C391.748 248.329 389.592 246.084 386.933 246.084C384.273 246.084 382.117 248.329 382.117 251.097C382.117 253.866 384.273 256.111 386.933 256.111Z" fill="#486F9A"/>
<path d="M451.291 117.852C454.21 117.852 456.576 115.327 456.576 112.212C456.576 109.098 454.21 106.572 451.291 106.572C448.372 106.572 446.006 109.098 446.006 112.212C446.006 115.327 448.372 117.852 451.291 117.852Z" fill="#486F9A"/>
<path d="M336.511 152.711C335.65 151.34 334.24 152.632 333.653 153.572C332.439 155.531 331.657 157.959 332.557 160.192C333.222 161.876 334.867 163.286 336.785 163.012C338.546 162.777 339.877 161.327 339.838 159.565C339.838 159.095 339.173 158.742 338.82 159.134C336.746 161.758 334.201 165.479 336.276 168.848C337.724 171.158 341.287 171.472 342.696 168.965C342.344 168.926 341.991 168.887 341.639 168.808C341.835 169.905 342.031 171.002 342.187 172.098C342.305 172.843 343.44 172.529 343.322 171.785C343.127 170.688 342.931 169.592 342.774 168.495C342.696 167.986 341.913 167.947 341.717 168.338C341.091 169.435 339.682 169.827 338.546 169.278C337.294 168.652 336.746 167.242 336.746 165.871C336.746 163.599 338.351 161.602 339.682 159.917C339.329 159.761 339.016 159.643 338.664 159.487C338.703 160.975 337.255 162.072 335.806 161.758C334.71 161.523 334.005 160.583 333.614 159.565C333.222 158.507 333.262 157.45 333.575 156.392C333.614 156.314 335.219 152.828 335.454 153.22C335.884 153.925 336.902 153.337 336.511 152.711Z" fill="#DF701F" fill-opacity="0.82"/>
<path d="M176.672 156.236C177.533 153.886 180.391 154.904 181.291 156.549C181.605 157.097 181.761 157.724 181.839 158.351C181.996 159.526 181.879 159.996 180.861 160.701C179.765 161.797 179.491 161.367 180.078 159.408C180.352 159.291 180.665 159.173 180.939 159.056C181.683 158.86 182.544 158.899 183.288 159.134C185.167 159.761 186.107 161.758 185.833 163.599C185.754 164.069 186.224 164.539 186.694 164.265C189.238 162.816 192.605 164.422 193.192 167.281C193.349 168.025 194.484 167.712 194.327 166.968C193.584 163.364 189.317 161.484 186.107 163.286C186.381 163.521 186.694 163.717 186.968 163.952C187.477 160.505 184.854 157.293 181.213 157.842C179.96 158.037 178.081 158.821 177.925 160.309C177.807 161.523 178.943 162.424 180.078 162.542C183.445 162.855 183.366 157.959 182.27 156.001C180.782 153.337 176.672 152.672 175.498 155.962C175.263 156.627 176.398 156.941 176.672 156.236Z" fill="#DF701F" fill-opacity="0.82"/>
<path d="M382.783 303.659C385.797 305.657 388.342 308.202 390.378 311.179C390.808 311.806 391.826 311.218 391.395 310.592C389.242 307.458 386.58 304.795 383.409 302.68C382.744 302.21 382.157 303.228 382.783 303.659Z" fill="#486F9A"/>
<path d="M390.417 305.813C391.043 306.557 391.63 307.341 392.257 308.085C392.727 308.672 393.549 307.85 393.079 307.263C392.453 306.518 391.865 305.735 391.239 304.991C390.769 304.403 389.947 305.265 390.417 305.813Z" fill="#486F9A"/>
<path d="M386.815 294.847C389.516 297.353 391.748 300.212 393.47 303.463C393.823 304.129 394.841 303.542 394.488 302.876C392.727 299.547 390.417 296.57 387.637 294.024C387.089 293.476 386.267 294.338 386.815 294.847Z" fill="#486F9A"/>
<path d="M116.15 338.948C117.011 347.447 118.499 355.829 120.574 364.133C120.77 364.877 121.905 364.563 121.709 363.819C119.673 355.633 118.186 347.33 117.325 338.948C117.246 338.204 116.072 338.204 116.15 338.948Z" fill="#E8E8E8"/>
<path d="M120.809 364.524C128.521 366.522 136.546 366.522 144.258 364.524C145.002 364.328 144.689 363.193 143.945 363.388C136.429 365.347 128.638 365.347 121.122 363.388C120.417 363.193 120.104 364.328 120.809 364.524Z" fill="#E8E8E8"/>
<path d="M145.159 363.349C145.667 355.007 146.333 346.664 147.116 338.322C147.194 337.577 146.02 337.577 145.941 338.322C145.159 346.664 144.493 355.007 143.984 363.349C143.945 364.093 145.119 364.093 145.159 363.349Z" fill="#E8E8E8"/>
<path d="M116.816 339.575C126.563 341.573 136.585 341.494 146.333 339.301C147.077 339.144 146.763 338.008 146.02 338.165C136.507 340.28 126.681 340.397 117.129 338.439C116.385 338.282 116.072 339.418 116.816 339.575Z" fill="#E8E8E8"/>
<path d="M116.698 342.395C117.011 344.001 119.047 343.923 120.3 344.04C123.471 344.314 126.681 344.392 129.852 344.314C132.905 344.236 135.959 344.001 139.012 343.648C141.439 343.335 143.788 343.022 145.941 341.808C146.607 341.455 146.02 340.437 145.354 340.789C141.479 342.943 136.115 342.865 131.77 343.061C129.617 343.139 127.425 343.178 125.272 343.139C124.136 343.1 118.068 343.374 117.834 342.082C117.677 341.338 116.581 341.651 116.698 342.395Z" fill="#E8E8E8"/>
<path d="M118.93 355.986C120.809 359.315 123.197 362.252 126.055 364.798C126.603 365.307 127.464 364.485 126.877 363.976C124.058 361.508 121.748 358.649 119.948 355.398C119.595 354.733 118.577 355.32 118.93 355.986Z" fill="#E8E8E8"/>
<path d="M117.403 346.938C121.396 353.675 126.25 359.863 131.809 365.425C132.357 365.973 133.179 365.112 132.631 364.602C127.151 359.119 122.375 353.009 118.421 346.351C118.029 345.724 117.012 346.312 117.403 346.938Z" fill="#E8E8E8"/>
<path d="M123.941 344.118C128.09 351.521 132.905 358.532 138.347 365.073C138.817 365.66 139.639 364.838 139.169 364.25C133.806 357.788 129.03 350.855 124.959 343.531C124.606 342.865 123.588 343.452 123.941 344.118Z" fill="#E8E8E8"/>
<path d="M131.418 344.393C135.45 350.424 139.521 356.417 143.632 362.409C144.062 363.036 145.08 362.448 144.65 361.822C140.539 355.829 136.468 349.837 132.436 343.805C132.005 343.178 130.987 343.766 131.418 344.393Z" fill="#E8E8E8"/>
<path d="M137.681 344.04C139.717 347.33 141.909 350.542 144.18 353.675C144.61 354.263 145.628 353.675 145.198 353.088C142.927 349.954 140.735 346.743 138.699 343.453C138.308 342.826 137.29 343.413 137.681 344.04Z" fill="#E8E8E8"/>
<path d="M103.819 304.482C104.289 307.184 104.758 309.926 105.267 312.628C105.424 313.373 105.541 314.156 106.168 314.626C106.598 314.978 108.008 314.939 108.282 315.331C108.321 315.096 108.36 314.861 108.36 314.626C107.773 315.213 107.185 315.801 106.559 316.349C106.402 316.506 106.363 316.741 106.402 316.937C106.755 317.994 106.99 319.561 107.694 320.462C108.047 320.932 108.673 320.853 108.947 321.128C109.182 321.363 109.104 321.206 108.986 321.911C108.908 322.498 108.908 323.125 108.986 323.752C109.104 324.692 109.378 325.593 109.73 326.454C111.766 331.389 115.72 335.384 119.517 339.066C120.065 339.575 120.887 338.753 120.339 338.243C117.912 335.893 115.485 333.465 113.488 330.723C111.531 328.021 109.221 324.378 110.435 320.932C110.513 320.736 110.435 320.462 110.278 320.344C109.534 319.757 108.79 319.992 108.282 319.052C107.303 317.289 107.851 316.702 109.104 315.488C109.299 315.331 109.339 314.978 109.182 314.783C108.869 314.313 108.634 314.156 108.125 313.999C107.812 313.882 107.342 313.999 107.029 313.843C106.363 313.49 106.363 312.628 106.246 312.002C105.776 309.417 105.306 306.793 104.876 304.208C104.797 303.424 103.662 303.738 103.819 304.482Z" fill="#E8E8E8"/>
<path d="M104.68 304.325C119.948 309.417 130.4 323.673 130.713 339.81C130.713 340.554 131.888 340.554 131.888 339.81C131.574 323.164 120.77 308.477 104.993 303.189C104.289 302.954 103.976 304.09 104.68 304.325Z" fill="#E8E8E8"/>
<path d="M128.129 323.752C131.927 313.216 137.525 303.032 146.49 296.1C147.077 295.63 146.49 294.612 145.902 295.082C136.664 302.249 130.909 312.589 126.994 323.438C126.759 324.143 127.895 324.457 128.129 323.752Z" fill="#E8E8E8"/>
<path d="M145.472 295.865C145.746 299.468 146.059 303.072 146.333 306.714C146.411 307.458 147.586 307.458 147.507 306.714C147.233 303.111 146.92 299.508 146.646 295.865C146.607 295.121 145.433 295.121 145.472 295.865Z" fill="#E8E8E8"/>
<path d="M146.842 306.323C146.333 306.44 145.824 306.558 145.354 306.714C144.61 306.91 144.924 308.046 145.667 307.85C146.176 307.733 146.685 307.615 147.155 307.458C147.899 307.263 147.586 306.166 146.842 306.323Z" fill="#E8E8E8"/>
<path d="M144.767 307.772C144.924 308.516 145.55 308.986 146.255 309.064C146.568 309.103 146.842 308.79 146.842 308.477C146.842 308.124 146.568 307.928 146.255 307.889C146.372 307.889 146.255 307.889 146.215 307.889C146.176 307.889 146.098 307.85 146.176 307.889C146.137 307.85 146.098 307.85 146.059 307.811C145.981 307.772 146.137 307.889 146.02 307.772C145.981 307.732 145.981 307.732 145.941 307.693C146.02 307.772 145.941 307.693 145.941 307.654C145.902 307.615 145.902 307.537 145.902 307.615C145.902 307.576 145.863 307.498 145.863 307.458C145.785 307.145 145.433 306.949 145.158 307.067C144.845 307.145 144.689 307.458 144.767 307.772Z" fill="#E8E8E8"/>
<path d="M145.667 308.633C145.707 310.866 145.628 313.059 145.393 315.253C145.315 315.958 145.433 317.603 144.963 318.151C144.924 318.19 144.219 318.308 144.062 318.425C143.475 318.895 144.297 319.718 144.884 319.248C145.08 319.091 145.55 319.248 145.863 318.895C146.333 318.425 146.255 317.328 146.333 316.78C146.685 314.078 146.842 311.336 146.803 308.594C146.842 307.889 145.667 307.889 145.667 308.633Z" fill="#E8E8E8"/>
<path d="M143.593 319.443C144.845 320.932 144.493 323.399 144.376 325.201C144.219 327.277 143.867 329.196 142.849 330.998C141.4 333.661 139.365 335.893 138.308 338.792C138.034 339.497 139.169 339.81 139.443 339.105C140.852 335.306 144.102 332.486 145.08 328.491C145.785 325.632 146.45 321.049 144.415 318.621C143.945 318.073 143.123 318.895 143.593 319.443Z" fill="#E8E8E8"/>
<path d="M134.354 339.34C135.45 328.217 138.386 317.368 143.084 307.262C143.397 306.597 142.379 305.97 142.066 306.675C137.29 317.015 134.276 328.021 133.18 339.379C133.101 340.123 134.276 340.084 134.354 339.34Z" fill="#E8E8E8"/>
<path d="M111.257 310.866C118.108 319.483 123.118 329.392 126.054 339.967C126.25 340.711 127.385 340.398 127.19 339.653C124.175 328.843 119.047 318.817 112.079 310.043C111.609 309.456 110.787 310.278 111.257 310.866Z" fill="#E8E8E8"/>
<path d="M112.001 325.318C115.289 325.122 118.342 325.906 121.122 327.629C121.748 328.021 122.375 327.003 121.709 326.611C118.773 324.809 115.446 323.947 112.001 324.143C111.218 324.182 111.218 325.357 112.001 325.318Z" fill="#E8E8E8"/>
<path d="M119.164 320.07C118.93 317.916 119.204 315.84 120.026 313.803C120.3 313.098 119.164 312.785 118.89 313.49C118.029 315.605 117.755 317.798 117.99 320.07C118.068 320.814 119.243 320.814 119.164 320.07Z" fill="#E8E8E8"/>
<path d="M131.848 313.568C133.14 316.741 135.019 320.109 135.489 323.478C135.607 324.222 136.742 323.908 136.624 323.164C136.116 319.757 134.236 316.388 132.984 313.255C132.71 312.55 131.574 312.863 131.848 313.568Z" fill="#E8E8E8"/>
<path d="M139.052 317.289C140.187 315.997 141.283 314.469 142.731 313.49C143.945 312.668 145.276 312.119 146.216 310.983C146.685 310.396 145.863 309.573 145.393 310.161C144.376 311.375 142.888 311.884 141.674 312.824C140.343 313.843 139.326 315.213 138.229 316.467C137.721 317.054 138.543 317.877 139.052 317.289Z" fill="#E8E8E8"/>
<path d="M139.443 338.948C141.322 338.439 143.24 338.243 145.198 338.361C145.941 338.4 145.941 337.225 145.198 337.186C143.123 337.068 141.126 337.264 139.13 337.813C138.425 338.008 138.699 339.144 139.443 338.948Z" fill="#E8E8E8"/>
<path d="M139.286 339.418C141.479 339.614 143.593 339.34 145.707 338.674C146.411 338.439 146.098 337.303 145.393 337.538C143.397 338.165 141.361 338.4 139.286 338.243C138.543 338.204 138.543 339.379 139.286 339.418Z" fill="#E8E8E8"/>
<path d="M117.325 339.222C117.834 339.222 118.303 339.222 118.812 339.222C119.556 339.222 119.556 338.047 118.812 338.047C118.303 338.047 117.834 338.047 117.325 338.047C116.581 338.047 116.581 339.222 117.325 339.222Z" fill="#E8E8E8"/>
<path d="M146.02 348.701C158.429 348.701 170.878 348.701 183.288 348.701C184.032 348.701 184.032 347.526 183.288 347.526C170.878 347.526 158.429 347.526 146.02 347.526C145.276 347.526 145.276 348.701 146.02 348.701Z" fill="#E8E8E8"/>
<path d="M356.084 340.946C363.483 340.946 370.843 340.946 378.242 340.946C378.986 340.946 378.986 339.771 378.242 339.771C370.843 339.771 363.483 339.771 356.084 339.771C355.341 339.771 355.341 340.946 356.084 340.946Z" fill="#E8E8E8"/>
<path d="M423.261 341.651C455.167 341.651 487.072 341.651 518.977 341.651C528.059 341.651 537.141 341.651 546.223 341.651C546.967 341.651 546.967 340.476 546.223 340.476C514.318 340.476 482.413 340.476 450.508 340.476C441.426 340.476 432.344 340.476 423.261 340.476C422.518 340.476 422.518 341.651 423.261 341.651Z" fill="#E8E8E8"/>
<path d="M376.011 213.067C373.035 219.216 369.825 225.248 366.419 231.162C366.263 231.475 366.38 231.984 366.772 232.023C383.566 234.569 398.599 242.912 413.083 251.333C413.749 251.724 414.336 250.706 413.67 250.314C399.068 241.854 383.957 233.473 367.046 230.888C367.163 231.162 367.281 231.475 367.398 231.749C370.843 225.835 374.014 219.803 376.989 213.654C377.342 212.988 376.363 212.362 376.011 213.067Z" fill="#E8E8E8"/>
<path d="M378.594 234.412C379.769 231.044 380.943 227.637 382.118 224.268C382.626 222.858 382.979 221.292 383.644 219.921C383.801 219.098 384.31 218.472 385.093 218.002C385.563 218.119 386.032 218.237 386.502 218.354C387.207 218.55 387.911 218.707 388.577 218.903C390.182 219.294 392.766 219.294 392.492 221.448C392.296 222.976 391.395 224.621 390.887 226.109C389.712 229.438 388.577 232.767 387.402 236.097C387.168 236.802 388.303 237.115 388.538 236.41C390.064 232.023 391.591 227.598 393.118 223.211C393.47 222.193 394.449 220.469 393.666 219.373C392.805 218.198 390.221 218.119 388.89 217.767C387.598 217.453 385.328 216.278 383.997 216.905C382.861 217.414 382.626 219.373 382.274 220.352C380.669 224.934 379.064 229.556 377.459 234.138C377.224 234.804 378.359 235.117 378.594 234.412Z" fill="#E8E8E8"/>
<path d="M393.705 238.603C396.211 233.316 398.755 227.989 401.261 222.702C402.513 220.038 403.766 217.414 405.058 214.751C405.645 213.537 406.115 212.088 406.859 210.952C407.485 209.973 407.642 209.738 408.738 210.168C409.325 210.403 410.03 210.991 410.539 211.343C411.204 211.813 412.261 212.323 412.731 212.949C413.318 213.693 413.083 214.477 412.731 215.417C412.261 216.67 411.556 217.884 410.969 219.098C409.677 221.762 408.385 224.425 407.015 227.088C404.432 232.141 401.73 237.154 398.951 242.128C398.559 242.794 399.577 243.382 399.969 242.716C403.375 236.684 406.624 230.574 409.677 224.386C411.204 221.331 412.887 218.198 414.179 215.025C415.08 212.714 413.122 211.774 411.4 210.56C410.03 209.62 407.876 207.466 406.389 209.228C405.449 210.325 404.94 212.166 404.314 213.498C403.531 215.103 402.787 216.709 402.004 218.354C398.873 224.934 395.741 231.514 392.648 238.094C392.374 238.682 393.392 239.308 393.705 238.603Z" fill="#E8E8E8"/>
<path d="M406.702 246.75C410.069 241.462 413.866 236.449 418.055 231.827C417.82 231.867 417.585 231.906 417.35 231.906C418.838 232.924 420.286 233.903 421.774 234.922C421.696 234.647 421.617 234.373 421.578 234.099C418.251 239.308 414.923 244.478 411.596 249.687C411.204 250.314 412.183 250.902 412.614 250.275C415.941 245.066 419.269 239.896 422.596 234.687C422.792 234.412 422.635 234.06 422.4 233.864C420.913 232.846 419.464 231.867 417.977 230.848C417.781 230.692 417.429 230.77 417.272 230.927C413.005 235.666 409.129 240.718 405.724 246.084C405.293 246.828 406.311 247.416 406.702 246.75Z" fill="#E8E8E8"/>
<path d="M453.405 209.502C449.49 208.014 447.024 204.097 447.729 199.907C448.433 195.637 452.622 191.838 456.928 194.384C459.903 196.147 461.43 200.142 460.295 203.392C459.12 206.878 455.284 208.954 451.722 208.406C450.978 208.288 450.665 209.424 451.408 209.542C455.597 210.168 460.021 207.857 461.43 203.706C462.839 199.554 460.569 194.541 456.498 192.857C451.722 190.898 447.376 195.011 446.554 199.593C445.693 204.45 448.551 208.915 453.053 210.638C453.796 210.912 454.11 209.777 453.405 209.502Z" fill="#E8E8E8"/>
<path d="M461.43 208.758C453.64 208.523 456.576 196.029 463.466 196.499C470.356 197.008 467.537 211.069 459.982 208.484C459.277 208.249 458.964 209.385 459.669 209.62C468.398 212.597 472.313 196.695 463.975 195.363C459.903 194.697 456.224 198.536 455.597 202.335C454.971 206.095 457.515 209.777 461.43 209.894C462.174 209.972 462.174 208.797 461.43 208.758Z" fill="#E8E8E8"/>
<path d="M455.597 173.313C454.932 172.608 454.619 171.472 455.128 170.61C455.636 169.787 456.889 169.396 457.672 170.022C458.377 170.571 458.533 171.746 457.868 172.333C457.085 173.038 455.832 172.686 455.088 172.098C454.501 171.628 453.679 172.451 454.266 172.921C455.48 173.861 457.359 174.331 458.651 173.195C459.825 172.138 459.708 170.179 458.533 169.161C457.32 168.103 455.402 168.417 454.384 169.592C453.248 170.923 453.562 172.921 454.736 174.135C455.284 174.683 456.106 173.861 455.597 173.313Z" fill="#E8E8E8"/>
<path d="M341.991 202.805C340.895 196.147 344.771 188.117 352.287 188.196C356.124 188.235 359.843 189.802 363.718 189.253C366.459 188.862 368.807 187.295 370.452 185.141C372.096 182.987 373.035 180.284 373.192 177.582C373.388 173.587 371.861 169.513 372.957 165.558C373.505 163.56 374.679 161.719 376.676 160.975C378.594 160.309 380.669 160.701 382.666 160.623C385.562 160.505 387.833 159.252 389.281 156.706C391.317 153.142 390.847 148.873 392.257 145.113C393.94 140.569 398.677 136.692 403.688 138.924C404.353 139.238 404.979 138.219 404.275 137.906C397.463 134.851 391.787 141 390.456 147.188C389.595 151.223 389.751 157.489 384.936 159.095C381.569 160.231 377.772 158.468 374.679 160.779C372.135 162.659 371.391 166.106 371.43 169.122C371.548 173.547 372.918 177.856 370.96 182.086C369.16 186.081 365.597 188.47 361.174 188.196C357.259 187.961 353.383 186.355 349.429 187.373C342.735 189.057 339.877 196.969 340.934 203.157C341.013 203.823 342.148 203.51 341.991 202.805Z" fill="#E8E8E8"/>
<path d="M391.474 174.879C390.025 171.589 392.022 168.456 395.193 167.398C397.502 166.615 400.047 166.576 402.044 165.009C403.609 163.795 404.118 162.267 403.923 160.309C403.727 158.468 403.727 157.019 405.175 155.766C406.389 154.708 407.994 154.317 409.56 154.238C413.866 154.082 419.777 156.275 422.909 152.084C424.358 150.126 423.927 147.697 424.592 145.504C425.493 142.449 428.429 140.569 431.561 140.726C432.304 140.765 432.304 139.59 431.561 139.551C429.173 139.433 426.863 140.334 425.219 142.058C423.183 144.212 423.457 146.64 422.831 149.342C421.147 156.745 410.852 151.536 405.997 153.847C404.197 154.708 402.748 156.236 402.592 158.272C402.396 160.662 403.492 162.62 401.065 164.265C399.773 165.127 398.285 165.401 396.798 165.753C394.331 166.341 391.904 167.085 390.652 169.474C389.634 171.354 389.634 173.508 390.495 175.427C390.769 176.172 391.748 175.545 391.474 174.879Z" fill="#E8E8E8"/>
<path d="M461.234 122.709C461.078 122.357 460.921 121.965 460.804 121.573C461.313 120.986 461.783 120.398 462.291 119.811C462.448 119.772 463.153 120.242 463.388 120.242C463.975 120.32 464.484 120.163 464.953 119.811C466.402 118.675 465.893 116.873 466.324 115.346C467.028 112.722 470.121 114.523 471.53 112.565C472.94 110.646 472.431 106.573 476.189 107.669C476.933 107.865 477.246 106.729 476.502 106.533C474.349 105.907 472.391 106.925 471.608 109.001C471.374 109.588 471.295 110.254 471.06 110.842C470.552 112.213 470.003 112.408 468.516 112.487C467.42 112.565 466.559 112.487 465.815 113.427C465.188 114.249 465.188 115.307 465.071 116.286C464.953 117.735 465.071 118.949 462.918 118.793C462.487 118.753 462.135 118.362 461.665 118.362C459.081 118.323 459.512 121.495 460.138 123.023C460.373 123.728 461.548 123.414 461.234 122.709Z" fill="#E8E8E8"/>
<path d="M468.594 125.96C467.968 125.138 466.911 122.748 468.751 122.122C469.416 121.887 470.277 122.161 470.982 122.161C471.608 122.161 472.156 122.161 472.665 121.73C474.231 120.477 473.096 118.244 473.918 116.678C475.249 114.132 477.911 116.129 479.79 114.798C481.121 113.858 481.474 112.056 481.708 110.567C481.826 109.823 480.691 109.51 480.573 110.254C480.299 112.017 479.986 113.975 477.794 114.171C476.658 114.288 475.797 113.897 474.74 114.406C473.018 115.228 472.47 116.756 472.431 118.518C472.391 120.007 472.744 120.751 470.238 120.868C469.925 120.868 469.612 120.79 469.299 120.79C468.398 120.868 467.615 121.338 467.106 122.083C466.01 123.649 466.637 125.451 467.733 126.822C468.242 127.409 469.064 126.548 468.594 125.96Z" fill="#E8E8E8"/>
<path d="M135.763 147.188C139.012 143.272 143.632 140.06 148.956 140.608C154.75 141.196 157.607 145.818 158.155 151.222C159.095 160.192 156.903 170.923 162.971 178.561C165.359 181.577 168.921 183.182 172.757 182.242C177.377 181.146 180.978 177.503 185.089 175.349C189.943 172.803 196.637 171.432 201.022 175.702C204.232 178.835 204.937 183.613 205.994 187.765C206.972 191.525 208.656 195.677 212.022 197.909C214.058 199.241 216.289 199.358 218.638 199.202C221.261 199.006 226.624 198.849 226.076 202.962C225.998 203.706 227.172 203.706 227.251 202.962C227.446 201.356 226.703 200.063 225.411 199.123C223.375 197.635 221.026 197.87 218.638 198.027C215.937 198.222 213.627 197.987 211.553 196.068C209.673 194.345 208.538 191.917 207.716 189.527C206.346 185.415 205.954 180.911 203.606 177.151C201.296 173.43 197.303 171.628 192.997 171.785C187.555 171.981 182.975 175.114 178.63 178.012C176.555 179.383 174.323 180.832 171.779 181.263C168.725 181.772 166.024 180.441 164.067 178.169C160.387 173.861 159.8 167.712 159.604 162.307C159.408 157.254 160.074 151.771 158.39 146.875C156.864 142.41 152.988 139.629 148.33 139.394C142.927 139.12 138.19 142.371 134.863 146.366C134.432 146.953 135.254 147.776 135.763 147.188Z" fill="#E8E8E8"/>
<path d="M115.994 207.623C122.101 217.806 127.542 228.342 132.357 239.191C132.67 239.896 133.688 239.269 133.375 238.603C128.56 227.754 123.079 217.218 117.011 207.035C116.62 206.369 115.602 206.957 115.994 207.623Z" fill="#E8E8E8"/>
<path d="M116.737 207.153C126.25 201.238 136.037 195.716 146.098 190.703C146.763 190.35 146.176 189.332 145.511 189.684C135.489 194.698 125.702 200.22 116.15 206.134C115.485 206.565 116.072 207.583 116.737 207.153Z" fill="#E8E8E8"/>
<path d="M145.393 190.193C150.365 200.651 155.611 210.952 161.17 221.096C161.522 221.762 162.54 221.174 162.188 220.508C156.629 210.364 151.344 200.063 146.411 189.606C146.059 188.901 145.08 189.488 145.393 190.193Z" fill="#E8E8E8"/>
<path d="M133.688 239.426C143.044 233.786 152.283 227.989 161.444 222.036C162.07 221.644 161.483 220.626 160.857 221.018C151.696 226.971 142.457 232.768 133.101 238.408C132.475 238.799 133.062 239.818 133.688 239.426Z" fill="#E8E8E8"/>
<path d="M132.944 203.706C132.71 211.226 133.14 218.707 134.236 226.148C134.354 226.893 135.489 226.579 135.372 225.835C134.276 218.511 133.884 211.108 134.119 203.706C134.158 202.962 132.984 202.962 132.944 203.706Z" fill="#E8E8E8"/>
<path d="M132.984 203.314C138.425 207.583 143.867 211.774 149.387 215.926C149.974 216.396 150.561 215.377 149.974 214.907C144.532 210.834 139.13 206.683 133.806 202.492C133.219 202.022 132.397 202.844 132.984 203.314Z" fill="#E8E8E8"/>
<path d="M135.45 226.383C139.952 222.349 145.824 220.195 150.091 215.848C150.639 215.299 149.778 214.477 149.269 215.025C145.002 219.333 139.169 221.527 134.628 225.561C134.041 226.031 134.902 226.853 135.45 226.383Z" fill="#E8E8E8"/>
<path d="M117.56 213.772C118.812 213.145 120.065 212.557 121.318 211.931C121.983 211.617 121.396 210.599 120.731 210.913C119.478 211.539 118.225 212.127 116.972 212.753C116.307 213.106 116.894 214.085 117.56 213.772Z" fill="#E8E8E8"/>
<path d="M121.592 220.43C122.649 219.725 123.784 219.138 124.958 218.628C125.663 218.354 125.35 217.218 124.645 217.493C123.353 218.041 122.14 218.668 120.965 219.412C120.378 219.843 120.965 220.861 121.592 220.43Z" fill="#E8E8E8"/>
<path d="M126.015 228.107C127.112 227.558 128.208 227.01 129.304 226.501C129.969 226.148 129.382 225.169 128.717 225.482C127.62 226.031 126.524 226.579 125.428 227.088C124.763 227.402 125.35 228.42 126.015 228.107Z" fill="#E8E8E8"/>
<path d="M128.286 235.783C129.5 234.726 130.752 233.825 132.162 233.042C132.827 232.65 132.24 231.671 131.574 232.023C130.126 232.846 128.756 233.825 127.464 234.961C126.877 235.47 127.699 236.292 128.286 235.783Z" fill="#E8E8E8"/>
<path d="M147.625 197.909C148.525 197.282 149.465 196.852 150.522 196.577C151.265 196.382 150.952 195.285 150.208 195.442C149.073 195.716 147.977 196.186 146.998 196.891C146.411 197.322 146.998 198.34 147.625 197.909Z" fill="#E8E8E8"/>
<path d="M151.109 204.607C152.362 203.823 153.614 203.04 154.828 202.218C155.454 201.826 154.867 200.808 154.241 201.199C152.988 201.983 151.735 202.766 150.522 203.588C149.856 204.019 150.443 205.038 151.109 204.607Z" fill="#E8E8E8"/>
<path d="M155.102 212.636C156.433 212.048 157.803 211.461 159.134 210.873C159.839 210.56 159.212 209.542 158.547 209.855C157.216 210.443 155.846 211.03 154.515 211.618C153.81 211.931 154.436 212.949 155.102 212.636Z" fill="#E8E8E8"/>
<path d="M157.96 217.884C159.017 216.866 160.191 216.004 161.483 215.26C162.148 214.908 161.561 213.889 160.896 214.242C159.526 215.025 158.273 215.926 157.138 217.023C156.589 217.571 157.412 218.393 157.96 217.884Z" fill="#E8E8E8"/>
<path d="M137.016 234.256C137.995 235.705 138.817 237.233 139.443 238.838C139.717 239.543 140.852 239.23 140.578 238.525C139.913 236.802 139.091 235.157 138.034 233.629C137.603 233.042 136.585 233.629 137.016 234.256Z" fill="#E8E8E8"/>
<path d="M143.005 231.005C143.749 232.337 144.454 233.629 145.198 234.961C145.55 235.627 146.568 235.039 146.216 234.373C145.472 233.042 144.767 231.749 144.023 230.418C143.671 229.752 142.653 230.339 143.005 231.005Z" fill="#E8E8E8"/>
<path d="M149.935 226.031C150.718 227.441 151.501 228.851 152.283 230.261C152.636 230.927 153.654 230.339 153.301 229.673C152.518 228.263 151.735 226.853 150.952 225.443C150.6 224.778 149.582 225.365 149.935 226.031Z" fill="#E8E8E8"/>
<path d="M156.159 222.31C156.785 223.798 157.412 225.287 158.077 226.736C158.39 227.441 159.369 226.814 159.095 226.148C158.469 224.66 157.842 223.172 157.177 221.723C156.864 221.057 155.846 221.644 156.159 222.31Z" fill="#E8E8E8"/>
<path d="M120.652 201.121C121.396 202.335 122.101 203.549 122.844 204.724C123.236 205.39 124.254 204.763 123.862 204.137C123.119 202.923 122.414 201.708 121.67 200.533C121.279 199.907 120.261 200.494 120.652 201.121Z" fill="#E8E8E8"/>
<path d="M127.386 197.204C128.09 198.771 128.795 200.337 129.5 201.904C129.813 202.609 130.831 201.982 130.517 201.317C129.813 199.75 129.108 198.183 128.403 196.617C128.051 195.912 127.072 196.499 127.386 197.204Z" fill="#E8E8E8"/>
<path d="M133.453 193.444C134.51 194.854 135.332 196.382 135.881 198.027C136.115 198.732 137.251 198.418 137.016 197.713C136.429 195.951 135.607 194.306 134.471 192.857C134.041 192.269 133.023 192.817 133.453 193.444Z" fill="#E8E8E8"/>
<path d="M139.991 190.428C140.813 191.682 141.596 192.896 142.418 194.149C142.81 194.776 143.827 194.188 143.436 193.562C142.614 192.308 141.831 191.094 141.009 189.841C140.578 189.214 139.56 189.802 139.991 190.428Z" fill="#E8E8E8"/>
<path d="M200.865 112.761C197.068 111.586 196.872 107.552 198.673 104.536C200.435 101.598 203.84 100.815 206.502 103.243C208.695 105.28 208.89 108.766 206.855 110.998C204.819 113.27 201.492 113.231 199.143 111.508C198.555 111.038 197.968 112.056 198.555 112.526C201.531 114.719 205.876 114.367 208.107 111.273C210.417 108.139 209.595 103.752 206.346 101.637C198.516 96.585 191.783 111.155 200.552 113.897C201.296 114.132 201.609 112.996 200.865 112.761Z" fill="#E8E8E8"/>
<path d="M207.168 113.779C204.232 114.68 203.527 111.155 204.819 109.275C205.876 107.747 207.951 106.847 209.83 107.356C211.631 107.826 212.923 109.667 212.453 111.507C211.866 113.818 209.438 114.641 207.285 114.288C206.541 114.171 206.228 115.307 206.972 115.424C209.869 115.933 213.001 114.68 213.627 111.547C214.175 108.844 212.061 106.377 209.438 106.063C206.541 105.711 203.371 107.826 202.979 110.802C202.627 113.387 204.976 115.698 207.559 114.876C208.225 114.68 207.912 113.544 207.168 113.779Z" fill="#E8E8E8"/>
<path d="M182.192 139.277C181.252 141.196 182.583 143.115 184.541 143.624C186.028 144.016 187.594 143.663 189.121 143.742C190.765 143.82 192.409 144.212 193.897 144.877C197.185 146.366 199.299 149.068 199.417 152.711C199.534 155.766 198.634 158.938 199.965 161.837C202.783 167.947 210.535 163.286 214.528 167.242C217.855 170.571 216.485 176.642 220.948 179.187C221.613 179.579 222.201 178.561 221.535 178.169C217.542 175.897 218.482 169.983 215.663 166.693C214.175 164.97 212.022 164.5 209.83 164.343C207.168 164.187 203.723 164.735 201.766 162.463C199.495 159.8 200.709 155.805 200.591 152.672C200.513 150.204 199.691 147.972 197.968 146.209C196.442 144.682 194.445 143.624 192.37 143.076C191.313 142.802 190.217 142.606 189.121 142.567C187.712 142.488 181.605 143.193 183.249 139.864C183.562 139.198 182.544 138.611 182.192 139.277Z" fill="#E8E8E8"/>
<path d="M90.6653 350.698C97.751 350.698 104.798 350.698 111.883 350.698C112.627 350.698 112.627 349.523 111.883 349.523C104.798 349.523 97.751 349.523 90.6653 349.523C89.8824 349.523 89.8824 350.698 90.6653 350.698Z" fill="#E8E8E8"/>
<path d="M102.096 377.253C115.72 377.253 129.304 377.253 142.927 377.253C143.671 377.253 143.671 376.078 142.927 376.078C129.304 376.078 115.72 376.078 102.096 376.078C101.314 376.078 101.314 377.253 102.096 377.253Z" fill="#E8E8E8"/>
<path d="M141.283 369.89C153.928 369.89 166.611 369.89 179.256 369.89C180 369.89 180 368.715 179.256 368.715C166.611 368.715 153.928 368.715 141.283 368.715C140.5 368.715 140.5 369.89 141.283 369.89Z" fill="#E8E8E8"/>
<path d="M351.856 367.853C358.238 366.287 364.658 366.13 371.156 367.148C373.896 367.579 376.676 368.01 379.455 367.775C382.157 367.54 384.779 366.718 387.402 366.013C390.377 365.19 393.353 364.563 396.484 364.798C399.695 365.033 402.787 365.934 405.919 366.639C408.62 367.266 411.36 367.697 414.14 367.658C417.076 367.579 419.973 367.07 422.831 366.639C430.66 365.386 438.02 366.169 445.771 367.462C446.515 367.579 446.828 366.443 446.084 366.326C439.821 365.307 433.518 364.25 427.137 364.877C420.482 365.542 414.297 367.188 407.563 365.817C401.926 364.681 396.563 362.918 390.769 364.015C387.676 364.603 384.74 365.699 381.648 366.287C378.203 366.953 374.875 366.561 371.43 366.013C364.736 364.994 358.12 365.072 351.504 366.718C350.839 366.913 351.152 368.049 351.856 367.853Z" fill="#E8E8E8"/>
<path d="M411.987 355.947C424.279 355.281 436.572 354.615 448.864 353.988C454.932 353.675 460.804 353.793 466.833 354.615C469.534 354.968 472.118 355.046 474.819 354.733C477.833 354.38 480.965 353.91 483.783 355.359C484.449 355.712 485.036 354.693 484.371 354.341C479.595 351.913 474.075 354.184 468.947 353.714C465.893 353.44 462.918 352.853 459.864 352.696C456.693 352.539 453.523 352.618 450.352 352.774C437.55 353.362 424.749 354.145 411.948 354.811C411.243 354.811 411.243 355.986 411.987 355.947Z" fill="#E8E8E8"/>
<path d="M171.27 389.591C177.064 390.139 182.897 390.688 188.69 390.022C191.392 389.708 193.975 389.121 196.598 388.338C200.004 387.319 203.058 387.045 206.581 387.672C209.282 388.142 211.944 388.808 214.645 389.043C217.503 389.278 220.361 389.121 223.218 388.847C229.208 388.259 235.198 387.241 241.148 388.573C241.892 388.729 242.205 387.593 241.461 387.437C235.746 386.183 230.03 387.006 224.275 387.593C221.418 387.867 218.56 388.142 215.702 387.985C212.453 387.828 209.321 386.967 206.15 386.457C203.488 386.027 200.944 386.027 198.321 386.653C195.502 387.358 192.84 388.298 189.943 388.729C183.758 389.63 177.455 389.003 171.27 388.455C170.487 388.338 170.526 389.513 171.27 389.591Z" fill="#E8E8E8"/>
<path d="M233.201 73.555C231.674 72.4975 229.599 70.8133 230.226 68.6983C230.891 66.505 232.535 67.5625 234.062 67.0533C236.098 66.3875 235.98 63.92 235.393 62.3142C234.806 60.7475 233.553 56.9483 236.803 58.2408C237.546 58.5542 238.094 59.0633 238.956 58.7892C239.739 58.5542 240.13 57.8492 240.326 57.105C240.482 56.4392 240.365 55.7342 240.326 55.0292C240.247 54.5592 240.208 54.05 240.208 53.58C240.052 52.4442 240.756 51.9742 242.244 52.17C242.283 52.9142 243.458 52.9142 243.418 52.17C243.34 51.0733 242.518 50.29 241.344 50.3292C239.973 50.3683 239.23 51.7 239.073 52.9533C238.956 53.815 239.66 55.8125 239.269 56.5175C238.799 56.8308 238.329 57.1833 237.82 57.4967C237.625 57.3792 237.429 57.2617 237.233 57.1442C236.881 57.0267 236.607 56.7917 236.254 56.7133C235.041 56.4392 234.062 57.1833 233.632 58.28C232.888 60.16 234.219 61.7267 234.61 63.4892C235.119 65.9175 233.279 65.6433 231.674 65.9175C230.97 66.035 230.382 66.3875 229.913 66.8967C227.446 69.7558 230.304 72.9283 232.653 74.5733C233.24 75.0042 233.827 73.9858 233.201 73.555Z" fill="#E8E8E8"/>
<path d="M240.913 72.4583C239.621 70.97 238.642 68.9333 241.148 68.15C241.774 67.9542 242.479 68.0325 243.066 67.6408C244.358 66.74 243.81 65.5258 243.575 64.2725C243.457 63.5675 243.183 62.6275 243.614 61.9225C243.927 61.4133 245.063 61.2175 245.65 61.1C246.472 60.9042 247.333 60.7867 248.038 60.3167C249.095 59.5725 249.486 58.2408 248.782 57.105C248.39 56.4783 247.372 57.0658 247.764 57.6925C248.938 59.5725 243.457 60.0817 242.518 61.4525C241.422 63.0583 243.732 65.8783 241.813 66.8967C241.07 67.2883 240.13 67.0142 239.425 67.5233C238.916 67.8758 238.564 68.4242 238.407 69.0117C237.977 70.6958 239.112 72.145 240.13 73.32C240.6 73.8683 241.422 73.0458 240.913 72.4583Z" fill="#E8E8E8"/>
<path d="M194.68 63.1758C193.662 62.4708 193.545 61.2175 193.858 60.1208C194.054 59.3767 194.993 57.34 195.894 57.2617C197.381 57.105 198.125 58.985 198.516 60.0817C198.869 61.1392 198.986 62.1967 199.025 63.2933C199.025 64.0375 200.2 64.0375 200.2 63.2933C200.161 61.1 198.712 54.3633 195.111 56.3217C193.74 57.0658 192.723 59.22 192.566 60.7083C192.409 62.1183 192.958 63.3717 194.093 64.1942C194.68 64.625 195.267 63.6067 194.68 63.1758Z" fill="#E8E8E8"/>
<path d="M194.21 63.8025C192.801 64.155 191.392 64.5075 189.943 64.86C189.121 65.0558 187.712 65.1342 187.046 65.7608C185.911 66.8183 186.224 70.0692 186.224 71.44C186.224 71.8317 186.616 72.1058 186.968 71.9883C187.164 71.9492 187.359 71.8708 187.594 71.8317C188.612 71.2833 189.121 71.6358 189.16 72.8108C189.943 73.5942 189.943 74.0642 189.16 74.1425C188.69 74.3383 188.221 74.4167 187.712 74.4167C187.399 74.4558 187.125 74.6517 187.125 75.0042C187.203 77.5108 187.399 79.9783 187.673 82.485C187.751 83.2292 188.925 83.2292 188.847 82.485C188.573 79.9783 188.377 77.5108 188.299 75.0042C188.103 75.2 187.907 75.3958 187.712 75.5917C189.356 75.3958 191.979 74.73 191.626 72.4975C191.235 70.1083 188.338 70.3825 186.694 70.8525C186.929 71.0483 187.203 71.2442 187.438 71.4008C187.438 70.5 187.438 69.6383 187.516 68.7375C187.633 67.3275 187.555 66.8183 188.847 66.3092C190.609 65.6042 192.683 65.3692 194.523 64.8992C195.267 64.7817 194.954 63.6458 194.21 63.8025Z" fill="#E8E8E8"/>
<path d="M199.847 64.155C201.492 64.0767 203.175 64.0767 204.819 64.2725C206.385 64.4683 206.307 64.7033 206.542 66.0742C206.698 66.9358 206.737 67.8367 206.816 68.6983C207.129 72.0667 207.364 75.435 207.559 78.8033C207.599 79.5475 208.773 79.5475 208.734 78.8033C208.499 74.2208 208.342 69.5208 207.599 64.9775C207.403 63.8417 207.207 63.4892 206.033 63.2933C203.997 62.9017 201.883 62.9017 199.847 63.0192C199.104 63.0192 199.104 64.1942 199.847 64.155Z" fill="#E8E8E8"/>
<path d="M188.534 83.3075C190.843 82.9158 193.153 82.5242 195.424 82.1325C198.046 81.7017 200.552 81.8975 203.175 81.7017C204.388 81.5842 210.143 80.9967 208.029 78.6075C207.52 78.0592 206.698 78.8817 207.207 79.43C207.52 79.7825 202.196 80.5658 202.079 80.5658C200.434 80.605 198.79 80.5267 197.146 80.7225C194.171 81.075 191.196 81.7017 188.22 82.2108C187.477 82.2892 187.79 83.425 188.534 83.3075Z" fill="#E8E8E8"/>
<path d="M396.485 308.868C396.367 312.981 396.25 317.093 396.132 321.245C401.339 321.598 406.506 321.911 411.713 322.263C411.713 318.033 411.713 313.803 411.713 309.573C406.624 309.338 401.574 309.103 396.485 308.868Z" fill="white" stroke="#161616" stroke-width="2" stroke-miterlimit="10"/>
<path d="M403.257 354.576C403.962 359.119 404.275 362.879 404.432 365.582C404.941 374.551 404.549 376.627 403.766 378.272C401.848 382.306 398.364 383.99 398.677 384.538C398.912 384.891 400.634 384.499 408.307 380.465C407.838 371.535 407.407 362.644 406.937 353.714C405.724 354.028 404.51 354.302 403.257 354.576Z" fill="white" stroke="#161616" stroke-width="2" stroke-miterlimit="10"/>
<path d="M393.118 325.788C399.773 325.827 406.428 325.906 413.083 325.945C412.339 334.875 411.635 343.766 410.891 352.696C405.097 352.226 399.264 351.795 393.47 351.325C393.314 342.826 393.196 334.327 393.118 325.788Z" fill="white" stroke="#161616" stroke-width="2" stroke-miterlimit="10"/>
<path d="M395.819 354.262C397.933 359.393 398.638 363.819 398.872 366.796C399.225 371.182 399.46 374.551 397.346 376.783C396.563 377.645 395.271 378.467 392.765 380.152C390.534 381.64 389.477 382.188 389.555 382.345C389.673 382.58 391.826 382.11 401.221 378.781C401.848 375.608 402.357 371.535 402.239 366.757C402.083 361.665 401.26 357.317 400.36 354.067C398.872 354.145 397.346 354.184 395.819 354.262Z" fill="white" stroke="#161616" stroke-width="2" stroke-miterlimit="10"/>
<path d="M399.225 384.891C400.399 383.912 401.495 382.854 402.552 381.718C403.766 380.387 405.567 378.35 407.446 380.113C407.485 379.799 407.524 379.486 407.563 379.172C404.784 380.543 402.043 381.914 399.264 383.246C398.716 383.52 398.99 384.342 399.577 384.342C402.2 384.382 403.844 379.799 406.545 380.661C407.25 380.896 407.563 379.76 406.859 379.525C405.684 379.173 404.784 379.486 403.805 380.191C402.67 381.013 401.065 383.167 399.616 383.167C399.734 383.52 399.812 383.912 399.929 384.264C402.709 382.893 405.449 381.523 408.229 380.191C408.581 380.034 408.62 379.525 408.346 379.251C407.289 378.272 405.41 377.919 404.079 378.546C403.1 378.977 402.474 380.113 401.769 380.857C400.712 381.993 399.616 383.011 398.442 384.029C397.815 384.538 398.638 385.4 399.225 384.891Z" fill="#161616"/>
<path d="M404.04 378.781C405.214 378.82 406.35 379.055 407.446 379.525C408.111 379.838 408.738 378.82 408.033 378.507C406.741 377.919 405.449 377.606 404.04 377.567C403.296 377.606 403.296 378.781 404.04 378.781Z" fill="#161616"/>
<path d="M397.62 377.41C398.52 377.645 399.303 378.115 399.93 378.82C400.438 379.368 401.261 378.546 400.752 377.997C399.969 377.175 398.99 376.587 397.894 376.313C397.228 376.078 396.915 377.214 397.62 377.41Z" fill="#161616"/>
<path d="M391.278 382.149C392.492 381.248 393.744 380.426 395.036 379.642C395.623 379.29 396.25 378.82 396.876 378.624C397.855 378.272 398.442 378.507 399.342 378.898C399.342 378.546 399.342 378.232 399.342 377.88C398.09 378.428 396.68 378.389 395.389 378.937C394.136 379.447 392.961 380.7 391.67 380.935C391.826 381.287 391.983 381.64 392.139 381.992C394.449 380.857 397.033 380.661 399.342 379.525C400.008 379.172 399.421 378.193 398.755 378.507C396.446 379.642 393.862 379.838 391.552 380.974C390.926 381.287 391.396 382.149 392.022 382.032C393.431 381.797 394.566 380.504 395.897 379.995C397.228 379.486 398.677 379.447 399.969 378.898C400.36 378.742 400.36 378.037 399.969 377.88C398.481 377.214 397.816 376.822 396.328 377.606C394.371 378.624 392.531 379.838 390.769 381.131C390.065 381.562 390.652 382.58 391.278 382.149Z" fill="#161616"/>
<path d="M397.972 360.255C398.951 359.902 399.93 359.942 400.83 360.412C401.496 360.764 402.083 359.746 401.417 359.393C400.243 358.767 398.912 358.649 397.659 359.119C396.955 359.393 397.268 360.529 397.972 360.255Z" fill="#161616"/>
<path d="M398.951 364.172C399.773 364.093 400.556 364.289 401.182 364.838C401.77 365.308 402.592 364.485 402.005 364.015C401.143 363.31 400.086 362.918 398.951 362.997C398.207 363.036 398.207 364.211 398.951 364.172Z" fill="#161616"/>
<path d="M399.381 369.067C400.125 368.989 400.83 369.263 401.26 369.89C401.652 370.517 402.67 369.929 402.278 369.303C401.691 368.323 400.556 367.736 399.421 367.892C399.107 367.932 398.833 368.127 398.833 368.48C398.794 368.754 399.068 369.107 399.381 369.067Z" fill="#161616"/>
<path d="M404.431 359.981C405.136 359.589 406.037 359.628 406.702 360.177C407.289 360.647 408.111 359.824 407.524 359.354C406.467 358.492 405.058 358.297 403.844 358.962C403.179 359.354 403.766 360.372 404.431 359.981Z" fill="#161616"/>
<path d="M405.097 367.383C405.723 367.109 406.428 367.227 406.937 367.697C407.485 368.206 408.346 367.383 407.759 366.874C406.859 366.052 405.606 365.856 404.471 366.404C403.805 366.678 404.432 367.697 405.097 367.383Z" fill="#161616"/>
<path d="M405.254 373.65C405.88 373.258 406.663 373.258 407.25 373.728C407.837 374.198 408.659 373.376 408.072 372.906C407.094 372.083 405.723 371.966 404.666 372.671C404.04 373.062 404.627 374.081 405.254 373.65Z" fill="#161616"/>
<path d="M414.022 325.906C413.24 334.914 412.457 343.922 411.674 352.931" stroke="#161616" stroke-width="6" stroke-miterlimit="10"/>
<path d="M393.353 351.677C399.89 352.147 406.428 352.578 412.966 353.048" stroke="#161616" stroke-width="6" stroke-miterlimit="10"/>
<path d="M413.005 309.221C412.848 313.686 412.652 318.112 412.496 322.577" stroke="#161616" stroke-width="6" stroke-miterlimit="10"/>
<path d="M413.827 331.193C417.468 330.527 421.343 333.387 421.617 337.147C422.009 341.847 416.646 342.669 413.122 342.16C412.378 342.042 412.065 343.178 412.809 343.296C417.115 343.922 423.183 342.708 422.792 337.147C422.478 332.564 417.898 329.235 413.514 330.057C412.77 330.175 413.083 331.311 413.827 331.193Z" fill="#161616"/>
<path d="M412.966 344.236C414.493 344.549 415.706 345.646 416.137 347.134C416.332 347.878 417.468 347.565 417.272 346.821C416.763 344.941 415.236 343.453 413.318 343.1C412.535 342.983 412.222 344.079 412.966 344.236Z" fill="#161616"/>
<path d="M412.378 343.844C413.318 345.215 413.749 346.743 413.592 348.427C413.553 349.171 414.727 349.171 414.766 348.427C414.884 346.586 414.414 344.784 413.357 343.257C412.966 342.63 411.948 343.218 412.378 343.844Z" fill="#161616"/>
<path d="M393.079 330.645C390.495 329 385.758 333.739 385.171 336.05C383.997 340.75 390.025 340.202 392.531 341.768C393.157 342.16 393.744 341.142 393.118 340.75C391.317 339.614 388.655 340.045 387.089 338.635C385.171 336.912 386.933 334.836 388.264 333.622C388.968 332.995 391.356 330.919 392.492 331.624C393.118 332.094 393.744 331.076 393.079 330.645Z" fill="#161616"/>
<path d="M392.452 341.22C391.434 341.612 390.495 342.199 389.712 343.022C389.125 343.648 388.381 344.628 388.968 345.489C389.399 346.116 390.417 345.528 389.986 344.902C389.712 344.51 390.73 343.648 391.004 343.413C391.513 342.943 392.1 342.591 392.766 342.356C393.47 342.082 393.196 340.946 392.452 341.22Z" fill="#161616"/>
<path d="M391.983 342.043C391.239 343.218 391.004 344.549 391.278 345.881C391.435 346.625 392.57 346.312 392.413 345.568C392.179 344.51 392.413 343.531 393.001 342.63C393.431 342.003 392.413 341.416 391.983 342.043Z" fill="#161616"/>
<path d="M395.702 329.901C395.506 332.76 395.545 335.658 395.741 338.517C395.819 339.262 396.994 339.262 396.915 338.517C396.681 335.658 396.681 332.76 396.876 329.901C396.955 329.157 395.78 329.157 395.702 329.901Z" fill="#161616"/>
<path d="M396.563 330.214C400.713 330.449 404.823 330.606 408.973 330.684C408.777 330.488 408.581 330.293 408.385 330.097C408.268 333.034 408.151 336.011 407.994 338.948C407.955 339.693 409.129 339.693 409.168 338.948C409.286 336.011 409.403 333.034 409.56 330.097C409.56 329.783 409.286 329.509 408.973 329.509C404.823 329.431 400.713 329.274 396.563 329.039C395.819 329 395.819 330.175 396.563 330.214Z" fill="#161616"/>
<path d="M396.093 339.027C397.816 339.497 399.734 339.379 401.456 339.497C403.57 339.614 405.723 339.771 407.837 339.888C408.581 339.927 408.581 338.753 407.837 338.713C405.958 338.596 404.079 338.478 402.2 338.361C400.321 338.243 398.207 338.361 396.367 337.891C395.702 337.695 395.389 338.831 396.093 339.027Z" fill="#161616"/>
<path d="M397.424 345.097C398.129 346.625 399.656 345.293 400.83 345.842C401.378 346.077 401.261 346.429 402.004 346.468C402.866 346.508 404.98 344.784 405.41 346.39C405.528 346.821 406.076 346.938 406.389 346.664C406.78 346.547 407.211 346.429 407.602 346.351C408.072 346.938 408.933 346.077 408.425 345.528C407.524 344.471 406.389 345.058 405.528 345.842C405.841 345.92 406.193 345.998 406.506 346.116C406.154 344.745 404.706 343.844 403.335 344.471C402.67 344.784 402.592 345.372 401.574 344.98C401.378 344.902 401.3 344.588 401.104 344.51C400.673 344.353 398.403 344.588 398.403 344.549C398.129 343.805 397.111 344.392 397.424 345.097Z" fill="#161616"/>
<path d="M399.499 314.273C399.577 313.842 400.086 313.725 400.439 313.882C400.948 314.077 401.222 314.665 401.456 315.096C401.77 315.762 402.787 315.174 402.474 314.508C402.044 313.647 401.378 312.746 400.321 312.628C399.46 312.55 398.56 313.059 398.403 313.921C398.207 314.704 399.343 315.017 399.499 314.273Z" fill="#161616"/>
<path d="M406.702 314.822C406.78 314.43 407.133 314.195 407.524 314.352C407.994 314.508 408.19 315.096 408.268 315.527C408.385 316.271 409.521 315.957 409.403 315.213C409.247 314.273 408.62 313.294 407.602 313.138C406.702 313.02 405.723 313.568 405.567 314.508C405.449 315.252 406.585 315.566 406.702 314.822Z" fill="#161616"/>
<path d="M400.086 316.741C401.417 319.091 404.588 319.443 406.311 317.328C406.78 316.741 405.958 315.918 405.489 316.506C404.236 318.033 402.083 317.916 401.104 316.153C400.752 315.488 399.734 316.075 400.086 316.741Z" fill="#161616"/>
<path d="M359.02 103.909C354.088 101.912 351.113 97.1333 349.312 92.355C347.394 87.3808 346.572 81.9758 346.846 76.6492C347.315 66.8183 351.504 56.87 359.255 50.6033C366.576 44.65 377.42 42.9658 385.562 48.3708C394.057 54.0108 395.584 65.6433 395.662 75.0042C395.741 85.4225 393.314 96.35 385.602 103.831C385.053 104.34 385.876 105.202 386.424 104.653C393.744 97.525 396.524 87.3417 396.798 77.3933C397.072 67.6408 395.897 55.3033 387.872 48.6058C380.356 42.3392 369.199 42.6525 361.174 47.7442C352.287 53.3842 347.041 63.6067 345.906 73.9075C345.201 80.2917 345.984 86.9108 348.333 92.9425C350.33 98.0342 353.501 102.891 358.746 105.006C359.412 105.319 359.686 104.183 359.02 103.909Z" fill="#161616"/>
<path d="M358.472 104.653C357.141 106.533 357.415 109.314 359.373 110.724C360.86 111.782 363.053 111.938 364.814 112.173C366.928 112.487 369.081 112.604 371.235 112.604C375.071 112.565 379.455 112.291 383.018 110.802C385.602 109.706 387.559 107.121 386.189 104.34C385.876 103.674 384.858 104.262 385.171 104.927C388.107 110.92 374.21 111.429 371.195 111.429C368.416 111.429 365.636 111.194 362.935 110.685C361.643 110.45 360.195 110.215 359.373 109.079C358.551 107.904 358.707 106.377 359.49 105.28C359.921 104.614 358.903 104.027 358.472 104.653Z" fill="#161616"/>
<path d="M359.725 110.998C359.725 112.957 359.764 114.954 359.999 116.913C360.117 117.813 360.312 118.597 361.056 119.145C362.113 119.928 363.875 119.889 365.127 120.007C367.241 120.163 369.394 120.163 371.508 120.085C373.505 120.007 375.501 119.85 377.498 119.654C378.672 119.537 380.003 119.576 380.904 118.675C382.9 116.717 382.939 112.996 382.431 110.528C382.274 109.784 381.139 110.098 381.295 110.842C381.569 112.173 381.648 113.505 381.374 114.876C380.982 116.795 380.434 118.048 378.281 118.44C375.775 118.91 372.957 118.91 370.412 118.949C367.907 118.988 365.088 119.106 362.622 118.518C360.351 117.97 360.939 112.878 360.939 110.998C360.9 110.254 359.725 110.254 359.725 110.998Z" fill="#161616"/>
<path d="M360.117 68.8158C364.814 71.7533 368.377 76.0617 370.373 81.2317C370.647 81.9367 371.783 81.6233 371.509 80.9183C369.395 75.435 365.676 70.8917 360.743 67.7975C360.077 67.3667 359.49 68.385 360.117 68.8158Z" fill="#161616"/>
<path d="M371.313 81.2317C373.622 76.375 376.989 72.2233 381.295 69.0117C381.883 68.5808 381.295 67.5234 380.708 67.9934C376.245 71.3225 372.722 75.6308 370.295 80.6442C369.982 81.31 371 81.8975 371.313 81.2317Z" fill="#161616"/>
<path d="M370.373 79.8608C370.961 87.9292 371.235 95.9975 371.117 104.066C371.117 104.81 372.292 104.81 372.292 104.066C372.409 95.9975 372.135 87.89 371.548 79.8608C371.47 79.0775 370.295 79.0775 370.373 79.8608Z" fill="#161616"/>
<path d="M324.532 99.6008C329.738 97.8383 334.906 96.0758 340.112 94.3133C340.817 94.0783 340.504 92.9425 339.799 93.1775C334.593 94.94 329.425 96.7025 324.219 98.465C323.475 98.7 323.788 99.8358 324.532 99.6008Z" fill="#161616"/>
<path d="M330.482 91.7675C332.283 91.2583 334.084 90.71 335.884 90.2008C336.589 90.005 336.315 88.8692 335.571 89.065C333.77 89.5742 331.97 90.1225 330.169 90.6317C329.464 90.8667 329.738 92.0025 330.482 91.7675Z" fill="#161616"/>
<path d="M317.446 78.725C324.336 78.6467 331.187 78.8425 338.038 79.2733C338.781 79.3125 338.781 78.1375 338.038 78.0983C331.187 77.6675 324.297 77.5109 317.446 77.55C316.702 77.55 316.702 78.725 317.446 78.725Z" fill="#161616"/>
<path d="M332.009 73.3983C333.653 73.8292 335.336 74.025 337.02 74.0642C337.763 74.0642 337.763 72.8892 337.02 72.8892C335.415 72.85 333.849 72.6542 332.322 72.2625C331.578 72.0667 331.265 73.2025 332.009 73.3983Z" fill="#161616"/>
<path d="M329.464 36.9342C335.61 42.2217 341.208 48.0183 346.258 54.3633C346.728 54.9508 347.55 54.1283 347.08 53.5408C342.03 47.1958 336.432 41.36 330.286 36.1117C329.738 35.6025 328.877 36.425 329.464 36.9342Z" fill="#161616"/>
<path d="M346.65 48.0575C347.707 49.1542 348.725 50.2508 349.782 51.3867C350.291 51.935 351.113 51.1125 350.604 50.5642C349.547 49.4675 348.529 48.3708 347.472 47.235C346.963 46.6867 346.141 47.5092 346.65 48.0575Z" fill="#161616"/>
<path d="M322.809 50.2508C324.728 51.3867 326.685 52.4442 328.681 53.4233C329.347 53.7758 329.934 52.7575 329.269 52.405C327.272 51.3867 325.315 50.3292 323.397 49.2325C322.731 48.8408 322.144 49.8592 322.809 50.2508Z" fill="#161616"/>
<path d="M390.926 41.3208C396.72 35.5242 402.513 29.7275 408.307 23.9308C408.855 23.3825 407.994 22.56 407.485 23.1083C401.691 28.905 395.897 34.7017 390.104 40.4983C389.556 41.0467 390.378 41.8692 390.926 41.3208Z" fill="#161616"/>
<path d="M396.759 44.0233C398.246 42.9267 399.734 41.8692 401.222 40.7725C401.809 40.3417 401.261 39.3233 400.634 39.7542C399.147 40.8508 397.659 41.9083 396.172 43.005C395.545 43.4358 396.132 44.4542 396.759 44.0233Z" fill="#161616"/>
<path d="M372.84 33.6442C374.014 27.965 374.914 22.2467 375.462 16.4892C375.541 15.745 374.366 15.745 374.288 16.4892C373.74 22.1292 372.879 27.7692 371.704 33.3308C371.548 34.075 372.683 34.3883 372.84 33.6442Z" fill="#161616"/>
<path d="M405.763 69.6775C416.411 68.6983 427.02 67.7192 437.668 66.74C438.412 66.6617 438.412 65.4867 437.668 65.565C427.02 66.5442 416.411 67.5233 405.763 68.5025C405.019 68.5417 404.98 69.7167 405.763 69.6775Z" fill="#161616"/>
<path d="M361.017 106.063C367.633 107.512 374.366 107.473 380.943 105.985C381.687 105.828 381.374 104.693 380.63 104.849C374.249 106.298 367.711 106.337 361.33 104.927C360.586 104.771 360.273 105.907 361.017 106.063Z" fill="#161616"/>
<path d="M361.996 116.012C367.046 116.678 372.096 116.834 377.185 116.482C377.929 116.443 377.929 115.268 377.185 115.307C372.096 115.659 367.046 115.503 361.996 114.837C361.252 114.758 361.252 115.933 361.996 116.012Z" fill="#161616"/>
<path d="M398.364 102.108C406.311 107.708 414.414 113.113 422.635 118.322C423.261 118.714 423.849 117.696 423.222 117.304C415.001 112.095 406.898 106.69 398.951 101.089C398.325 100.658 397.737 101.677 398.364 102.108Z" fill="#161616"/>
<path d="M298.342 377.606C290.904 386.732 283.505 395.818 276.067 404.944C284.797 435.651 289.73 443.719 292.666 443.288C294.78 442.975 295.797 438.393 296.933 433.262C299.751 420.454 298.068 409.448 296.345 402.594C301.043 397.346 305.702 392.058 310.399 386.81C306.367 383.755 302.374 380.7 298.342 377.606Z" fill="#161616" stroke="#161616" stroke-width="2" stroke-miterlimit="10"/>
<path d="M270.9 330.606C275.558 334.209 280.021 332.917 289.26 334.483C297.128 335.815 305.976 338.752 315.371 344.627C305.349 356.377 295.328 368.793 285.384 381.875C282.996 385.047 280.608 388.22 278.299 391.392C282.135 392.293 286.754 393.703 291.765 395.975C296.659 398.168 300.652 400.636 303.823 402.868C318.738 389.865 332.048 377.292 343.91 365.425C349.39 359.942 357.141 351.56 358.355 339.692C358.433 339.027 358.433 338.439 358.433 337.852C358.159 318.151 333.379 303.894 318.307 298.646C301.826 292.927 273.483 289.833 265.576 303.503C260.917 311.571 263.657 325.005 270.9 330.606Z" fill="#DF701F"/>
<path opacity="0.26" d="M299.83 310.905C299.556 314.626 298.89 319.052 297.52 323.947C296.541 327.433 295.367 330.527 294.192 333.152C292.901 333.661 291.648 334.17 290.356 334.679C298.773 338.008 307.228 341.338 315.645 344.667C309.382 351.834 303.079 359.354 296.737 367.188C290.199 375.256 283.975 383.168 278.064 390.962C282.252 392.333 286.402 393.703 290.591 395.035C305.584 378.507 320.578 361.939 335.571 345.411C337.137 340.907 337.059 337.382 336.589 334.914C334.436 322.851 319.677 313.02 299.83 310.905Z" fill="#6D6C6C"/>
<path opacity="0.23" d="M315.567 344.588C316.937 346.664 318.268 348.779 319.638 350.855C307.972 364.916 296.306 378.938 284.641 392.998C282.566 392.45 280.452 391.862 278.377 391.314C285.854 381.052 293.918 370.517 302.648 359.903C306.994 354.615 311.3 349.523 315.567 344.588Z" fill="#6D6C6C"/>
<path d="M276.615 362.722C288.164 364.837 299.752 366.913 311.3 369.028C324.649 398.168 326.137 407.568 323.631 409.174C321.831 410.31 318.072 407.49 313.884 404.318C303.392 396.367 297.559 386.888 294.388 380.504C287.42 379.564 280.452 378.585 273.484 377.645C274.501 372.671 275.558 367.697 276.615 362.722Z" fill="#161616" stroke="#161616" stroke-width="2" stroke-miterlimit="10"/>
<path d="M252.814 297.823C231.752 304.012 218.912 316.858 210.652 325.318C199.495 336.794 185.793 350.855 189.747 361.234C191.783 366.522 197.968 369.773 226.781 374.786C248.547 378.585 267.416 380.622 282.135 381.758C283.975 375.021 285.815 368.323 287.616 361.587C272.818 356.808 258.06 352.069 243.262 347.291C252.344 345.372 261.896 343.1 271.839 340.319C279.395 338.204 286.598 336.011 293.449 333.7C299.791 320.893 301.161 307.067 294.545 299.233C285.306 288.267 264.597 294.338 252.814 297.823Z" fill="#DF701F"/>
<path opacity="0.29" d="M299.673 311.375C299.477 315.252 298.812 320.227 297.011 325.71C295.915 329.039 294.662 331.937 293.41 334.327C292.353 334.405 291.296 334.522 290.239 334.601C281.313 337.538 271.8 340.319 261.739 342.904C255.241 344.588 248.899 346.037 242.753 347.369C257.59 352.03 272.427 356.652 287.263 361.312C286.95 362.918 286.559 364.602 286.089 366.365C285.541 368.402 284.915 370.282 284.327 372.005C263.853 366.952 243.379 361.9 222.905 356.847C221.966 355.712 218.873 351.599 219.343 346.155C219.852 340.241 225.489 336.05 232.692 332.212C253.518 321.167 288.438 313.686 299.673 311.375Z" fill="#6D6C6C"/>
<path opacity="0.24" d="M232.222 348.192C235.941 347.918 239.7 347.643 243.419 347.33C258.021 352.187 272.623 357.083 287.224 361.939C286.598 364.25 285.972 366.6 285.345 368.911C267.651 361.978 249.917 355.085 232.222 348.192Z" fill="#6D6C6C"/>
<path d="M247.294 209.072C253.088 205.664 263.149 200.808 276.537 199.398C297.05 197.243 312.788 204.607 319.012 207.936C317.877 223.328 316.115 235.627 314.706 244.087C313.022 254.192 311.652 259.792 311.026 269.075C310.243 280.707 311.222 290.264 312.122 296.531C305.31 298.646 295.015 300.957 282.331 300.683C270.117 300.408 260.252 297.745 253.636 295.434C255.397 281.412 254.81 270.289 253.949 262.73C252.97 254.309 251.639 250.197 250.034 240.013C247.959 226.853 247.411 216.082 247.294 209.072Z" fill="white" stroke="#161616" stroke-width="2" stroke-miterlimit="10"/>
<path opacity="0.14" d="M289.651 204.058C290.474 207.035 291.413 211.148 292.039 216.083C292.47 219.412 294.232 234.491 288.751 254.388C285.384 266.647 281.822 279.611 270.156 290.264C266.398 293.711 262.757 296.022 260.095 297.471C266.006 298.998 273.718 300.448 282.84 300.526C294.78 300.643 304.645 298.489 311.496 296.374C311.104 293.437 310.595 289.011 310.4 283.684C310.243 279.023 310.243 271.582 313.453 250.628C315.998 234.138 317.798 227.049 318.699 212.127C318.816 210.403 318.855 208.954 318.934 207.975C316.076 206.291 312.357 204.45 307.777 202.962C303.549 201.591 299.752 200.886 296.62 200.572C294.349 201.708 292 202.883 289.651 204.058Z" fill="#6D6C6C"/>
<path opacity="0.17" d="M317.798 214.359C315.606 226.775 312.709 236.802 310.439 243.773C303.784 264.14 299.125 277.848 286.559 287.875C278.769 294.102 270.665 296.727 265.458 297.98C270.743 299.468 278.221 300.917 287.264 300.722C297.677 300.487 306.093 298.137 311.613 296.139C310.869 291.361 310.008 284.193 310.243 275.459C310.517 264.14 312.357 257.325 314.393 244.909C315.528 237.624 316.976 227.206 317.798 214.359Z" fill="#6D6C6C"/>
<path d="M247.059 208.876C241.97 212.401 235.432 217.962 229.717 226.227C216.837 244.948 217.19 264.806 217.698 272.13C220.047 278.436 224.08 286.7 231.126 294.808C235.237 299.547 241.265 306.362 251.561 310.748C255.006 312.237 258.02 313.059 260.213 313.529C262.092 311.845 263.932 310.161 265.811 308.477C259.782 301.427 253.714 294.024 247.646 286.387C242.988 280.551 238.525 274.754 234.219 269.036C234.375 264.218 235.393 255.484 240.639 246.358C243.614 241.188 247.098 237.428 249.878 234.882C248.938 226.227 247.999 217.571 247.059 208.876Z" fill="white" stroke="#161616" stroke-width="2" stroke-miterlimit="10"/>
<path opacity="0.13" d="M247.803 217.61C236.528 230.339 231.165 242.402 228.503 250.001C223.845 263.161 224.823 270.054 225.528 273.344C226.115 275.929 227.407 280.355 232.144 287.092C236.254 292.927 244.906 303.385 261.387 312.002C262.835 310.592 264.284 309.221 265.732 307.811C261.074 302.562 256.376 297.04 251.639 291.282C245.415 283.723 239.621 276.282 234.258 268.997C234.414 265.041 235.08 259.518 237.39 253.33C240.874 244.047 246.354 237.937 249.76 234.687C249.055 229.007 248.429 223.328 247.803 217.61Z" fill="#6D6C6C"/>
<path opacity="0.16" d="M234.219 269.506C234.923 274.088 236.372 279.924 239.425 286.23C246.159 299.938 256.689 307.498 262.053 310.788C263.11 309.848 264.127 308.947 265.184 308.007C254.849 295.16 244.554 282.313 234.219 269.506Z" fill="#6D6C6C"/>
<path d="M319.599 208.171C325.315 211.657 332.674 217.101 339.055 225.208C353.54 243.577 353.109 263.082 352.561 270.289C349.899 276.477 345.397 284.585 337.49 292.575C332.87 297.197 326.098 303.894 314.549 308.242C310.674 309.691 307.268 310.513 304.801 310.983C302.727 309.338 300.613 307.693 298.538 306.048C305.271 299.116 312.122 291.87 318.934 284.35C324.14 278.592 329.151 272.913 334.005 267.312C333.81 262.612 332.714 254.035 326.802 245.027C323.436 239.935 319.56 236.253 316.428 233.747C317.524 225.208 318.581 216.709 319.599 208.171Z" fill="white" stroke="#161616" stroke-width="2" stroke-miterlimit="10"/>
<path opacity="0.16" d="M319.325 217.688C324.297 222.897 331.069 231.24 336.354 242.872C338.86 248.395 342.931 257.364 343.009 265.824C343.283 291.557 306.876 309.26 304.762 310.278C302.688 308.947 300.652 307.654 298.577 306.323C310.36 293.397 322.105 280.472 333.888 267.547C333.653 263.317 332.674 255.445 327.977 247.063C324.101 240.17 319.286 235.705 316.115 233.237C317.211 228.067 318.268 222.897 319.325 217.688Z" fill="#6D6C6C"/>
<path opacity="0.12" d="M334.279 267.665C333.692 271.073 332.714 274.793 331.187 278.632C324.297 296.022 310.36 305.539 303.314 309.612C301.63 308.516 299.986 307.419 298.303 306.322C310.282 293.437 322.261 280.551 334.279 267.665Z" fill="#6D6C6C"/>
<path d="M328.603 270.563H232.34V331.546H328.603V270.563Z" fill="white" stroke="#161616" stroke-width="2" stroke-miterlimit="10"/>
<path d="M279.082 306.871C273.993 307.497 271.526 301.309 272.857 297.197C274.149 293.123 278.964 291.204 282.879 292.614C286.755 294.024 288.634 298.763 287.263 302.562C285.737 306.792 280.413 308.516 276.498 306.636C275.833 306.322 275.206 307.341 275.911 307.654C279.395 309.338 283.662 308.712 286.441 305.97C289.143 303.267 289.534 298.998 287.851 295.669C284.014 288.071 272.153 290.499 271.331 298.842C270.9 303.307 274.11 308.672 279.082 308.085C279.826 307.967 279.826 306.792 279.082 306.871Z" fill="#161616"/>
<path opacity="0.14" d="M268.473 270.407C281.509 274.95 290.395 286.582 290.669 299.077C291.022 314.743 277.868 329.47 259.939 330.958C282.762 331.154 305.585 331.35 328.447 331.546C328.368 311.101 328.329 290.656 328.251 270.25C308.325 270.25 288.399 270.328 268.473 270.407Z" fill="#6D6C6C"/>
<path opacity="0.26" d="M328.446 270.211C328.094 282.666 325.628 292.379 323.553 298.763C320.5 308.046 318.307 314.822 312.005 320.814C303.431 329.039 292.744 330.567 288.046 330.958C301.396 331.076 314.745 331.193 328.094 331.35C328.133 319.718 328.212 308.085 328.29 296.413C328.29 287.679 328.368 278.945 328.446 270.211Z" fill="#6D6C6C"/>
<path d="M277.633 177.464C275.48 180.088 277.555 183.3 277.163 191.878C276.968 196.147 276.263 199.593 275.715 201.904C277.555 202.766 280.804 203.98 284.993 204.097C290.16 204.215 294.075 202.609 295.993 201.669C295.132 199.946 293.997 197.283 293.292 193.836C291.53 185.062 294.662 180.95 292.078 177.699C289.064 173.939 280.53 173.9 277.633 177.464Z" fill="white" stroke="#161616" stroke-width="2" stroke-miterlimit="10"/>
<path d="M263.97 139.786C261.504 146.131 262.444 151.849 262.992 154.317C262.757 154.356 258.177 155.335 256.924 158.86C255.671 162.424 258.255 167.477 263.657 169.122C265.615 173.9 270.351 183.143 280.334 188.196C282.017 189.018 283.622 189.684 285.227 190.154C286.676 189.606 288.633 188.744 290.865 187.452C297.833 183.417 301.709 178.404 302.609 177.19C304.253 174.997 306.485 171.472 308.05 166.615C308.912 166.772 310.438 166.85 311.926 166.106C315.293 164.382 316.976 159.017 314.627 155.531C312.67 152.632 308.872 152.515 308.403 152.515C308.912 150.478 310.478 143.154 306.524 135.908C301.983 127.566 292.235 123.179 283.074 124.432C269.529 126.195 264.205 139.159 263.97 139.786Z" fill="white" stroke="#161616" stroke-width="2" stroke-miterlimit="10"/>
<path d="M277.124 187.843C279.512 189.253 282.135 191.447 285.071 191.212C287.498 191.016 290.199 189.606 292.039 188.117C292.626 187.647 291.804 186.825 291.217 187.295C289.495 188.666 286.715 190.115 284.445 190.076C282.057 190.037 279.63 188.039 277.672 186.825C277.085 186.433 276.498 187.452 277.124 187.843Z" fill="#161616"/>
<path d="M276.967 188.352C279.199 190.272 281.743 192.426 284.875 192.269C287.929 192.112 290.786 190.076 292.783 187.882C293.292 187.334 292.47 186.512 291.961 187.06C290.238 188.94 287.811 190.781 285.149 191.055C282.213 191.329 279.864 189.332 277.789 187.53C277.241 187.021 276.419 187.843 276.967 188.352Z" fill="#161616"/>
<path d="M278.455 188.588C278.455 188.548 278.455 188.548 278.455 188.588C278.22 188.235 277.79 188.157 277.516 188.431C277.516 188.431 277.516 188.431 277.476 188.47C277.242 188.666 277.242 189.097 277.476 189.292C281.783 193.405 289.69 194.737 292.783 188.431C293.096 187.765 292.118 187.138 291.765 187.843C289.025 193.483 282.096 192.113 278.338 188.47C278.338 188.744 278.338 189.018 278.338 189.292C278.338 189.292 278.338 189.293 278.377 189.253C278.064 189.214 277.75 189.175 277.437 189.136V189.175C277.829 189.802 278.847 189.214 278.455 188.588Z" fill="#161616"/>
<path d="M283.153 152.358C282.644 158.703 282.918 165.009 283.936 171.276C283.975 171.589 284.366 171.785 284.64 171.667C286.167 171.158 287.263 170.257 288.085 168.887C288.477 168.221 287.459 167.633 287.068 168.299C286.402 169.435 285.58 170.101 284.327 170.532C284.562 170.649 284.797 170.806 285.032 170.923C284.014 164.774 283.779 158.547 284.288 152.319C284.406 151.575 283.231 151.575 283.153 152.358Z" fill="#161616"/>
<path d="M276.185 158.586C276.263 158.938 276.85 161.132 276.185 161.484C275.519 161.837 273.64 160.427 273.053 158.586C272.583 157.019 272.975 155.061 273.718 154.904C274.501 154.708 275.715 156.863 276.185 158.586Z" fill="#161616" stroke="#161616" stroke-miterlimit="10"/>
<path d="M296.385 158.586C296.463 158.938 297.05 161.132 296.385 161.484C295.719 161.837 293.84 160.427 293.253 158.586C292.783 157.019 293.175 155.061 293.918 154.904C294.701 154.708 295.915 156.863 296.385 158.586Z" fill="#161616" stroke="#161616" stroke-miterlimit="10"/>
<path d="M281.744 176.446C286.52 178.483 290.865 175.623 294.388 172.529C294.975 172.02 294.114 171.197 293.566 171.707C290.513 174.37 286.598 177.229 282.37 175.428C281.626 175.153 281.039 176.172 281.744 176.446Z" fill="#161616"/>
<path d="M295.523 164.813C296.267 164.813 296.267 163.638 295.523 163.638C294.78 163.638 294.78 164.813 295.523 164.813Z" fill="#161616"/>
<path d="M299.869 162.62C299.908 162.581 299.947 162.542 299.986 162.502C300.221 162.267 300.221 161.915 299.986 161.68C299.751 161.445 299.399 161.445 299.164 161.68C299.125 161.719 299.086 161.758 299.047 161.797C298.812 162.032 298.812 162.385 299.047 162.62C299.281 162.855 299.634 162.855 299.869 162.62Z" fill="#161616"/>
<path d="M298.577 165.479C298.616 165.479 298.655 165.479 298.694 165.479C299.008 165.479 299.282 165.205 299.282 164.892C299.282 164.578 299.008 164.304 298.694 164.304C298.655 164.304 298.616 164.304 298.577 164.304C298.264 164.304 297.99 164.578 297.99 164.892C297.99 165.205 298.225 165.479 298.577 165.479Z" fill="#161616"/>
<path d="M271.565 151.575C273.053 150.322 275.245 150.282 276.733 151.497C277.32 151.967 278.142 151.144 277.555 150.674C275.519 149.029 272.701 149.029 270.704 150.752C270.156 151.222 271.017 152.045 271.565 151.575Z" fill="#161616"/>
<path d="M290.669 151.144C292.352 149.656 294.74 149.382 296.737 150.439C297.402 150.792 297.99 149.773 297.324 149.421C294.858 148.089 291.922 148.442 289.847 150.322C289.26 150.831 290.082 151.653 290.669 151.144Z" fill="#161616"/>
<path d="M271.878 164.696C272.622 164.696 272.622 163.521 271.878 163.521C271.135 163.521 271.135 164.696 271.878 164.696Z" fill="#161616"/>
<path d="M276.028 164.147C276.772 164.147 276.772 162.973 276.028 162.973C275.284 162.973 275.284 164.147 276.028 164.147Z" fill="#161616"/>
<path d="M273.953 165.048C273.914 165.087 273.875 165.127 273.836 165.166C273.601 165.401 273.601 165.753 273.836 165.988C274.071 166.223 274.423 166.223 274.658 165.988C274.697 165.949 274.736 165.91 274.775 165.871C275.01 165.636 275.01 165.283 274.775 165.048C274.54 164.813 274.188 164.813 273.953 165.048Z" fill="#161616"/>
<path d="M270.352 127.057C268.003 128.506 262.874 131.678 259.39 138.18C255.906 144.642 255.945 150.753 256.102 153.377C250.386 163.678 247.803 172.764 246.55 178.953C244.514 188.783 245.61 192.387 247.02 194.776C250.465 200.651 257.394 202.1 259.077 202.453C267.729 204.293 274.619 199.868 276.185 198.849C276.615 197.557 277.046 195.951 277.281 194.149C277.711 191.055 277.476 188.392 277.124 186.473C275.167 184.867 272.896 182.713 270.704 179.893C267.376 175.584 265.497 171.354 264.44 168.299C260.995 167.947 258.412 165.597 258.177 162.973C257.942 160.505 259.664 157.333 261.935 157.333C263.618 157.333 264.832 159.056 265.067 159.369C266.359 158.625 268.159 157.333 269.764 155.296C272.074 152.358 272.466 149.734 273.523 146.993C274.54 144.329 276.498 140.647 280.726 136.809C284.797 138.258 288.046 139.668 290.278 140.726C297.442 144.055 301.513 146.013 304.684 150.283C306.445 152.633 307.346 154.943 307.816 156.393C311.456 153.612 312.944 154.356 313.257 154.513C315.567 155.805 315.489 162.894 311.887 164.853C310.517 165.597 308.951 165.401 307.972 165.166C306.837 169.122 304.332 175.584 298.577 181.303C296.659 183.222 294.701 184.71 292.94 185.846C292.783 187.295 292.705 189.293 293.096 191.643C293.449 193.797 294.075 195.559 294.662 196.813C304.175 203.079 315.997 201.943 322.418 195.207C328.133 189.175 328.133 180.049 325.98 173.822C324.023 168.143 320.225 164.735 318.346 163.247C318.855 161.053 321.674 148.05 313.492 136.104C311.378 133.01 305.467 125.529 294.819 122.944C283.544 120.202 274.266 124.667 270.352 127.057Z" fill="#486F9A"/>
<path opacity="0.17" d="M295.171 143.154C299.595 148.716 300.769 153.847 301.161 156.51C302.766 167.712 296.267 176.798 292.979 181.459C290.278 185.258 287.498 187.961 285.502 189.723C287.224 194.345 288.908 198.928 290.63 203.549C292.392 202.962 294.153 202.374 295.915 201.787C295.093 200.338 294.232 198.536 293.566 196.343C292.353 192.426 292.274 188.979 292.392 186.629C294.545 185.102 297.05 183.026 299.477 180.284C304.332 174.801 306.759 169.161 308.011 165.362C308.794 165.518 310.478 165.714 312.083 164.813C315.449 162.894 314.901 158.116 314.862 157.803C314.745 156.784 314.51 155.139 313.336 154.473C311.965 153.729 309.695 154.434 307.894 156.549C307.346 154.63 305.78 150.204 301.552 146.679C299.203 144.721 296.815 143.703 295.171 143.154Z" fill="#6D6C6C"/>
<path opacity="0.19" d="M283.701 152.711C283.466 152.672 282.683 156.079 280.295 171.119C281.665 171.119 283.035 171.119 284.406 171.119C284.132 169.122 283.818 166.223 283.662 162.698C283.466 156.667 283.936 152.75 283.701 152.711Z" fill="#6D6C6C"/>
<path opacity="0.54" d="M318.111 163.638C317.446 164.03 319.951 167.398 319.599 172.412C319.482 173.978 319.247 177.542 316.428 179.932C316.232 180.088 312.044 183.535 307.894 181.342C305.428 180.049 303.94 177.308 304.018 174.331C302.844 176.524 300.926 179.422 297.911 182.242C296.032 184.005 294.192 185.298 292.587 186.277C292.47 188 292.47 190.35 293.096 193.013C293.449 194.463 293.879 195.716 294.31 196.734C295.523 197.518 297.324 198.575 299.673 199.398C301.161 199.907 309.342 202.766 317.328 198.81C318.738 198.105 321.87 196.499 324.14 193.053C324.414 192.622 325.432 191.094 326.176 188.509C328.838 179.657 324.923 171.667 324.571 171.002C322.418 166.654 318.934 163.168 318.111 163.638Z" fill="#094067"/>
<path opacity="0.35" d="M264.401 168.456C264.049 168.495 264.832 171.707 263.971 174.879C263.344 177.229 261.348 181.067 257.942 181.851C254.379 182.634 249.956 180.01 247.92 175.114C246.981 177.268 245.728 180.715 245.532 185.102C245.415 187.961 245.258 191.016 246.667 194.032C249.838 200.768 259.155 203.392 266.085 202.766C270.704 202.335 274.188 200.533 276.067 199.319C276.537 197.987 277.007 196.382 277.32 194.541C277.829 191.368 277.711 188.587 277.437 186.551C274.345 184.318 272.231 182.007 270.9 180.323C269.021 177.934 266.476 174.722 265.184 170.258C264.988 169.748 264.636 168.417 264.401 168.456Z" fill="#094067"/>
</svg>
