<svg width="33" height="33" fill="none" xmlns="http://www.w3.org/2000/svg"><path d="M16.5 2.973c4.406 0 4.927.017 6.667.096 1.61.074 2.483.342 3.064.568.77.3 1.32.657 1.897 1.235a5.11 5.11 0 011.235 1.897c.226.581.494 1.455.568 3.064.08 1.74.096 2.261.096 6.667s-.017 4.928-.096 6.667c-.074 1.61-.342 2.483-.568 3.064-.3.77-.657 1.32-1.235 1.897a5.113 5.113 0 01-1.897 1.235c-.581.226-1.455.495-3.064.568-1.74.08-2.261.096-6.667.096s-4.928-.017-6.667-.096c-1.61-.073-2.483-.342-3.064-.568-.77-.3-1.32-.657-1.897-1.235a5.112 5.112 0 01-1.235-1.897c-.226-.581-.494-1.455-.568-3.064-.08-1.74-.096-2.261-.096-6.667s.017-4.928.096-6.667c.074-1.61.342-2.483.568-3.064.3-.77.657-1.32 1.235-1.897a5.113 5.113 0 011.897-1.235c.581-.226 1.455-.494 3.064-.568 1.74-.08 2.261-.096 6.667-.096zM16.5 0c-4.481 0-5.043.019-6.803.1-1.756.08-2.956.358-4.005.766A8.088 8.088 0 002.769 2.77 8.088 8.088 0 00.866 5.692C.458 6.742.18 7.94.1 9.697.02 11.457 0 12.02 0 16.5s.019 5.043.1 6.803c.08 1.756.358 2.956.766 4.005a8.089 8.089 0 001.903 2.923 8.09 8.09 0 002.923 1.903c1.05.408 2.249.687 4.005.767 1.76.08 2.322.099 6.803.099s5.043-.019 6.803-.1c1.756-.08 2.956-.358 4.005-.766a8.09 8.09 0 002.923-1.903 8.087 8.087 0 001.903-2.923c.408-1.05.687-2.249.767-4.005.08-1.76.099-2.322.099-6.803s-.019-5.043-.1-6.803c-.08-1.756-.358-2.956-.766-4.005a8.087 8.087 0 00-1.903-2.923A8.088 8.088 0 0027.308.866C26.258.458 25.06.18 23.303.1 21.543.02 20.98 0 16.5 0zm0 8.027a8.473 8.473 0 100 16.946 8.473 8.473 0 000-16.946zM16.5 22a5.5 5.5 0 110-11 5.5 5.5 0 010 11zM27.288 7.692a1.98 1.98 0 11-3.96 0 1.98 1.98 0 013.96 0z" fill="#fff"/></svg>