<svg width="80" height="71" viewBox="0 0 80 71" fill="none" xmlns="http://www.w3.org/2000/svg">
<g clip-path="url(#clip0_123_193)">
<path d="M86.1629 67.4099C86.1661 67.4099 86.1694 67.4099 86.1759 67.4099C86.9118 67.4099 87.518 66.8064 87.518 66.073C87.518 66.0472 87.518 66.0216 87.5148 65.9958C87.5148 64.9931 86.9086 64.5139 85.6604 64.5139H83.6472V69.7647H84.4058V67.4758H85.3362L85.3557 67.5036L86.8016 69.7647H87.6121L86.0592 67.4244L86.1629 67.4099ZM85.2843 66.8839H84.4058V65.109H85.521C86.0948 65.109 86.7497 65.2024 86.7497 65.9525C86.7497 66.8151 86.0883 66.8839 85.2811 66.8839H85.2843ZM-208.889 9.99753H-197.71V50.5592H-177.014V60.8354H-208.889V9.99753ZM-172.071 26.3658H-161.332V60.8164H-172.071V26.3658ZM-166.702 9.23865C-163.285 9.23929 -160.473 12.0404 -160.473 15.4444C-160.473 18.8487 -163.285 21.6501 -166.703 21.6501C-170.12 21.6501 -172.933 18.8487 -172.933 15.4444C-172.933 12.0401 -170.12 9.23865 -166.703 9.23865C-166.702 9.23865 -166.702 9.23865 -166.702 9.23865ZM-116.407 9.98977H-105.668V40.3718L-93.4962 26.3503H-80.329L-94.4247 42.2997L-80.6257 60.8309H-94.1238L-105.524 43.8016H-105.665V60.8286H-116.405L-116.407 9.98977ZM-155.377 26.3693H-145.064V31.0773H-144.917C-142.821 27.5002 -138.903 25.3563 -134.748 25.5123C-123.858 25.5123 -121.853 32.6496 -121.853 41.9219V60.8141H-132.593V44.0648C-132.593 40.0666 -132.666 34.9272 -138.186 34.9272C-143.768 34.9272 -144.63 39.281 -144.63 43.7738V60.8099H-155.369L-155.377 26.3693Z" fill="black"/>
<path d="M-57.7332 39.6015C-57.7322 39.5511 -57.7316 39.5004 -57.7316 39.4501C-57.7316 35.9314 -60.6383 33.0361 -64.1707 33.0361C-64.2229 33.0361 -64.2748 33.0367 -64.327 33.038C-68.206 32.7974 -71.6106 35.7419 -71.916 39.6015H-57.7332ZM-48.636 54.8676C-52.2478 59.2304 -57.6457 61.7495 -63.3223 61.7221C-74.0619 61.7221 -82.6602 54.5812 -82.6602 43.5238C-82.6602 32.4664 -74.0629 25.3291 -63.3223 25.3291C-53.2843 25.3291 -46.9894 32.4606 -46.9894 43.5238V46.878H-71.916C-71.2774 50.7932 -67.8036 53.6718 -63.8225 53.5853C-60.7197 53.5659 -57.8301 51.9787 -56.1582 49.3752L-48.636 54.8676ZM-24.6041 34.7104C-29.9737 34.7104 -33.1956 38.282 -33.1956 43.486C-33.1956 48.69 -29.975 52.2645 -24.6041 52.2645C-19.2332 52.2645 -16.0045 48.6987 -16.0045 43.486C-16.0045 38.273 -19.2276 34.7104 -24.6041 34.7104ZM-6.11755 60.8272H-16.0045V56.2585H-16.1511C-18.6636 59.6243 -22.6174 61.6333 -26.8281 61.683C-37.1468 61.683 -43.9442 54.2647 -43.9442 43.7744C-43.9442 34.1402 -37.9288 25.2932 -28.0409 25.2932C-23.5962 25.2932 -19.4445 26.5045 -17.0092 29.862H-16.8682V10.0036H-6.11886L-6.11755 60.8272ZM66.3843 60.8473H55.6447V44.0944C55.6447 40.0995 55.5731 34.9568 50.0592 34.9568C44.4655 34.9568 43.6096 39.3093 43.6096 43.8034V60.846H32.8704V26.3954H43.1801V31.1033H43.3247C45.4238 27.5282 49.3414 25.3849 53.4969 25.5386C64.3817 25.5386 66.3888 32.6702 66.3888 41.9482L66.3843 60.8473ZM20.7526 21.6861H20.7513C17.3324 21.6861 14.519 18.8841 14.519 15.4785C14.519 12.0729 17.3324 9.27051 20.7513 9.27051C24.17 9.27051 26.983 12.0722 26.9836 15.4772V15.4785C26.9836 18.8834 24.1709 21.6858 20.7526 21.6861ZM26.1223 60.8473H15.3717V26.3954H26.1223V60.8473ZM71.738 -0.66372H9.9748C7.07553 -0.696336 4.6619 1.65199 4.62657 4.53993V66.3173C4.66061 69.2069 7.07391 71.5578 9.9748 71.5268H71.738C74.6461 71.5633 77.0678 69.2127 77.1067 66.3173V4.53574C77.0678 1.64166 74.6428 -0.706349 71.738 -0.668244V-0.66372ZM85.3574 62.1922C82.6634 62.2181 80.4621 64.4321 80.4621 67.115C80.4621 69.8159 82.6926 72.0383 85.4028 72.0383C88.1163 72.0383 90.3468 69.8159 90.3468 67.115C90.3468 64.4321 88.1455 62.2181 85.4514 62.1922H85.3574ZM85.3574 71.4745C85.3315 71.4748 85.3088 71.4751 85.2829 71.4751C82.9065 71.4751 80.9516 69.5266 80.9516 67.1582C80.9516 64.7902 82.9065 62.8413 85.2829 62.8413C87.6333 62.8413 89.5784 64.7456 89.6173 67.0862V67.1589C89.666 69.4752 87.7954 71.4222 85.4709 71.4722H85.3574" fill="black"/>
</g>
<defs>
<clipPath id="clip0_123_193">
<rect width="80" height="71" fill="white"/>
</clipPath>
</defs>
</svg>
