<svg width="41" height="33" fill="none" xmlns="http://www.w3.org/2000/svg"><path d="M41 3.906a16.942 16.942 0 01-4.831 1.312A8.37 8.37 0 0039.867.61a16.939 16.939 0 01-5.341 2.022A8.438 8.438 0 0028.386 0c-4.645 0-8.412 3.73-8.412 8.33 0 .654.075 1.29.218 1.9A23.958 23.958 0 012.854 1.524a8.23 8.23 0 00-1.139 4.188c0 2.89 1.485 5.44 3.742 6.934a8.44 8.44 0 01-3.81-1.042v.105c0 4.036 2.9 7.403 6.747 8.169a8.5 8.5 0 01-3.798.143c1.07 3.31 4.176 5.718 7.857 5.785a16.98 16.98 0 01-10.446 3.566c-.68 0-1.349-.04-2.007-.116A23.976 23.976 0 0012.894 33c15.472 0 23.933-12.694 23.933-23.704 0-.36-.008-.72-.024-1.077A16.999 16.999 0 0041 3.906z" fill="#fff"/></svg>