<svg width="116" height="71" viewBox="0 0 116 71" fill="none" xmlns="http://www.w3.org/2000/svg">
<g clip-path="url(#clip0_123_199)">
<path d="M32.9651 0C36.2306 0 39.2472 0.248035 42.015 0.99214C44.7828 1.48821 47.0531 2.51135 49.0745 3.75153C51.096 4.9917 52.5887 6.75895 53.615 9.02227C54.6102 11.2856 55.1389 14.045 55.1389 17.0524C55.1389 20.5559 54.3925 23.5633 52.6198 25.8266C51.096 28.09 48.608 30.1052 45.5603 31.5935C49.852 32.8336 53.1174 35.0969 55.1078 38.1044C57.0981 41.1118 58.3732 44.8633 58.3732 49.1419C58.3732 52.6454 57.6268 55.6528 56.3517 58.1642C55.1078 60.6756 53.0863 62.9389 50.8161 64.4271C48.5458 65.9463 45.778 67.1865 42.7614 67.9306C39.7448 68.6747 36.7282 69.1708 33.7115 69.1708L0 69.2328V0H32.9651ZM30.9437 28.09C33.7115 28.09 35.9818 27.3459 37.7233 26.0747C39.4649 24.8035 40.2424 22.5712 40.2424 19.8118C40.2424 18.2926 39.9936 16.8044 39.496 15.8122C38.9984 14.8201 38.252 14.045 37.2257 13.3009C36.2306 12.8048 35.2043 12.3087 33.9603 12.0607C32.7164 11.8127 31.4413 11.8127 29.9485 11.8127H15.363V28.121C15.363 28.09 30.9437 28.09 30.9437 28.09ZM31.6901 57.6991C33.2139 57.6991 34.7067 57.4511 35.9818 57.2031C37.2257 56.955 38.5008 56.459 39.496 55.6838C40.4912 54.9087 41.2686 54.1646 42.015 52.9245C42.5126 51.6843 43.0102 50.1651 43.0102 48.3978C43.0102 44.8943 42.015 42.383 39.9936 40.6157C37.9721 39.0965 35.2043 38.3524 31.9389 38.3524H15.363V57.6681H31.6901V57.6991Z" fill="black"/>
<path d="M80.267 57.4511C82.2884 59.4664 85.3051 60.4585 89.3169 60.4585C92.0847 60.4585 94.6037 59.7144 96.6252 58.4432C98.6466 56.924 99.8906 55.4358 100.388 53.9166H112.703C110.682 59.9314 107.665 64.21 103.654 66.9694C99.6418 69.4808 94.8525 70.969 89.0681 70.969C85.0563 70.969 81.511 70.2249 78.2456 68.9537C74.9801 67.7135 72.4611 65.9463 70.1909 63.4349C67.9206 61.1716 66.1791 58.4122 65.1528 55.1568C63.9088 51.9013 63.3801 48.3978 63.3801 44.3672C63.3801 40.6157 63.8777 37.0812 65.1528 33.8257C66.4278 30.5703 68.1694 27.8109 70.4396 25.2995C72.7099 23.0362 75.4777 21.0209 78.4943 19.7808C81.7598 18.5406 85.0252 17.7655 89.0681 17.7655C93.3598 17.7655 97.1228 18.5096 100.388 20.2768C103.654 22.0441 106.173 24.0284 108.194 27.0358C110.216 29.7952 111.708 33.0506 112.735 36.5541C113.232 40.0576 113.481 43.5921 113.232 47.5917H76.7528C76.7528 51.6843 78.2456 55.4358 80.267 57.4511ZM96.1276 31.0974C94.3549 29.3301 91.5871 28.338 88.3217 28.338C86.0514 28.338 84.3099 28.834 82.786 29.5782C81.2622 30.3223 80.267 31.3454 79.2718 32.3375C78.2766 33.3297 77.748 34.6009 77.4992 35.841C77.2504 37.0812 77.0016 38.1044 77.0016 39.0965H99.6418C99.1442 35.376 97.8692 32.8646 96.1276 31.0974ZM73.985 4.77466H102.161V11.5336H73.985V4.77466Z" fill="black"/>
</g>
<defs>
<clipPath id="clip0_123_199">
<rect width="116" height="71" fill="white"/>
</clipPath>
</defs>
</svg>
