<svg width="685" height="630" viewBox="0 0 685 630" fill="none" xmlns="http://www.w3.org/2000/svg">
<path d="M509.395 348.168C510.743 368.448 483.921 386.14 466.315 407.119C448.333 427.958 439.642 451.734 422.186 460.825C404.654 470.335 378.881 464.881 349.062 468.447C319.318 472.014 285.753 484.881 261.328 474.741C237.053 464.881 221.694 432.154 218.473 401.944C215.476 372.014 224.616 344.672 217.274 311.455C209.557 278.099 185.432 239.078 191.501 217.26C197.42 195.162 233.832 190.757 264.175 172.715C294.893 154.813 296.392 130.827 324.412 129.778C346.14 128.659 344.267 152.365 377.832 167.26C405.553 179.568 418.589 211.736 406.827 237.54C400.084 252.295 395.139 266.56 401.957 278.658C418.589 307.469 508.271 327.819 509.395 348.168Z" fill="#F55C4A"/>
<path fill-rule="evenodd" clip-rule="evenodd" d="M256.308 179.358C261.927 177.051 260.428 167.61 252.861 162.365C245.294 157.121 233.082 161.876 230.01 161.736C212.478 160.897 206.41 176.142 212.179 192.925C213.827 197.82 227.987 210.057 233.681 206.841C239.525 203.554 228.137 187.96 233.082 184.393" fill="#1C2628"/>
<path d="M256.308 179.358C261.927 177.051 260.428 167.61 252.861 162.365C245.294 157.121 233.082 161.876 230.01 161.736C212.478 160.897 206.41 176.142 212.179 192.925C213.827 197.82 227.987 210.057 233.681 206.841C239.525 203.554 228.137 187.96 233.082 184.393" stroke="#1C2628" stroke-width="2.13" stroke-linecap="round" stroke-linejoin="round"/>
<path fill-rule="evenodd" clip-rule="evenodd" d="M224.017 193.834C224.017 193.834 223.043 211.736 221.02 215.512C215.101 226.561 187.455 249.917 187.455 249.917C187.455 249.917 220.271 248.309 230.835 247.19C241.399 246.071 259.23 231.596 259.23 231.596L250.464 200.547L224.017 193.834Z" fill="#F45B49" stroke="#1C2628" stroke-width="2.13" stroke-linecap="round" stroke-linejoin="round"/>
<path fill-rule="evenodd" clip-rule="evenodd" d="M219.521 193.064C217.948 182.086 225.515 172.086 236.454 170.757C241.848 170.058 247.243 166.421 251.363 169.568C255.484 172.715 258.256 182.715 259.005 188.169C260.579 199.148 253.012 209.148 242.073 210.477C236.154 211.176 230.31 211.596 226.115 207.89C222.518 204.743 220.196 198.099 219.521 193.064Z" fill="#F45B49" stroke="#1C2628" stroke-width="2.13" stroke-linecap="round" stroke-linejoin="round"/>
<path fill-rule="evenodd" clip-rule="evenodd" d="M253.611 185.093C256.159 188.03 263.051 193.414 261.853 195.302C260.354 197.82 254.51 194.953 253.911 194.393" fill="#F45B49"/>
<path d="M253.611 185.093C256.159 188.03 263.051 193.414 261.853 195.302C260.354 197.82 254.51 194.953 253.911 194.393" stroke="#1C2628" stroke-width="2.13" stroke-linecap="round" stroke-linejoin="round"/>
<path fill-rule="evenodd" clip-rule="evenodd" d="M237.053 183.974C237.278 182.435 239.451 181.456 241.848 181.736C244.246 182.086 246.044 183.554 245.819 185.093C245.594 186.631 243.422 187.61 241.024 187.33C238.552 187.051 236.753 185.512 237.053 183.974Z" fill="#FAFCFF" stroke="#1C2628" stroke-width="2.13" stroke-linecap="round" stroke-linejoin="round"/>
<path fill-rule="evenodd" clip-rule="evenodd" d="M253.386 184.323C253.611 182.855 255.259 181.946 257.207 182.225C259.08 182.505 260.504 183.904 260.279 185.372C260.054 186.841 258.406 187.75 256.458 187.47C254.585 187.19 253.237 185.722 253.386 184.323Z" fill="#FAFCFF" stroke="#1C2628" stroke-width="2.13" stroke-linecap="round" stroke-linejoin="round"/>
<path fill-rule="evenodd" clip-rule="evenodd" d="M254.585 168.239C256.233 169.358 255.559 165.232 256.233 167.19C258.481 173.414 253.836 172.645 248.666 172.645C243.796 172.645 238.177 174.533 238.177 174.533C238.177 174.533 230.984 173.974 229.936 182.365C229.561 185.372 232.932 192.016 240.724 195.722C247.018 198.729 258.781 197.12 258.781 197.12C258.781 197.12 258.93 216.421 250.839 218.938C245.669 220.547 237.428 223.484 230.31 215.022C228.737 213.134 219.297 198.659 218.398 195.022C217.424 190.967 224.691 196.701 224.241 193.554C223.267 186.701 223.567 185.582 222.219 185.092C217.199 183.414 215.026 177.47 218.173 173.834C220.795 170.897 224.466 169.149 228.287 168.1C232.258 167.051 236.753 167.47 240.5 166.211" fill="#1C2628"/>
<path d="M254.585 168.239C256.233 169.358 255.559 165.232 256.233 167.19C258.481 173.414 253.836 172.645 248.666 172.645C243.796 172.645 238.177 174.533 238.177 174.533C238.177 174.533 230.984 173.974 229.936 182.365C229.561 185.372 232.932 192.016 240.724 195.722C247.018 198.729 258.781 197.12 258.781 197.12C258.781 197.12 258.93 216.421 250.839 218.938C245.669 220.547 237.428 223.484 230.31 215.022C228.737 213.134 219.297 198.659 218.398 195.022C217.424 190.967 224.691 196.701 224.241 193.554C223.267 186.701 223.567 185.582 222.219 185.092C217.199 183.414 215.026 177.47 218.173 173.834C220.795 170.897 224.466 169.149 228.287 168.1C232.258 167.051 236.753 167.47 240.5 166.211" stroke="#1C2628" stroke-width="2.13" stroke-linecap="round" stroke-linejoin="round"/>
<path fill-rule="evenodd" clip-rule="evenodd" d="M243.572 166.142C239.526 150.897 226.864 153.904 226.04 161.876C220.271 155.093 204.388 161.177 211.056 174.184C208.433 173.135 204.088 184.953 218.023 182.715" fill="#1C2628"/>
<path d="M243.572 166.142C239.526 150.897 226.864 153.904 226.04 161.876C220.271 155.093 204.388 161.177 211.056 174.184C208.433 173.135 204.088 184.953 218.023 182.715" stroke="#1C2628" stroke-width="2.13" stroke-linecap="round" stroke-linejoin="round"/>
<path fill-rule="evenodd" clip-rule="evenodd" d="M223.717 185.442C224.316 185.512 221.544 182.925 218.248 186.561C215.925 189.078 218.398 196.281 223.717 193.764" fill="#F45B49"/>
<path d="M223.717 185.442C224.316 185.512 221.544 182.925 218.248 186.561C215.925 189.078 218.398 196.281 223.717 193.764" stroke="#1C2628" stroke-width="2.13" stroke-linecap="round" stroke-linejoin="round"/>
<path d="M220.945 188.799L221.095 189.218L221.395 189.918L222.069 190.547" stroke="#1C2628" stroke-width="2.13" stroke-linecap="round" stroke-linejoin="round"/>
<path fill-rule="evenodd" clip-rule="evenodd" d="M245.07 185.023C245.145 183.974 244.246 183.065 243.122 183.065C241.998 182.995 241.024 183.834 241.024 184.883C240.949 185.932 241.848 186.841 242.972 186.841C244.096 186.911 245.07 186.071 245.07 185.023Z" fill="#1C2628" stroke="#1C2628" stroke-width="2.13" stroke-linecap="round" stroke-linejoin="round"/>
<path fill-rule="evenodd" clip-rule="evenodd" d="M259.754 185.232C259.829 184.253 259.155 183.414 258.256 183.414C257.356 183.344 256.607 184.113 256.607 185.092C256.532 186.072 257.207 186.911 258.106 186.911C258.93 186.981 259.679 186.211 259.754 185.232Z" fill="#1C2628" stroke="#1C2628" stroke-width="2.13" stroke-linecap="round" stroke-linejoin="round"/>
<path d="M254.135 174.603C256.307 174.044 257.207 171.456 257.956 169.848" stroke="#FAF6EB" stroke-width="2.13" stroke-linecap="round" stroke-linejoin="round"/>
<path fill-rule="evenodd" clip-rule="evenodd" d="M258.256 167.121C258.256 167.121 245.894 167.121 242.972 167.33C236.604 167.89 232.483 169.988 227.463 173.484C222.594 176.911 218.473 181.456 214.502 185.792C214.052 186.281 211.88 190.407 212.629 190.058C213.453 189.708 210.456 191.596 209.108 191.946C206.261 192.575 202.365 191.596 200.417 189.498C193.449 181.876 194.498 176.841 198.094 168.449C200.866 161.946 205.436 158.379 210.082 156.491C218.398 153.135 227.014 155.093 227.014 155.093C227.014 155.093 242.148 153.694 247.543 155.512C250.914 156.701 253.311 158.659 254.96 160.687C257.507 163.834 258.256 167.121 258.256 167.121Z" fill="#FAF6EB" stroke="#1C2628" stroke-width="2.13" stroke-linecap="round" stroke-linejoin="round"/>
<path fill-rule="evenodd" clip-rule="evenodd" d="M242.747 198.729C240.574 196.071 244.096 192.225 244.096 192.225L246.343 196.981L251.363 198.729C251.438 198.799 246.793 203.624 242.747 198.729Z" fill="#FB564C"/>
<path fill-rule="evenodd" clip-rule="evenodd" d="M168.2 265.302C168.2 265.302 97.0242 226.071 109.911 209.498C122.872 192.925 182.66 160.198 182.66 160.198L177.341 139.079L197.794 122.505C197.794 122.505 200.417 123.904 198.543 128.729C196.67 133.554 189.328 138.729 189.328 138.729C189.328 138.729 207.16 160.337 199.817 168.449C185.207 184.813 147.971 211.666 147.971 211.666L190.452 233.274L168.2 265.302Z" fill="#F45B49" stroke="#1C2628" stroke-width="2.13" stroke-linecap="round" stroke-linejoin="round"/>
<path fill-rule="evenodd" clip-rule="evenodd" d="M238.701 384.951L217.198 423.413L188.653 474.461C188.653 474.461 154.788 540.894 145.573 558.656C142.201 565.16 136.807 570.195 131.413 573.901C122.047 580.335 112.457 582.992 112.457 582.992C112.457 582.992 89.0817 595.999 72.7487 599.076C56.4158 602.153 46.9756 595.23 46.9756 595.23L92.9027 555.929L133.361 462.573L165.502 391.175L238.701 384.951Z" fill="#F45B49" stroke="#1C2628" stroke-width="2.13" stroke-linecap="round" stroke-linejoin="round"/>
<path fill-rule="evenodd" clip-rule="evenodd" d="M217.124 423.412L188.578 474.461C188.578 474.461 154.714 540.894 145.498 558.656C142.127 565.16 136.732 570.195 131.338 573.901C126.993 573.132 123.696 571.593 122.123 569.146C115.979 559.286 136.583 531.454 148.27 518.587C153.365 512.992 158.01 508.867 159.808 501.174C162.73 488.867 154.938 481.244 159.808 475.51C164.828 469.566 175.992 474.391 180.712 468.028C183.409 464.321 181.311 460.405 180.712 454.321C179.288 439.287 188.429 421.035 199.367 418.308C204.911 416.909 211.43 419.357 217.124 423.412Z" fill="#1C2628" stroke="#1C2628" stroke-width="2.13" stroke-linecap="round" stroke-linejoin="round"/>
<path fill-rule="evenodd" clip-rule="evenodd" d="M339.696 454.042C338.722 475.021 270.318 568.936 270.318 568.936L274.738 571.454L317.069 595.369L214.276 589.915L275.488 458.587L254.21 397.329L303.433 368.448C303.433 368.448 317.669 393.203 328.308 417.049C334.826 431.664 340.07 446 339.696 454.042Z" fill="#F45B49" stroke="#1C2628" stroke-width="2.13" stroke-linecap="round" stroke-linejoin="round"/>
<path fill-rule="evenodd" clip-rule="evenodd" d="M339.696 454.042C338.722 475.021 270.319 568.936 270.319 568.936L274.739 571.454C267.921 570.405 262.976 568.167 261.478 565.09C258.481 558.726 271.892 552.712 278.785 530.265C283.805 513.901 278.935 509.706 285.453 501.664C294.593 490.335 307.929 493.972 315.422 481.804C319.168 475.65 315.646 474.881 320.217 463.762C325.536 450.825 332.654 446.07 330.181 440.755C328.533 437.189 324.562 437.818 320.217 433.902C314.298 428.587 313.548 420.056 314.148 412.993C318.868 414.322 323.513 415.65 328.233 416.979C334.826 431.664 340.071 446 339.696 454.042Z" fill="#1C2628" stroke="#1C2628" stroke-width="2.13" stroke-linecap="round" stroke-linejoin="round"/>
<path d="M308.004 424.601L296.391 426.629L296.316 426.699L265.598 432.084L259.679 420.825V420.755L252.787 407.539L252.637 407.189L247.617 397.678L242.223 387.259L265.598 432.084L337.523 419.357L308.079 424.601H308.004Z" fill="#FB564C"/>
<path d="M227.688 412.084L213.228 436.769L192.7 431.664L183.409 429.357L213.228 436.769L229.112 409.706L227.688 412.084Z" fill="#FB564C"/>
<path d="M291.222 325.091L181.686 329.637L159.509 385.161L167.6 364.951L167.75 364.602L181.686 329.637L291.222 325.091L301.935 346.91L310.626 364.672L310.776 364.951L313.548 370.616L313.623 370.686L326.435 396.769L331.08 406.28L331.155 406.35L337.523 419.357L291.222 325.091Z" fill="#FB564C"/>
<path d="M146.547 420.196L175.392 427.399L146.547 420.196Z" fill="#F3A140" stroke="#1C2628" stroke-width="2.13" stroke-linecap="round" stroke-linejoin="round"/>
<path d="M159.509 385.161L158.16 388.448L159.509 385.161Z" fill="#F3A140" stroke="#1C2628" stroke-width="2.13" stroke-linecap="round" stroke-linejoin="round"/>
<path d="M145.724 419.986L146.548 420.196L145.724 419.986Z" fill="#F3A140" stroke="#1C2628" stroke-width="2.13" stroke-linecap="round" stroke-linejoin="round"/>
<path d="M158.161 388.448L158.011 388.797L158.161 388.448Z" fill="#F3A140" stroke="#1C2628" stroke-width="2.13" stroke-linecap="round" stroke-linejoin="round"/>
<path d="M145.573 419.986L158.01 388.797L145.573 419.986H145.723H145.573Z" fill="#F3A140"/>
<path d="M145.573 419.986L158.01 388.797L145.573 419.986ZM145.573 419.986H145.723H145.573Z" stroke="#1C2628" stroke-width="2.13" stroke-linecap="round" stroke-linejoin="round"/>
<path d="M175.393 427.399L183.409 429.357L175.393 427.399Z" fill="#F3A140" stroke="#1C2628" stroke-width="2.13" stroke-linecap="round" stroke-linejoin="round"/>
<path d="M229.111 409.706L242.223 387.259L229.111 409.706Z" fill="#F3A140" stroke="#1C2628" stroke-width="2.13" stroke-linecap="round" stroke-linejoin="round"/>
<path d="M282.905 341.805C279.384 340.196 273.24 339.987 263.426 341.875H263.351H263.426C266.722 341.315 277.286 339.357 282.905 341.805Z" fill="#F3A140" stroke="#1C2628" stroke-width="2.13" stroke-linecap="round" stroke-linejoin="round"/>
<path d="M254.285 329.078C255.484 330.546 255.784 332.154 255.409 333.903C256.008 332.084 255.859 330.266 254.285 329.078Z" fill="#F3A140" stroke="#1C2628" stroke-width="2.13" stroke-linecap="round" stroke-linejoin="round"/>
<path d="M238.702 328.518C237.203 328.798 235.78 329.147 234.281 329.497C240.949 328.238 247.692 328.029 254.285 329.147C251.513 326.98 240.275 328.168 238.702 328.518Z" fill="#F3A140" stroke="#1C2628" stroke-width="2.13" stroke-linecap="round" stroke-linejoin="round"/>
<path d="M308.079 424.601C310.327 423.273 312.724 421.664 315.272 419.846C312.949 421.525 310.552 423.133 308.079 424.601Z" fill="#F3A140" stroke="#1C2628" stroke-width="2.13" stroke-linecap="round" stroke-linejoin="round"/>
<path d="M234.281 329.497C219.147 332.294 204.163 340.056 190.377 349.007C204.088 340.406 218.772 333.203 234.281 329.497Z" fill="#F3A140" stroke="#1C2628" stroke-width="2.13" stroke-linecap="round" stroke-linejoin="round"/>
<path d="M174.793 376.909C190.002 367.679 207.009 359.217 224.541 352.714C207.084 359.077 190.152 367.189 174.793 376.909Z" fill="#F3A140" stroke="#1C2628" stroke-width="2.13" stroke-linecap="round" stroke-linejoin="round"/>
<path d="M251.063 341.245C250.239 342.224 249.415 343.133 248.516 344.042C251.737 340.896 254.884 337.259 255.483 333.903C254.584 337.049 251.737 340.406 251.063 341.245Z" fill="#F3A140" stroke="#1C2628" stroke-width="2.13" stroke-linecap="round" stroke-linejoin="round"/>
<path d="M248.516 344.042C247.992 344.602 247.393 345.091 246.868 345.581H246.943C247.468 345.091 247.992 344.532 248.516 344.042Z" fill="#F3A140" stroke="#1C2628" stroke-width="2.13" stroke-linecap="round" stroke-linejoin="round"/>
<path d="M246.643 345.791C246.718 345.721 246.793 345.651 246.868 345.581H246.793C246.718 345.651 246.643 345.721 246.568 345.791C246.568 345.861 246.643 345.791 246.643 345.791Z" fill="#F3A140" stroke="#1C2628" stroke-width="2.13" stroke-linecap="round" stroke-linejoin="round"/>
<path d="M246.793 345.581C239.376 347.539 231.883 349.986 224.541 352.714C231.808 350.056 239.151 347.819 246.493 345.791C246.643 345.791 246.718 345.651 246.793 345.581Z" fill="#F3A140" stroke="#1C2628" stroke-width="2.13" stroke-linecap="round" stroke-linejoin="round"/>
<path d="M241.323 350.336C243.121 348.868 244.994 347.329 246.643 345.791H246.568C244.47 347.679 242.522 349.287 241.323 350.336Z" fill="#F3A140" stroke="#1C2628" stroke-width="2.13" stroke-linecap="round" stroke-linejoin="round"/>
<path d="M263.35 341.875C257.881 342.854 252.412 344.112 246.867 345.581C246.792 345.651 246.717 345.721 246.643 345.791C252.187 344.322 257.806 342.994 263.35 341.875Z" fill="#F3A140" stroke="#1C2628" stroke-width="2.13" stroke-linecap="round" stroke-linejoin="round"/>
<path d="M241.249 350.406C229.411 359.357 217.873 368.728 206.186 377.958C218.098 368.867 229.786 359.637 241.249 350.406Z" fill="#F3A140" stroke="#1C2628" stroke-width="2.13" stroke-linecap="round" stroke-linejoin="round"/>
<path d="M206.185 377.958C190.901 389.637 175.318 401.105 159.584 411.874C175.917 401.664 191.126 389.916 206.185 377.958Z" fill="#F3A140" stroke="#1C2628" stroke-width="2.13" stroke-linecap="round" stroke-linejoin="round"/>
<path d="M282.156 355.371C279.908 356.35 277.66 357.399 275.338 358.448C277.586 357.399 279.833 356.42 282.156 355.371Z" fill="#F3A140" stroke="#1C2628" stroke-width="2.13" stroke-linecap="round" stroke-linejoin="round"/>
<path d="M226.489 384.602C224.391 385.93 222.369 387.259 220.346 388.658C222.369 387.329 224.466 385.93 226.489 384.602Z" fill="#F3A140" stroke="#1C2628" stroke-width="2.13" stroke-linecap="round" stroke-linejoin="round"/>
<path d="M206.185 377.958C217.873 368.658 229.411 359.287 241.249 350.406C242.447 349.287 244.395 347.749 246.493 345.861C239.151 347.819 231.808 350.126 224.541 352.784C207.009 359.287 190.002 367.749 174.793 376.979C168.949 380.686 163.33 384.672 158.01 388.867L145.573 419.986L145.723 420.056C150.443 417.468 155.013 414.741 159.584 411.944C175.242 401.105 190.901 389.706 206.185 377.958Z" fill="#F3A140" stroke="#1C2628" stroke-width="2.13" stroke-linecap="round" stroke-linejoin="round"/>
<path d="M279.684 363.133C277.211 366.7 274.664 370.196 271.967 373.553C275.938 368.798 280.058 363.413 282.905 358.448C281.632 360.546 280.358 362.224 279.684 363.133Z" fill="#F3A140" stroke="#1C2628" stroke-width="2.13" stroke-linecap="round" stroke-linejoin="round"/>
<path d="M239.076 376.979C234.806 379.427 230.61 382.014 226.489 384.672C230.61 381.944 234.806 379.427 239.076 376.979Z" fill="#F3A140" stroke="#1C2628" stroke-width="2.13" stroke-linecap="round" stroke-linejoin="round"/>
<path d="M245.519 373.343C243.347 374.532 241.249 375.721 239.076 376.979C241.249 375.721 243.347 374.532 245.519 373.343Z" fill="#F3A140" stroke="#1C2628" stroke-width="2.13" stroke-linecap="round" stroke-linejoin="round"/>
<path d="M271.967 359.986C269.719 361.035 267.471 362.084 265.224 363.133C267.471 362.084 269.719 361.035 271.967 359.986Z" fill="#F3A140" stroke="#1C2628" stroke-width="2.13" stroke-linecap="round" stroke-linejoin="round"/>
<path d="M252.038 369.846C249.865 370.965 247.692 372.154 245.52 373.343C247.692 372.154 249.865 370.965 252.038 369.846Z" fill="#F3A140" stroke="#1C2628" stroke-width="2.13" stroke-linecap="round" stroke-linejoin="round"/>
<path d="M205.436 399.636C202.888 401.664 200.491 403.692 198.019 405.79C200.416 403.692 202.888 401.664 205.436 399.636Z" fill="#F3A140" stroke="#1C2628" stroke-width="2.13" stroke-linecap="round" stroke-linejoin="round"/>
<path d="M183.259 419.217C183.184 419.287 183.034 419.427 182.959 419.497C183.034 419.357 183.109 419.287 183.259 419.217Z" fill="#F3A140" stroke="#1C2628" stroke-width="2.13" stroke-linecap="round" stroke-linejoin="round"/>
<path d="M195.171 408.238C194.947 408.448 194.722 408.657 194.497 408.867C194.722 408.587 194.947 408.378 195.171 408.238Z" fill="#F3A140" stroke="#1C2628" stroke-width="2.13" stroke-linecap="round" stroke-linejoin="round"/>
<path d="M182.96 419.497C180.487 421.944 178.09 424.462 175.692 427.049C178.09 424.462 180.487 421.944 182.96 419.497Z" fill="#F3A140" stroke="#1C2628" stroke-width="2.13" stroke-linecap="round" stroke-linejoin="round"/>
<path d="M175.393 427.399C175.467 427.259 175.617 427.189 175.692 427.049C175.617 427.119 175.467 427.259 175.393 427.399Z" fill="#F3A140" stroke="#1C2628" stroke-width="2.13" stroke-linecap="round" stroke-linejoin="round"/>
<path d="M214.351 392.923C212.329 394.392 210.381 395.86 208.433 397.329C210.381 395.79 212.329 394.322 214.351 392.923Z" fill="#F3A140" stroke="#1C2628" stroke-width="2.13" stroke-linecap="round" stroke-linejoin="round"/>
<path d="M198.019 405.79C197.045 406.56 196.146 407.399 195.172 408.238C196.071 407.399 197.045 406.56 198.019 405.79Z" fill="#F3A140" stroke="#1C2628" stroke-width="2.13" stroke-linecap="round" stroke-linejoin="round"/>
<path d="M220.345 388.658C218.322 390.056 216.299 391.455 214.276 392.923C216.299 391.455 218.322 390.056 220.345 388.658Z" fill="#F3A140" stroke="#1C2628" stroke-width="2.13" stroke-linecap="round" stroke-linejoin="round"/>
<path d="M167.676 381.385C164.379 383.553 161.157 385.93 158.161 388.448L158.011 388.867C163.33 384.672 168.949 380.686 174.793 376.979C172.396 378.378 169.998 379.846 167.676 381.385Z" fill="#F3A140" stroke="#1C2628" stroke-width="2.13" stroke-linecap="round" stroke-linejoin="round"/>
<path d="M234.281 329.497C235.78 329.147 237.203 328.798 238.702 328.518C240.275 328.238 251.513 326.98 254.286 329.147C255.859 330.336 255.934 332.085 255.409 333.973C254.735 337.329 251.663 340.966 248.442 344.112C247.917 344.602 247.393 345.161 246.868 345.651C252.338 344.182 257.882 342.924 263.351 341.945H263.426C273.241 340.056 279.384 340.266 282.906 341.875C283.655 342.224 284.404 342.644 284.929 343.133C288 346.001 287.326 350.126 285.528 353.972C290.997 351.595 296.467 349.287 301.936 346.98L291.222 325.161L181.686 329.707L167.676 364.672C174.868 359.287 182.435 353.972 190.302 349.077C204.163 340.057 219.147 332.224 234.281 329.497Z" fill="#F3A140" stroke="#1C2628" stroke-width="2.13" stroke-linecap="round" stroke-linejoin="round"/>
<path d="M282.981 358.518C280.134 363.483 276.013 368.798 272.042 373.623C269.719 376.49 267.322 379.357 264.775 382.014C259.53 387.539 253.836 392.783 247.692 397.679L252.637 407.189C255.934 404.182 259.305 401.245 262.827 398.378C264.924 396.63 267.097 394.881 269.27 393.133C282.082 382.364 295.942 371.944 310.777 364.602L301.936 346.91C296.467 349.217 290.997 351.525 285.528 353.903C284.779 355.511 283.88 357.119 282.981 358.518Z" fill="#F3A140" stroke="#1C2628" stroke-width="2.13" stroke-linecap="round" stroke-linejoin="round"/>
<path d="M310.776 364.951L310.626 364.672C295.866 371.944 281.931 382.364 269.119 393.203C281.931 382.853 295.716 372.574 310.776 364.951Z" fill="#F3A140" stroke="#1C2628" stroke-width="2.13" stroke-linecap="round" stroke-linejoin="round"/>
<path d="M310.926 409.916C316.02 405.441 321.115 400.965 326.36 396.699C321.115 400.965 316.02 405.511 310.926 409.916Z" fill="#F3A140" stroke="#1C2628" stroke-width="2.13" stroke-linecap="round" stroke-linejoin="round"/>
<path d="M313.623 370.686L313.548 370.616C312.499 371.805 311.525 372.993 310.477 374.182C311.525 372.993 312.574 371.805 313.623 370.686Z" fill="#F3A140" stroke="#1C2628" stroke-width="2.13" stroke-linecap="round" stroke-linejoin="round"/>
<path d="M252.787 407.539L259.68 420.755C265.299 417.049 270.693 412.993 275.863 408.727C287.476 398.937 297.965 387.888 308.379 376.49C309.128 375.721 309.803 374.881 310.552 374.112C311.601 372.923 312.575 371.735 313.624 370.546L310.852 364.881C295.792 372.504 282.007 382.853 269.27 393.133C263.501 397.958 258.032 402.853 252.787 407.539Z" fill="#F3A140" stroke="#1C2628" stroke-width="2.13" stroke-linecap="round" stroke-linejoin="round"/>
<path d="M275.862 408.727C270.767 412.993 265.373 417.049 259.754 420.825L265.598 432.084L296.316 426.629C295.866 426.14 295.716 425.58 296.016 425.091C296.166 424.811 296.391 424.531 296.541 424.252C297.664 421.664 301.261 418.238 304.632 415.371C306.73 413.553 308.903 411.734 310.926 409.916C316.02 405.441 321.115 400.965 326.359 396.699L313.548 370.616C312.499 371.735 311.45 372.923 310.476 374.042C299.762 386.42 288.449 398.308 275.862 408.727Z" fill="#F3A140" stroke="#1C2628" stroke-width="2.13" stroke-linecap="round" stroke-linejoin="round"/>
<path d="M167.676 381.385C169.998 379.916 172.396 378.378 174.793 376.979C190.152 367.189 207.085 359.077 224.541 352.784C231.884 350.056 239.376 347.609 246.793 345.651C247.318 345.161 247.917 344.602 248.441 344.112C249.341 343.203 250.165 342.294 250.989 341.315C251.663 340.476 254.51 337.119 255.409 333.973C255.709 332.294 255.484 330.616 254.285 329.147C247.692 328.029 240.949 328.308 234.281 329.497C218.772 333.273 204.088 340.476 190.377 349.007C182.285 354.182 174.643 359.777 167.601 364.951L159.509 385.231L158.235 388.448C161.232 385.93 164.379 383.553 167.676 381.385Z" fill="#F3A140" stroke="#1C2628" stroke-width="2.13" stroke-linecap="round" stroke-linejoin="round"/>
<path d="M167.75 364.602L167.601 364.951C174.643 359.777 182.285 354.182 190.377 349.007C182.51 353.833 174.943 359.217 167.75 364.602Z" fill="#F3A140" stroke="#1C2628" stroke-width="2.13" stroke-linecap="round" stroke-linejoin="round"/>
<path d="M247.617 397.678C253.685 392.713 259.454 387.539 264.699 382.014C266.797 379.637 269.344 376.7 271.966 373.623C274.664 370.266 277.211 366.77 279.683 363.203C280.358 362.294 281.631 360.616 282.98 358.588C283.879 357.049 284.628 355.581 285.228 354.112C284.179 354.532 283.13 355.021 282.156 355.441C279.908 356.42 277.66 357.469 275.338 358.518C274.214 359.007 273.09 359.567 271.966 360.056C269.719 361.105 267.471 362.154 265.223 363.203C260.803 365.371 256.383 367.539 251.962 369.846C249.79 370.965 247.617 372.154 245.444 373.343C243.271 374.532 241.173 375.721 239.001 376.979C234.73 379.427 230.535 382.014 226.414 384.672C224.316 386 222.293 387.329 220.27 388.727C218.247 390.126 216.224 391.525 214.202 392.993C212.179 394.462 210.231 395.93 208.283 397.399C207.309 398.168 206.335 398.937 205.361 399.706L205.286 399.776C202.813 401.804 200.341 403.832 197.869 405.93C196.895 406.699 195.996 407.538 195.022 408.378C194.797 408.587 194.572 408.797 194.347 409.007C191.35 411.664 188.428 414.322 185.507 417.119C184.682 417.888 183.933 418.657 183.109 419.426C183.034 419.496 182.884 419.636 182.809 419.706C180.337 422.154 177.939 424.671 175.542 427.259C175.467 427.398 175.317 427.468 175.242 427.608L183.184 429.566L192.549 431.874C193.523 431.384 194.497 430.895 195.546 430.405C197.494 429.426 199.442 428.447 201.39 427.398C203.338 426.35 205.286 425.371 207.234 424.322C209.182 423.273 211.055 422.224 213.003 421.105C215.85 419.496 218.697 417.818 221.544 416.07C223.567 414.811 225.59 413.552 227.613 412.224L228.961 409.846L242.147 387.399L247.617 397.678Z" fill="#F3A140" stroke="#1C2628" stroke-width="2.13" stroke-linecap="round" stroke-linejoin="round"/>
<path d="M195.696 430.196C194.722 430.685 193.748 431.175 192.699 431.664C193.748 431.175 194.722 430.685 195.696 430.196Z" fill="#F3A140" stroke="#1C2628" stroke-width="2.13" stroke-linecap="round" stroke-linejoin="round"/>
<path d="M315.496 419.636C315.421 419.706 315.346 419.776 315.196 419.846C312.649 421.664 310.252 423.273 308.004 424.601L337.448 419.357L331.08 406.35C326.135 411.315 320.816 415.93 315.496 419.636Z" fill="#F3A140" stroke="#1C2628" stroke-width="2.13" stroke-linecap="round" stroke-linejoin="round"/>
<path d="M213.228 436.769L227.688 412.084C225.665 413.413 223.642 414.671 221.619 415.93C218.772 417.678 215.925 419.357 213.078 420.965C211.13 422.084 209.257 423.133 207.309 424.182C205.361 425.231 203.413 426.28 201.465 427.259C199.517 428.238 197.569 429.287 195.621 430.266C194.647 430.755 193.673 431.245 192.624 431.734L213.228 436.769Z" fill="#F3A140" stroke="#1C2628" stroke-width="2.13" stroke-linecap="round" stroke-linejoin="round"/>
<path d="M213.153 420.895C216 419.287 218.847 417.608 221.694 415.86C218.847 417.608 216 419.287 213.153 420.895Z" fill="#F3A140" stroke="#1C2628" stroke-width="2.13" stroke-linecap="round" stroke-linejoin="round"/>
<path d="M227.688 412.084C225.665 413.413 223.642 414.671 221.619 415.93C223.717 414.671 225.74 413.343 227.688 412.084Z" fill="#F3A140" stroke="#1C2628" stroke-width="2.13" stroke-linecap="round" stroke-linejoin="round"/>
<path d="M201.54 427.259C203.488 426.28 205.436 425.231 207.384 424.182C205.436 425.161 203.488 426.21 201.54 427.259Z" fill="#F3A140" stroke="#1C2628" stroke-width="2.13" stroke-linecap="round" stroke-linejoin="round"/>
<path d="M262.751 398.378C259.304 401.245 255.933 404.182 252.562 407.189L252.711 407.539C257.956 402.853 263.425 397.958 269.119 393.203C267.021 394.881 264.849 396.63 262.751 398.378Z" fill="#F3A140" stroke="#1C2628" stroke-width="2.13" stroke-linecap="round" stroke-linejoin="round"/>
<path d="M264.699 381.944C267.247 379.217 269.644 376.42 271.967 373.553C269.419 376.7 266.872 379.567 264.699 381.944C259.455 387.469 253.761 392.713 247.617 397.609C253.761 392.713 259.455 387.539 264.699 381.944Z" fill="#F3A140"/>
<path d="M264.699 381.944C267.247 379.217 269.644 376.42 271.967 373.553C269.419 376.7 266.872 379.567 264.699 381.944ZM264.699 381.944C259.455 387.469 253.761 392.713 247.617 397.609C253.761 392.713 259.455 387.539 264.699 381.944Z" stroke="#1C2628" stroke-width="2.13" stroke-linecap="round" stroke-linejoin="round"/>
<path d="M284.928 343.063C284.404 342.574 283.655 342.154 282.905 341.805C287.55 343.903 287.551 348.518 285.228 354.042C285.303 353.972 285.453 353.972 285.528 353.903C287.251 350.056 287.925 345.931 284.928 343.063Z" fill="#F3A140" stroke="#1C2628" stroke-width="2.13" stroke-linecap="round" stroke-linejoin="round"/>
<path d="M285.228 354.042C284.629 355.441 283.88 356.979 282.98 358.518C283.88 357.119 284.779 355.511 285.528 353.903C285.453 353.972 285.303 353.972 285.228 354.042Z" fill="#F3A140" stroke="#1C2628" stroke-width="2.13" stroke-linecap="round" stroke-linejoin="round"/>
<path d="M310.926 409.916C310.027 410.895 307.405 412.993 304.633 415.371C301.561 418.098 298.714 420.965 296.541 424.252C296.166 425.161 296.091 425.93 296.466 426.629L308.079 424.601C310.551 423.133 312.949 421.524 315.271 419.846C320.366 416.14 325.835 411.455 331.155 406.28L326.51 396.769C321.115 400.965 316.021 405.511 310.926 409.916Z" fill="#F3A140" stroke="#1C2628" stroke-width="2.13" stroke-linecap="round" stroke-linejoin="round"/>
<path d="M183.259 419.217C184.008 418.448 184.832 417.678 185.656 416.909C185.357 417.189 184.982 417.538 184.682 417.818C184.158 418.308 183.708 418.727 183.259 419.217Z" fill="#F3A140" stroke="#1C2628" stroke-width="2.13" stroke-linecap="round" stroke-linejoin="round"/>
<path d="M185.582 416.909C188.504 414.182 191.426 411.455 194.423 408.797C191.426 411.455 188.504 414.182 185.582 416.909Z" fill="#F3A140" stroke="#1C2628" stroke-width="2.13" stroke-linecap="round" stroke-linejoin="round"/>
<path d="M205.436 399.637C206.484 398.797 207.458 398.028 208.432 397.329C207.384 398.098 206.41 398.867 205.436 399.637Z" fill="#F3A140" stroke="#1C2628" stroke-width="2.13" stroke-linecap="round" stroke-linejoin="round"/>
<path d="M282.905 341.805C277.286 339.357 266.722 341.245 263.425 341.875H263.351C257.806 342.994 252.187 344.322 246.643 345.791C244.92 347.399 243.122 348.868 241.323 350.336C229.86 359.567 218.098 368.798 206.26 377.888C191.201 389.846 175.991 401.525 159.659 411.804C159.134 412.154 158.61 412.573 158.01 412.923C155.837 414.392 151.342 417.469 146.622 420.126L175.467 427.259C175.542 427.119 175.692 427.049 175.767 426.909C178.089 424.322 180.487 421.804 183.034 419.357C183.109 419.287 183.259 419.147 183.334 419.077C183.783 418.657 184.233 418.168 184.682 417.748C184.982 417.469 185.357 417.119 185.656 416.839C188.503 414.112 191.5 411.385 194.497 408.727C194.722 408.518 194.947 408.308 195.172 408.098C196.071 407.259 197.045 406.49 198.019 405.65C200.491 403.553 202.888 401.525 205.436 399.497L205.511 399.427C206.485 398.657 207.459 397.888 208.433 397.119C210.381 395.651 212.404 394.112 214.352 392.713C216.3 391.315 218.397 389.846 220.42 388.448C222.443 387.049 224.466 385.721 226.564 384.392C230.685 381.735 234.88 379.217 239.151 376.7C241.249 375.441 243.421 374.252 245.594 373.063C247.767 371.874 249.939 370.686 252.112 369.567C256.458 367.259 260.878 365.091 265.373 362.923C267.621 361.875 269.869 360.756 272.116 359.777C273.24 359.287 274.364 358.728 275.488 358.238C277.736 357.189 279.983 356.21 282.306 355.161C283.355 354.672 284.329 354.252 285.378 353.833C287.55 348.518 287.55 343.903 282.905 341.805Z" fill="#F3A140" stroke="#1C2628" stroke-width="2.13" stroke-linecap="round" stroke-linejoin="round"/>
<path d="M159.584 411.874C155.089 414.741 150.444 417.399 145.724 419.986L146.548 420.196C151.268 417.469 155.763 414.462 157.936 412.993C158.46 412.574 158.985 412.224 159.584 411.874Z" fill="#F3A140" stroke="#1C2628" stroke-width="2.13" stroke-linecap="round" stroke-linejoin="round"/>
<path d="M296.466 424.322C296.316 424.601 296.091 424.881 295.942 425.161C295.642 425.65 295.867 426.21 296.241 426.699H296.316C296.017 426 296.091 425.231 296.466 424.322Z" fill="#F3A140" stroke="#1C2628" stroke-width="2.13" stroke-linecap="round" stroke-linejoin="round"/>
<path d="M315.271 419.846C315.346 419.776 315.421 419.706 315.571 419.636C320.816 415.86 326.21 411.315 331.23 406.35L331.155 406.28C325.835 411.455 320.291 416.14 315.271 419.846Z" fill="#F3A140" stroke="#1C2628" stroke-width="2.13" stroke-linecap="round" stroke-linejoin="round"/>
<path d="M304.633 415.371C301.261 418.308 297.59 421.734 296.541 424.252C298.714 420.965 301.561 418.098 304.633 415.371Z" fill="#F3A140" stroke="#1C2628" stroke-width="2.13" stroke-linecap="round" stroke-linejoin="round"/>
<path d="M259.68 420.755L259.755 420.825C265.449 417.119 270.768 413.063 275.863 408.727C270.693 412.993 265.299 417.049 259.68 420.755Z" fill="#F3A140" stroke="#1C2628" stroke-width="2.13" stroke-linecap="round" stroke-linejoin="round"/>
<path d="M310.477 374.112C309.728 374.881 309.053 375.721 308.304 376.49C297.89 387.958 287.401 398.937 275.788 408.727C288.45 398.308 299.763 386.42 310.477 374.112Z" fill="#F3A140" stroke="#1C2628" stroke-width="2.13" stroke-linecap="round" stroke-linejoin="round"/>
<path d="M310.926 409.916C308.828 411.734 306.656 413.552 304.633 415.371C307.405 412.993 310.027 410.965 310.926 409.916Z" fill="#F3A140" stroke="#1C2628" stroke-width="2.13" stroke-linecap="round" stroke-linejoin="round"/>
<path fill-rule="evenodd" clip-rule="evenodd" d="M311.526 285.022L283.205 293.274L301.261 337.399L172.321 342.994L175.842 314.113L179.738 280.337L150.219 257.19L173.819 213.134C173.819 213.134 198.993 227.33 216.6 226.211C234.206 225.092 258.706 220.407 258.706 220.407C258.706 220.407 270.319 211.736 283.055 209.848C291.072 208.659 299.463 210.197 305.907 218.029C322.614 238.589 341.12 276.351 341.12 276.351L311.526 285.022Z" fill="#FAF6EB" stroke="#1C2628" stroke-width="2.13" stroke-linecap="round" stroke-linejoin="round"/>
<path d="M285.527 255.581L296.99 285.581" stroke="#1C2628" stroke-width="2.13" stroke-linecap="round" stroke-linejoin="round"/>
<path fill-rule="evenodd" clip-rule="evenodd" d="M172.995 302.015L206.635 360.686C206.635 360.686 228.362 362.574 247.767 358.448C267.172 354.322 284.179 344.252 284.179 344.252L287.026 276.63C287.101 275.721 286.052 275.092 285.228 275.511C277.886 278.728 250.914 290.267 226.564 296.141C197.944 303.064 172.995 302.015 172.995 302.015Z" fill="#1C2628" stroke="#1C2628" stroke-width="2.13" stroke-linecap="round" stroke-linejoin="round"/>
<path fill-rule="evenodd" clip-rule="evenodd" d="M215.101 326.84L228.062 412.713C228.062 412.713 246.043 417.748 267.246 411.664C288.449 405.511 302.085 397.818 302.085 397.818L264.849 320.057L215.101 326.84Z" fill="#1C2628" stroke="#1C2628" stroke-width="2.13" stroke-linecap="round" stroke-linejoin="round"/>
<path fill-rule="evenodd" clip-rule="evenodd" d="M235.555 310.896C203.039 317.749 174.344 314.812 171.497 304.253C170.073 298.938 175.393 292.784 185.133 287.05C194.872 281.316 208.958 276.071 225.216 272.644C256.308 266.071 283.955 268.518 288.75 277.959C288.974 278.379 289.124 278.868 289.274 279.288C292.196 289.847 268.071 303.973 235.555 310.896Z" fill="#FAF6EB" stroke="#1C2628" stroke-width="2.13" stroke-linecap="round" stroke-linejoin="round"/>
<path d="M219.521 362.084C219.521 362.084 240.425 359.147 250.239 356.91" stroke="#FAF6EB" stroke-width="2.13" stroke-linecap="round" stroke-linejoin="round"/>
<path d="M188.129 327.889C201.24 340.126 208.583 324.882 218.322 320.966C226.639 317.609 231.059 327.189 238.027 326.28C249.34 324.742 251.888 313.623 258.181 312.015C270.094 308.798 274.439 315.861 282.68 302.994" stroke="#FAF6EB" stroke-width="2.13" stroke-linecap="round" stroke-linejoin="round"/>
<path d="M212.403 329.078L224.091 361.385" stroke="#FAF6EB" stroke-width="2.13" stroke-linecap="round" stroke-linejoin="round"/>
<path d="M242.672 327.399L250.014 356" stroke="#FAF6EB" stroke-width="2.13" stroke-linecap="round" stroke-linejoin="round"/>
<path d="M272.267 316.49L276.312 342.784" stroke="#FAF6EB" stroke-width="2.13" stroke-linecap="round" stroke-linejoin="round"/>
<path fill-rule="evenodd" clip-rule="evenodd" d="M263.35 297.469L206.035 320.336C206.035 320.336 206.11 323.763 212.328 323.693C218.472 323.623 225.889 320.266 225.889 320.266C225.889 320.266 199.142 339.707 199.217 342.784C199.217 345.861 219.371 333.273 219.371 333.273C219.371 333.273 200.94 349.986 204.461 349.777C207.983 349.567 229.111 334.602 229.111 334.602C229.111 334.602 208.807 354.042 212.328 354.112C215.775 354.182 238.851 336.91 238.851 336.91C238.851 336.91 215.25 358.728 221.019 356.14C226.863 353.623 262.076 326.77 262.076 326.77C262.076 326.77 320.066 311.805 327.558 308.099C350.634 296.56 340.894 275.372 340.894 275.372L263.35 297.469Z" fill="#F45B49" stroke="#1C2628" stroke-width="2.13" stroke-linecap="round" stroke-linejoin="round"/>
<path fill-rule="evenodd" clip-rule="evenodd" d="M331.904 588.936C332.054 589.495 339.546 589.775 336.924 594.251C334.226 598.866 321.864 601.313 316.17 602.362C295.717 606.139 258.031 597.817 235.629 596.978C229.261 596.768 212.628 596.418 212.328 589.425C211.879 578.796 226.564 576.139 238.776 575.999C260.878 575.719 283.654 582.153 304.707 586.488C309.952 587.537 330.93 585.999 331.904 588.936Z" fill="#FAF6EB" stroke="#1C2628" stroke-width="2.13" stroke-linecap="round" stroke-linejoin="round"/>
<path fill-rule="evenodd" clip-rule="evenodd" d="M282.83 592.852C285.752 586.139 300.961 579.216 306.281 577.398C307.33 577.048 309.427 576.349 311.525 575.859C315.047 577.607 318.793 579.635 321.64 580.614C339.246 587.118 338.422 588.516 334.976 592.013C331.454 595.439 297.889 595.859 282.83 592.852Z" fill="#1C2628" stroke="#1C2628" stroke-width="2.13" stroke-linecap="round" stroke-linejoin="round"/>
<path fill-rule="evenodd" clip-rule="evenodd" d="M221.095 570.405C226.564 573.621 235.105 578.167 239.9 582.922C225.74 585.02 213.603 584.6 213.603 584.6L221.095 570.405Z" fill="#1C2628" stroke="#1C2628" stroke-width="2.13" stroke-linecap="round" stroke-linejoin="round"/>
<path fill-rule="evenodd" clip-rule="evenodd" d="M228.737 555.859C228.737 555.859 230.535 568.447 244.021 563.621C257.507 558.796 268.595 550.335 268.595 550.335C268.595 550.335 293.095 566.628 311.6 575.789C309.503 576.279 307.48 576.908 306.356 577.328C301.111 579.146 285.827 586.069 282.905 592.782H282.83C267.771 589.775 254.81 580.684 240.425 582.852C240.2 582.852 240.125 582.852 239.9 582.852C235.18 578.097 226.564 573.551 221.095 570.335L228.737 555.859Z" fill="#FAF6EB" stroke="#1C2628" stroke-width="2.13" stroke-linecap="round" stroke-linejoin="round"/>
<path fill-rule="evenodd" clip-rule="evenodd" d="M293.169 566.069C293.169 566.069 289.198 571.314 288.149 572.432L293.169 566.069Z" fill="#F45B49"/>
<path d="M293.169 566.069C293.169 566.069 289.198 571.314 288.149 572.432" stroke="#1C2628" stroke-width="2.13" stroke-linecap="round" stroke-linejoin="round"/>
<path fill-rule="evenodd" clip-rule="evenodd" d="M286.501 561.873L281.557 568.027L286.501 561.873Z" fill="#F45B49"/>
<path d="M286.501 561.873L281.557 568.027" stroke="#1C2628" stroke-width="2.13" stroke-linecap="round" stroke-linejoin="round"/>
<path fill-rule="evenodd" clip-rule="evenodd" d="M278.934 557.957L274.289 563.901L278.934 557.957Z" fill="#F45B49"/>
<path d="M278.934 557.957L274.289 563.901" stroke="#1C2628" stroke-width="2.13" stroke-linecap="round" stroke-linejoin="round"/>
<path fill-rule="evenodd" clip-rule="evenodd" d="M42.5552 587.048C42.4054 587.537 35.6624 587.817 38.0599 592.223C40.5324 596.698 51.6957 599.076 56.8653 600.125C75.3711 603.761 109.461 595.719 129.764 594.95C135.533 594.74 150.593 594.39 150.817 587.607C151.192 577.258 137.931 574.67 126.917 574.53C106.913 574.251 86.3097 580.474 67.2046 584.74C62.4845 585.719 43.4543 584.181 42.5552 587.048Z" fill="#FAF6EB" stroke="#1C2628" stroke-width="2.13" stroke-linecap="round" stroke-linejoin="round"/>
<path fill-rule="evenodd" clip-rule="evenodd" d="M86.9836 590.824C84.3613 584.321 70.5757 577.537 65.7807 575.789C64.8067 575.439 62.9336 574.74 61.0606 574.321C57.8389 575.999 54.4675 577.957 51.9201 579.006C35.9617 585.3 36.7859 586.698 39.8577 590.055C43.0044 593.341 73.4227 593.761 86.9836 590.824Z" fill="#1C2628" stroke="#1C2628" stroke-width="2.13" stroke-linecap="round" stroke-linejoin="round"/>
<path fill-rule="evenodd" clip-rule="evenodd" d="M142.875 569.006C137.931 572.153 130.214 576.558 125.868 581.174C138.68 583.202 149.693 582.852 149.693 582.852L142.875 569.006Z" fill="#1C2628" stroke="#1C2628" stroke-width="2.13" stroke-linecap="round" stroke-linejoin="round"/>
<path fill-rule="evenodd" clip-rule="evenodd" d="M149.693 550.335C149.693 550.335 134.334 567.118 122.197 562.433C110.06 557.747 95.45 545.58 95.45 545.58C95.45 545.58 77.7684 565.37 61.1357 574.321C63.0088 574.74 64.8818 575.439 65.8558 575.789C70.6508 577.537 84.4365 584.251 87.0587 590.824H87.1337C100.769 587.887 112.457 579.076 125.494 581.174C125.644 581.174 125.793 581.174 125.943 581.174C130.214 576.558 138.006 572.153 142.951 569.006L149.693 550.335Z" fill="#FAF6EB" stroke="#1C2628" stroke-width="2.13" stroke-linecap="round" stroke-linejoin="round"/>
<path fill-rule="evenodd" clip-rule="evenodd" d="M75.6709 564.181C79.2671 567.607 78.9675 567.468 81.4399 569.495L75.6709 564.181Z" fill="#F45B49"/>
<path d="M75.6709 564.181C79.2671 567.607 78.9675 567.468 81.4399 569.495" stroke="#1C2628" stroke-width="2.13" stroke-linecap="round" stroke-linejoin="round"/>
<path fill-rule="evenodd" clip-rule="evenodd" d="M81.4395 560.544L87.1335 565.719L81.4395 560.544Z" fill="#F45B49"/>
<path d="M81.4395 560.544L87.1335 565.719" stroke="#1C2628" stroke-width="2.13" stroke-linecap="round" stroke-linejoin="round"/>
<path fill-rule="evenodd" clip-rule="evenodd" d="M87.3584 555.649L92.7528 560.614L87.3584 555.649Z" fill="#F45B49"/>
<path d="M87.3584 555.649L92.7528 560.614" stroke="#1C2628" stroke-width="2.13" stroke-linecap="round" stroke-linejoin="round"/>
<path fill-rule="evenodd" clip-rule="evenodd" d="M311.526 283.693C314.748 279.358 318.868 275.721 317.445 268.798C315.722 260.197 307.48 259.008 305.157 247.959C303.434 239.638 307.48 237.68 304.783 232.435C300.213 223.484 286.652 226.141 283.13 218.169C282.007 215.652 282.156 212.645 283.13 209.848C291.147 208.659 299.538 210.197 305.982 218.029C322.689 238.589 341.195 276.351 341.195 276.351L311.526 283.693Z" fill="#1C2628" stroke="#1C2628" stroke-width="2.13" stroke-linecap="round" stroke-linejoin="round"/>
<path fill-rule="evenodd" clip-rule="evenodd" d="M288.749 277.959C284.403 282.644 278.56 286.281 273.015 286.56C265.148 286.98 261.927 280.197 252.112 280.337C244.32 280.476 241.024 284.812 232.108 289.847C218.472 297.539 196.295 304.113 188.578 297.329C186.031 295.092 184.907 291.316 184.982 287.05C194.722 281.316 208.807 276.071 225.065 272.644C256.308 266.071 283.954 268.518 288.749 277.959Z" fill="#1C2628" stroke="#1C2628" stroke-width="2.13" stroke-linecap="round" stroke-linejoin="round"/>
<path fill-rule="evenodd" clip-rule="evenodd" d="M254.884 160.617C252.337 161.177 249.64 161.456 247.092 161.386C243.796 161.386 244.021 160.827 239.076 160.337C223.117 158.729 215.775 163.554 211.804 159.708C210.905 158.799 210.306 157.68 210.081 156.421C218.397 153.065 227.013 155.023 227.013 155.023C227.013 155.023 242.148 153.624 247.542 155.442C250.839 156.631 253.236 158.589 254.884 160.617Z" fill="#1C2628" stroke="#1C2628" stroke-width="2.13" stroke-linecap="round" stroke-linejoin="round"/>
<path d="M600.124 474.811C601.862 474.811 603.271 473.496 603.271 471.874C603.271 470.252 601.862 468.937 600.124 468.937C598.386 468.937 596.978 470.252 596.978 471.874C596.978 473.496 598.386 474.811 600.124 474.811Z" fill="#1C2628" stroke="#1C2628" stroke-width="2.13" stroke-linecap="round" stroke-linejoin="round"/>
<path d="M614.659 472.223C616.397 472.223 617.806 470.908 617.806 469.286C617.806 467.664 616.397 466.349 614.659 466.349C612.922 466.349 611.513 467.664 611.513 469.286C611.513 470.908 612.922 472.223 614.659 472.223Z" fill="#1C2628" stroke="#1C2628" stroke-width="2.13" stroke-linecap="round" stroke-linejoin="round"/>
<path d="M627.921 469.916C629.659 469.916 631.068 468.601 631.068 466.979C631.068 465.357 629.659 464.042 627.921 464.042C626.183 464.042 624.774 465.357 624.774 466.979C624.774 468.601 626.183 469.916 627.921 469.916Z" fill="#1C2628" stroke="#1C2628" stroke-width="2.13" stroke-linecap="round" stroke-linejoin="round"/>
<path fill-rule="evenodd" clip-rule="evenodd" d="M506.322 373.623C524.678 369.777 545.806 376.63 556.295 391.804C564.837 404.182 567.833 424.182 557.644 432.433C549.927 438.727 537.79 435.65 521.457 431.594C501.527 426.629 473.357 419.566 471.634 404.392C470.21 391.455 488.791 377.329 506.322 373.623Z" fill="#1C2628" stroke="#1C2628" stroke-width="2.13" stroke-linecap="round" stroke-linejoin="round"/>
<path fill-rule="evenodd" clip-rule="evenodd" d="M558.393 416.839C541.086 377.679 511.118 395.72 511.118 395.72H498.98L483.546 385.79L477.702 370.476L450.056 374.112L452.079 381.175L449.307 394.392C443.388 392.504 430.726 389.077 416.566 389.077C402.406 389.077 396.937 416.769 396.937 416.769L439.942 468.098L428.554 513.552L508.57 511.594L507.746 451.314L526.027 445.021L563.038 527.817L585.665 491.384C585.665 491.454 569.931 442.923 558.393 416.839Z" fill="#F3A140" stroke="#1C2628" stroke-width="2.13" stroke-linecap="round" stroke-linejoin="round"/>
<path fill-rule="evenodd" clip-rule="evenodd" d="M448.408 350.826C447.659 350.196 445.261 349.497 444.886 348.798C443.238 345.721 437.769 338.658 440.841 333.693C443.987 328.728 447.359 330.896 447.359 330.896C447.359 330.896 449.007 320.057 460.47 328.798C461.819 329.847 462.493 328.238 463.242 329.777C463.842 330.966 464.141 332.294 464.591 333.553" fill="#1C2628"/>
<path d="M448.408 350.826C447.659 350.196 445.261 349.497 444.886 348.798C443.238 345.721 437.769 338.658 440.841 333.693C443.987 328.728 447.359 330.896 447.359 330.896C447.359 330.896 449.007 320.057 460.47 328.798C461.819 329.847 462.493 328.238 463.242 329.777C463.842 330.966 464.141 332.294 464.591 333.553" stroke="#1C2628" stroke-width="2.13" stroke-linecap="round" stroke-linejoin="round"/>
<path fill-rule="evenodd" clip-rule="evenodd" d="M499.655 358.798C500.104 360.126 502.502 362.434 502.502 363.693C502.502 369.007 504.6 381.874 497.782 387.189C491.039 392.434 488.417 387.399 488.417 387.399C488.417 387.399 479.8 401.734 471.784 382.993C470.81 380.756 469.087 382.644 469.162 380.056C469.236 378.028 469.686 376 469.986 373.972" fill="#1C2628"/>
<path d="M499.655 358.798C500.104 360.126 502.502 362.434 502.502 363.693C502.502 369.007 504.6 381.874 497.782 387.189C491.039 392.434 488.417 387.399 488.417 387.399C488.417 387.399 479.8 401.734 471.784 382.993C470.81 380.756 469.087 382.644 469.162 380.056C469.236 378.028 469.686 376 469.986 373.972" stroke="#1C2628" stroke-width="2.13" stroke-linecap="round" stroke-linejoin="round"/>
<path fill-rule="evenodd" clip-rule="evenodd" d="M442.115 359.427C441.965 341.525 446.91 345.021 448.408 340.266C451.48 330.756 454.926 327.819 473.882 330.756C477.178 331.245 481.149 331.735 484.071 333.483C497.257 341.315 495.984 351.665 495.984 351.665C495.984 351.665 500.779 376.35 472.009 376C443.239 375.721 471.934 375.581 457.024 370.616C442.115 365.721 442.115 359.427 442.115 359.427Z" fill="#1C2628" stroke="#1C2628" stroke-width="2.13" stroke-linecap="round" stroke-linejoin="round"/>
<path fill-rule="evenodd" clip-rule="evenodd" d="M473.881 363.693C475.23 359.637 468.712 347.819 467.738 343.973C466.015 337.119 478.002 341.035 470.735 338.868C462.568 336.42 455.151 335.511 449.532 341.455C447.359 343.763 443.238 356.14 442.189 359.357C438.293 370.756 444.662 379.287 455.975 382.644C463.242 384.811 469.236 384.392 474.855 379.776C477.927 377.189 472.458 367.819 473.881 363.693Z" fill="#F3A140" stroke="#1C2628" stroke-width="2.13" stroke-linecap="round" stroke-linejoin="round"/>
<path d="M451.779 356.07C451.779 356.07 451.854 357.749 453.353 358.518C454.851 359.287 456.35 358.728 456.799 357.259" stroke="#1C2628" stroke-width="2.13" stroke-linecap="round" stroke-linejoin="round"/>
<path fill-rule="evenodd" clip-rule="evenodd" d="M476.279 379.986L473.881 372.993C473.881 372.993 461.594 371.315 457.997 374.742C454.401 378.168 457.623 389.776 457.623 389.776L466.314 391.315" fill="#F3A13B"/>
<path fill-rule="evenodd" clip-rule="evenodd" d="M469.461 359.217C471.184 357.399 474.406 359.427 474.93 361.245C476.054 365.021 471.633 370.965 465.64 366.07" fill="#F3A140"/>
<path d="M469.461 359.217C471.184 357.399 474.406 359.427 474.93 361.245C476.054 365.021 471.633 370.965 465.64 366.07" stroke="#1C2628" stroke-width="2.13" stroke-linecap="round" stroke-linejoin="round"/>
<path d="M469.611 363.133C469.611 363.133 470.585 362.294 470.435 362.434" stroke="#1C2628" stroke-width="2.13" stroke-linecap="round" stroke-linejoin="round"/>
<path fill-rule="evenodd" clip-rule="evenodd" d="M453.802 365.091C452.978 365.86 450.356 363.203 450.805 368.098C450.805 368.098 451.03 373.343 455.6 372.014C458.747 371.175 453.802 365.091 453.802 365.091Z" fill="#1C2628" stroke="#1C2628" stroke-width="2.13" stroke-linecap="round" stroke-linejoin="round"/>
<path fill-rule="evenodd" clip-rule="evenodd" d="M445.636 357.819C445.636 357.819 439.268 363.623 438.968 365.021C438.893 367.469 442.864 364.951 443.538 365.511" fill="#F3A140"/>
<path d="M445.636 357.819C445.636 357.819 439.268 363.623 438.968 365.021C438.893 367.469 442.864 364.951 443.538 365.511" stroke="#1C2628" stroke-width="2.13" stroke-linecap="round" stroke-linejoin="round"/>
<path fill-rule="evenodd" clip-rule="evenodd" d="M455.526 333.203L449.532 341.455C457.099 333.203 458.373 357.609 477.029 358.238C477.553 358.238 487.518 360.965 487.443 360.336C487.368 359.497 485.869 359.637 485.27 359.007C483.921 357.609 483.547 356.07 483.247 354.322C482.872 352.154 485.045 347.679 483.172 345.931C480.1 343.063 475.905 333.553 472.159 333.833L455.526 333.203Z" fill="#1C2628" stroke="#1C2628" stroke-width="2.13" stroke-linecap="round" stroke-linejoin="round"/>
<path fill-rule="evenodd" clip-rule="evenodd" d="M474.48 335.441C475.305 334.952 476.728 332.994 477.627 332.854C481.298 332.294 490.064 329.357 494.26 333.553C498.53 337.749 495.234 340.196 495.234 340.196C495.234 340.196 505.948 344.742 493.586 352.504C492.162 353.413 493.586 354.462 491.787 354.672C490.364 354.812 488.94 354.742 487.517 354.812" fill="#1C2628"/>
<path d="M474.48 335.441C475.305 334.952 476.728 332.994 477.627 332.854C481.298 332.294 490.064 329.357 494.26 333.553C498.53 337.749 495.234 340.196 495.234 340.196C495.234 340.196 505.948 344.742 493.586 352.504C492.162 353.413 493.586 354.462 491.787 354.672C490.364 354.812 488.94 354.742 487.517 354.812" stroke="#1C2628" stroke-width="2.13" stroke-linecap="round" stroke-linejoin="round"/>
<path fill-rule="evenodd" clip-rule="evenodd" d="M457.698 339.497C457.773 338.588 456.799 336.35 457.174 335.651C458.672 332.504 460.995 324.043 467.139 323.203C473.282 322.294 473.582 326.14 473.582 326.14C473.582 326.14 483.621 320.406 483.621 334.322C483.621 335.931 485.345 335.441 484.52 336.98C483.846 338.168 483.022 339.217 482.198 340.336" fill="#1C2628"/>
<path d="M457.698 339.497C457.773 338.588 456.799 336.35 457.174 335.651C458.672 332.504 460.995 324.043 467.139 323.203C473.282 322.294 473.582 326.14 473.582 326.14C473.582 326.14 483.621 320.406 483.621 334.322C483.621 335.931 485.345 335.441 484.52 336.98C483.846 338.168 483.022 339.217 482.198 340.336" stroke="#1C2628" stroke-width="2.13" stroke-linecap="round" stroke-linejoin="round"/>
<path fill-rule="evenodd" clip-rule="evenodd" d="M483.846 346.979C485.344 347.119 488.341 346.28 489.69 346.77C495.459 348.728 510.068 352.084 514.639 358.868C519.284 365.651 513.29 365.651 513.29 365.651C513.29 365.651 527.525 377.189 505.573 375.86C502.951 375.721 504.674 377.679 501.827 376.63C499.654 375.791 497.482 374.742 495.309 373.832" fill="#1C2628"/>
<path d="M483.846 346.979C485.344 347.119 488.341 346.28 489.69 346.77C495.459 348.728 510.068 352.084 514.639 358.868C519.284 365.651 513.29 365.651 513.29 365.651C513.29 365.651 527.525 377.189 505.573 375.86C502.951 375.721 504.674 377.679 501.827 376.63C499.654 375.791 497.482 374.742 495.309 373.832" stroke="#1C2628" stroke-width="2.13" stroke-linecap="round" stroke-linejoin="round"/>
<path fill-rule="evenodd" clip-rule="evenodd" d="M568.957 612.922L554.947 625.999C552.699 628.096 549.478 628.866 546.481 628.166L539.663 626.488L494.335 615.299C494.335 615.299 469.686 615.299 439.717 615.299C419.788 615.299 372.737 615.999 343.442 607.537C328.683 603.271 318.493 596.698 318.493 586.488C318.493 556.139 388.77 524.251 388.77 524.251H423.159L461.07 559.635L432.225 573.411L489.69 578.446C489.69 578.446 492.162 576.418 501.303 576.418C515.388 576.418 519.734 589.845 519.734 589.845C519.734 589.845 557.195 589.845 563.413 595.649L569.032 600.894C572.479 604.111 572.479 609.565 568.957 612.922Z" fill="#F3A140" stroke="#1C2628" stroke-width="2.13" stroke-linecap="round" stroke-linejoin="round"/>
<path fill-rule="evenodd" clip-rule="evenodd" d="M683.438 557.677V559.635L648.674 558.866L641.706 558.726C641.706 558.726 642.156 589.565 635.038 596.209C627.921 602.852 616.832 603.691 590.16 603.691C563.488 603.691 473.432 559.635 473.432 559.635L488.266 544.251L517.785 513.762L590.16 537.747H598.102L601.623 534.461L609.265 527.328C611.288 525.44 614.21 524.461 617.057 524.741L654.518 528.447C656.766 528.657 658.938 529.146 660.961 529.915C664.333 531.104 667.405 532.992 670.027 535.37L675.796 540.684C680.741 545.16 683.438 551.314 683.438 557.677Z" fill="#F3A140" stroke="#1C2628" stroke-width="2.13" stroke-linecap="round" stroke-linejoin="round"/>
<path fill-rule="evenodd" clip-rule="evenodd" d="M641.706 558.656C641.706 558.656 642.156 589.495 635.038 596.139C627.921 602.782 616.832 603.621 590.16 603.621C563.488 603.621 473.432 559.565 473.432 559.565L488.266 544.181C498.605 542.992 508.72 544.111 515.088 548.796C523.929 555.3 523.255 566.768 537.265 574.46C544.832 578.586 552.474 579.356 557.269 579.845C575.925 581.733 581.544 574.181 590.984 578.586C600.499 583.062 599.226 592.572 607.842 594.32C614.36 595.649 622.526 591.663 626.048 585.999C632.341 575.929 621.103 565.02 626.048 559.496C629.419 555.719 639.459 555.579 648.599 558.656H641.706Z" fill="#1C2628" stroke="#1C2628" stroke-width="2.13" stroke-linecap="round" stroke-linejoin="round"/>
<path fill-rule="evenodd" clip-rule="evenodd" d="M414.992 430.475C430.201 429.776 445.485 429.077 460.695 428.378C466.464 430.475 472.233 432.503 478.002 434.601C481.972 432.643 486.018 430.755 489.989 428.797C502.276 430.336 514.563 431.804 526.851 433.343C521.232 449.496 515.612 465.65 509.993 481.804C484.969 482.223 459.945 482.643 434.996 483.062C428.328 465.51 421.66 447.958 414.992 430.475Z" fill="#1C2628" stroke="#1C2628" stroke-width="2.13" stroke-linecap="round" stroke-linejoin="round"/>
<path fill-rule="evenodd" clip-rule="evenodd" d="M593.906 534.251C593.906 534.251 572.254 545.719 558.393 558.656C544.533 571.593 527.226 573.691 511.118 558.656C495.009 543.621 465.865 591.383 436.271 591.383C406.676 591.383 420.612 576.768 396.936 576.768C373.261 576.768 382.626 576.768 357.977 576.768C355.355 576.768 352.882 576.628 350.635 576.418C331.754 574.46 325.461 565.23 325.461 565.23L414.993 492.783H512.766L526.701 499.916L593.906 534.251Z" fill="#F45B49" stroke="#1C2628" stroke-width="2.13" stroke-linecap="round" stroke-linejoin="round"/>
<path d="M434.098 434.601H459.646L476.279 442.783L491.263 436.07L517.86 438.657" stroke="#FAF6EB" stroke-width="2.13" stroke-linecap="round" stroke-linejoin="round"/>
<path d="M490.889 441.524C493.586 440.965 496.208 442.433 498.83 443.133C502.951 444.182 507.297 443.482 511.567 443.762" stroke="#FAF6EB" stroke-width="2.13" stroke-linecap="round" stroke-linejoin="round"/>
<path d="M489.615 445.79C493.961 446 498.156 448.168 502.352 447.398" stroke="#FAF6EB" stroke-width="2.13" stroke-linecap="round" stroke-linejoin="round"/>
<path d="M510.668 448.517C507.596 455.86 505.648 463.622 504.974 471.524" stroke="#FAF6EB" stroke-width="2.13" stroke-linecap="round" stroke-linejoin="round"/>
<path d="M503.176 457.259C503.026 459.566 502.652 461.874 501.977 464.112C501.603 465.51 501.078 466.909 501.378 468.377" stroke="#FAF6EB" stroke-width="2.13" stroke-linecap="round" stroke-linejoin="round"/>
<path d="M432.15 448.727C432.075 451.384 432.225 454.042 432.525 456.699" stroke="#FAF6EB" stroke-width="2.13" stroke-linecap="round" stroke-linejoin="round"/>
<path d="M435.146 448.587C435.371 452.363 436.345 456.14 437.919 459.636" stroke="#FAF6EB" stroke-width="2.13" stroke-linecap="round" stroke-linejoin="round"/>
<path d="M554.947 625.999L545.132 622.502" stroke="#1C2628" stroke-width="2.13" stroke-linecap="round" stroke-linejoin="round"/>
<path d="M560.192 621.034L552.25 618.096" stroke="#1C2628" stroke-width="2.13" stroke-linecap="round" stroke-linejoin="round"/>
<path d="M566.185 615.439L558.243 612.083" stroke="#1C2628" stroke-width="2.13" stroke-linecap="round" stroke-linejoin="round"/>
<path d="M683.213 554.461H674.747" stroke="#1C2628" stroke-width="2.13" stroke-linecap="round" stroke-linejoin="round"/>
<path d="M681.415 548.237H674.747" stroke="#1C2628" stroke-width="2.13" stroke-linecap="round" stroke-linejoin="round"/>
<path d="M677.444 542.083H671.975" stroke="#1C2628" stroke-width="2.13" stroke-linecap="round" stroke-linejoin="round"/>
<path d="M598.177 537.677L620.129 542.083" stroke="#1C2628" stroke-width="2.13" stroke-linecap="round" stroke-linejoin="round"/>
<path d="M641.707 558.656V548.237" stroke="#1C2628" stroke-width="2.13" stroke-linecap="round" stroke-linejoin="round"/>
<path d="M436.645 402.154C446.534 412.434 467.138 404.881 478.001 414.252C480.624 410.825 485.644 409.776 490.139 409.916C494.634 410.056 499.129 411.105 503.625 410.755" stroke="#1C2628" stroke-width="2.13" stroke-linecap="round" stroke-linejoin="round"/>
<path d="M477.553 339.357C484.67 341.665 492.162 342.994 499.73 343.273C504.899 343.413 510.219 343.133 515.164 344.602C520.108 346.07 524.754 349.917 524.903 354.742C524.978 356.42 524.529 358.168 525.053 359.707C526.327 363.553 531.796 363.902 535.842 365.301C541.536 367.259 545.582 372.714 545.582 378.378C545.582 384.042 541.461 389.497 535.767 391.385" stroke="#1C2628" stroke-width="2.13" stroke-linecap="round" stroke-linejoin="round"/>
<path d="M468.112 330.756C472.383 330.756 476.803 330.756 480.924 329.567C482.572 329.078 484.146 328.448 485.794 328.238C490.589 327.679 495.084 330.686 497.781 334.392C503.026 341.455 503.401 351.385 498.755 358.868" stroke="#1C2628" stroke-width="2.13" stroke-linecap="round" stroke-linejoin="round"/>
<path d="M501.228 364.462C507.671 363.413 514.713 362.504 520.408 365.441C523.03 366.839 525.203 369.007 527.975 370.196C531.196 371.595 534.867 371.455 538.389 371.735C544.907 372.154 551.725 373.972 555.921 378.658C560.116 383.343 560.191 391.385 554.797 394.881" stroke="#1C2628" stroke-width="2.13" stroke-linecap="round" stroke-linejoin="round"/>
<path fill-rule="evenodd" clip-rule="evenodd" d="M539.663 626.418L494.335 615.229C494.335 615.229 469.686 615.229 439.717 615.229C419.788 615.229 372.737 615.929 343.442 607.467C347.788 602.782 353.557 598.656 359.775 596.558C374.61 591.593 381.578 601.663 410.797 604.041C429.078 605.509 444.887 603.062 454.776 601.523C477.478 598.027 481.898 593.761 497.407 595.299C512.167 596.768 526.926 602.432 528.5 609.425C528.799 610.684 528.949 613.341 531.122 615.229C533.894 617.537 537.041 616.208 538.914 617.677C540.712 619.145 540.637 622.712 539.663 626.418Z" fill="#1C2628" stroke="#1C2628" stroke-width="2.13" stroke-linecap="round" stroke-linejoin="round"/>
<path fill-rule="evenodd" clip-rule="evenodd" d="M661.111 529.775C657.59 533.622 651.446 536.699 645.827 536.699C638.86 536.699 637.511 531.873 629.195 532.013C627.097 532.083 622.751 533.062 614.06 535.09C608.666 536.349 606.718 536.908 604.395 535.999C603.421 535.58 602.522 535.02 601.698 534.321L609.34 527.188C611.363 525.3 614.285 524.321 617.132 524.601L654.593 528.307C656.841 528.587 659.014 529.076 661.111 529.775Z" fill="#1C2628" stroke="#1C2628" stroke-width="2.13" stroke-linecap="round" stroke-linejoin="round"/>
<path fill-rule="evenodd" clip-rule="evenodd" d="M593.906 534.251C593.906 534.251 572.254 545.719 558.393 558.656C544.533 571.593 527.226 573.691 511.118 558.656C495.009 543.621 465.865 591.383 436.271 591.383C406.676 591.383 420.612 576.768 396.937 576.768C373.261 576.768 382.626 576.768 357.977 576.768C355.355 576.768 352.882 576.628 350.635 576.418C354.681 569.635 382.327 569.915 389.669 565.929C405.553 557.258 407.051 553.971 437.095 559.216C452.978 562.013 463.467 565.23 473.507 559.565C482.422 554.6 479.725 548.936 488.341 544.181C500.404 537.608 518.984 541.244 538.239 545.09C544.158 546.279 549.253 547.538 554.198 545.09C560.491 541.943 565.511 533.482 563.039 527.887C558.918 518.587 537.415 525.02 529.324 513.622C526.626 509.776 525.802 504.531 526.701 499.776L593.906 534.251Z" fill="#1C2628" stroke="#1C2628" stroke-width="2.13" stroke-linecap="round" stroke-linejoin="round"/>
<path d="M466.764 579.146C466.764 579.146 494.485 556.069 504.974 555.789C516.886 555.51 516.437 562.153 526.926 568.377C537.415 574.6 548.504 566.838 558.393 558.656" stroke="#FAF6EB" stroke-width="2.13" stroke-linecap="round" stroke-linejoin="round"/>
<path d="M423.084 524.251L407.95 558.656" stroke="#1C2628" stroke-width="2.13" stroke-linecap="round" stroke-linejoin="round"/>
<path d="M477.553 507.608L488.341 544.251" stroke="#1C2628" stroke-width="2.13" stroke-linecap="round" stroke-linejoin="round"/>
<path d="M491.263 519.426L503.175 548.237" stroke="#1C2628" stroke-width="2.13" stroke-linecap="round" stroke-linejoin="round"/>
<path d="M511.642 507.608L558.917 549.496" stroke="#1C2628" stroke-width="2.13" stroke-linecap="round" stroke-linejoin="round"/>
<path d="M545.656 525.929L568.807 543.761" stroke="#1C2628" stroke-width="2.13" stroke-linecap="round" stroke-linejoin="round"/>
<path fill-rule="evenodd" clip-rule="evenodd" d="M469.236 440.475C454.851 431.664 440.242 438.937 425.332 440.196C413.569 441.175 409.673 434.811 398.36 431.944C363.222 422.923 319.392 435.371 324.712 488.587C324.937 490.615 325.236 492.713 325.611 494.741C330.706 520.964 354.98 541.174 396.862 531.664C430.127 524.041 434.248 514.95 440.541 510.615C443.089 508.867 466.24 512.713 475.005 503.971C483.472 495.58 468.637 484.251 463.318 478.028C460.995 475.23 480.849 447.608 469.236 440.475Z" fill="#FAF6EB" stroke="#1C2628" stroke-width="2.13" stroke-linecap="round" stroke-linejoin="round"/>
<path fill-rule="evenodd" clip-rule="evenodd" d="M461.894 491.594C467.138 503.202 439.117 495.999 432.075 496.489C417.465 497.538 397.611 519.426 387.871 501.594C384.724 495.79 387.346 488.307 388.17 482.153C388.77 477.678 377.606 463.342 384.499 456.279C391.767 448.797 405.403 457.958 416.491 458.307C424.807 458.587 440.841 449.286 448.108 454.181C457.174 460.265 446.759 465.23 447.658 472.643C448.483 480.125 458.897 485.02 461.894 491.594Z" fill="#1C2628" stroke="#1C2628" stroke-width="2.13" stroke-linecap="round" stroke-linejoin="round"/>
<path fill-rule="evenodd" clip-rule="evenodd" d="M599.376 467.118C610.839 464.181 608.217 462.643 620.204 462.713C631.667 462.783 641.782 438.657 615.709 442.713C593.981 446.14 606.718 442.643 591.958 442.433C577.199 442.224 573.752 448.098 573.752 448.098L568.808 448.727L572.554 466.14C575.7 466.909 589.261 469.706 599.376 467.118Z" fill="#1C2628" stroke="#1C2628" stroke-width="2.13" stroke-linecap="round" stroke-linejoin="round"/>
<path fill-rule="evenodd" clip-rule="evenodd" d="M383.151 489.566L571.729 465.93C571.729 465.93 571.954 466 572.404 466.07L568.657 448.657L380.828 471.664L383.151 489.566Z" fill="#FAF6EB" stroke="#1C2628" stroke-width="2.13" stroke-linecap="round" stroke-linejoin="round"/>
<path fill-rule="evenodd" clip-rule="evenodd" d="M373.786 501.104L391.018 499.985L385.323 460.196L369.065 462.363L373.786 501.104Z" fill="#1C2628" stroke="#1C2628" stroke-width="2.13" stroke-linecap="round" stroke-linejoin="round"/>
<path d="M383.825 482.783L572.703 460.056" stroke="#1C2628" stroke-width="2.13" stroke-linecap="round" stroke-linejoin="round"/>
<path d="M383.9 477.328L572.554 453.762" stroke="#1C2628" stroke-width="2.13" stroke-linecap="round" stroke-linejoin="round"/>
<path fill-rule="evenodd" clip-rule="evenodd" d="M440.616 510.615C437.544 508.237 434.098 506.629 430.726 506.139C419.937 504.811 415.067 518.517 395.588 522.223C393.49 522.643 381.128 524.81 368.241 519.845C351.908 513.552 351.983 502.363 339.097 497.118C335.051 495.44 330.406 494.671 325.686 494.671C330.78 520.894 345.015 537.468 386.897 533.761C420.986 530.824 434.322 515.02 440.616 510.615Z" fill="#1C2628" stroke="#1C2628" stroke-width="2.13" stroke-linecap="round" stroke-linejoin="round"/>
<path fill-rule="evenodd" clip-rule="evenodd" d="M403.829 398.378C403.829 398.378 362.922 443.692 356.853 475.93C354.381 488.937 359.85 507.608 383.825 507.608C407.8 507.608 442.189 486 442.189 486C442.189 486 460.845 492.993 465.865 488.307C470.884 483.622 465.865 485.3 465.865 485.3C465.865 485.3 468.037 497.328 473.357 497.328C478.676 497.328 487.967 488.657 487.967 488.657L481.898 470.965C481.898 470.965 485.195 478.657 490.139 478.657C495.009 478.657 499.055 474.951 499.055 474.951L473.357 458.587C473.357 458.587 480.025 456 480.025 454.601C480.025 453.203 480.025 451.384 480.025 451.384L426.606 464.461L401.731 469.356L433.049 428.308L403.829 398.378Z" fill="#F3A140" stroke="#1C2628" stroke-width="2.13" stroke-linecap="round" stroke-linejoin="round"/>
<path fill-rule="evenodd" clip-rule="evenodd" d="M393.939 411.245L408.025 394.392L442.264 421.385L421.81 436.07L393.939 411.245Z" fill="#F3A13B"/>
<path d="M389.594 469.426H401.881" stroke="#1C2628" stroke-width="2.13" stroke-linecap="round" stroke-linejoin="round"/>
<path d="M459.646 474.671H470.36L473.432 497.398" stroke="#1C2628" stroke-width="2.13" stroke-linecap="round" stroke-linejoin="round"/>
<path d="M469.236 469.426L475.979 471.524L478.527 495.72" stroke="#1C2628" stroke-width="2.13" stroke-linecap="round" stroke-linejoin="round"/>
<path d="M478.526 468.377L483.246 492.713" stroke="#1C2628" stroke-width="2.13" stroke-linecap="round" stroke-linejoin="round"/>
<path d="M473.432 458.587H459.646" stroke="#1C2628" stroke-width="2.13" stroke-linecap="round" stroke-linejoin="round"/>
<path fill-rule="evenodd" clip-rule="evenodd" d="M560.041 524.251L566.035 498.657C566.035 498.657 557.419 499.776 563.413 486.069C569.407 472.363 571.654 474.111 571.654 474.111L568.807 471.454C568.807 471.454 564.462 474.251 561.615 474.251C558.768 474.251 558.243 471.454 558.243 471.454L564.911 462.923H571.579L575.25 459.496H578.322L581.394 456.629H587.538L591.059 466.209C591.059 466.209 588.362 450.196 591.059 447.748C593.756 445.231 596.753 445.231 596.753 445.231C596.753 445.231 600.574 491.524 596.753 502.433C592.932 513.342 598.701 519.985 581.619 527.747C564.612 535.37 560.041 524.251 560.041 524.251Z" fill="#F3A140" stroke="#1C2628" stroke-width="2.13" stroke-linecap="round" stroke-linejoin="round"/>
<path d="M571.729 462.853L578.697 469.426" stroke="#1C2628" stroke-width="2.13" stroke-linecap="round" stroke-linejoin="round"/>
<path d="M578.472 459.426L585.664 466.14" stroke="#1C2628" stroke-width="2.13" stroke-linecap="round" stroke-linejoin="round"/>
<path d="M571.579 492.713L566.035 498.587" stroke="#1C2628" stroke-width="2.13" stroke-linecap="round" stroke-linejoin="round"/>
<path d="M595.405 440.475C597.142 440.475 598.551 439.16 598.551 437.538C598.551 435.916 597.142 434.601 595.405 434.601C593.667 434.601 592.258 435.916 592.258 437.538C592.258 439.16 593.667 440.475 595.405 440.475Z" fill="#1C2628" stroke="#1C2628" stroke-width="2.13" stroke-linecap="round" stroke-linejoin="round"/>
<path d="M610.24 440.475C611.977 440.475 613.386 439.16 613.386 437.538C613.386 435.916 611.977 434.601 610.24 434.601C608.502 434.601 607.093 435.916 607.093 437.538C607.093 439.16 608.502 440.475 610.24 440.475Z" fill="#1C2628" stroke="#1C2628" stroke-width="2.13" stroke-linecap="round" stroke-linejoin="round"/>
<path d="M623.725 440.475C625.463 440.475 626.872 439.16 626.872 437.538C626.872 435.916 625.463 434.601 623.725 434.601C621.987 434.601 620.578 435.916 620.578 437.538C620.578 439.16 621.987 440.475 623.725 440.475Z" fill="#1C2628" stroke="#1C2628" stroke-width="2.13" stroke-linecap="round" stroke-linejoin="round"/>
<path d="M470.734 338.938L452.303 343.483L440.99 340.336" stroke="#FAF6EB" stroke-width="2.13" stroke-linecap="round" stroke-linejoin="round"/>
<path d="M452.229 346.84C453.222 346.84 454.027 346.088 454.027 345.161C454.027 344.234 453.222 343.483 452.229 343.483C451.236 343.483 450.431 344.234 450.431 345.161C450.431 346.088 451.236 346.84 452.229 346.84Z" stroke="#FAF6EB" stroke-width="2.13" stroke-linecap="round" stroke-linejoin="round"/>
<path d="M128.641 474.601C132.087 475.37 135.533 476.07 138.98 476.839" stroke="#1C2628" stroke-width="2.13" stroke-linecap="round" stroke-linejoin="round"/>
<path d="M275.862 459.846C279.608 461.175 283.354 462.433 287.101 463.762" stroke="#1C2628" stroke-width="2.13" stroke-linecap="round" stroke-linejoin="round"/>
<path fill-rule="evenodd" clip-rule="evenodd" d="M311.6 472.853C312.724 476.209 309.053 480.755 304.782 480.755C302.31 480.755 299.613 479.356 298.639 476.699C297.665 474.112 298.863 471.384 300.811 469.986C304.258 467.608 310.476 469.426 311.6 472.853Z" fill="#1C2628" stroke="#1C2628" stroke-width="2.13" stroke-linecap="round" stroke-linejoin="round"/>
<path fill-rule="evenodd" clip-rule="evenodd" d="M317.594 456.419C315.871 456.21 313.473 449.566 316.92 446.629C318.193 445.51 320.516 444.671 321.565 445.51C323.813 447.328 319.767 456.629 317.594 456.419Z" fill="#1C2628" stroke="#1C2628" stroke-width="2.13" stroke-linecap="round" stroke-linejoin="round"/>
<path fill-rule="evenodd" clip-rule="evenodd" d="M171.122 467.678C167.9 467.328 163.929 460.965 166.926 457.119C169.623 453.622 176.441 454.182 178.239 456.699C180.637 459.986 175.093 468.097 171.122 467.678Z" fill="#1C2628" stroke="#1C2628" stroke-width="2.13" stroke-linecap="round" stroke-linejoin="round"/>
<path d="M397.086 175.582C397.086 175.093 397.086 174.533 396.936 174.044C396.337 171.316 394.089 169.149 391.167 168.589C386.297 167.68 382.102 171.107 382.102 175.442C382.102 175.512 382.102 175.582 382.102 175.652C382.177 177.68 381.278 179.638 379.704 181.037C376.483 183.904 374.685 188.169 375.509 192.785C376.483 198.659 381.727 203.274 388.021 203.904C396.637 204.813 403.979 198.519 403.979 190.617C403.979 186.771 402.256 183.344 399.484 180.897C397.835 179.568 397.086 177.61 397.086 175.582Z" fill="#F3A140" stroke="#1C2628" stroke-width="2.13" stroke-linecap="round" stroke-linejoin="round"/>
<path d="M389.594 129.149H376.258C376.258 129.149 372.437 148.729 368.616 152.295C364.795 155.862 353.332 161.177 351.459 170.128C349.586 179.009 349.586 227.19 349.586 227.19H393.49" stroke="#1C2628" stroke-width="2.13" stroke-linecap="round" stroke-linejoin="round"/>
<path d="M391.542 186.211H350.186" stroke="#1C2628" stroke-width="2.13" stroke-linecap="round" stroke-linejoin="round"/>
<path d="M367.418 227.261V186.282C367.418 186.282 366.893 171.317 373.711 157.751C378.131 148.87 380.004 129.219 380.004 129.219" stroke="#1C2628" stroke-width="2.13" stroke-linecap="round" stroke-linejoin="round"/>
<path d="M389.594 129.149H402.93C402.93 129.149 406.751 148.729 410.572 152.296C414.393 155.862 425.856 161.177 427.729 170.128C429.603 179.009 429.603 227.19 429.603 227.19H385.698" stroke="#1C2628" stroke-width="2.13" stroke-linecap="round" stroke-linejoin="round"/>
<path d="M387.721 186.211H429.078" stroke="#1C2628" stroke-width="2.13" stroke-linecap="round" stroke-linejoin="round"/>
<path d="M411.771 227.261V186.282C411.771 186.282 412.296 171.317 405.478 157.751C401.058 148.87 399.185 129.219 399.185 129.219" stroke="#1C2628" stroke-width="2.13" stroke-linecap="round" stroke-linejoin="round"/>
<path d="M389.595 187.54V35.9327H428.629" stroke="#1C2628" stroke-width="2.13" stroke-linecap="round" stroke-linejoin="round"/>
</svg>
