<svg width="186" height="156" fill="none" xmlns="http://www.w3.org/2000/svg"><path d="M92.44 110.532a24.924 24.924 0 00-1.305 4.853 18 18 0 014.497 1.656c.74.394 1.443.838 2.1 1.329.548.859 1.33 2.077 2.282 3.536 1.478 2.273 2.232 3.43 2.996 4.502a64.377 64.377 0 003.646 4.649 2.573 2.573 0 001.319-.939c.561-.871.114-1.906-.082-2.376-1.365-3.289.657-.624-1.887-6.15a87.013 87.013 0 00-4.62-8.659l-8.946-2.401z" fill="#000"/><path d="M80.449 88l-2.51-.207c-4.78-2.633-9.93-4.736-15.328-6.257a73.127 73.127 0 00-16.1-2.257c-1.776-.043-4.424-.028-7.221 1.179-.977.42-2.95 1.297-4.265 3.177-.227.32-1.024 1.501-1.315 4.37-.217 2.133-.6 5.92 1.809 9.99a17.793 17.793 0 003.614 4.227 27.127 27.127 0 006.632 4.356c6.693 3.308 10.04 4.966 14.61 6.662 5.876 2.181 10.684 3.475 20.302 6.068 3.28.883 5.999 1.578 7.819 2.041.376-.453.709-.933.995-1.432a9.475 9.475 0 001.17-3.722c.379-3.351 1.317-6.626 1.939-9.943 1.404-7.49 2.844-7.6 2.293-9.748-.683-2.62-3.743-5.897-14.444-8.504z" fill="#fff"/><path opacity=".2" d="M35.79 82.605c-.056 1.607.128 3.213.546 4.78.726 2.365 1.897 4.613 3.466 6.655 3.404 4.353 15.83 14.433 36.926 17.516 4.812.698 9.693.984 14.572.853a49.446 49.446 0 01-2.115 8.558 156.688 156.688 0 01-8.53-1.659c-10.75-2.41-17.663-5.276-31.485-11.009-3.756-1.485-7.165-3.543-10.058-6.077-1.577-1.348-2.877-2.914-3.845-4.633a14.796 14.796 0 01-1.731-6.12c-.159-3.072.618-6.126 2.253-8.864z" fill="#9E9E9E"/><path d="M77.766 87.278c-7.226-3.904-15.298-6.516-23.73-7.68-6.26-.85-16.452-1.59-19.608 4.509-1.475 2.851-1.276 6.442-.764 9.443.512 3.067 2.101 5.928 4.556 8.203 2.488 2.327 5.576 4.112 8.722 5.706a155.792 155.792 0 0011.781 5.375c9.465 3.839 19.686 6.114 29.673 8.722.327.085.469-.356.142-.442-7.957-2.075-16.057-3.935-23.812-6.54-7.236-2.437-14.529-5.58-20.937-9.363-2.982-1.758-5.8-3.872-7.613-6.593-1.98-2.969-2.42-6.503-2.285-9.872.153-3.79 1.802-6.951 6.166-8.325 3.839-1.218 8.064-1.048 12.056-.61 9.023 1.012 17.683 3.691 25.38 7.854.29.155.557-.238.266-.396l.007.009z" fill="#000"/><path d="M59.932 91.412c9.578 6.475 21.022 10.234 32.341 13.884a.233.233 0 00.143-.442c-11.214-3.619-22.593-7.344-32.093-13.766-.267-.18-.647.14-.377.324h-.014z" fill="#000"/><path d="M92.259 105.314c.512 5.388-1.933 10.442-3.351 15.593-.079.287.437.408.515.122 1.421-5.194 3.884-10.284 3.37-15.715-.026-.305-.559-.305-.534 0z" fill="#000"/><path d="M91 115.585c1.629.595 3.388 1.097 4.93 1.844 1.923.913 2.63 2.588 3.597 4.182a79.386 79.386 0 006.344 8.94c.195.237.658 0 .462-.231a79.176 79.176 0 01-6.945-9.949c-.664-1.127-1.283-2.239-2.52-2.983-1.641-.989-3.76-1.522-5.597-2.195-.313-.117-.586.279-.27.392z" fill="#000"/><path d="M92.37 110.751c2.295.57 4.595 1.133 6.89 1.709 1.87.466 2.627 1.398 3.27 2.903l1.301 3.046c.863 2.026 1.735 4.048 2.594 6.077.434 1.018 2.908 6.345.231 6.348a.29.29 0 00-.188.068.21.21 0 00-.078.161c0 .06.028.118.078.161a.29.29 0 00.188.068c4.5 0-1.119-10.211-1.723-11.625l-1.887-4.42c-.356-.84-.655-1.895-1.508-2.489-.97-.679-2.533-.831-3.703-1.121l-5.33-1.321a.3.3 0 00-.203.022.235.235 0 00-.127.137.204.204 0 00.026.175.263.263 0 00.161.107l.007-.006z" fill="#000"/><path d="M99.534 116.368l-7.463 10.729a41.93 41.93 0 003.38 2.068c3.203 1.786 6.765 3.047 10.505 3.719 1.067.183 3.145.521 3.412 0 .125-.231-.156-.591-1.443-1.712-1.947-1.699-3.333-2.671-3.333-2.671a358 358 0 00-4.145-2.863l3.999-7.96-4.912-1.31z" fill="#000"/><path d="M93.73 114.367a65.266 65.266 0 011.97-3.628 71.535 71.535 0 015.54-8.106c3.554-4.548 6.333-8.14 11.103-12.111 2.928-2.486 6.224-4.63 9.805-6.379a31.058 31.058 0 019.376-2.485c1.496-.146 3.046-.174 4.147.673 1.024.786 1.177 1.953 1.223 2.312.213 1.648-.71 2.933-1.485 4.085-3.651 5.34-.847 2.3-3.857 6.059-3.01 3.758-5.064 5.872-9.734 11.051-3.654 4.045-4.891 5.528-6.291 7.56a50.242 50.242 0 00-3.301 5.499c-.704.135-1.416.237-2.132.304-2.851.277-5.737.04-8.474-.697-2.97-.833-5.672-2.25-7.89-4.137z" fill="#fff"/><path opacity=".15" d="M135.671 82.343a95.664 95.664 0 01-3.909 6.282 106.195 106.195 0 01-11.092 13.816c-5.647 5.933-12.036 11.315-19.053 16.053a23.662 23.662 0 0010.595.388 68.861 68.861 0 013.816-5.941c2.381-3.326 4.528-5.711 7.013-8.455 4.353-4.817 4.915-4.89 7.691-8.347 3.059-3.817.824-1.794 4.662-7.399.711-1.02 1.752-2.522 1.379-4.313a4.534 4.534 0 00-1.102-2.084z" fill="#9E9E9E"/><path d="M94.09 114.011c3.303-5.886 7.271-11.48 11.848-16.702 4.158-4.733 8.96-9.242 14.963-12.282 3.135-1.587 6.799-2.97 10.481-3.107 2.584-.098 5.686.52 5.153 3.293-.299 1.587-1.187 3.177-1.99 4.614-2.761 4.956-6.809 9.272-10.783 13.543-4.361 4.688-8.736 9.443-11.543 14.972-.136.265.322.499.458.232 5.687-11.21 17.795-18.935 23.233-30.254.899-1.87 2.427-4.95-.31-6.263-3.01-1.444-7.428-.332-10.37.655-6.582 2.2-11.992 6.33-16.516 10.886-6.042 6.093-11.017 13.004-15.087 20.196-.149.266.313.497.463.231v-.014z" fill="#000"/><path d="M94.239 115.247c2.467 1.781 5.377 3.054 8.507 3.723a24.56 24.56 0 009.551.133c.334-.06.192-.502-.143-.441a23.921 23.921 0 01-9.274-.129c-3.04-.648-5.866-1.882-8.265-3.608-.26-.19-.64.134-.376.322z" fill="#000"/><path d="M98.575 117.413l-5.726 7.71c-.185.249.277.478.462.231l5.722-7.712c.185-.248-.274-.479-.458-.229z" fill="#000"/><path d="M103.195 119.107l-2.243 4.017c-.355.652-1.308 1.749-1.105 2.544.231.914 1.777 1.706 2.541 2.263a52.272 52.272 0 003.909 2.599 70.6 70.6 0 001.066.63c.757.433.896.262.537 1.158-.359.895-.323.7-1.194.508a50.727 50.727 0 01-10.975-3.78 13.676 13.676 0 01-2.157-1.106c-.576-.423-1.066-.989-.945-1.581.064-.378.603-1.014.796-1.334.156-.262-.302-.493-.458-.231-.48.801-1.657 1.916-.89 2.808.434.503 1.422.85 2.027 1.161.985.512 1.992.992 3.02 1.441a50.955 50.955 0 005.545 2.04c1.649.5 3.934 1.43 5.715 1.308.71-.047 1.336-.351 1.301-1.021-.054-1.048-2.062-1.764-2.844-2.233a52.37 52.37 0 01-3.319-2.154c-.693-.49-2.314-1.321-2.68-2.031-.366-.71.074-1.855.44-2.508l.712-1.255 1.684-3.012c.146-.264-.313-.497-.462-.231h-.021z" fill="#000"/><path d="M69.325 42.564c-.38.497-.931 1.246-1.539 2.19-2.303 3.586-3.064 6.36-4.386 10.905-3.067 10.525-3.799 12.142-4.144 16.45a46.6 46.6 0 00-.149 3.96c4.851-.715 9.266-2.842 12.5-6.023a236.237 236.237 0 015.782-10.22c-4.569-4.975-7.368-10.973-8.064-17.277v.015z" fill="#fff"/><path opacity=".21" d="M72.047 52.001c.28 1.196.446 2.41.498 3.628.302 7.417-3.789 13.214-6.305 16.144l5.367-1.733 5.782-10.21L72.047 52z" fill="#9E9E9E"/><path d="M69.094 42.449c-3.554 4.544-4.976 9.918-6.554 15.139-1.745 5.806-3.348 11.648-3.93 17.634-.029.304.504.304.533 0 .579-5.947 2.178-11.746 3.91-17.513 1.556-5.178 2.98-10.518 6.5-15.029.191-.244-.27-.475-.463-.231h.004zM75.907 62.142c-2.89 4.205-5.182 8.691-6.83 13.363a.201.201 0 00.035.163c.035.048.09.084.155.099.064.015.133.01.192-.017a.244.244 0 00.129-.123c1.634-4.633 3.907-9.083 6.77-13.254a.202.202 0 00.028-.174.237.237 0 00-.123-.14.307.307 0 00-.204-.024.267.267 0 00-.163.107h.011z" fill="#000"/><path d="M69.325 42.564c.064 2.77.234 6.607.71 11.173.612 6.007 1.106 10.863 2.865 16.754a65.573 65.573 0 006.255 14.295c3.306 2.747 7.555 4.51 12.12 5.026 9.411.99 16.053-4.008 17.059-4.803a132.331 132.331 0 005.21-28.938c.356-5.282.356-10.25.139-14.862-5.793-3.678-12.743-5.778-19.946-6.026-13.217-.383-22.23 5.797-24.412 7.381z" fill="#486F9A"/><path d="M112.837 40.52a25.415 25.415 0 00-3.323 5.358c-1.926 4.298-2.554 8.943-1.827 13.504.318 2.15.762 4.285 1.333 6.397.774 2.857 1.61 5.038 2.342 6.942a96.687 96.687 0 001.884 4.514 12.615 12.615 0 002.149 1.447c1.803.96 3.693 1.42 6.721 1.703 3.245.304 7.436.694 12.709-.466 4.017-.88 6.149-2.111 6.693-2.437a17.25 17.25 0 002.91-2.178l-5.057-1.636a20.712 20.712 0 01-4.485-.408c-2.63-.536-3.65-1.298-6.199-1.797a19.72 19.72 0 00-4.879-.32c-.221-2.437-.615-5.931-1.358-10.147-.852-4.852-1.303-7.338-2.459-10.113-1.605-3.808-4.032-7.324-7.154-10.363z" fill="#fff"/><path opacity=".22" d="M111.905 41.754a41.9 41.9 0 00-1.446 9.559c-.121 3.533-.256 7.493 1.394 11.91 1.044 2.8 3.695 9.894 11.923 13.458 7.887 3.411 15.78 1.364 17.742.8-3.704 1.81-7.832 2.893-12.084 3.169-5.268.32-10.539-.593-15.247-2.644a39.596 39.596 0 01-2.533-4.524 39.69 39.69 0 01-2.844-8.49c-1.105-4.928-1.941-8.663-1.066-13.402.655-3.474 2.066-6.81 4.161-9.836z" fill="#9E9E9E"/><path d="M112.648 40.682c9.679 7.767 9.106 19.967 10.954 30.336.054.29.565.167.515-.122-1.862-10.445-1.332-22.703-11.092-30.55-.248-.2-.625.122-.377.323v.013zM107.42 59.382c.931 6.094 2.831 12.05 5.644 17.704.132.268.594.036.459-.232-2.778-5.58-4.651-11.458-5.569-17.472-.047-.287-.579-.29-.534 0z" fill="#000"/><path d="M122.486 71.968c5.928-1.666 11.625 2.961 17.528 1.947.334-.058.192-.5-.142-.442-3.227.557-7.008-.914-10.114-1.611-2.467-.558-4.92-1.036-7.414-.335-.324.091-.185.533.142.441zM113.057 77.406c3.373 3.073 9.596 3.566 14.216 3.54 5.524-.038 10.95-1.252 15.791-3.534.302-.144.031-.537-.267-.396-4.581 2.16-9.699 3.349-14.926 3.466-4.621.098-11.075-.326-14.448-3.4-.234-.216-.611.11-.376.324h.01z" fill="#000"/><path d="M120.61 71.112c6.396-1.523 12.92-3.147 19.572-4.873a959.029 959.029 0 0018.281-4.95 5.291 5.291 0 010-2.605c.662-2.54 3.067-3.896 3.675-4.219l-1.002-2.437 2.335-.609.949 2.23c.933.22 1.811.586 2.59 1.078.801.515 1.067.914 1.803 1.042.856.146 1.62-.228 2.061-.445 1.55-.761 1.574-1.751 3.224-2.875a8.15 8.15 0 011.506-.801l-.586-2.711 1.944-.555.907 2.501a5.962 5.962 0 012.452-.027c1.211.268 2.272.895 2.996 1.77.376.414 1.578 1.742 1.222 3.53-.234 1.05-.903 1.992-1.883 2.653l.235 1.94a2.578 2.578 0 01-.849.365c-.308.071-.63.09-.946.053a2.472 2.472 0 01-1.191-.523 1.949 1.949 0 01-.655-1 13.17 13.17 0 00-3.027.874c-1.165.5-1.962.84-2.534 1.578-.65.831-.355 1.304-.981 2.275a4.925 4.925 0 01-1.752 1.554c.423.545.842 1.09 1.265 1.633l-2.381.98c-.096-.594-.355-1.431-1.12-1.803-.845-.405-1.446.162-3.159 0-1.216-.113-2.186-.518-3.291-.98a15.693 15.693 0 01-1.578-.765 1432.643 1432.643 0 00-16.793 5.635 1744.287 1744.287 0 00-20.091 6.96 1078.926 1078.926 0 01-3.198-6.473z" fill="#fff"/><path opacity=".19" d="M122.45 74.868l39.696-11.98c1.915 1.782 3.369 2.08 4.36 2.004 2.908-.231 2.982-3.786 7.108-5.455 3.142-1.277 5.033 0 7.439-1.49 1.89-1.179 2.559-3.125 2.822-4.651.227.27 1.456 1.776.87 3.475-.458 1.328-1.776 2.026-2.388 2.349-2.843 1.465-4.705.024-6.777 1.31-1.579.98-.796 2.004-2.865 3.92-.501.466-1.866 1.73-3.909 2.242-3.735.938-7.229-1.264-7.741-1.596l-36.827 12.367-1.788-2.495z" fill="#9E9E9E"/><path d="M120.663 71.326a2111.411 2111.411 0 0039.29-9.989c.326-.088.184-.53-.142-.441a2117.875 2117.875 0 01-39.29 9.988.265.265 0 00-.161.108.2.2 0 00-.026.174.238.238 0 00.126.138c.062.03.135.038.203.022zM123.865 77.814a1039.845 1039.845 0 0138.767-13.04.232.232 0 00-.142-.44 1049.988 1049.988 0 00-38.768 13.038c-.312.113-.173.555.143.442z" fill="#000"/><path d="M159.245 61.06c-1.898-2.979 1.873-6.93 5.623-6.838 2.271.054 3.199 2.558 5.647 1.523 1.027-.43 1.624-1.274 2.335-1.996.939-.93 2.108-1.67 3.423-2.165 1.776-.689 3.813-.939 5.523.045a4.306 4.306 0 011.609 1.583c.364.64.525 1.35.467 2.06 0 .305.515.305.532 0 .069-1.15-.375-2.281-1.243-3.162-.868-.88-2.094-1.444-3.431-1.577-1.588-.128-3.152.368-4.52 1.014-1.639.77-2.509 1.843-3.76 2.98-.896.813-1.457 1.038-2.712.697a5.382 5.382 0 01-1.823-.853 4 4 0 00-1.493-.567c-1.358-.207-2.769.305-3.888.914-2.605 1.426-4.382 4.024-2.765 6.564.164.26.626.028.462-.231l.014.01z" fill="#000"/><path d="M161.2 65.273c2.843 2.903 10.285 2.416 11.981-1.295.376-.828.511-1.72 1.265-2.39a6.388 6.388 0 012.726-1.22c1.51-.365 3.113-.44 4.581-.934 2.022-.68 3.689-2.386 2.705-4.265-.139-.268-.598-.036-.459.228 1.734 3.336-4.141 3.96-6.475 4.43-1.575.322-3.227.913-4.077 2.16-.625.913-.614 2.064-1.472 2.893-.856.829-2.068 1.255-3.258 1.523-2.488.554-5.402.347-7.14-1.435-.22-.225-.594.1-.377.323v-.018zM174.63 49.159a5.851 5.851 0 001.109 2.254c.192.24.655 0 .463-.231a5.457 5.457 0 01-1.066-2.133c-.071-.286-.584-.164-.516.122l.01-.012z" fill="#000"/><path d="M175.196 49.095c.23-.19.507-.333.812-.417.304-.085.627-.109.944-.07l-.26-.168.906 2.5c.103.278.619.16.515-.12l-.906-2.502a.245.245 0 00-.096-.119.31.31 0 00-.159-.048 3.002 3.002 0 00-1.148.095 2.695 2.695 0 00-.985.514c-.248.204.128.527.377.323v.012zM179.539 60.04c.427.164.434.649.654.962.172.242.443.42.76.5.316.09.658.09.973-.001.315-.091.587-.267.776-.502.192-.243-.27-.475-.459-.231a.96.96 0 01-.364.259 1.125 1.125 0 01-.918-.028.947.947 0 01-.342-.28c-.256-.399-.267-.865-.814-1.075-.309-.119-.579.274-.266.396z" fill="#000"/><path d="M182.073 59.132c-.046.317-.014.638.092.943.106.306.285.59.527.833.216.228.593-.098.376-.323a1.786 1.786 0 01-.408-.685 1.614 1.614 0 01-.054-.768c.043-.305-.49-.29-.533 0zM161.068 52.345c.106.782.389 1.538.832 2.227.164.256.625.027.459-.232a4.97 4.97 0 01-.757-1.995c-.043-.286-.576-.29-.534 0z" fill="#000"/><path d="M161.26 52.226a4.526 4.526 0 012.201-.57l-.267-.228c.048.849.391 1.665.984 2.346.203.231.665 0 .459-.232-.545-.61-.862-1.346-.91-2.114a.219.219 0 00-.08-.16.295.295 0 00-.186-.068 5.117 5.117 0 00-2.471.633c-.284.159-.018.555.27.393zM168.521 66.866c.136.717.548 1.374 1.17 1.867.248.201.625-.122.376-.323-.553-.44-.917-1.026-1.03-1.666-.053-.304-.569-.167-.516.122zM170.679 65.916c.034.37.153.73.352 1.06.198.33.472.623.802.862.26.189.641-.131.378-.323a2.485 2.485 0 01-.687-.714 2.11 2.11 0 01-.312-.885c-.029-.29-.562-.305-.533 0z" fill="#000"/><path d="M171.98 67.436c-.191.207-.428.38-.699.508a2.585 2.585 0 01-.873.238c-.334.03-.355.487 0 .457.4-.034.786-.138 1.136-.305.35-.168.655-.396.897-.67.206-.231-.255-.46-.461-.228z" fill="#000"/><path d="M100.849 63.765a20.397 20.397 0 00-6.778 2.493c-2.043 1.21-3.784 2.756-5.12 4.55-1.94.378-3.841.888-5.687 1.523-3.7-1.434-7.835-1.819-11.807-1.1-2.448.445-4.768 1.305-6.825 2.528-2.056 1.223-3.806 2.785-5.149 4.596-1.343 1.81-2.25 3.832-2.67 5.947-.42 2.115-.343 4.28.226 6.37 2.335 8.873 12.58 14.554 22.884 12.689 2.466-.441 4.803-1.306 6.869-2.543 2.066-1.236 3.818-2.819 5.15-4.652a45.22 45.22 0 006.444-1.026 22.052 22.052 0 0010.928.782c2.447-.447 4.766-1.307 6.821-2.531 2.055-1.224 3.804-2.787 5.147-4.596 1.342-1.81 2.25-3.831 2.671-5.945a13.89 13.89 0 00-.219-6.367c-2.336-8.901-12.581-14.582-22.885-12.718z" fill="#fff" stroke="#000" stroke-miterlimit="10"/><path d="M76.45 94.665c4.857 0 8.793-3.262 8.793-7.287 0-4.024-3.936-7.286-8.792-7.286s-8.793 3.262-8.793 7.287c0 4.024 3.937 7.286 8.793 7.286z" fill="#000"/><path d="M74.12 85.11l110.057-31.102M81.188 85.11l102.964-29.825M82.78 86.827L184.53 56.153M82.98 89.23l101.748-32.45" stroke="#000" stroke-miterlimit="10"/><path opacity=".21" d="M98.28 94.64c1.067.145 2.149.182 3.227.11 1.109-.073 4.023-.38 7.929-2.671 1.982-1.164 11.117-6.522 11.891-15.718.16-1.96-.061-3.93-.653-5.828 1.261 1.479 2.195 3.143 2.754 4.91 2.2 7.068-1.948 15.801-9.823 19.191-1.116.485-5.687 2.456-11.131 1.41a16.277 16.277 0 01-4.194-1.404z" fill="#9E9E9E"/><path opacity=".24" d="M57.8 81.213c.232 1.882.77 3.728 1.595 5.483.519 1.093 3.199 6.537 9.109 9.626 6.54 3.427 15.52 3.167 23.307-.287-1.893 2.733-4.714 4.907-8.085 6.23-7.083 2.696-15.993 1.111-21.587-3.61-2.626-2.23-4.435-5.068-5.206-8.166-.77-3.098-.47-6.322.866-9.276z" fill="#9E9E9E"/><path d="M140.132 73.854c1.521-1.194 2.033-2.288 2.199-3.104.21-1.011-.021-2.023.712-3.482.465-.914.782-.96.888-.953.391 0 .651.676.821 1.12a6.695 6.695 0 01.355 3.126 2.947 2.947 0 001.066-.695c.662-.7.683-1.562.58-2.878-.213-2.824-.736-4.5-.081-4.792.205-.091.355.028 1.123-.073.338-.044.671-.115.994-.213.347-.096.72-.096 1.066 0 .591.174.914.634 1.209 1.194.57 1.135.93 2.34 1.066 3.57.256-1.904.914-3.238 1.692-3.29.473-.03.899.418 1.031.555.711.758.539 1.788.415 2.415a6.521 6.521 0 01-1.453 2.885 31.861 31.861 0 01-5.559 5.251c-2.225 1.627-3.909 2.507-5.928 2.9-.914.177-1.607.201-2.086-.13-.796-.549-.828-1.883-.11-3.406z" fill="#F9F9F9"/><path opacity=".26" d="M154.273 63.497a11.789 11.789 0 01-1.262 4.24c-.515.996-1.315 2.203-3.106 3.908-2.495 2.345-5.408 4.337-8.629 5.9a18.507 18.507 0 003.647-1.014c3.685-1.444 5.789-3.68 7.107-5.102a16.726 16.726 0 002.449-3.518c1.142-2.184.956-3.046.655-3.57a2.564 2.564 0 00-.861-.844z" fill="#9E9E9E"/><path d="M140.32 74.01c1.226-.933 2.349-1.829 2.278-3.266-.046-.996-.096-2.635.74-3.473l.266-.402c.303.064.57.216.755.431.185.215.276.478.258.745.252.68.152 1.486.092 2.184-.025.305.509.305.533 0 .047-.533.068-5.09-1.798-3.975-.853.511-1.283 2.318-1.379 3.107-.093.734.238 1.678-.089 2.364-.355.752-1.336 1.431-2.033 1.961-.259.195.121.518.377.323z" fill="#000"/><path d="M145.256 70.753c1.934-.78 1.884-2.561 1.639-4.142a15.617 15.617 0 01-.273-2.474c-.007-.48.027-.959.099-1.435 1.081-.266 1.673.06 1.777.978a8.3 8.3 0 01.579 4.536c-.039.305.494.29.534 0a8.544 8.544 0 00-.825-5.139c-.288-.548-.832-1.593-1.778-1.37-1.066.252-.927 1.763-.923 2.436 0 1.928 1.542 5.157-1.102 6.22-.309.125-.039.518.27.396l.003-.006z" fill="#000"/><path d="M148.686 62.534c1.017-.406 1.698-.231 2.044.524l.238.357c.328.526.568 1.089.711 1.672a5.82 5.82 0 01-.16 3.32.2.2 0 00.025.174.265.265 0 00.162.108.304.304 0 00.202-.021.235.235 0 00.126-.139c.661-2.025.377-4.313-1.106-6.043-.738-.868-2.568-1.484-2.771.048-.04.305.494.305.532 0h-.003z" fill="#000"/><path d="M152.652 67.049c.04-.521.356-3.138 1.163-3.317 1.297-.305.896 2.202.799 2.707-.376 2.02-1.648 3.772-3.244 5.258-2.645 2.464-6.185 5.115-10.162 5.617-.355.043-.195.481.139.442 2.939-.372 5.332-1.846 7.538-3.445 2.324-1.676 4.589-3.567 5.705-6.04.447-.994 1.581-4.53-.078-5.18-1.738-.672-2.332 3.154-2.393 3.96-.021.305.512.305.533 0v-.002z" fill="#000"/><path d="M58.873 74.966c.096-.305.96-2.818 3.842-3.774a7.283 7.283 0 013.788-.174c3.511 1.28 5.416 2.93 6.507 4.207 1.717 2 1.735 3.445 3.597 5.638 1.42 1.65 3.238 3.02 5.331 4.015 1.066-.192 2.488-.451 4.205-.734 1.36-.229 2.374-.387 3.685-.217.53.067 1.916.25 1.994.673.138.75-3.87 1.621-3.768 1.95.075.247 2.538.439 4.752-.585 1.028-.475 1.884-1.157 3.554-1.435.71-.118 1.16-.09 1.383.131.398.393-.078 1.219-.167 1.371-.576 1-1.777 1.404-2.3 1.55a4.244 4.244 0 012.183.25c1.009.421 2.054 1.396 1.873 2.31a1.631 1.631 0 01-.712.931c-2.004 1.462-7.246 1.268-8.199 1.219 2.975 1.828 3.423 2.516 3.263 2.811-.245.451-2.036.177-2.2.153a7.74 7.74 0 01-2.73-1.027 38.137 38.137 0 00-5.106-2.266c-2.033-.731-3.505-.807-4.784-.997-4.592-.675-8.128-3.012-10.374-4.495a26.204 26.204 0 01-9.617-11.505z" fill="#F9F9F9"/><path opacity=".25" d="M59.196 74.822a23.2 23.2 0 004.218 4.996 28.29 28.29 0 005.083 3.537c5.228 3.046 8.885 5.163 14.461 6.7 4.443 1.22 6.664 1.829 9.536 1.247 3.028-.625 5.647-2.351 6.358-1.676.355.33.05 1.063-.22 1.453-.228.33-.814.95-3.317 1.31a19.089 19.089 0 01-5.26 0c3.125 1.301 3.707 1.968 3.604 2.34-.113.42-1.137.609-1.82.609-1.55.027-2.608-.777-3.688-1.426-.935-.557-2.407-1.08-5.35-2.132-3.699-1.316-4.172-.75-7.193-1.764-2.928-.984-4.783-2.287-7.424-4.145-2.317-1.63-4.265-2.995-6.06-5.35a17.71 17.71 0 01-2.928-5.699z" fill="#9E9E9E"/><path d="M58.599 75.026c1.788 4.308 4.886 8.128 8.974 11.066 4.087 2.938 9.016 4.887 14.276 5.646.334.045.48-.397.142-.442-5.17-.739-10.014-2.648-14.035-5.53-4.02-2.881-7.069-6.631-8.831-10.861-.114-.278-.63-.159-.516.121h-.01zM68.874 72.215c3.38 2.007 5.167 4.706 6.93 7.804 1.293 2.282 3.042 4.021 5.892 4.895.324.1.463-.341.143-.442-3.764-1.154-5.026-3.84-6.678-6.664-1.375-2.405-3.448-4.466-6.02-5.986-.282-.168-.548.228-.267.393z" fill="#000"/><path d="M81.736 85.124c2.384-.304 4.776-.685 7.175-.898.31-.028 2.943-.338 2.037.932-.11.152-1.045.234-1.255.305a7.118 7.118 0 00-1.812.932c-.27.18.11.502.376.323.963-.652 2.022-.725 3.04-1.185.287-.131.504-.14.688-.448.33-.548-.106-.948-.654-1.173-1.03-.43-2.367-.162-3.443-.027-2.1.262-4.198.536-6.295.8-.355.043-.195.485.142.442v-.003zM81.743 91.917c4.062.186 6.812 3.573 10.815 3.756.71.034 1.56-.137 1.393-.913-.075-.345-.448-.537-.729-.75-.9-.689-2.043-1.237-3.031-1.828-.281-.17-.548.225-.27.393.604.362 1.549.744 2.022 1.219.71.237.81.691.27 1.364a8.418 8.418 0 01-.95-.207 18.643 18.643 0 01-3.5-1.492c-1.905-.966-3.756-1.907-6.02-2.01-.356-.016-.356.441 0 .456v.012z" fill="#000"/><path d="M88.267 87.138c2.489.097 4.511-.993 6.754-1.752.355-.124 1.13-.493 1.556-.444 2.317.27.146 1.571-.508 1.928a11.137 11.137 0 01-3.828 1.264c-.338.043-.196.481.142.442 1.738-.233 3.375-.851 4.749-1.794.522-.381 1.567-1.325 1.155-2.002-.573-.938-2.708-.07-3.409.165-2.189.737-4.169 1.827-6.607 1.736-.355 0-.355.445 0 .457h-.004z" fill="#000"/><path d="M90.148 92.469c2.648.588 7.66.652 9.216-1.828.252-.408.33-.878.22-1.33-.11-.452-.4-.856-.822-1.144-1.187-.913-2.882-.743-4.332-.581-.333.036-.355.493 0 .457 1.067-.12 2.154-.254 3.164.09 2.69.915 1.208 2.862-.54 3.547-2.03.797-4.638.807-6.754.338a.305.305 0 00-.19.03.235.235 0 00-.115.133.196.196 0 00.02.165c.03.05.08.09.143.11l-.01.013z" fill="#000"/><path d="M91.229 90.763a18.244 18.244 0 007.228-1.219c.313-.122.043-.514-.27-.393a17.618 17.618 0 01-6.958 1.152c-.356 0-.356.444 0 .457v.003zM80.094 30.81a4.01 4.01 0 00-.97 2.159c-.1 1.602 1.186 2.214 1.286 4.283 0 .225 0 .079-.21 1.967-.21 1.89-.309 2.891-.277 3.242.206 2.175 2.097 3.71 2.395 3.944 2.4 1.898 5.431 1.752 6.38 1.706a9.101 9.101 0 004.264-1.109c1.251-.73 1.93-1.718 3.291-3.698a25.276 25.276 0 001.902-3.293c.82-1.7 1.233-2.549 1.344-3.655.124-1.246-.26-1.474-.893-3.987a32.643 32.643 0 01-1.002-6.46c-.117-2.66.281-2.916-.174-3.352-2.41-2.293-14.472 4.356-17.337 8.252z" fill="#000"/><path d="M85.325 33.734c.661.304 1.28.609 1.859.932l.256.935c2.152-2.493 4.847-4.605 7.936-6.22a6.928 6.928 0 01-.686-3.168c.04-1.188.384-1.523.124-2.02-.71-1.322-4.592-1.307-7.221-.73-4.155.913-6.753 3.554-7.976 5.074.299 1.133.596 2.267.892 3.402a33.43 33.43 0 014.816 1.795zM97.629 24.108c-.074 1.159-.06 2.321.043 3.479a24.07 24.07 0 002.324 8.3l1.017-.137a20.298 20.298 0 01-1.728-6.674c.69.135 1.416.039 2.026-.268 1.158-.637 1.191-1.919 1.201-2.437 0-.61.04-1.575-.739-2.044-.779-.469-2.037-.286-3.07.47l-1.074-.69z" fill="#F9F9F9"/><path opacity=".25" d="M93.112 25.515c-.114.146-.398.579-.142 1.895.197.99.587 1.943 1.155 2.82l1.386-.645a6.661 6.661 0 01-.551-1.243 6.494 6.494 0 01-.067-3.655c-.31.021-1.294.161-1.78.828z" fill="#9E9E9E"/><path opacity=".2" d="M99.658 24.285c.48.386.82.883.978 1.431.323 1.179-.309 2.489-1.6 3.387a2.41 2.41 0 001.12.205c.999-.064 1.596-.79 1.831-1.07.92-1.114.596-2.394.508-2.741a1.654 1.654 0 00-.537-1.024c-.81-.642-2.179-.228-2.3-.188z" fill="#9E9E9E"/><path d="M79.344 28.6c.256 1.146.554 2.281.895 3.406a.238.238 0 00.126.139c.062.03.135.037.203.021a.265.265 0 00.161-.107.2.2 0 00.026-.174 47.941 47.941 0 01-.896-3.403c-.064-.305-.58-.168-.515.119zM85.61 29.271c.426 2.148.95 4.28 1.574 6.397.015.042.044.08.084.108a.31.31 0 00.29.033.26.26 0 00.113-.086 11.88 11.88 0 001.29-2.489c.103-.28-.413-.4-.515-.119a11.344 11.344 0 01-1.244 2.358l.49.055a70.853 70.853 0 01-1.574-6.397c-.057-.305-.573-.168-.516.122l.007.018zM81.913 30.26c.263.738.999 1.384 1.951 1.356.41-.015.8-.16 1.093-.407a1.35 1.35 0 00.496-.93c.021-.304-.512-.304-.533 0a.934.934 0 01-.396.652c-.227.164-.52.245-.816.226a1.677 1.677 0 01-.821-.341 1.31 1.31 0 01-.459-.677c-.1-.28-.614-.161-.515.122zM88.954 29.6c1.63 1.496 4.136.192 4.158-1.642a.213.213 0 00-.078-.161.292.292 0 00-.188-.067.29.29 0 00-.189.067.213.213 0 00-.078.161c0 1.444-1.944 2.516-3.248 1.32-.235-.214-.612.109-.377.322z" fill="#000"/><path d="M79.873 30.694c-.841 1.026-1.184 2.293-.956 3.533.356 1.828 1.927 3.1 1.973 5.069 0 .06.028.118.078.161.05.043.118.067.188.067s.139-.024.189-.067a.213.213 0 00.078-.161 6.035 6.035 0 00-1.038-3.214c-1.105-1.758-1.397-3.43-.05-5.178.189-.244-.27-.476-.462-.232v.022z" fill="#000"/><path d="M80.061 36.716c.356 1.992-.753 3.899-.355 5.906.28 1.44 1.067 2.772 2.257 3.817 2.488 2.16 6.315 2.48 9.422 1.194.309-.128.038-.52-.27-.393-3.583 1.48-7.965.54-9.98-2.489-1.002-1.505-1.145-3.082-.821-4.758.22-1.17.48-2.202.263-3.384-.053-.305-.569-.168-.516.122v-.015zM80.225 32.253c2.506.271 4.603 1.444 6.653 2.626.284.164.555-.229.27-.393-2.132-1.24-4.307-2.406-6.923-2.69-.355-.04-.355.42 0 .457zM88.552 34.516c1.777-2.062 4.62-3.42 7.02-4.898.277-.17 0-.566-.267-.396-2.488 1.523-5.37 2.934-7.215 5.063-.202.238.26.463.462.231z" fill="#000"/><path d="M95.617 29.326a6.998 6.998 0 01-.312-5.118.203.203 0 00-.036-.163.265.265 0 00-.155-.099.308.308 0 00-.193.017.244.244 0 00-.128.124 7.363 7.363 0 00.31 5.36c.124.272.639.153.514-.121zM97.395 22.853c-.085 2.976-.16 6 .731 8.904.445 1.446 1.13 2.845 1.12 4.365-.041 1.818-.876 3.556-2.338 4.873-.235.217.142.54.376.323 1.04-.947 1.787-2.104 2.172-3.363.383-1.26.392-2.58.025-3.844-.509-1.827-1.216-3.53-1.443-5.425a39.125 39.125 0 01-.11-5.842.213.213 0 00-.079-.162.29.29 0 00-.188-.067.29.29 0 00-.188.067.213.213 0 00-.078.162v.009z" fill="#000"/><path d="M97.217 40.78c-.949 1.169-1.066 2.561-1.777 3.816a5.141 5.141 0 01-1.776 1.77 6.222 6.222 0 01-2.535.853c-.338.045-.196.484.142.441 1.532-.185 2.927-.857 3.91-1.882 1.321-1.404 1.293-3.308 2.487-4.767.196-.24-.266-.47-.462-.232h.01zM98.951 25.116c.089-.19.222-.364.391-.508.17-.144.374-.257.598-.33a1.987 1.987 0 011.389.055c.92.323 1.005 1.383.896 2.087-.175 1.084-.853 2.83-2.553 2.632-.333-.04-.48.402-.138.441 2.413.284 3.696-2.555 3.167-4.264a1.868 1.868 0 00-.718-1.044 2.43 2.43 0 00-1.306-.462 2.508 2.508 0 00-1.367.308 1.98 1.98 0 00-.874.951c-.135.271.38.39.512.122l.003.012z" fill="#000"/><path d="M99.019 29.076a22.743 22.743 0 001.582 6.446c.109.277.625.158.511-.12a22.421 22.421 0 01-1.56-6.326c-.029-.305-.561-.305-.533 0zM82.887 28.869a3.106 3.106 0 011.49-.335.29.29 0 00.188-.067c.05-.043.078-.101.078-.162a.213.213 0 00-.079-.161.29.29 0 00-.188-.067 3.696 3.696 0 00-1.756.396.237.237 0 00-.124.139.2.2 0 00.027.173c.035.053.093.091.162.107a.305.305 0 00.202-.023zM89.156 27.474a4.24 4.24 0 012.467-.305c.337.058.48-.38.142-.439a4.898 4.898 0 00-2.875.35c-.306.138-.035.53.266.397v-.003z" fill="#000"/><path d="M77.915 23.697c-4.44 3.486-6.336 5.702-5.687 6.646 1.143 1.676 10.294-.653 27.456-6.985.116-.414 1.375-5.068-2.374-8.678-3.097-2.979-7.954-3.655-11.729-2.577-5.107 1.478-8.505 6.312-7.666 11.594z" fill="#DF701F"/><path d="M7.613 106.212c-1.62-.58-2.97-1.604-3.839-2.912a5.402 5.402 0 01-.867-2.238c-.206-1.566.611-3.64 3-3.317a.306.306 0 00.243-.032.253.253 0 00.082-.082c.02-.033.03-.07.03-.106-.002-.535.23-1.05.65-1.446.421-.395 1-.64 1.621-.686a.271.271 0 00.162-.109.203.203 0 00.027-.175c-1.187-2.686-3.576-12.297 2.487-11.91 4.4.277 8.011 4.57 9.618 7.713l.462-.231c-.41-.594-.988-1.47-.889-2.182.15-1.09 1.422-2.683 2.943-1.54a.305.305 0 00.321.034.244.244 0 00.112-.111.198.198 0 00.011-.146c-.174-.61-.47-1.414-.377-2.029.157-1.066 1.067-2.665 2.776-1.81a.309.309 0 00.294-.02.237.237 0 00.09-.107.2.2 0 00.007-.131c-.355-1.219.426-2.349 1.688-2.897 1.393-.61 2.975-.189 4.18.533 1.954 1.176 2.822 3.162 3.628 5.005.024.053.07.097.129.123.06.026.128.032.193.017a.267.267 0 00.154-.1.202.202 0 00.036-.162c-.558-2.06 2.367-1.925 3.444-1.398.595.319 1.135.709 1.603 1.157a10.47 10.47 0 012.438 3.35c.124.27.64.153.512-.12-.924-1.972-2.701-4.57-5.285-5.18-1.745-.41-3.671.653-3.224 2.294l.512-.121c-1.127-2.587-2.754-5.846-6.45-6.153-2.456-.205-4.688 1.626-4.073 3.755l.39-.259a2.54 2.54 0 00-1.514-.233 2.32 2.32 0 00-1.329.666c-1.144 1.075-.71 2.668-.355 3.923l.448-.222a2.484 2.484 0 00-1.62-.459c-.59.037-1.138.272-1.526.654-1.293 1.16-.561 2.893.253 4.082.177.258.593.03.462-.232-1.678-3.28-5.46-7.649-10.044-7.96-5.114-.32-4.727 6.078-4.208 8.868.117.627.274 1.248.47 1.86.12.388.675 1.22.44 1.591-.17.274-1.3.582-1.624.953-.523.61-.356 1.003-1.066 1.27-.782.305-1.475.305-2.097.942-2.843 2.915 1.03 7.225 4.183 8.422.313.12.583-.274.27-.396h.018zM129.335 91.003c.281-1.888 1.322-5.212 4.385-4.16a.31.31 0 00.202-.024.24.24 0 00.125-.138c.686-1.465 1.489-3.046 2.844-4.158.791-.692 1.841-1.124 2.967-1.218.601-.055 1.255.045 1.778-.272.475-.28.735-.816 1.019-1.218a20.156 20.156 0 011.927-2.37 9.863 9.863 0 012.487-1.958c1.617-.838 4.688-.677 4.425 1.596-.032.277.423.28.526.06.995-2.15 3.159-4.3 6.07-4.352 2.69-.05 4.642 1.782 5.573 3.777 1.923 4.124-.544 8.529-1.131 12.69-.038.304.495.304.534 0 .711-4.926 4.023-10.875-.558-15.185-3.842-3.616-9.24-.874-11.017 2.949l.522.06c.277-2.409-2.957-3.045-4.993-2.11-1.589.728-2.816 2.02-3.835 3.259-.793.966-1.347 2.23-2.79 2.61-.654.171-1.329.05-2.005.269-1.17.435-2.166 1.155-2.864 2.071a11.767 11.767 0 00-1.23 1.812c-.327.585-.38 1.134-1.098 1.246-1.159.18-2.012.1-2.918.945-1.102 1.032-1.312 2.504-1.51 3.832-.043.289.49.286.532 0l.033-.013z" fill="#E8E8E8"/><path d="M165.01 81.89c.281-2.273 3.6-2.632 4.662-.588a.264.264 0 00.1.081.3.3 0 00.264 0 .254.254 0 00.099-.081c1.176-1.734 3.334-3.46 5.81-3.239 3.085.278 2.819 3.491 2.595 5.502-.422 3.71-1.59 7.329-3.451 10.698-.145.264.313.496.458.231a29.965 29.965 0 002.993-7.685c.487-2.111 1.13-4.725.476-6.839-1.461-4.709-7.463-1.638-9.329 1.103h.462c-1.319-2.531-5.331-1.885-5.658.816-.035.305.497.29.533 0h-.014z" fill="#E8E8E8"/><path d="M176.72 91.64c.276-.373.598-.72.96-1.033 1.012-.922 1.892-.694 2.641.683-.114.225.184.475.419.277.477-.409 1.094-1.002 1.813-1.097 2.04-.268 2.132 1.85 2.012 2.82a7.588 7.588 0 01-1.316 3.227c-.167.26.295.49.458.231 1.066-1.678 2.133-3.999.95-5.85-1.066-1.701-3.107-.665-4.298.346l.42.277a1.186 1.186 0 00.032-1.153 1.39 1.39 0 00-.411-.475 1.676 1.676 0 00-.609-.279c-1.567-.414-2.744.841-3.529 1.794-.199.241.263.47.458.232zM134.267 106.487a10.34 10.34 0 011.295-3.351c.3-.491.644-.959 1.03-1.405.206-.256.431-.5.675-.731.401-.55 1.017-.652 1.849-.304l.415.277c1.99-3.557 5.046-6.597 8.857-8.81.646-.371 1.301-1.047 1.702.269.103.332-.249 1.005-.337 1.328-.27.969-.585 1.928-.942 2.876a35.662 35.662 0 01-3.245 6.42c-.164.26.295.489.458.233a7.468 7.468 0 011.621-1.956l.672-.421 1.162.564c.039.183-.608 1.121-.711 1.295-.142.264.316.499.462.231.402-.74 1.984-2.547.256-2.793-1.837-.262-3.199 1.739-3.909 2.847l.458.233c.867-1.368 6.653-11.904 4.009-12.265-.885-.122-1.955.756-2.598 1.152a25.58 25.58 0 00-3.223 2.34c-2.105 1.815-3.839 3.92-5.133 6.226-.124.219.206.487.42.277 1.045-1.03-.739-1.633-1.749-1.07-2.271 1.271-3.554 4.265-3.988 6.416-.06.286.452.411.512.122h-.018zM152.077 108.424c.378-1.527 1.388-2.885 2.843-3.822l-.455-.163.068 1.573c0 .21.38.334.497.115a25.481 25.481 0 012.652-4.021 26.53 26.53 0 013.226-3.296c.257-.34.466-.228.622.332a.21.21 0 00.015.146.248.248 0 00.113.109.306.306 0 00.321-.032 27.506 27.506 0 011.848-1.523c.355-.275 1.478-1.386 1.961-1.322 1.728.232.068 3.1-.266 3.875a27.952 27.952 0 01-4.418 6.966c-.203.238.26.466.459.228 2.487-2.912 5.121-6.777 5.643-10.435.484-3.382-4.996 1.355-5.608 1.9l.444.222c.157-.396.31-.914-.17-1.19-.679-.38-1.369.429-1.777.78-2.294 2.065-4.167 4.445-5.545 7.042l.498.116-.068-1.572a.204.204 0 00-.047-.125.302.302 0 00-.407-.037c-1.527.99-2.584 2.419-2.979 4.024-.075.287.438.408.516.122l.014-.012z" fill="#E8E8E8"/><path d="M163.187 105.368c.239-.255.507-.49.799-.702.029-.022 1.646-1.076 1.468-.26a.2.2 0 00.011.146.246.246 0 00.112.111.308.308 0 00.167.03.29.29 0 00.155-.064 12.472 12.472 0 011.819-1.286c.195-.112.693-.493.945-.485l1.137.534c-.1.26-.219.515-.355.764a13.477 13.477 0 01-2.768 3.509c-.232.217.146.539.376.324a14.625 14.625 0 002.531-3.047c.355-.59 1.119-1.645.71-2.361-.856-1.523-4.065 1.127-4.779 1.728l.447.222c.093-.433-.089-.887-.682-.947-.895-.088-1.983.947-2.488 1.464-.213.227.16.549.377.324l.018-.004zM17.333 126.012c-2.683-1.356-5.38-2.741-7.783-4.438a21.982 21.982 0 01-3.096-2.62c-.49-.508-1.24-1.218-1.535-1.851-.434-.424-.42-.915.039-1.429.43.179.831.408 1.19.679.26.182.637-.122.377-.323-1.713-1.31-3.461-2.674-4.67-4.368-.394-.554-1.745-2.522-1.304-3.192.44-.67 3.259 1.297 3.65 1.541 4.63 2.904 9.1 5.971 13.41 9.199.259.195.635-.128.376-.322a215.45 215.45 0 00-9.141-6.444 226.371 226.371 0 00-4.098-2.646c-1.372-.865-2.68-1.788-4.41-1.99a.326.326 0 00-.121-.002.298.298 0 00-.11.043.25.25 0 00-.078.078.21.21 0 00-.029.101c.178 3.558 3.238 6.092 6.156 8.334l.37-.332a7.245 7.245 0 00-2.3-1.076.32.32 0 00-.203.023.246.246 0 00-.128.136c-.828 2.117 2.843 4.929 4.45 6.172 2.626 2.025 5.686 3.588 8.722 5.121.06.022.128.026.19.008a.255.255 0 00.15-.102.201.201 0 00.03-.162.227.227 0 00-.104-.138z" fill="#E8E8E8"/><path d="M14.511 116.432c-.409-.371-1.421-1.928-.085-1.739.313.042.846.42 1.09.552.186.099.48-.068.395-.256-.355-.403-.213-.658.466-.774.415-.481.802-.488 1.162-.021.533.311 1.03.665 1.486 1.057.98.718 1.926 1.464 2.843 2.229.249.205.625-.119.377-.323a58.001 58.001 0 00-3.348-2.585c-.68-.489-1.71-1.499-2.63-1.701-1.617-.35-1.205 1.554-.885 2.236l.39-.256c-.507-.274-2.068-1.407-2.718-.807-.757.698.554 2.245 1.066 2.711.235.216.611-.106.377-.323h.014zM32.672 112.341c-2.843-1.101-5.296-2.827-7.108-5.004l-.302.335a3.144 3.144 0 011.727.786c.256.198.63-.12.377-.324-3.646-2.991-8.323-6.539-9.567-10.892l-.327.28c6.187 1.084 10.036 5.611 14.369 9.138.248.202.625-.122.376-.322-4.403-3.586-8.316-8.155-14.607-9.258a.315.315 0 00-.137.002.283.283 0 00-.118.06.225.225 0 00-.07.101.199.199 0 00-.002.118c1.269 4.444 6 8.056 9.706 11.097l.377-.324a4.466 4.466 0 00-1.962-.913c-.21-.046-.444.164-.302.335 1.857 2.246 4.373 4.032 7.293 5.179.31.121.583-.272.27-.397l.007.003z" fill="#E8E8E8"/><path d="M31.553 105.424c-.196-.284-.825-1.219-.626-1.572.377-.701 1.098.067 1.496.259.16.076.423-.019.402-.198a5.406 5.406 0 01-.178-1.334c-.166-.395.048-.632.64-.714.287.156.562.326.825.51a8.358 8.358 0 012.05 2.074c.178.25.64.021.462-.231a8.865 8.865 0 00-1.596-1.752c-.497-.411-1.275-1.078-1.986-1.183-1.571-.227-.839 1.957-.75 2.63l.398-.198c-.569-.271-1.553-1.14-2.175-.397-.508.61.217 1.807.58 2.334a.274.274 0 00.16.089.306.306 0 00.189-.026.24.24 0 00.12-.128.197.197 0 00-.011-.163zM13.061 138.849c4.837 4.523 9.813 9.086 16.53 11.508.316.116.455-.326.142-.439-6.61-2.385-11.55-6.939-16.295-11.393-.231-.219-.608.107-.377.324zM13.214 137.749c6.905 1.063 13.669-.972 19.878-3.415 6.34-2.507 12.292-5.679 17.72-9.443.266-.186-.11-.506-.377-.322-5.073 3.512-10.606 6.506-16.487 8.921-6.358 2.602-13.441 4.92-20.596 3.823-.334-.051-.48.387-.138.438v-.002zM30.38 150.975c12.383-1.633 24.011-6.129 33.635-13.004.263-.189-.114-.511-.377-.326-9.56 6.822-21.11 11.277-33.407 12.888-.356.046-.196.485.142.442h.007zM51.981 125.504c4.14 3.71 7.89 8.036 14.046 9.163.334.06.48-.378.142-.44-6.042-1.108-9.752-5.41-13.811-9.049-.235-.211-.611.112-.377.326zM23.844 142.695l3.87 2.471c.277.173.544-.222.27-.396l-3.87-2.467c-.277-.176-.544.219-.27.392zM25.159 139.906c2.632 2.223 5.624 4.11 8.885 5.602.306.139.572-.254.27-.394-3.22-1.473-6.174-3.336-8.775-5.532-.241-.207-.622.116-.377.324h-.003zM30.742 138.102a90.741 90.741 0 007.155 6.117c.256.198.632-.125.376-.323a90.735 90.735 0 01-7.154-6.129c-.23-.219-.604.104-.377.323v.012zM35.55 138.187a42.682 42.682 0 006.9 4.308c.06.026.13.032.195.015a.259.259 0 00.155-.103.202.202 0 00.03-.167.228.228 0 00-.11-.138 42.154 42.154 0 01-6.792-4.237c-.253-.195-.633.128-.377.322zM37.701 135.117c2.836 2.557 6.078 4.757 9.632 6.537.06.026.13.032.195.016a.273.273 0 00.155-.103.202.202 0 00.03-.167.232.232 0 00-.11-.139c-3.515-1.76-6.722-3.937-9.525-6.466-.238-.214-.615.109-.377.322z" fill="#E8E8E8"/><path d="M44.393 148.313c3.16 2.28 6.673 4.174 10.439 5.629 1.649.63 3.422 1.361 5.249 1.45 1.915.091 3.91-.609 5.686-1.13 7.743-2.251 14.886-5.799 21.015-10.436.26-.195-.12-.518-.376-.323-5.755 4.352-12.414 7.736-19.63 9.976-1.61.531-3.26.967-4.94 1.306-2.487.448-4.794-.483-7.019-1.346a45.445 45.445 0 01-10.05-5.452c-.263-.186-.64.137-.377.326h.003zM62.49 132.979l2.773-2.273c.863-.71 1.258-1.34 2.875-.685.423.171.828.609 1.183.877a80.093 80.093 0 005.25 3.478 79.31 79.31 0 0012.496 6.077c.309.12.579-.273.266-.395a78.606 78.606 0 01-14.515-7.341 72.794 72.794 0 01-3.596-2.492c-.54-.396-1.393-1.389-2.25-1.294-.636.07-1.198.722-1.624 1.071l-3.238 2.642c-.245.204.132.527.38.322v.013z" fill="#E8E8E8"/><path d="M52.81 147.686c2.369 1.041 4.7 2.128 6.994 3.262.03.014.063.025.098.028a.3.3 0 00.198-.043.261.261 0 00.07-.068.2.2 0 00.028-.173.223.223 0 00-.046-.081.273.273 0 00-.078-.06 171.663 171.663 0 00-6.991-3.262c-.306-.134-.576.262-.27.397h-.004zM56.282 147.07c1.974 1.368 4.224 2.415 6.639 3.089.327.091.469-.351.142-.442-2.326-.648-4.494-1.654-6.398-2.97-.266-.182-.646.138-.376.323h-.007zM58.336 143.539c3.186 2.411 6.986 4.151 11.096 5.082a.314.314 0 00.203-.022.238.238 0 00.125-.139.198.198 0 00-.025-.173.26.26 0 00-.161-.108c-4.026-.905-7.75-2.605-10.872-4.962-.256-.196-.633.128-.377.322h.01zM63.212 141.642l6.156 4.362c.263.186.64-.137.376-.323l-6.152-4.363c-.263-.185-.643.135-.38.324zM68.177 140.971l4.538 2.76c.281.171.548-.225.267-.392l-4.535-2.76c-.28-.171-.547.225-.27.392zM110.228 140.383a75.17 75.17 0 0010.42-5.235c3.267-1.986 6.11-4.533 9.526-6.318.291-.155.021-.549-.271-.396-3.419 1.791-6.255 4.332-9.524 6.318a75.387 75.387 0 01-10.432 5.239c-.309.128-.039.52.27.392h.011zM110.768 141.155c10.685 6.231 23.169 9.815 36.077 10.356.356.015.356-.442 0-.457-12.813-.54-25.203-4.101-35.806-10.289-.285-.168-.551.228-.271.392v-.002zM31.812 124.815c-.085-2.114-.028-4.368 2.204-5.714 1.777-1.069 5.33-1.971 7.037-.506 1.066.914 1.336 1.782.504 2.855-.256.328-.494.489-.597.913-.178.731.167 1.432-.028 2.169-.42 1.577-2.25 1.882-3.91 1.73-.355-.031-.355.427 0 .457 2.389.219 4.745-.674 4.532-2.988-.079-.856.163-1.338.71-2.096.09-.125.356-.164.413-.305.077-.184.122-.377.131-.572 0-.844-.764-2.132-1.51-2.669-1.855-1.349-5.246-.542-7.108.397-2.747 1.391-3.017 3.843-2.914 6.351 0 .304.543.304.533 0l.003-.022z" fill="#E8E8E8"/><path d="M31.364 124.385c.364.873 1.064 1.613 1.985 2.099a5.41 5.41 0 003.08.57c.334-.037.355-.497 0-.457a4.829 4.829 0 01-2.756-.48c-.828-.424-1.462-1.078-1.797-1.853-.114-.275-.629-.156-.512.121zM36.514 125.028c-1.539-.521-1.422-2.074-.768-3.113.434-.7.793-1.218 1.927-1.148a3.876 3.876 0 011.492.557c.292.161.558-.235.27-.392-.71-.397-1.745-.823-2.622-.638-.825.174-1.369 1.067-1.692 1.67-.69 1.301-.434 2.936 1.25 3.506.32.106.46-.335.143-.442z" fill="#E8E8E8"/><path d="M37.968 123.755c-.626-.198.064-.816.355-.951a16.138 16.138 0 011.525-.545c.313-.109.178-.551-.142-.441-.743.259-1.891.472-2.332 1.108a.787.787 0 00-.155.352.742.742 0 00.035.375.845.845 0 00.219.326c.1.094.223.166.36.215.323.1.462-.341.142-.439h-.007zM38.917 118.735a6.01 6.01 0 00-3.576.602c-1.07.558-1.874 1.425-2.267 2.444-.107.28.409.402.515.122.352-.905 1.065-1.674 2.013-2.173a5.379 5.379 0 013.172-.553c.338.046.484-.396.143-.442zM129.274 129.186c3.455 2.964 9.269 3.805 13.814 4.819a164.877 164.877 0 0017.227 2.879c.356.039.338-.417 0-.458a162.878 162.878 0 01-16.433-2.716 152.418 152.418 0 01-7.759-1.91c-2.374-.655-4.677-1.395-6.472-2.937-.245-.207-.622.116-.377.323z" fill="#E8E8E8"/><path d="M159.938 137.002c-3.582 4.629-7.842 8.846-12.673 12.548-.257.194.121.518.376.322 4.87-3.728 9.163-7.975 12.773-12.638.193-.247-.27-.475-.462-.232h-.014zM126.037 134.343a67.044 67.044 0 00-4.805 4.122c-.231.216.145.542.376.322a66.777 66.777 0 014.805-4.118c.257-.201-.124-.52-.376-.326zM131.548 135.035l-7.129 6.33c-.238.213.139.535.377.322l7.13-6.329c.238-.214-.139-.536-.378-.323zM132.952 136.938l-5.331 4.71c-.237.21.139.533.377.323l5.349-4.707c.238-.213-.139-.535-.381-.326h-.014zM139.392 136.137a97.458 97.458 0 01-10.196 8.615c-.259.189.117.511.377.323a97.346 97.346 0 0010.196-8.614c.228-.22-.149-.543-.377-.324zM142.133 135.385c.07 0 .138-.024.188-.066a.216.216 0 00.078-.163.213.213 0 00-.078-.161.29.29 0 00-.188-.066.29.29 0 00-.189.066.213.213 0 00-.078.161c0 .061.028.12.078.163.05.042.118.066.189.066zM142.744 128.735a.288.288 0 00.188-.067c.05-.043.078-.1.078-.161a.215.215 0 00-.078-.162.288.288 0 00-.188-.067.288.288 0 00-.188.067.215.215 0 00-.078.162c0 .061.028.118.078.161.05.043.117.067.188.067zM124.412 124.848c-2.075-2.504 2.513-6.652 5.566-5.964 1.215.275 2.844.886 3.515 1.828.938 1.289-.338 3.96-2.044 4.444-.323.092-.185.534.142.442 1.681-.478 3.139-2.806 2.765-4.28-.387-1.544-2.395-2.37-3.988-2.803-3.632-.989-8.863 3.614-6.417 6.565.198.238.66 0 .461-.232z" fill="#E8E8E8"/><path d="M130.167 120.514c-1.809-.323-4.23.366-5.168 1.828-.712 1.096-.199 2.671 1.333 2.951.333.061.475-.381.142-.441-1.614-.305-1.478-1.99-.548-2.803a4.992 4.992 0 011.898-.961 5.528 5.528 0 012.2-.12c.337.061.48-.381.143-.442v-.012z" fill="#E8E8E8"/><path d="M128.044 123.045c0-.85 1.17-1.194 1.938-.801.326.177.588.43.757.728.088.149.155.307.199.47.088.34.124 1.154-.679 1.001-.334-.06-.477.378-.142.442.165.032.336.032.501 0a1.24 1.24 0 00.453-.184c.134-.089.242-.202.319-.331a.884.884 0 00.123-.417 2.057 2.057 0 00-.206-1.03 2.407 2.407 0 00-.707-.852c-1.091-.829-3.085-.421-3.088.974 0 .061.028.119.078.162.05.043.117.067.188.067a.288.288 0 00.188-.067.214.214 0 00.078-.162z" fill="#E8E8E8"/><path d="M127.209 123.77c.276.229.61.399.976.496.366.098.753.121 1.132.068.337-.043.195-.485-.143-.442a2.17 2.17 0 01-.853-.062 1.951 1.951 0 01-.731-.382c-.249-.205-.626.115-.381.322zM121.921 125.236c1.165.766 2.56 1.231 4.023 1.342a8.853 8.853 0 004.237-.712c.305-.131.038-.523-.271-.393a8.25 8.25 0 01-3.967.65c-1.367-.112-2.669-.556-3.752-1.28-.273-.181-.536.216-.27.393zM138.355 122.059c-.377-4.183 8.792-3.282 9.14.639.307 3.446-4.68 4.856-7.133 2.269-.213-.228-.589.098-.376.323 3.06 3.229 9.159.743 7.89-3.365-1.148-3.726-10.474-4.484-10.054.134.028.304.561.304.533 0z" fill="#E8E8E8"/><path d="M142.644 121.982c.243-.126.442-.305.576-.52.134-.214.199-.455.189-.698a.2.2 0 00-.028-.101.238.238 0 00-.078-.08.308.308 0 00-.232-.039c-1.006.272-2.279.65-2.605 1.621-.239.703.106 1.539.977 1.737a.308.308 0 00.19-.031.244.244 0 00.117-.133.2.2 0 00-.021-.165.25.25 0 00-.144-.11c-.739-.168-.803-1.006-.436-1.484.44-.576 1.343-.801 2.064-.996l-.338-.219a.799.799 0 01-.113.478.98.98 0 01-.384.359c-.288.162-.021.558.266.394v-.013zM145.065 122.744a.939.939 0 01.426.495.792.792 0 01-.037.615.98.98 0 01-.485.455 1.225 1.225 0 01-.711.089c-.355-.052-.48.386-.142.441.369.081.76.045 1.102-.101.341-.146.61-.392.758-.693.147-.301.164-.638.046-.949a1.425 1.425 0 00-.687-.746c-.285-.167-.551.229-.27.394zM143.163 123.995c.051.175.058.355.021.532a1.173 1.173 0 01-.232.492 1.43 1.43 0 01-.446.37 1.634 1.634 0 01-.583.181c-.355.031-.355.488 0 .457a2.25 2.25 0 00.817-.232c.25-.126.466-.298.632-.502a1.62 1.62 0 00.331-.681 1.5 1.5 0 00-.028-.738.241.241 0 00-.129-.124.315.315 0 00-.192-.017.265.265 0 00-.155.099.206.206 0 00-.036.163z" fill="#E8E8E8"/><path d="M141.657 33.526c.183-.049.35-.137.485-.255a.994.994 0 00.288-.42.88.88 0 00.021-.489.973.973 0 00-.25-.438c-.562-.527-1.607-.283-1.917.335-.355.713.423 1.484 1.284 1.41.938-.076 1.34-.98.974-1.65a.54.54 0 00-.318-.204.62.62 0 00-.394.039.48.48 0 00-.234.273.409.409 0 00.043.336.22.22 0 01-.009.158.267.267 0 01-.116.122.227.227 0 01-.107-.006.2.2 0 01-.088-.054c-.054-.052-.047-.052-.04-.086 0 .052.04-.033 0-.015-.038.018.139-.058.093-.046.082-.021 0 0 .096 0 0 0-.064 0-.061-.021.004-.021.026.073 0 0v.08c0 .072 0 0-.038.07.028-.031.109-.046 0-.022a.568.568 0 00-.187.08.498.498 0 00-.137.134.403.403 0 00-.052.348.476.476 0 00.251.277c.123.06.269.076.406.044h.007zM161.754 40.956l.156-.226a.198.198 0 00.038-.115c0-.041-.013-.081-.038-.116-.482-.728-1.776-.305-1.837.52-.06.826 1.12.979 1.671.44.551-.54.156-1.432-.711-1.219-.757.18-.583 1.02.146 1.121.045.01.094.01.139-.001a.285.285 0 00.12-.06c.864-.95 1.144-2.169 1.571-3.299l1.748-4.624c.107-.28-.408-.402-.511-.122l-1.343 3.54c-.47 1.246-.811 2.817-1.6 3.938-.178.253.284.482.462.232l-.011-.01z" fill="#DF701F"/><path d="M164.726 34.254c.323.083.412.247.263.497l-.128.347c-.045.123-.076.25-.097.378-.064.329.011.667.21.953.148.203.381.348.651.405.27.057.556.021.796-.1a.236.236 0 00.124-.139.196.196 0 00-.027-.173.263.263 0 00-.161-.107.308.308 0 00-.203.023c-.565.28-.884-.326-.874-.704a3.94 3.94 0 01.245-.856.834.834 0 00.022-.491.927.927 0 00-.263-.438.715.715 0 00-.826-.06.551.551 0 00-.246.315.475.475 0 00.051.376c.157.262.619.03.463-.232v.006zM119.82 10.285c.551-.51.431-1.453-.387-1.712-.743-.235-1.674.262-1.589.971.085.71 1.159 1.219 1.809.655a.996.996 0 00.291-.405.885.885 0 00.044-.475.73.73 0 00-.239-.42c-.181-.134-.562-.131-.789-.17a.314.314 0 00-.171.01.268.268 0 00-.131.096.956.956 0 00-.095.804c.011.033.03.064.058.09a.278.278 0 00.098.06.313.313 0 00.234-.013.71.71 0 00.234-.189c.06-.077.1-.164.116-.256a.534.534 0 00-.021-.274.612.612 0 00-.154-.24.294.294 0 00-.189-.067.294.294 0 00-.189.066c-.291.22-.603.582-.308.914a.482.482 0 00.181.138.58.58 0 00.471 0 .497.497 0 00.183-.138c.203-.237-.26-.466-.462-.231.053-.064.074-.134.124-.198.056-.057.119-.11.189-.156h-.378a.144.144 0 01.033.136.166.166 0 01-.036.063.209.209 0 01-.064.045l.395.134a.527.527 0 01.042-.454l-.302.107c.199.033.591 0 .643.213a.486.486 0 01-.135.448c-.337.353-.966.015-.955-.387a.512.512 0 01.114-.238.64.64 0 01.224-.17.752.752 0 01.585-.018c.093.046.171.11.229.187a.53.53 0 01.083.524.607.607 0 01-.162.233c-.231.216.145.542.376.323v-.006z" fill="#DF701F"/><path d="M119.845 9.636l.815-6.147c.038-.305-.499-.305-.534 0l-.814 6.156c-.039.29.497.29.533 0v-.01zM145.338 7.485c.729-.487 1.273-1.179.466-1.827a.312.312 0 00-.316-.037c-.512.24-1.084.61-.939 1.194.02.103.065.2.133.286a.793.793 0 00.261.212.964.964 0 00.698.063c.686-.18.892-1.176 1.066-1.645l1.752-4.597-.448.1c.509.41 1.142.69 1.825.808a4.361 4.361 0 002.049-.134l-.302-.338a16.182 16.182 0 00-1.809 4.2c-.224.896-.334 1.78.515 2.437a.315.315 0 00.324.037 1.42 1.42 0 00.791-.66c.155-.299.173-.637.047-.946a.232.232 0 00-.097-.12.301.301 0 00-.162-.047 1.99 1.99 0 00-1.162.426c-.199.14 0 .47.255.381l.978-.344-.327-.28-.516.304a.304.304 0 00-.202.022.243.243 0 00-.127.138.204.204 0 00.026.174.265.265 0 00.161.108.965.965 0 00.769-.046.795.795 0 00.28-.24.653.653 0 00.121-.323c.028-.15-.118-.357-.327-.284l-.971.332.26.384c-.327.235-.061-1.544-.057-1.553.1-.378.232-.753.355-1.121.355-.944.799-1.86 1.329-2.742.097-.164-.067-.405-.301-.335a3.753 3.753 0 01-1.772.14 3.466 3.466 0 01-1.59-.682.314.314 0 00-.256-.056.285.285 0 00-.118.057.225.225 0 00-.07.1l-1.199 3.146c-.43 1.13-.636 2.227-1.776 2.991-.271.18.107.5.376.323l.007-.006z" fill="#DF701F"/><path d="M122.828 30.42c-.086 0-.114-.034-.029.014-.028-.018-.05-.036 0 0a.37.37 0 01-.05-.07c.036.068-.018-.064-.025-.094 0 .1.025-.119 0 0a.323.323 0 01.025-.08c-.021.053 0 0 0 0-.064.043 0 0 0 0s-.032.037-.057.031c-.025-.006.086 0 .022 0h.021c-.039-.03.086.058.071.046l.064.076a.262.262 0 010 .04c-.025-.028 0 .046 0 .021 0-.024.071-.033 0-.015h-.025-.067c-.004 0-.146-.04-.115-.027.033.012-.045-.025-.049-.031-.06-.052.042.046 0 0-.043-.046 0 0 0 0v.043a.442.442 0 00-.16-.32.595.595 0 00-.373-.137.587.587 0 00-.375.135c-.1.086-.157.201-.159.322a.915.915 0 00.185.466c.105.14.25.255.42.335.309.145.672.183 1.012.106.851-.207.986-1.09.435-1.61a1.117 1.117 0 00-.461-.286 1.279 1.279 0 00-.565-.052c-.19.025-.369.093-.52.196a.978.978 0 00-.338.39c-.239.552.092 1.29.81 1.411a.63.63 0 00.402-.048.493.493 0 00.252-.272.402.402 0 00-.044-.343.528.528 0 00-.311-.22l.004-.028z" fill="#486F9A"/><path d="M123.25 25.628l.029 4.383c0 .06.028.119.078.162.05.043.117.067.188.067.07 0 .139-.024.189-.067a.213.213 0 00.078-.162l-.029-4.383a.213.213 0 00-.078-.162.292.292 0 00-.189-.067.288.288 0 00-.187.067.214.214 0 00-.079.162z" fill="#486F9A"/><path d="M136.201 14.29c.07 0 .139-.024.189-.067a.213.213 0 00.078-.161.213.213 0 00-.078-.162.294.294 0 00-.189-.067.294.294 0 00-.189.067.213.213 0 00-.078.162c0 .06.028.119.078.161a.294.294 0 00.189.067z" fill="#461EB8"/><path d="M135.998 14.29a.292.292 0 00.189-.067.213.213 0 00.078-.161.213.213 0 00-.078-.162.292.292 0 00-.189-.067.289.289 0 00-.188.067.213.213 0 00-.078.162c0 .06.028.119.078.161.05.043.117.067.188.067z" fill="#461EB8"/><path d="M136.276 14.306a.84.84 0 00.317-.311.694.694 0 00-.076-.795.903.903 0 00-.373-.262c-.941-.305-1.421.719-1.133 1.325.017.047.05.088.097.118a.31.31 0 00.158.05c2.538.194 2.133-4.591 1.987-5.788-.032-.305-.565-.305-.533 0 .1.795.116 1.596.05 2.394a8.242 8.242 0 01-.253 1.523c-.089.332-.21 1.176-.508 1.356-.298.18 0 .56.267.393v-.003z" fill="#486F9A"/><path d="M137.647 8.972c.118-.18.356-.025.438.064.195.182.12.426.067.645-.079.238-.136.48-.171.725-.038.404.099.806.388 1.127.124.134.282.24.462.313a1.468 1.468 0 001.145-.024c.176-.08.328-.193.443-.331.196-.244-.266-.472-.462-.232a.744.744 0 01-.259.17.854.854 0 01-.637 0 .749.749 0 01-.258-.17 1.144 1.144 0 01-.26-.474 1.047 1.047 0 01-.004-.525c.082-.438.356-.914.111-1.361-.246-.448-1.12-.689-1.461-.17-.171.255.291.486.458.23v.013zM146.01 54.444c-.305-.448-1.241-.914-1.127-1.477.107-.515.526-.253.761.02.263.32.441.683.522 1.067l.256-.29-1.02.028c-.355 0-.355.466 0 .457l1.02-.027a.304.304 0 00.123-.026.263.263 0 00.096-.07.21.21 0 00.038-.209c-.132-.579-1.038-2.376-2.016-1.575a1.021 1.021 0 00-.299.505.927.927 0 00.043.564c.21.506.835.795 1.141 1.25.036.052.094.09.163.105a.307.307 0 00.203-.023.235.235 0 00.124-.14.2.2 0 00-.028-.174v.015z" fill="#486F9A"/><path d="M146.337 52.647a42.925 42.925 0 01-2.424-5.788l-.487.177c.313.448 2.538 4.465 3.572 2.583.146-.262-.316-.496-.462-.228-.398.727-1.638-1.143-1.734-1.28l-.913-1.307a.272.272 0 00-.148-.095.31.31 0 00-.184.007.258.258 0 00-.136.108.203.203 0 00-.023.157 43.4 43.4 0 002.487 5.894c.136.271.594.037.459-.228h-.007zM19.501 56.993c1.08 0 1.955-.75 1.955-1.675s-.875-1.675-1.955-1.675-1.955.75-1.955 1.675.875 1.675 1.955 1.675z" fill="#486F9A"/><path d="M22.447 15.765c.55 0 .995-.382.995-.853s-.445-.853-.995-.853-.995.382-.995.853c0 .47.446.853.995.853z" stroke="#486F9A" stroke-width=".5" stroke-miterlimit="10"/><path d="M168.433 9.03c.796 0 1.442-.554 1.442-1.237s-.646-1.237-1.442-1.237c-.798 0-1.444.554-1.444 1.237s.646 1.237 1.444 1.237zM45.893 67.247c.87 0 1.575-.604 1.575-1.35 0-.745-.705-1.35-1.575-1.35s-1.574.605-1.574 1.35c0 .746.705 1.35 1.574 1.35zM69.56 11.731c.726 0 1.314-.504 1.314-1.127 0-.622-.588-1.127-1.315-1.127-.726 0-1.315.505-1.315 1.127 0 .623.59 1.127 1.315 1.127z" fill="#486F9A"/><path d="M26.815 33.901c.98 0 1.774-.68 1.774-1.52s-.794-1.52-1.774-1.52-1.773.68-1.773 1.52.794 1.52 1.773 1.52zM51.583 53.643c.53 0 .96-.368.96-.823 0-.454-.43-.822-.96-.822s-.96.368-.96.822c0 .455.43.823.96.823z" fill="#DF701F"/><path d="M132.555 47.867c.718 0 1.3-.499 1.3-1.114 0-.616-.582-1.115-1.3-1.115-.719 0-1.301.499-1.301 1.115 0 .615.582 1.114 1.301 1.114zM65.653 35.887c.86 0 1.557-.597 1.557-1.334 0-.737-.697-1.334-1.556-1.334-.86 0-1.557.597-1.557 1.334 0 .737.697 1.334 1.556 1.334z" stroke="#DF701F" stroke-width=".5" stroke-miterlimit="10"/><path d="M102.089 8.673c.681 0 1.234-.473 1.234-1.057s-.553-1.057-1.234-1.057c-.68 0-1.233.473-1.233 1.057s.553 1.057 1.233 1.057z" fill="#DF701F"/></svg>