<svg width="81" height="79" viewBox="0 0 81 79" fill="none" xmlns="http://www.w3.org/2000/svg">
<g clip-path="url(#clip0_118_1064)">
<path d="M3.37549 3.37552H77.6333V75.6161H3.37549V3.37552Z" fill="url(#paint0_radial_118_1064)"/>
<path d="M3.3753 3.37568H77.6331V75.6163H3.3753V3.37568ZM0 78.9921H81.0084V0H0V78.9921ZM48.605 33.3522C48.605 32.947 48.605 31.9682 48.4363 30.0776C48.4363 29.8076 48.47 29.7401 48.7063 29.6388C50.7652 28.7949 55.592 27.3096 61.06 27.3096C61.33 27.3096 61.465 27.3771 61.465 27.6471V32.542C61.465 32.812 61.3638 32.8795 61.0938 32.8795C58.9672 32.7782 55.8958 33.0483 54.7143 33.5546V54.8218C54.7143 55.0916 54.613 55.2268 54.3092 55.2268H49.01C48.74 55.2268 48.6049 55.1255 48.6049 54.8218V33.3522H48.605ZM27.0028 36.4241C27.7791 36.4916 28.3867 36.4916 29.7369 36.4916C33.6861 36.4916 37.399 35.1076 37.399 29.7402C37.399 25.4531 34.7662 23.2925 30.2432 23.2925C28.8931 23.2925 27.6105 23.36 27.0028 23.3938V36.4241ZM21.0285 18.4989C21.0285 18.2627 21.096 18.0938 21.366 18.0938C23.5262 17.9925 26.699 17.925 30.0407 17.925C39.3903 17.925 43.4745 23.0561 43.4745 29.6388C43.4745 38.2131 37.2639 41.8927 29.6357 41.8927C28.3529 41.8927 27.9142 41.8252 27.0028 41.8252V54.788C27.0028 55.058 26.9016 55.193 26.5977 55.193H21.3997C21.1297 55.193 20.9946 55.0918 20.9946 54.788V18.4989H21.0285Z" fill="#E579FF"/>
</g>
<defs>
<radialGradient id="paint0_radial_118_1064" cx="0" cy="0" r="1" gradientUnits="userSpaceOnUse" gradientTransform="translate(27.8324 19.5647) scale(56.4359 54.6463)">
<stop stop-color="#4B2D4F" stop-opacity="0.98"/>
<stop offset="1" stop-color="#180024"/>
</radialGradient>
<clipPath id="clip0_118_1064">
<rect width="81" height="79" fill="white"/>
</clipPath>
</defs>
</svg>
