<svg width="29" height="34" viewBox="0 0 29 34" fill="none" xmlns="http://www.w3.org/2000/svg">
<path d="M16.1984 0C17.8029 0 19.2853 0.118777 20.6453 0.475109C22.0054 0.712664 23.1209 1.20262 24.1142 1.79651C25.1075 2.39039 25.841 3.23668 26.3453 4.32052C26.8343 5.40437 27.0941 6.72577 27.0941 8.16594C27.0941 9.84367 26.7273 11.2838 25.8563 12.3677C25.1075 13.4515 23.885 14.4166 22.3874 15.1293C24.4962 15.7231 26.1008 16.807 27.0788 18.2472C28.0568 19.6873 28.6834 21.4838 28.6834 23.5328C28.6834 25.2105 28.3166 26.6507 27.6901 27.8533C27.0788 29.0559 26.0855 30.1397 24.97 30.8524C23.8544 31.5799 22.4944 32.1738 21.0121 32.5301C19.5298 32.8865 18.0475 33.124 16.5651 33.124L0 33.1537V0H16.1984ZM15.2051 13.4515C16.5651 13.4515 17.6807 13.0952 18.5365 12.4865C19.3922 11.8777 19.7743 10.8087 19.7743 9.48734C19.7743 8.75983 19.652 8.04716 19.4075 7.57205C19.163 7.09694 18.7962 6.72577 18.292 6.36943C17.8029 6.13188 17.2987 5.89432 16.6874 5.77555C16.0761 5.65677 15.4496 5.65677 14.7161 5.65677H7.54906V13.4664C7.54906 13.4515 15.2051 13.4515 15.2051 13.4515ZM15.5718 27.6306C16.3206 27.6306 17.0542 27.5118 17.6807 27.393C18.292 27.2742 18.9185 27.0367 19.4075 26.6655C19.8965 26.2943 20.2786 25.938 20.6453 25.3441C20.8898 24.7502 21.1343 24.0227 21.1343 23.1764C21.1343 21.4987 20.6453 20.2961 19.652 19.4498C18.6587 18.7223 17.2987 18.3659 15.6941 18.3659H7.54906V27.6157H15.5718V27.6306Z" fill="white"/>
</svg>
