<svg width="34" height="34" viewBox="0 0 34 34" fill="none" xmlns="http://www.w3.org/2000/svg">
<path d="M15.8325 0.885569C13.0726 1.06124 10.1747 2.03494 7.88499 3.55573C5.46751 5.16185 3.5509 7.3301 2.30894 9.85973C1.62918 11.245 1.20497 12.55 0.913643 14.1561C0.693872 15.3607 0.647873 17.1776 0.801202 18.5729C1.00564 20.45 1.70584 22.6986 2.65137 24.5356L2.92225 25.0526L2.2936 26.8946C1.94606 27.9084 1.31741 29.7555 0.893199 31.0002C0.463878 32.25 0.116333 33.304 0.116333 33.3542C0.116333 33.3993 0.182775 33.4646 0.264551 33.4947C0.397436 33.5449 0.412769 33.565 0.387214 33.7206C0.356548 33.8812 0.361659 33.8912 0.479211 33.8561C0.688761 33.7908 5.26307 32.3604 7.19501 31.7481C8.20698 31.4319 9.07585 31.1709 9.12696 31.1709C9.17295 31.1709 9.39273 31.2562 9.6125 31.3666C11.4831 32.2901 13.4764 32.8422 15.5974 33.0329C16.4356 33.1032 18.1427 33.0681 18.9656 32.9526C23.8414 32.2901 27.9915 29.6451 30.547 25.5846C31.3801 24.2595 32.1723 22.4125 32.5965 20.8064C33.0003 19.2655 33.1945 17.3533 33.0871 15.8776C32.8111 11.9577 31.2676 8.4845 28.5844 5.7541C25.9829 3.10903 22.671 1.4728 18.8991 0.975913C18.3471 0.905645 16.4356 0.845416 15.8325 0.885569ZM17.8309 4.31864C19.6555 4.46419 21.153 4.8607 22.7323 5.61859C24.8738 6.65252 26.6678 8.19841 27.9966 10.1659C29.0188 11.6766 29.6475 13.3028 29.8928 15.0796C30.0103 15.9228 30.0103 17.6293 29.8928 18.4926C29.0597 24.5607 23.959 29.2385 17.7696 29.62C15.5872 29.7505 13.5582 29.3991 11.5751 28.5459C11.0282 28.31 10.1236 27.8281 9.84249 27.6274C9.7556 27.5621 9.64316 27.5069 9.59205 27.5069C9.54606 27.5069 8.45742 27.8332 7.17968 28.2347C5.90194 28.6362 4.84908 28.9625 4.84397 28.9524C4.83375 28.9424 5.16085 27.9637 5.56462 26.7791C5.96838 25.5896 6.3006 24.5607 6.3006 24.4804C6.3006 24.4001 6.2086 24.2144 6.07571 24.0287C3.93933 21.0222 3.24424 16.8714 4.28177 13.353C4.51176 12.5901 4.70086 12.1233 5.07396 11.3956C6.09616 9.43311 7.655 7.72159 9.57161 6.46682C11.9891 4.88078 15.0097 4.0978 17.8309 4.31864Z" fill="white"/>
<path d="M11.0691 8.9564C10.9515 8.99154 10.7829 9.07184 10.6858 9.12705C10.4251 9.28766 9.6687 10.0807 9.43359 10.4421C8.68228 11.5914 8.51362 13.1223 8.96338 14.618C9.30582 15.7473 9.72492 16.6105 10.4916 17.775C11.4626 19.2406 12.0913 20.0336 13.0982 21.0524C14.611 22.5833 15.8836 23.4415 17.836 24.2396C19.2773 24.8318 20.3404 25.1681 20.9384 25.2283C21.3524 25.2685 22.257 25.128 22.7885 24.9372C23.5245 24.6762 24.3678 24.094 24.6949 23.6222C25.022 23.1404 25.3593 22.0513 25.4002 21.3285L25.4309 20.8517L25.2725 20.671C25.16 20.5505 24.7 20.2795 23.7698 19.7876C21.5619 18.6232 21.2808 18.5128 20.9333 18.6935C20.8464 18.7336 20.5193 19.0599 20.2126 19.4112C19.3029 20.4502 19.1138 20.6308 18.9604 20.6308C18.7662 20.6308 17.4936 19.9934 16.9007 19.6019C16.2107 19.1402 15.761 18.7688 15.1936 18.1916C14.519 17.5039 13.7881 16.5202 13.3793 15.7523L13.2873 15.5716L13.6552 15.1751C14.1408 14.6681 14.3401 14.362 14.5343 13.83C14.7337 13.2879 14.7234 13.1223 14.4321 12.3744C14.1715 11.7069 13.9619 11.1548 13.599 10.1961C13.3026 9.40812 13.0828 9.0869 12.7762 8.99154C12.4848 8.90621 11.3093 8.88112 11.0691 8.9564Z" fill="white"/>
</svg>
